<?xml version="1.0" encoding="UTF-8"?>
<!DOCTYPE svg PUBLIC "-//W3C//DTD SVG 1.1//EN" "http://www.w3.org/Graphics/SVG/1.1/DTD/svg11.dtd">
<!-- Creator: CorelDRAW 2019 (64-Bit) -->
<svg xmlns="http://www.w3.org/2000/svg" xml:space="preserve" width="250px" height="100px" version="1.1" style="shape-rendering:geometricPrecision; text-rendering:geometricPrecision; image-rendering:optimizeQuality; fill-rule:evenodd; clip-rule:evenodd"
viewBox="0 0 250 100"
 xmlns:xlink="http://www.w3.org/1999/xlink"
 xmlns:xodm="http://www.corel.com/coreldraw/odm/2003">
 <defs>
  <style type="text/css">
   <![CDATA[
    .fil0 {fill:#FEFEFE}
    .fil8 {fill:#BDBFC1}
    .fil1 {fill:#373435}
    .fil3 {fill:#EEC038}
    .fil6 {fill:#C5383F}
    .fil5 {fill:#8D9B4B}
    .fil9 {fill:#7D7D7E}
    .fil4 {fill:#00ABE2}
    .fil7 {fill:#3A5979}
    .fil2 {fill:#373435;fill-rule:nonzero}
    .fil10 {fill:#C5383F;fill-rule:nonzero}
   ]]>
  </style>
 </defs>
 <g id="Layer_x0020_1">
  <metadata id="CorelCorpID_0Corel-Layer"/>
  <rect class="fil0" x="0.49" y="1.19" width="250" height="100"/>
  <path class="fil1" d="M49.84 66.39c-11.87,0.06 -22.29,-6.01 -26.54,-17.43 -6.31,-20.19 8.66,-36.43 26.17,-39.46 0,7.45 0,14.83 0,22.28 -8.46,-0.08 -18.05,6.39 -18.01,17.4 0.09,9.18 7.84,16.65 18.37,16.77l0.01 0.44z"/>
  <path class="fil1" d="M30.92 48.88c-0.07,-11.05 6.45,-20.75 18.71,-24.71 21.68,-5.88 39.11,8.06 42.37,24.37 -8,0 -15.93,0 -23.92,0 0.08,-7.88 -6.86,-16.81 -18.69,-16.78 -9.85,0.09 -17.87,7.31 -18,17.12l-0.47 0z"/>
  <path class="fil1" d="M49.72 31.27c11.86,-0.07 22.28,6 26.53,17.42 6.31,20.19 -8.66,36.43 -26.17,39.46 0,-7.44 0,-14.83 0,-22.28 8.46,0.08 18.05,-6.39 18.02,-17.4 -0.1,-9.18 -7.85,-16.65 -18.38,-16.77l0 -0.43z"/>
  <path class="fil1" d="M68.63 48.77c0.07,11.05 -6.45,20.76 -18.71,24.72 -21.68,5.87 -39.11,-8.07 -42.36,-24.38 7.99,0 15.92,0 23.91,0 -0.08,7.88 6.87,16.81 18.69,16.78 9.85,-0.08 17.87,-7.3 18,-17.11l0.47 -0.01z"/>
  <path class="fil1" d="M30.91 49.1c0.01,-12.29 7.74,-21.67 18.62,-24.9 0,2.5 0,5 0,7.5 -10.78,0.27 -18.43,8.52 -18.05,17.41l-0.57 -0.01z"/>
  <path class="fil1" d="M49.54 31.16c13.2,0 23.27,7.21 26.74,17.34 -2.68,0 -5.37,0 -8.05,0 -0.29,-10.04 -9.15,-17.16 -18.69,-16.81l0 -0.53z"/>
  <path class="fil1" d="M68.81 48.51c-0.01,12.29 -7.74,21.68 -18.62,24.91 0,-2.5 0,-5.01 0,-7.51 10.78,-0.26 18.43,-8.52 18.05,-17.41l0.57 0.01z"/>
  <path class="fil1" d="M50.18 66.45c-13.2,0 -23.27,-7.2 -26.74,-17.34 2.68,0 5.37,0 8.05,0 0.29,10.04 9.15,17.17 18.69,16.81l0 0.53z"/>
  <path class="fil1" d="M49.85 31.43c10.34,0 18.72,7.81 18.72,17.44 0,9.63 -8.38,17.43 -18.72,17.43 -10.34,0 -18.72,-7.8 -18.72,-17.43 0,-9.63 8.38,-17.44 18.72,-17.44zm0.16 1.1l0 5.04c1.95,-0.06 3.9,-0.65 5.61,-1.78 -1.57,-1.97 -3.51,-3.17 -5.61,-3.26zm0 5.67l0 10.41 9.51 0c-0.03,-4.94 -1.38,-9.34 -3.5,-12.29 -1.85,1.2 -3.93,1.83 -6.01,1.88zm10.47 10.41l7.26 0c-0.11,-6.19 -3.83,-11.56 -9.28,-14.35 -0.55,0.6 -1.14,1.13 -1.77,1.59 2.29,3.08 3.76,7.65 3.79,12.76zm7.26 0.48l-7.26 0c-0.05,5.07 -1.52,9.61 -3.8,12.67 0.65,0.48 1.28,1.04 1.85,1.68 5.43,-2.81 9.12,-8.18 9.21,-14.35zm-8.22 0l-9.51 0 0 10.34c2.08,0.05 4.15,0.68 6,1.86 2.1,-2.93 3.46,-7.3 3.51,-12.2zm-9.51 10.98l0 4.99c2.1,-0.09 4.03,-1.28 5.6,-3.24 -1.71,-1.11 -3.66,-1.7 -5.6,-1.75zm-0.51 4.99l0 -5c-1.97,0.05 -3.91,0.64 -5.59,1.8 1.57,1.94 3.49,3.12 5.59,3.2zm0 -5.63l0 -10.34 -9.54 0c0.05,4.92 1.42,9.32 3.55,12.25 1.83,-1.23 3.9,-1.86 5.99,-1.91zm-10.5 -10.34l-7.04 0c0.09,6.16 3.77,11.53 9.19,14.34 0.53,-0.61 1.1,-1.15 1.7,-1.61 -2.31,-3.06 -3.79,-7.62 -3.85,-12.73zm-7.04 -0.48l7.04 0c0.04,-5.13 1.51,-9.72 3.82,-12.8 -0.57,-0.44 -1.12,-0.95 -1.63,-1.53 -5.43,2.8 -9.13,8.16 -9.23,14.33zm8 0l9.54 0 0 -10.4c-2.1,-0.05 -4.18,-0.68 -6.02,-1.91 -2.12,2.94 -3.49,7.36 -3.52,12.31zm9.54 -11.04l0 -5.04c-2.11,0.08 -4.05,1.28 -5.62,3.24 1.68,1.17 3.64,1.77 5.62,1.8zm3 -5.18c1.87,0.26 3.65,0.79 5.29,1.54 -0.47,0.52 -0.98,0.99 -1.51,1.4 -1.11,-1.35 -2.39,-2.36 -3.78,-2.94zm5.37 31.38c-1.83,0.85 -3.83,1.42 -5.95,1.65 1.61,-0.53 3.09,-1.62 4.34,-3.14 0.57,0.43 1.11,0.93 1.61,1.49zm-10.43 1.61c-1.99,-0.25 -3.88,-0.81 -5.61,-1.62 0.44,-0.53 0.92,-1 1.44,-1.42 1.21,1.45 2.63,2.51 4.17,3.04zm-5.57 -31.43c1.55,-0.72 3.23,-1.24 5,-1.51 -1.34,0.58 -2.57,1.56 -3.64,2.85 -0.48,-0.4 -0.94,-0.84 -1.36,-1.34z"/>
  <path class="fil2" d="M124.49 51.15c0,0.93 -0.22,1.83 -0.66,2.68 -0.43,0.84 -1.09,1.59 -1.97,2.22 -0.88,0.64 -1.96,1.14 -3.24,1.5 -1.28,0.36 -2.75,0.54 -4.41,0.54 -0.78,0 -1.61,-0.04 -2.49,-0.11 -0.88,-0.08 -1.74,-0.2 -2.58,-0.36 -0.85,-0.17 -1.67,-0.37 -2.46,-0.59 -0.8,-0.23 -1.49,-0.5 -2.07,-0.8l1.46 -5.04c1.33,0.64 2.71,1.13 4.14,1.48 1.43,0.35 2.81,0.52 4.14,0.52 2.05,0 3.08,-0.58 3.08,-1.73 0,-0.6 -0.32,-1.05 -0.96,-1.34 -0.63,-0.28 -1.6,-0.56 -2.9,-0.83 -1.3,-0.25 -2.48,-0.55 -3.55,-0.91 -1.08,-0.37 -1.99,-0.82 -2.73,-1.36 -0.75,-0.55 -1.33,-1.2 -1.73,-1.96 -0.41,-0.75 -0.61,-1.65 -0.61,-2.68 0,-1 0.22,-1.9 0.68,-2.72 0.45,-0.82 1.1,-1.53 1.95,-2.13 0.84,-0.61 1.89,-1.08 3.14,-1.41 1.25,-0.33 2.66,-0.5 4.22,-0.5 0.75,0 1.54,0.04 2.39,0.14 0.84,0.09 1.68,0.22 2.51,0.38 0.83,0.17 1.61,0.36 2.36,0.59 0.75,0.23 1.4,0.46 1.95,0.71l-1.51 4.99c-1.3,-0.61 -2.66,-1.07 -4.07,-1.41 -1.41,-0.33 -2.66,-0.5 -3.73,-0.5 -1.85,0 -2.78,0.53 -2.78,1.59 0,0.58 0.34,1.01 1.03,1.3 0.68,0.28 1.64,0.55 2.87,0.79 1.34,0.27 2.53,0.59 3.59,0.95 1.05,0.37 1.95,0.81 2.68,1.34 0.73,0.53 1.29,1.18 1.68,1.93 0.39,0.76 0.58,1.67 0.58,2.73zm11.56 -12.67c0.71,-0.7 1.58,-1.35 2.6,-1.95 1.03,-0.61 2.27,-0.91 3.73,-0.91 1.4,0 2.69,0.26 3.88,0.77 1.18,0.52 2.21,1.25 3.07,2.2 0.86,0.96 1.53,2.11 2.02,3.45 0.49,1.35 0.73,2.87 0.73,4.57 0,1.75 -0.3,3.33 -0.9,4.74 -0.6,1.41 -1.42,2.61 -2.46,3.61 -1.04,1 -2.25,1.76 -3.63,2.29 -1.38,0.53 -2.84,0.8 -4.36,0.8 -0.75,0 -1.54,-0.06 -2.37,-0.18 -0.83,-0.12 -1.6,-0.29 -2.31,-0.5l0 13.73 -7.51 -4.29 0 -30.97 7.51 -0.04 0 2.68zm0 13.48c0.94,0.58 2.09,0.87 3.46,0.87 1.62,0 2.87,-0.54 3.75,-1.61 0.88,-1.08 1.32,-2.49 1.32,-4.25 0,-1.82 -0.4,-3.23 -1.2,-4.25 -0.79,-1.01 -1.97,-1.52 -3.53,-1.52 -0.85,0 -1.56,0.14 -2.15,0.41 -0.58,0.27 -1.13,0.62 -1.65,1.05l0 9.3zm55.03 5.45l-7.51 0 0 -21.63 7.51 0.02 0 3.09c1.33,-2.18 3.15,-3.27 5.46,-3.27 1.3,0 2.55,0.29 3.75,0.86l-1.51 6.18c-0.91,-0.43 -1.85,-0.64 -2.83,-0.64 -0.94,0 -1.82,0.24 -2.63,0.7 -0.81,0.47 -1.56,1.27 -2.24,2.39l0 12.3zm27.15 -0.09c-0.88,0.24 -1.73,0.43 -2.56,0.57 -0.83,0.14 -1.81,0.2 -2.95,0.2 -2.79,0 -4.92,-0.59 -6.36,-1.77 -1.45,-1.18 -2.11,-3.15 -1.98,-5.9l0.35 -8.04 -3.42 -0.54 0.15 -4.45 3.41 -1.04 0.1 -12.11 7.26 -2.96 -0.05 15.29 5.66 0 -0.15 5.5 -6.04 0 -0.25 7.58c-0.06,0.97 0.18,1.67 0.73,2.11 0.56,0.44 1.3,0.66 2.25,0.66 0.45,0 0.93,-0.06 1.43,-0.16 0.51,-0.11 1.02,-0.24 1.54,-0.39l0.88 5.45zm22.13 -6.17c0,0.93 -0.22,1.83 -0.66,2.68 -0.44,0.84 -1.1,1.59 -1.98,2.22 -0.87,0.64 -1.95,1.14 -3.24,1.5 -1.28,0.36 -2.75,0.54 -4.41,0.54 -0.78,0 -1.61,-0.04 -2.48,-0.11 -0.88,-0.08 -1.74,-0.2 -2.59,-0.36 -0.84,-0.17 -1.66,-0.37 -2.46,-0.59 -0.79,-0.23 -1.49,-0.5 -2.07,-0.8l1.46 -5.04c1.33,0.64 2.72,1.13 4.15,1.48 1.43,0.35 2.81,0.52 4.14,0.52 2.05,0 3.07,-0.58 3.07,-1.73 0,-0.6 -0.32,-1.05 -0.95,-1.34 -0.63,-0.28 -1.6,-0.56 -2.9,-0.83 -1.3,-0.25 -2.49,-0.55 -3.56,-0.91 -1.07,-0.37 -1.98,-0.82 -2.73,-1.36 -0.75,-0.55 -1.32,-1.2 -1.73,-1.96 -0.41,-0.75 -0.61,-1.65 -0.61,-2.68 0,-1 0.23,-1.9 0.68,-2.72 0.46,-0.82 1.11,-1.53 1.95,-2.13 0.85,-0.61 1.9,-1.08 3.15,-1.41 1.25,-0.33 2.65,-0.5 4.21,-0.5 0.75,0 1.55,0.04 2.39,0.14 0.85,0.09 1.68,0.22 2.51,0.38 0.83,0.17 1.62,0.36 2.37,0.59 0.74,0.23 1.39,0.46 1.95,0.71l-1.51 4.99c-1.3,-0.61 -2.66,-1.07 -4.08,-1.41 -1.41,-0.33 -2.65,-0.5 -3.72,-0.5 -1.86,0 -2.78,0.53 -2.78,1.59 0,0.58 0.34,1.01 1.02,1.3 0.68,0.28 1.64,0.55 2.88,0.79 1.33,0.27 2.52,0.59 3.58,0.95 1.06,0.37 1.95,0.81 2.68,1.34 0.73,0.53 1.29,1.18 1.68,1.93 0.39,0.76 0.59,1.67 0.59,2.73z"/>
  <path class="fil1" d="M167.05 33.88c7.64,0 13.84,5.78 13.84,12.9 0,7.12 -6.2,12.89 -13.84,12.89 -7.64,0 -13.84,-5.77 -13.84,-12.89 0,-7.12 6.2,-12.9 13.84,-12.9z"/>
  <path class="fil1" d="M167.05 33.78c7.71,0 13.95,5.82 13.95,13 0,7.17 -6.24,12.99 -13.95,12.99 -7.71,0 -13.96,-5.82 -13.96,-12.99 0,-7.18 6.25,-13 13.96,-13zm0.12 0.82l0 3.76c1.46,-0.05 2.91,-0.49 4.18,-1.33 -1.17,-1.47 -2.61,-2.36 -4.18,-2.43zm0 4.23l0 7.75 7.09 0c-0.02,-3.67 -1.03,-6.96 -2.61,-9.16 -1.38,0.9 -2.93,1.37 -4.48,1.41zm7.81 7.75l5.4 0c-0.07,-4.61 -2.85,-8.61 -6.91,-10.69 -0.41,0.44 -0.85,0.84 -1.32,1.19 1.71,2.29 2.8,5.69 2.83,9.5zm5.4 0.36l-5.4 0c-0.04,3.78 -1.14,7.17 -2.84,9.44 0.49,0.37 0.95,0.78 1.38,1.26 4.05,-2.1 6.8,-6.1 6.86,-10.7zm-6.12 0l-7.09 0 0 7.71c1.55,0.04 3.09,0.51 4.47,1.39 1.57,-2.18 2.58,-5.44 2.62,-9.1zm-7.09 8.18l0 3.73c1.56,-0.07 3,-0.96 4.17,-2.42 -1.27,-0.83 -2.72,-1.27 -4.17,-1.31zm-0.38 3.73l0 -3.73c-1.47,0.03 -2.92,0.47 -4.17,1.34 1.17,1.45 2.61,2.32 4.17,2.39zm0 -4.2l0 -7.71 -7.11 0c0.04,3.67 1.06,6.95 2.64,9.13 1.37,-0.91 2.91,-1.38 4.47,-1.42zm-7.83 -7.71l-5.24 0c0.06,4.6 2.81,8.59 6.85,10.69 0.39,-0.45 0.81,-0.85 1.26,-1.2 -1.72,-2.28 -2.83,-5.68 -2.87,-9.49zm-5.24 -0.36l5.24 0c0.03,-3.82 1.13,-7.24 2.85,-9.53 -0.43,-0.34 -0.83,-0.72 -1.21,-1.15 -4.05,2.09 -6.81,6.08 -6.88,10.68zm5.96 0l7.11 0 0 -7.75c-1.57,-0.03 -3.12,-0.5 -4.49,-1.42 -1.58,2.19 -2.6,5.49 -2.62,9.17zm7.11 -8.22l0 -3.76c-1.57,0.06 -3.02,0.95 -4.19,2.42 1.26,0.87 2.71,1.31 4.19,1.34zm2.23 -3.87c1.4,0.19 2.73,0.59 3.95,1.15 -0.35,0.39 -0.73,0.74 -1.13,1.04 -0.82,-1 -1.78,-1.76 -2.82,-2.19zm4.01 23.39c-1.36,0.64 -2.86,1.06 -4.43,1.23 1.19,-0.39 2.29,-1.2 3.23,-2.33 0.43,0.32 0.83,0.69 1.2,1.1zm-7.77 1.21c-1.49,-0.19 -2.9,-0.6 -4.19,-1.21 0.33,-0.4 0.69,-0.75 1.07,-1.06 0.91,1.08 1.97,1.87 3.12,2.27zm-4.16 -23.43c1.16,-0.54 2.41,-0.93 3.73,-1.13 -1,0.43 -1.91,1.16 -2.71,2.13 -0.36,-0.3 -0.7,-0.63 -1.02,-1z"/>
  <path class="fil3" d="M49.08 65.92c-11.86,0.06 -22.29,-6.01 -26.54,-17.43 -6.3,-20.19 8.66,-36.43 26.17,-39.46 0,7.45 0,14.83 0,22.28 -8.46,-0.08 -18.05,6.39 -18.01,17.41 0.09,9.17 7.84,16.64 18.37,16.76l0.01 0.44z"/>
  <path class="fil4" d="M30.17 48.41c-0.08,-11.05 6.44,-20.75 18.71,-24.71 21.67,-5.88 39.11,8.06 42.36,24.37 -8,0 -15.93,0 -23.92,0 0.08,-7.88 -6.86,-16.81 -18.69,-16.78 -9.85,0.09 -17.87,7.31 -18,17.12l-0.46 0z"/>
  <path class="fil5" d="M48.96 30.8c11.86,-0.07 22.28,6 26.53,17.42 6.31,20.19 -8.65,36.43 -26.17,39.46 0,-7.44 0,-14.83 0,-22.28 8.46,0.08 18.05,-6.39 18.02,-17.4 -0.09,-9.18 -7.85,-16.65 -18.37,-16.77l-0.01 -0.43z"/>
  <path class="fil6" d="M67.87 48.3c0.07,11.05 -6.45,20.76 -18.71,24.72 -21.67,5.87 -39.11,-8.07 -42.36,-24.38 7.99,0 15.92,0 23.92,0 -0.09,7.88 6.86,16.81 18.68,16.78 9.85,-0.08 17.87,-7.3 18,-17.11l0.47 -0.01z"/>
  <path class="fil7" d="M30.15 48.63c0.01,-12.29 7.74,-21.67 18.62,-24.9 0,2.5 0,5 0,7.5 -10.77,0.27 -18.43,8.52 -18.05,17.41l-0.57 -0.01z"/>
  <path class="fil7" d="M48.78 30.69c13.2,0 23.27,7.21 26.74,17.34 -2.68,0 -5.37,0 -8.05,0 -0.29,-10.04 -9.15,-17.16 -18.69,-16.81l0 -0.53z"/>
  <path class="fil7" d="M68.05 48.04c-0.01,12.29 -7.74,21.68 -18.62,24.91 0,-2.5 0,-5 0,-7.51 10.78,-0.26 18.43,-8.52 18.05,-17.4l0.57 0z"/>
  <path class="fil7" d="M49.42 65.99c-13.2,-0.01 -23.27,-7.21 -26.74,-17.35 2.69,0 5.37,0 8.06,0 0.28,10.04 9.14,17.17 18.69,16.81l-0.01 0.54z"/>
  <path class="fil8" d="M49.09 30.96c10.34,0 18.72,7.81 18.72,17.44 0,9.63 -8.38,17.43 -18.72,17.43 -10.34,0 -18.72,-7.8 -18.72,-17.43 0,-9.63 8.38,-17.44 18.72,-17.44zm0.16 1.1l0 5.04c1.95,-0.06 3.9,-0.65 5.61,-1.78 -1.57,-1.97 -3.5,-3.17 -5.61,-3.26zm0 5.67l0 10.41 9.51 0c-0.03,-4.94 -1.38,-9.34 -3.5,-12.29 -1.84,1.2 -3.92,1.83 -6.01,1.88zm10.47 10.41l7.26 0c-0.1,-6.19 -3.83,-11.56 -9.28,-14.35 -0.55,0.6 -1.14,1.13 -1.77,1.6 2.3,3.07 3.76,7.64 3.79,12.75zm7.26 0.48l-7.26 0c-0.05,5.07 -1.52,9.61 -3.8,12.67 0.66,0.48 1.28,1.04 1.85,1.68 5.43,-2.81 9.12,-8.18 9.21,-14.35zm-8.22 0l-9.51 0 0 10.34c2.08,0.05 4.15,0.68 6,1.86 2.1,-2.93 3.46,-7.3 3.51,-12.2zm-9.51 10.98l0 4.99c2.1,-0.09 4.03,-1.28 5.6,-3.24 -1.71,-1.11 -3.65,-1.7 -5.6,-1.75zm-0.51 4.99l0 -5c-1.97,0.05 -3.91,0.64 -5.59,1.8 1.57,1.94 3.5,3.12 5.59,3.2zm0 -5.63l0 -10.34 -9.54 0c0.06,4.92 1.42,9.32 3.55,12.25 1.83,-1.23 3.9,-1.86 5.99,-1.91zm-10.5 -10.34l-7.04 0c0.09,6.17 3.77,11.53 9.19,14.34 0.53,-0.61 1.1,-1.15 1.7,-1.61 -2.31,-3.06 -3.79,-7.62 -3.85,-12.73zm-7.04 -0.48l7.04 0c0.04,-5.13 1.51,-9.72 3.82,-12.79 -0.57,-0.45 -1.12,-0.96 -1.62,-1.54 -5.44,2.8 -9.14,8.16 -9.24,14.33zm8 0l9.54 0 0 -10.4c-2.1,-0.05 -4.18,-0.68 -6.02,-1.91 -2.12,2.94 -3.48,7.36 -3.52,12.31zm9.54 -11.04l0 -5.04c-2.11,0.08 -4.05,1.28 -5.62,3.24 1.69,1.17 3.64,1.77 5.62,1.8zm3 -5.18c1.87,0.26 3.65,0.79 5.29,1.54 -0.47,0.52 -0.97,0.99 -1.51,1.4 -1.11,-1.35 -2.39,-2.36 -3.78,-2.94zm5.37 31.38c-1.83,0.85 -3.83,1.42 -5.95,1.65 1.61,-0.53 3.09,-1.62 4.35,-3.14 0.57,0.44 1.1,0.93 1.6,1.49zm-10.43 1.61c-1.99,-0.25 -3.88,-0.81 -5.61,-1.61 0.44,-0.54 0.92,-1.01 1.44,-1.43 1.21,1.46 2.63,2.51 4.17,3.04zm-5.57 -31.43c1.55,-0.72 3.23,-1.24 5,-1.51 -1.33,0.58 -2.56,1.56 -3.64,2.85 -0.48,-0.39 -0.94,-0.84 -1.36,-1.34z"/>
  <path class="fil2" d="M42.74 44.95l-1.7 1.6 -5.14 0 0 3.94 4.26 0 0 -1.25 -1.58 0 -1.56 -1.45 5.45 0 0 2.7 -1.71 1.59 -5.43 0 -1.74 -1.59 0 -3.91 1.74 -1.63 7.41 0zm11.13 4.93l-1.74 2.19 -8.88 0 1.7 -1.58 5.83 0 0.54 -0.61 -0.54 -0.64 -5.84 0 -1.69 -2.1 1.74 -2.19 8.88 0 -1.71 1.58 -5.82 0 -0.56 0.61 0.56 0.64 5.84 0 1.69 2.1zm10.41 -4.93l-1.7 1.6 -5.14 0 0 3.94 6.57 0 -1.72 1.59 -5.42 0 -1.74 -1.59 0 -3.91 1.74 -1.63 7.41 0z"/>
  <path class="fil9" d="M108.14 75.28l134.41 0 0 10.32 -134.41 0 0 -10.32zm20.3 6.74c0,0.74 -0.19,1.34 -0.58,1.78 -0.38,0.44 -1,0.65 -1.84,0.65 -0.37,0 -0.71,-0.04 -1.03,-0.12 -0.31,-0.09 -0.58,-0.2 -0.79,-0.33l0.16 -1.11c0.23,0.15 0.48,0.27 0.75,0.37 0.28,0.1 0.54,0.15 0.79,0.15 0.45,0 0.77,-0.12 0.96,-0.36 0.2,-0.25 0.29,-0.61 0.29,-1.11l0 -4.8 1.29 0 0 4.88zm10.25 -1.34c0,0.55 -0.09,1.05 -0.29,1.51 -0.19,0.46 -0.46,0.86 -0.81,1.2 -0.35,0.34 -0.76,0.6 -1.24,0.78 -0.47,0.19 -0.99,0.28 -1.56,0.28 -0.56,0 -1.08,-0.08 -1.56,-0.25 -0.47,-0.17 -0.89,-0.42 -1.23,-0.75 -0.35,-0.32 -0.62,-0.71 -0.82,-1.17 -0.19,-0.46 -0.29,-0.98 -0.29,-1.55 0,-0.54 0.1,-1.05 0.29,-1.51 0.2,-0.46 0.47,-0.85 0.81,-1.19 0.34,-0.33 0.75,-0.59 1.23,-0.77 0.49,-0.19 1.01,-0.28 1.57,-0.28 0.57,0 1.09,0.08 1.56,0.25 0.48,0.17 0.89,0.42 1.24,0.74 0.35,0.31 0.62,0.7 0.81,1.16 0.2,0.46 0.29,0.98 0.29,1.55zm-1.3 0.05c0,-0.83 -0.24,-1.49 -0.72,-1.98 -0.48,-0.5 -1.12,-0.75 -1.91,-0.75 -0.38,0 -0.73,0.07 -1.05,0.2 -0.32,0.12 -0.59,0.3 -0.82,0.54 -0.23,0.24 -0.4,0.52 -0.53,0.85 -0.12,0.32 -0.18,0.69 -0.18,1.09 0,0.84 0.24,1.51 0.72,2 0.48,0.5 1.12,0.75 1.91,0.75 0.78,0 1.4,-0.25 1.88,-0.74 0.47,-0.49 0.7,-1.14 0.7,-1.96zm6.93 0.77l0 2.79 -1.29 0 0 -2.8 -2.66 -4.35 1.39 0 1.92 3.21 1.89 -3.21 1.41 0 -2.66 4.36zm16.67 -0.82c0,0.55 -0.09,1.05 -0.29,1.51 -0.19,0.46 -0.47,0.86 -0.81,1.2 -0.35,0.34 -0.76,0.6 -1.24,0.78 -0.47,0.19 -0.99,0.28 -1.56,0.28 -0.56,0 -1.08,-0.08 -1.56,-0.25 -0.47,-0.17 -0.89,-0.42 -1.23,-0.75 -0.35,-0.32 -0.62,-0.71 -0.82,-1.17 -0.19,-0.46 -0.29,-0.98 -0.29,-1.55 0,-0.54 0.1,-1.05 0.29,-1.51 0.2,-0.46 0.47,-0.85 0.81,-1.19 0.34,-0.33 0.75,-0.59 1.23,-0.77 0.49,-0.19 1.01,-0.28 1.57,-0.28 0.57,0 1.09,0.08 1.56,0.25 0.48,0.17 0.89,0.42 1.24,0.74 0.34,0.31 0.62,0.7 0.81,1.16 0.2,0.46 0.29,0.98 0.29,1.55zm-1.3 0.05c0,-0.83 -0.24,-1.49 -0.72,-1.98 -0.48,-0.5 -1.12,-0.75 -1.91,-0.75 -0.38,0 -0.73,0.07 -1.05,0.2 -0.32,0.12 -0.59,0.3 -0.82,0.54 -0.23,0.24 -0.4,0.52 -0.53,0.85 -0.12,0.32 -0.18,0.69 -0.18,1.09 0,0.84 0.24,1.51 0.72,2 0.48,0.5 1.12,0.75 1.91,0.75 0.78,0 1.41,-0.25 1.88,-0.74 0.47,-0.49 0.7,-1.14 0.7,-1.96zm3.92 -3.59l4.92 0 0 1.08 -3.65 0 0 2.07 3.02 0 0 1.09 -3.02 0 0 2.91 -1.27 0 0 -7.15zm17.36 2.35c0,0.84 -0.28,1.46 -0.85,1.88 -0.56,0.41 -1.35,0.62 -2.35,0.62l-1.09 0 0 2.3 -1.29 0 0 -7.15 2.49 0c0.52,0 0.98,0.06 1.37,0.18 0.39,0.11 0.71,0.27 0.96,0.48 0.26,0.21 0.45,0.45 0.57,0.74 0.13,0.29 0.19,0.61 0.19,0.95zm-1.3 0.04c0,-0.88 -0.63,-1.33 -1.89,-1.33l-1.12 0 0 2.76 1.19 -0.03c1.21,-0.03 1.82,-0.5 1.82,-1.4zm3.8 4.76l0 -7.15 1.29 0 0 6.07 3.64 0 0 1.08 -4.93 0zm13.59 0l-1.3 0 -0.68 -1.77 -3.21 0 -0.66 1.77 -1.34 0 2.87 -7.15 1.52 0 2.8 7.15zm-3.58 -6.04l-1.22 3.22 2.44 0 -1.22 -3.22zm8.47 3.25l0 2.79 -1.28 0 0 -2.8 -2.67 -4.35 1.4 0 1.92 3.21 1.88 -3.21 1.42 0 -2.67 4.36zm4.88 2.79l0 -7.15 1.28 0 0 7.15 -1.28 0zm9.55 -7.15l1.24 0 0 7.22 -1.38 0 -3.9 -5.48 0.03 5.41 -1.24 0 0 -7.15 1.42 0 3.87 5.41 -0.04 -5.41zm5.11 3.54c0,0.86 0.24,1.53 0.72,2.02 0.48,0.48 1.13,0.73 1.94,0.73 0.3,0 0.59,-0.04 0.85,-0.1 0.27,-0.06 0.51,-0.14 0.71,-0.24l0 -1.5 -1.97 0 0 -1.07 3.19 0 0 3.27c-0.41,0.23 -0.87,0.4 -1.36,0.51 -0.5,0.1 -0.98,0.15 -1.44,0.15 -0.57,0 -1.1,-0.08 -1.58,-0.25 -0.48,-0.17 -0.9,-0.42 -1.24,-0.74 -0.35,-0.31 -0.62,-0.71 -0.81,-1.17 -0.19,-0.47 -0.28,-0.99 -0.28,-1.56 0,-0.58 0.09,-1.09 0.28,-1.55 0.19,-0.46 0.46,-0.85 0.81,-1.18 0.34,-0.33 0.76,-0.58 1.24,-0.76 0.48,-0.18 1.01,-0.26 1.58,-0.26 0.47,0 0.95,0.05 1.43,0.15 0.48,0.11 0.89,0.26 1.22,0.45l-0.42 1.08c-0.31,-0.21 -0.66,-0.36 -1.05,-0.47 -0.38,-0.11 -0.77,-0.17 -1.16,-0.17 -0.8,0 -1.45,0.24 -1.93,0.71 -0.49,0.48 -0.73,1.13 -0.73,1.95z"/>
  <path class="fil10" d="M106.59 25.81c0,0.69 0.16,1.23 0.49,1.62 0.33,0.39 0.86,0.59 1.59,0.59 0.26,0 0.5,-0.02 0.72,-0.05 0.22,-0.04 0.4,-0.08 0.54,-0.14l0 -0.98 -1.86 0 0 -1.58 3.88 0 0 3.81c-0.43,0.2 -0.93,0.36 -1.52,0.5 -0.59,0.14 -1.2,0.21 -1.84,0.21 -0.67,0 -1.28,-0.08 -1.83,-0.24 -0.55,-0.17 -1.02,-0.42 -1.41,-0.75 -0.39,-0.33 -0.69,-0.74 -0.9,-1.23 -0.21,-0.49 -0.32,-1.05 -0.32,-1.7 0,-0.62 0.11,-1.17 0.33,-1.66 0.21,-0.49 0.52,-0.9 0.91,-1.24 0.4,-0.33 0.87,-0.59 1.42,-0.78 0.56,-0.18 1.16,-0.27 1.82,-0.27 0.59,0 1.18,0.06 1.78,0.18 0.59,0.12 1.07,0.27 1.42,0.46l-0.73 1.81c-0.84,-0.38 -1.6,-0.57 -2.31,-0.57 -0.66,0 -1.2,0.17 -1.59,0.51 -0.4,0.34 -0.59,0.84 -0.59,1.5zm15.45 0.02c0,0.6 -0.12,1.15 -0.35,1.64 -0.22,0.49 -0.54,0.91 -0.93,1.25 -0.4,0.34 -0.86,0.61 -1.38,0.79 -0.52,0.19 -1.09,0.28 -1.69,0.28 -0.6,0 -1.16,-0.08 -1.67,-0.24 -0.52,-0.17 -0.98,-0.42 -1.37,-0.74 -0.39,-0.33 -0.69,-0.74 -0.92,-1.23 -0.22,-0.48 -0.33,-1.05 -0.33,-1.71 0,-0.61 0.11,-1.16 0.34,-1.65 0.23,-0.48 0.54,-0.9 0.94,-1.24 0.39,-0.34 0.85,-0.6 1.38,-0.79 0.52,-0.18 1.08,-0.27 1.67,-0.27 0.6,0 1.16,0.08 1.68,0.24 0.53,0.16 0.98,0.41 1.37,0.73 0.39,0.33 0.7,0.74 0.92,1.23 0.22,0.48 0.34,1.05 0.34,1.71zm-2.53 0.04c0,-0.64 -0.15,-1.16 -0.45,-1.56 -0.3,-0.4 -0.75,-0.6 -1.37,-0.6 -0.6,0 -1.05,0.2 -1.34,0.59 -0.3,0.4 -0.44,0.9 -0.44,1.53 0,0.64 0.15,1.16 0.45,1.57 0.31,0.4 0.77,0.61 1.38,0.61 0.61,0 1.05,-0.2 1.34,-0.6 0.29,-0.4 0.43,-0.91 0.43,-1.54zm11.25 -1.1c0,0.93 -0.33,1.63 -0.99,2.1 -0.66,0.47 -1.56,0.7 -2.72,0.7l-0.82 0 0 2.01 -2.56 0 0 -7.46 3.51 0c1.16,0 2.04,0.24 2.66,0.71 0.61,0.47 0.92,1.12 0.92,1.94zm-2.44 0.06c0,-0.35 -0.13,-0.62 -0.38,-0.8 -0.25,-0.18 -0.61,-0.27 -1.08,-0.27l-0.73 0 0 2.25 0.67 -0.03c0.51,-0.02 0.89,-0.12 1.14,-0.29 0.25,-0.18 0.38,-0.46 0.38,-0.86zm11.61 4.75l-2.49 0 -0.52 -1.39 -2.74 0 -0.45 1.39 -2.54 0 2.74 -7.46 3.31 0 2.69 7.46zm-4.38 -5.87l-0.97 2.91 1.94 0 -0.97 -2.91zm5.69 5.87l0 -7.46 2.56 0 0 5.53 3.57 0 0 1.93 -6.13 0zm15.66 0l-2.49 0 -0.52 -1.39 -2.74 0 -0.45 1.39 -2.54 0 2.74 -7.46 3.31 0 2.69 7.46zm-4.38 -5.87l-0.97 2.91 1.94 0 -0.97 -2.91zm11.31 -1.59l2.34 0 0 7.53 -2.68 0 -2.97 -4.26 0 4.19 -2.3 0 0 -7.46 2.67 0 2.95 4.2 -0.01 -4.2z"/>
  <path class="fil2" d="M123.32 50.42c0,0.94 -0.22,1.83 -0.66,2.68 -0.44,0.84 -1.1,1.59 -1.98,2.22 -0.87,0.64 -1.95,1.14 -3.24,1.5 -1.28,0.36 -2.75,0.55 -4.41,0.55 -0.78,0 -1.61,-0.04 -2.48,-0.12 -0.88,-0.08 -1.74,-0.2 -2.59,-0.36 -0.84,-0.17 -1.66,-0.36 -2.46,-0.59 -0.8,-0.23 -1.49,-0.49 -2.07,-0.8l1.46 -5.04c1.33,0.64 2.71,1.13 4.14,1.48 1.43,0.35 2.81,0.52 4.15,0.52 2.05,0 3.07,-0.57 3.07,-1.72 0,-0.61 -0.32,-1.06 -0.95,-1.34 -0.64,-0.29 -1.6,-0.57 -2.9,-0.84 -1.3,-0.25 -2.49,-0.55 -3.56,-0.91 -1.07,-0.37 -1.98,-0.82 -2.73,-1.36 -0.75,-0.55 -1.32,-1.2 -1.73,-1.96 -0.41,-0.75 -0.61,-1.65 -0.61,-2.67 0,-1 0.23,-1.91 0.68,-2.73 0.46,-0.82 1.11,-1.53 1.95,-2.13 0.85,-0.61 1.89,-1.08 3.15,-1.41 1.25,-0.33 2.65,-0.5 4.21,-0.5 0.75,0 1.55,0.05 2.39,0.14 0.85,0.09 1.68,0.22 2.51,0.38 0.83,0.17 1.62,0.37 2.37,0.59 0.74,0.23 1.39,0.46 1.94,0.71l-1.51 4.99c-1.3,-0.6 -2.65,-1.07 -4.07,-1.41 -1.41,-0.33 -2.65,-0.5 -3.73,-0.5 -1.85,0 -2.77,0.53 -2.77,1.59 0,0.58 0.34,1.01 1.02,1.3 0.68,0.28 1.64,0.55 2.88,0.79 1.33,0.27 2.52,0.59 3.58,0.95 1.05,0.37 1.95,0.82 2.68,1.34 0.73,0.53 1.29,1.18 1.68,1.93 0.39,0.76 0.59,1.67 0.59,2.73zm11.55 -12.67c0.71,-0.7 1.58,-1.35 2.61,-1.95 1.02,-0.61 2.26,-0.91 3.73,-0.91 1.39,0 2.68,0.26 3.87,0.77 1.19,0.52 2.21,1.25 3.07,2.2 0.86,0.96 1.54,2.11 2.02,3.46 0.49,1.34 0.74,2.86 0.74,4.56 0,1.75 -0.3,3.33 -0.91,4.74 -0.6,1.41 -1.42,2.61 -2.46,3.61 -1.04,1 -2.25,1.77 -3.63,2.3 -1.38,0.52 -2.84,0.79 -4.36,0.79 -0.75,0 -1.54,-0.06 -2.37,-0.18 -0.82,-0.12 -1.6,-0.29 -2.31,-0.5l0 13.73 -7.51 -4.29 0 -30.97 7.51 -0.04 0 2.68zm0 13.49c0.94,0.57 2.09,0.86 3.46,0.86 1.62,0 2.88,-0.54 3.75,-1.61 0.88,-1.08 1.32,-2.49 1.32,-4.25 0,-1.82 -0.4,-3.23 -1.19,-4.24 -0.8,-1.02 -1.98,-1.52 -3.54,-1.52 -0.84,0 -1.56,0.13 -2.14,0.4 -0.59,0.28 -1.14,0.62 -1.66,1.05l0 9.31zm55.03 5.44l-7.51 0 0 -21.63 7.51 0.02 0 3.09c1.33,-2.18 3.15,-3.27 5.46,-3.27 1.3,0 2.55,0.29 3.75,0.86l-1.51 6.18c-0.91,-0.43 -1.85,-0.64 -2.82,-0.64 -0.95,0 -1.83,0.24 -2.64,0.71 -0.81,0.46 -1.56,1.26 -2.24,2.38l0 12.3zm27.15 -0.09c-0.88,0.24 -1.73,0.43 -2.56,0.57 -0.83,0.14 -1.81,0.21 -2.95,0.21 -2.79,0 -4.91,-0.6 -6.36,-1.78 -1.45,-1.18 -2.1,-3.14 -1.97,-5.9l0.34 -8.03 -3.41 -0.55 0.14 -4.45 3.41 -1.04 0.1 -12.11 7.27 -2.96 -0.05 15.29 5.65 0 -0.15 5.5 -6.04 0 -0.24 7.58c-0.07,0.97 0.18,1.67 0.73,2.11 0.55,0.44 1.3,0.66 2.24,0.66 0.46,0 0.93,-0.05 1.44,-0.16 0.5,-0.11 1.01,-0.23 1.53,-0.39l0.88 5.45zm22.13 -6.17c0,0.94 -0.22,1.83 -0.66,2.68 -0.44,0.84 -1.09,1.59 -1.97,2.22 -0.88,0.64 -1.96,1.14 -3.24,1.5 -1.29,0.36 -2.76,0.55 -4.41,0.55 -0.78,0 -1.61,-0.04 -2.49,-0.12 -0.88,-0.08 -1.74,-0.2 -2.58,-0.36 -0.85,-0.17 -1.67,-0.36 -2.47,-0.59 -0.79,-0.23 -1.48,-0.49 -2.07,-0.8l1.46 -5.04c1.34,0.64 2.72,1.13 4.15,1.48 1.43,0.35 2.81,0.52 4.14,0.52 2.05,0 3.07,-0.57 3.07,-1.72 0,-0.61 -0.31,-1.06 -0.95,-1.34 -0.63,-0.29 -1.6,-0.57 -2.9,-0.84 -1.3,-0.25 -2.48,-0.55 -3.56,-0.91 -1.07,-0.37 -1.98,-0.82 -2.73,-1.36 -0.74,-0.55 -1.32,-1.2 -1.73,-1.96 -0.4,-0.75 -0.61,-1.65 -0.61,-2.67 0,-1 0.23,-1.91 0.69,-2.73 0.45,-0.82 1.1,-1.53 1.95,-2.13 0.84,-0.61 1.89,-1.08 3.14,-1.41 1.25,-0.33 2.66,-0.5 4.22,-0.5 0.74,0 1.54,0.05 2.39,0.14 0.84,0.09 1.68,0.22 2.51,0.38 0.82,0.17 1.61,0.37 2.36,0.59 0.75,0.23 1.4,0.46 1.95,0.71l-1.51 4.99c-1.3,-0.6 -2.66,-1.07 -4.07,-1.41 -1.42,-0.33 -2.66,-0.5 -3.73,-0.5 -1.85,0 -2.78,0.53 -2.78,1.59 0,0.58 0.34,1.01 1.02,1.3 0.69,0.28 1.65,0.55 2.88,0.79 1.33,0.27 2.53,0.59 3.58,0.95 1.06,0.37 1.95,0.82 2.68,1.34 0.74,0.53 1.3,1.18 1.69,1.93 0.39,0.76 0.58,1.67 0.58,2.73z"/>
  <path class="fil10" d="M198.71 69.04c-0.33,0.19 -0.74,0.33 -1.24,0.44 -0.5,0.1 -1.03,0.15 -1.6,0.15 -0.65,0 -1.23,-0.08 -1.75,-0.25 -0.52,-0.16 -0.96,-0.41 -1.33,-0.73 -0.36,-0.32 -0.64,-0.72 -0.84,-1.19 -0.19,-0.47 -0.29,-1.01 -0.29,-1.62 0,-0.61 0.1,-1.15 0.3,-1.63 0.2,-0.48 0.49,-0.89 0.86,-1.23 0.37,-0.34 0.82,-0.6 1.35,-0.78 0.53,-0.18 1.12,-0.27 1.76,-0.27 0.55,0 1.07,0.06 1.56,0.16 0.49,0.11 0.91,0.26 1.27,0.45l-0.5 1.8c-0.32,-0.16 -0.65,-0.3 -1.01,-0.4 -0.35,-0.11 -0.7,-0.16 -1.05,-0.16 -0.62,0 -1.1,0.18 -1.43,0.55 -0.32,0.36 -0.49,0.84 -0.49,1.43 0,0.65 0.18,1.15 0.54,1.49 0.37,0.34 0.85,0.52 1.45,0.52 0.39,0 0.75,-0.05 1.09,-0.14 0.34,-0.1 0.66,-0.23 0.96,-0.41l0.39 1.82zm3.46 -2.69c0.04,0.49 0.23,0.86 0.58,1.13 0.34,0.26 0.83,0.39 1.47,0.39 0.42,0 0.85,-0.06 1.29,-0.19 0.44,-0.13 0.86,-0.3 1.25,-0.51l0.25 1.86c-0.39,0.18 -0.85,0.33 -1.38,0.43 -0.53,0.1 -1.08,0.16 -1.64,0.16 -0.66,0 -1.26,-0.09 -1.79,-0.25 -0.54,-0.17 -0.99,-0.41 -1.37,-0.73 -0.38,-0.32 -0.67,-0.72 -0.88,-1.19 -0.2,-0.48 -0.31,-1.01 -0.31,-1.61 0,-0.59 0.11,-1.13 0.31,-1.61 0.21,-0.49 0.5,-0.9 0.87,-1.23 0.37,-0.34 0.82,-0.6 1.34,-0.79 0.51,-0.19 1.08,-0.28 1.69,-0.28 1.1,0 1.95,0.28 2.53,0.84 0.59,0.56 0.88,1.29 0.88,2.19 0,0.2 -0.01,0.42 -0.04,0.67 -0.03,0.25 -0.07,0.46 -0.13,0.61l-4.92 0.08 0 0.03zm2.7 -1.25l0 -0.14c0,-0.43 -0.1,-0.77 -0.29,-1.01 -0.2,-0.25 -0.49,-0.37 -0.89,-0.37 -0.45,0 -0.8,0.15 -1.06,0.46 -0.25,0.31 -0.4,0.67 -0.45,1.08l2.69 -0.02zm8.92 4.3l0 -4.28c0,-0.43 -0.1,-0.74 -0.29,-0.9 -0.2,-0.17 -0.47,-0.25 -0.81,-0.25 -0.29,0 -0.56,0.05 -0.79,0.16 -0.24,0.11 -0.45,0.24 -0.62,0.38l0 4.89 -2.57 0 0 -7.11 2.57 -0.3 0 1.19c0.35,-0.37 0.75,-0.67 1.19,-0.9 0.45,-0.23 0.92,-0.35 1.42,-0.35 0.78,0 1.39,0.22 1.82,0.66 0.43,0.44 0.65,1.05 0.65,1.83l0 4.98 -2.57 0zm9.37 -0.03c-0.3,0.08 -0.59,0.15 -0.88,0.19 -0.28,0.05 -0.62,0.07 -1.01,0.07 -0.95,0 -1.68,-0.2 -2.18,-0.6 -0.49,-0.41 -0.72,-1.08 -0.67,-2.03l0.11 -2.75 -1.17 -0.19 0.05 -1.52 1.17 -0.36 0.04 -1.65 2.49 0 -0.02 1.73 1.94 0 -0.05 1.88 -2.07 0 -0.09 2.6c-0.02,0.33 0.06,0.57 0.25,0.72 0.19,0.15 0.45,0.23 0.77,0.23 0.16,0 0.32,-0.02 0.49,-0.06 0.18,-0.03 0.35,-0.08 0.53,-0.13l0.3 1.87zm3.31 -3.02c0.04,0.49 0.24,0.86 0.58,1.13 0.35,0.26 0.84,0.39 1.47,0.39 0.43,0 0.86,-0.06 1.3,-0.19 0.44,-0.13 0.85,-0.3 1.24,-0.51l0.25 1.86c-0.39,0.18 -0.85,0.33 -1.38,0.43 -0.52,0.1 -1.07,0.16 -1.64,0.16 -0.66,0 -1.25,-0.09 -1.79,-0.25 -0.53,-0.17 -0.99,-0.41 -1.37,-0.73 -0.38,-0.32 -0.67,-0.72 -0.88,-1.19 -0.2,-0.48 -0.3,-1.01 -0.3,-1.61 0,-0.59 0.1,-1.13 0.3,-1.61 0.21,-0.49 0.5,-0.9 0.87,-1.23 0.38,-0.34 0.82,-0.6 1.34,-0.79 0.52,-0.19 1.08,-0.28 1.69,-0.28 1.11,0 1.95,0.28 2.54,0.84 0.58,0.56 0.87,1.29 0.87,2.19 0,0.2 -0.01,0.42 -0.04,0.67 -0.03,0.25 -0.07,0.46 -0.12,0.61l-4.93 0.08 0 0.03zm2.7 -1.25l0 -0.14c0,-0.43 -0.09,-0.77 -0.29,-1.01 -0.19,-0.25 -0.49,-0.37 -0.89,-0.37 -0.45,0 -0.8,0.15 -1.05,0.46 -0.26,0.31 -0.41,0.67 -0.46,1.08l2.69 -0.02zm6.42 4.3l-2.57 0 0 -7.11 2.57 -0.3 0 1.06c0.45,-0.75 1.08,-1.12 1.87,-1.12 0.44,0 0.87,0.1 1.28,0.3l-0.51 2.11c-0.32,-0.14 -0.64,-0.22 -0.97,-0.22 -0.33,0 -0.63,0.09 -0.9,0.25 -0.28,0.16 -0.54,0.43 -0.77,0.81l0 4.22z"/>
  <path class="fil7" d="M165.87 33.15c7.65,0 13.84,5.78 13.84,12.9 0,7.12 -6.19,12.89 -13.84,12.89 -7.64,0 -13.84,-5.77 -13.84,-12.89 0,-7.12 6.2,-12.9 13.84,-12.9z"/>
  <path class="fil0" d="M165.87 33.05c7.71,0 13.96,5.82 13.96,13 0,7.18 -6.25,13 -13.96,13 -7.7,0 -13.95,-5.82 -13.95,-13 0,-7.18 6.25,-13 13.95,-13zm0.12 0.82l0 3.76c1.46,-0.05 2.91,-0.49 4.19,-1.33 -1.17,-1.47 -2.62,-2.36 -4.19,-2.43zm0 4.23l0 7.75 7.09 0c-0.02,-3.67 -1.03,-6.96 -2.61,-9.15 -1.37,0.89 -2.92,1.36 -4.48,1.4zm7.81 7.75l5.41 0c-0.08,-4.61 -2.85,-8.61 -6.92,-10.69 -0.41,0.45 -0.85,0.84 -1.32,1.19 1.71,2.29 2.8,5.7 2.83,9.5zm5.41 0.36l-5.41 0c-0.04,3.79 -1.13,7.17 -2.84,9.44 0.49,0.37 0.96,0.79 1.39,1.26 4.04,-2.1 6.79,-6.1 6.86,-10.7zm-6.13 0l-7.09 0 0 7.71c1.55,0.04 3.1,0.51 4.47,1.39 1.57,-2.18 2.59,-5.44 2.62,-9.1zm-7.09 8.18l0 3.73c1.57,-0.07 3.01,-0.96 4.17,-2.42 -1.27,-0.82 -2.72,-1.27 -4.17,-1.31zm-0.38 3.73l0 -3.73c-1.46,0.03 -2.91,0.48 -4.17,1.34 1.17,1.45 2.61,2.32 4.17,2.39zm0 -4.2l0 -7.71 -7.11 0c0.04,3.67 1.06,6.95 2.65,9.13 1.36,-0.91 2.9,-1.38 4.46,-1.42zm-7.82 -7.71l-5.25 0c0.06,4.6 2.81,8.6 6.85,10.69 0.39,-0.45 0.82,-0.85 1.27,-1.2 -1.73,-2.28 -2.83,-5.68 -2.87,-9.49zm-5.25 -0.36l5.25 0c0.02,-3.82 1.12,-7.24 2.84,-9.53 -0.42,-0.34 -0.83,-0.72 -1.21,-1.15 -4.05,2.09 -6.81,6.08 -6.88,10.68zm5.96 0l7.11 0 0 -7.75c-1.56,-0.03 -3.12,-0.5 -4.49,-1.42 -1.58,2.19 -2.59,5.49 -2.62,9.17zm7.11 -8.22l0 -3.76c-1.57,0.06 -3.02,0.95 -4.19,2.42 1.26,0.87 2.72,1.31 4.19,1.34zm2.24 -3.87c1.39,0.2 2.72,0.59 3.94,1.16 -0.35,0.38 -0.72,0.73 -1.12,1.04 -0.83,-1.01 -1.79,-1.76 -2.82,-2.2zm4 23.39c-1.36,0.64 -2.85,1.07 -4.43,1.24 1.2,-0.4 2.3,-1.21 3.23,-2.34 0.43,0.32 0.83,0.69 1.2,1.1zm-7.77 1.21c-1.49,-0.19 -2.9,-0.6 -4.19,-1.21 0.33,-0.39 0.69,-0.75 1.08,-1.06 0.9,1.08 1.96,1.87 3.11,2.27zm-4.16 -23.43c1.16,-0.54 2.41,-0.92 3.73,-1.13 -0.99,0.43 -1.91,1.16 -2.71,2.13 -0.36,-0.3 -0.7,-0.63 -1.02,-1z"/>
 </g>
</svg>
