<?xml version="1.0" encoding="UTF-8"?>
<!DOCTYPE svg PUBLIC "-//W3C//DTD SVG 1.1//EN" "http://www.w3.org/Graphics/SVG/1.1/DTD/svg11.dtd">
<!-- Creator: CorelDRAW 2019 (64-Bit) -->
<svg xmlns="http://www.w3.org/2000/svg" xml:space="preserve" width="250px" height="100px" version="1.1" style="shape-rendering:geometricPrecision; text-rendering:geometricPrecision; image-rendering:optimizeQuality; fill-rule:evenodd; clip-rule:evenodd"
viewBox="0 0 250 100"
 xmlns:xlink="http://www.w3.org/1999/xlink"
 xmlns:xodm="http://www.corel.com/coreldraw/odm/2003">
 <defs>
  <style type="text/css">
   <![CDATA[
    .fil0 {fill:#FEFEFE}
    .fil11 {fill:#EE741D}
    .fil4 {fill:#EEBA02}
    .fil6 {fill:#C02727}
    .fil8 {fill:#B52E27}
    .fil7 {fill:#B82765}
    .fil9 {fill:#67B437}
    .fil3 {fill:#059541}
    .fil5 {fill:#006AB1}
    .fil10 {fill:#005339}
    .fil1 {fill:#2F3C7C}
    .fil2 {fill:#363676}
    .fil12 {fill:#292943;fill-rule:nonzero}
   ]]>
  </style>
 </defs>
 <g id="Layer_x0020_1">
  <metadata id="CorelCorpID_0Corel-Layer"/>
  <rect class="fil0" x="0.33" y="0.04" width="250" height="100"/>
  <path class="fil1" d="M147.79 41.41c0.16,0.85 0.63,1.86 0.89,2.78 0.31,1.07 0.53,2 0.69,3.12 1.72,-0.04 6.42,-2.26 7.86,-2.98 3.45,-1.72 6.9,-4.19 8.25,-7.92 0.47,-1.29 2.02,-0.89 4.5,-0.89l37.73 0.01c1.46,0 2.6,-0.71 4.04,-1.35l7.01 -3.1c0.34,-0.2 0.17,-0.08 0.39,-0.28l-65.68 0c1.13,2.35 1.23,4.86 -0.19,7.05 -0.93,1.42 -3.66,3.08 -5.49,3.56z"/>
  <path class="fil1" d="M97.05 47.44c0.17,-0.21 1.58,-5.27 1.7,-5.86 -0.99,-0.22 -2.66,-0.93 -3.48,-1.41 -2.26,-1.35 -3.88,-2.53 -4.47,-5.3 -0.38,-1.78 0.19,-2.63 0.53,-4.07l-64.17 0c0.21,0.18 0.06,0.09 0.39,0.29 0.12,0.07 0.37,0.18 0.45,0.22 0.33,0.15 0.58,0.22 0.96,0.39 0.66,0.31 1.18,0.55 1.86,0.83l5.61 2.48c1.84,0.85 4.94,0.51 7.57,0.51l32.51 0c3.05,0 3.87,-0.42 4.36,1.02 0.67,1.95 2,3.34 3.42,4.67 0.46,0.42 1,0.78 1.53,1.17 3.38,2.54 7.56,3.8 11.23,5.06z"/>
  <path class="fil1" d="M120.49 28.56c13.56,-1.7 24.5,8.52 25.87,20.45 1.59,13.83 -8.66,24.18 -20.38,25.74 -12.37,1.64 -24.4,-7.55 -25.88,-20.39 -1.6,-13.84 8.66,-24.34 20.39,-25.8zm0.84 -2.37c-13.12,1.19 -24.27,12.48 -23.06,27.35 1.08,13.33 12.7,24.51 27.19,23.2 13.04,-1.17 24.05,-12.63 22.88,-27.39 -1.05,-13.17 -12.74,-24.45 -27.01,-23.16z"/>
  <path class="fil2" d="M166.1 39.22l25.77 3.54 10.23 -4.42c0.51,-0.22 1.09,-0.52 1.56,-0.63 -0.36,-0.5 0.04,-0.3 -0.83,-0.35 -1.53,-0.1 -6.53,-0.03 -8,-0.25 -1.26,-0.19 -7.34,-0.26 -9.03,-0.4 -0.7,-0.06 -1.63,-0.01 -2.35,-0.01l-6.73 -0.34c-0.78,-0.03 -1.59,0.02 -2.37,0.01 -0.96,-0.01 -1.17,-0.18 -2.18,-0.18 -0.77,0 -1.59,0.03 -2.37,0.01 -0.87,-0.03 -1.15,-0.18 -2.18,-0.18 -0.24,0.9 -1.44,2.33 -1.52,3.2z"/>
  <path class="fil3" d="M42.66 37.71c0.81,0.19 2.06,0.83 2.85,1.18l8.77 3.87c1.26,0 11.41,-1.54 12.89,-1.76l13.04 -1.78c-0.05,-0.56 -1.18,-2.57 -1.51,-3.2l-4.56 0.17c-1.01,0 -1.22,0.17 -2.17,0.18 -0.78,0.01 -1.6,-0.04 -2.37,-0.01 -0.88,0.02 -1.15,0.18 -2.18,0.17l-20.46 0.77c-1.23,0.19 -2.51,0 -3.48,0.06 -0.86,0.05 -0.46,-0.15 -0.82,0.35z"/>
  <path class="fil4" d="M57.81 43.94l11.94 5.41c0.78,0.34 0.81,0.58 1.77,0.22 1.4,-0.51 13.02,-4.97 14.42,-5.29 -0.19,-0.7 -1.38,-1.29 -2.43,-2.12 -3.71,-2.92 -1.04,-2.64 -10.13,-1.01l-15.57 2.79z"/>
  <path class="fil5" d="M160.38 44.28c0.7,0.06 14.03,5.11 14.32,5.22 1.08,0.46 1.6,0.09 3.42,-0.79l8.59 -3.7c0.52,-0.23 1.31,-0.62 1.79,-0.73l-15.42 -3.11c-1.19,-0.22 -7.04,-1.42 -7.68,-1.15l-2.47 2.09c-0.44,0.36 -0.89,0.68 -1.35,1.01 -0.51,0.38 -1.02,0.48 -1.2,1.16z"/>
  <path class="fil6" d="M73.48 51.01l8.81 3.82c0.57,0.25 0.99,0.46 1.52,0.69 0.64,0.29 0.84,0.02 1.39,-0.36 0.8,-0.55 9.84,-6.4 10.17,-6.84 -0.32,-0.44 -5.93,-2.49 -6.96,-2.98 -0.29,-0.13 -1.2,-0.55 -1.41,-0.62 -0.79,-0.23 -4.5,1.83 -5.44,2.25 -0.99,0.44 -1.76,0.83 -2.79,1.25l-4.12 1.95c-0.67,0.28 -0.99,0.15 -1.17,0.84z"/>
  <path class="fil7" d="M150.95 48.15c0.19,0.52 -0.03,0.17 0.46,0.55l4.45 2.95c1.76,1.17 3.42,2.25 5.16,3.44 0.42,0.29 0.74,0.66 1.26,0.53l9.02 -3.96c0.52,-0.21 0.96,-0.51 1.54,-0.65 -0.2,-0.73 -0.98,-0.73 -2.41,-1.46l-5.41 -2.51c-8.04,-3.32 -2.85,-2.95 -11.15,0l-2.92 1.11z"/>
  <path class="fil8" d="M99.09 62.13c-0.22,-0.95 -0.71,-1.87 -1.01,-2.89 -0.31,-1.03 -0.58,-2.14 -0.78,-3.26 -0.48,-2.68 -0.38,-4.79 -0.26,-7.49 -0.68,0.06 -2.06,1.39 -2.66,1.87 -0.91,0.73 -1.71,1.34 -2.64,2.07 -0.53,0.42 -4.95,3.64 -5.13,4.31 0.47,0.11 1.05,0.41 1.56,0.63 0.55,0.23 0.98,0.41 1.53,0.66l9.39 4.1z"/>
  <path class="fil9" d="M147.37 61.96c0.73,-0.05 3.75,-1.54 4.68,-1.92 0.55,-0.23 1,-0.41 1.53,-0.66l6.12 -2.64c-0.14,-0.53 -0.29,-0.49 -1.08,-1.11l-9.05 -7.14c0.09,2.76 0.23,4.68 -0.29,7.42 -0.48,2.5 -1.34,4 -1.91,6.05z"/>
  <path class="fil10" d="M129.21 69.59l-0.59 -1.77c-0.29,-0.3 -0.29,-0.89 -0.59,-1.18l-2.95 -8.56 1.48 -0.59c1.47,2.06 2.65,8.56 2.65,12.1zm5.31 -2.66c-0.29,-0.29 0,0 -0.59,-0.59 0,0 -0.29,-0.59 -0.29,-0.88 -1.18,-1.48 -6.2,-7.38 -6.5,-8.27l1.19 -0.88c1.47,1.18 5.6,7.96 6.19,10.62zm-26.26 -4.43l0 -0.29 0.29 0 0 -0.3 9.15 -6.79 0.89 1.19c-1.48,1.77 -7.38,5.6 -10.33,6.19zm33.05 -5.31c-1.18,-0.29 -10.62,-2.95 -11.51,-3.54l0.3 -1.18c2.36,0.29 9.74,2.95 11.21,4.72zm-4.72 -6.79c1.48,0 4.72,0.89 5.61,0.89l-12.1 0.29 0 -1.18c2.06,-0.59 4.72,-0.29 6.49,0zm-15.05 -3.83c3.24,-1.19 6.49,0.88 7.38,3.24 0.59,2.95 -0.59,5.61 -3.25,6.79 -6.49,3.25 -11.51,-7.08 -4.13,-10.03zm-15.94 -0.89l11.81 3.54 -0.6 1.48c-2.06,-0.59 -9.74,-2.95 -11.21,-5.02zm28.63 -9.15l-6.79 9.74 -1.18 -0.89c1.48,-2.65 5.61,-7.96 7.97,-8.85zm0.29 -0.3c0,0.59 0.3,0.3 -0.29,0.3 -0.3,-0.59 -0.3,-0.3 0.29,-0.3zm-5.31 -2.65l-3.54 11.8 -1.48 -0.29c0.89,-3.25 2.95,-9.74 5.02,-11.51zm-23.61 12.1c-1.77,0.59 -3.25,2.95 -3.25,5.31 5.02,0.3 9.45,0 14.46,0l0 1.77c-5.01,0 -7.96,0 -12.69,-1.18 -0.88,1.77 -1.18,3.25 -1.18,5.91 4.43,0 10.04,-3.25 14.17,-4.14l0.3 1.18c-3.25,2.07 -7.97,2.37 -12.4,2.96 -0.3,2.65 0,3.83 0.88,5.9 1.18,-0.3 1.18,-0.59 2.37,-0.89 -0.89,1.77 0.88,4.43 2.06,5.61 2.66,-1.18 6.49,-8.85 8.86,-11.21l1.18 0.59c-0.59,1.77 -2.36,3.83 -3.84,5.31l-4.43 4.43c1.18,1.47 2.36,3.54 4.13,4.13 1.78,-2.36 3.55,-10.33 4.73,-13.58l1.47 0.59c-1.47,7.09 -4.13,9.45 -4.72,11.51 1.18,1.18 3.25,2.66 5.31,2.66 0.3,-5.02 0,-9.15 0,-14.17l1.48 0c0.29,2.36 0.29,4.13 0,6.5 0,2.06 -0.89,4.13 -0.89,5.9 7.09,2.36 5.61,0.88 5.61,-1.48 2.36,1.18 4.13,0.3 6.2,-0.29l-0.89 -2.07c2.37,-0.29 4.14,-1.18 5.61,-2.66 -4.13,-4.13 -8.56,-5.9 -11.21,-8.55l0.59 -1.19c4.13,1.78 7.67,6.2 9.44,7.97 1.77,-0.59 3.54,-2.36 4.13,-4.13 -0.29,-0.59 -0.29,-0.29 -0.88,-0.59l-0.59 -0.29 -0.3 -0.3c1.77,-0.88 2.96,-3.54 2.96,-5.31l-1.78 -0.3c0.89,-2.06 1.18,-2.95 1.18,-5.9 -3.83,0 -10.03,2.95 -13.57,4.13l-0.89 -1.47c2.07,-1.48 9.15,-2.37 12.4,-2.66 0.29,-1.77 0.29,-4.43 -0.89,-5.9 -3.83,1.18 -9.74,7.38 -11.8,7.97 -0.89,-0.89 -0.59,-0.3 -0.89,-1.18 0.89,-0.6 1.48,-1.48 2.36,-2.07 3.84,-2.36 7.38,-3.84 8.27,-4.43 0,-2.65 -1.48,-3.84 -2.37,-5.31l-1.47 1.47c-0.3,-0.29 -0.3,0 -0.3,0 -0.59,-2.06 -2.36,-3.83 -4.13,-4.72 -0.59,0.89 -0.59,1.48 -1.18,2.07 -0.59,-1.48 -2.95,-2.95 -5.31,-3.25 -0.89,4.72 0,9.74 -0.3,14.76l-1.47 0c-0.3,-8.86 0.88,-8.27 1.18,-12.69 -1.48,-1.18 -3.84,-1.48 -5.9,-1.18 0.59,5.31 3.24,9.44 4.13,14.16l-1.18 0.3c-1.77,-2.66 -2.95,-8.56 -2.95,-12.4 -2.96,-0.29 -3.55,0 -5.91,0.59 0.59,3.25 6.79,9.15 8.27,12.4l-0.89 0.89c-3.54,-2.96 -5.02,-7.68 -6.79,-11.22 -1.47,0.29 -2.06,0.59 -3.24,0.88l-2.07 1.78c1.77,2.95 8.56,6.19 11.51,8.85 -0.29,0.59 -0.29,0.59 -0.59,1.18 -2.66,-0.88 -8.56,-6.2 -9.74,-8.26 -2.07,0.29 -3.54,2.36 -4.43,3.83 0.89,1.18 1.18,0.59 2.07,1.48z"/>
  <path class="fil11" d="M136.59 50.4c1.48,0 4.72,0.89 5.61,0.89l-0.49 0.01c0.24,0.04 0.53,0.1 0.84,0.16 0.84,-1.98 1.12,-2.89 1.12,-5.78 -3.83,0 -10.03,2.95 -13.57,4.13l-0.89 -1.47c2.07,-1.48 9.15,-2.37 12.4,-2.66 0.29,-1.77 0.29,-4.43 -0.89,-5.9 -3.83,1.18 -9.74,7.38 -11.8,7.97 -0.89,-0.89 -0.59,-0.3 -0.89,-1.18 0.89,-0.6 1.48,-1.48 2.36,-2.07 3.84,-2.36 7.38,-3.84 8.27,-4.43 0,-2.65 -1.48,-3.84 -2.37,-5.31l-1.47 1.47c-0.3,-0.29 -0.3,0 -0.3,0 -0.59,-2.06 -2.36,-3.83 -4.13,-4.72 -0.59,0.89 -0.59,1.48 -1.18,2.07 -0.59,-1.48 -2.95,-2.95 -5.31,-3.25 -0.89,4.72 0,9.74 -0.3,14.76l-1.47 0c-0.3,-8.86 0.88,-8.27 1.18,-12.69 -1.48,-1.18 -3.84,-1.48 -5.9,-1.18 0.59,5.31 3.24,9.44 4.13,14.17l-1.18 0.29c-1.77,-2.66 -2.95,-8.56 -2.95,-12.4 -2.96,-0.29 -3.55,0 -5.91,0.59 0.59,3.25 6.79,9.15 8.27,12.4l-0.89 0.89c-3.54,-2.96 -5.02,-7.68 -6.79,-11.22 -1.47,0.29 -2.06,0.59 -3.24,0.88l-2.07 1.78c1.77,2.95 8.56,6.19 11.51,8.85 -0.29,0.59 -0.29,0.59 -0.59,1.18 -2.66,-0.88 -8.56,-6.2 -9.74,-8.26 -2.07,0.29 -3.54,2.36 -4.43,3.83 0.89,1.19 1.18,0.59 2.07,1.48 -1.77,0.59 -3.25,2.95 -3.25,5.31 5.02,0.3 9.45,0 14.46,0l0 0.4 1.07 -0.01c0.05,-1.91 1.12,-3.8 3.66,-4.81 3.24,-1.18 6.49,0.88 7.38,3.24 0.09,0.48 0.14,0.94 0.14,1.4l1.04 -0.02 0 -0.79c2.06,-0.59 4.72,-0.29 6.49,0zm-30.99 -4.72l11.81 3.54 -0.6 1.48c-2.06,-0.59 -9.74,-2.95 -11.21,-5.02zm28.63 -9.15l-6.79 9.74 -1.18 -0.88c1.48,-2.66 5.61,-7.97 7.97,-8.86zm0.29 -0.3c0,0.59 0.3,0.3 -0.29,0.3 -0.3,-0.59 -0.3,-0.3 0.29,-0.3zm-5.31 -2.65l-3.54 11.81 -1.48 -0.3c0.89,-3.25 2.96,-9.74 5.02,-11.51z"/>
  <path class="fil12" d="M105.13 26.85l-0.66 -0.83 2.15 -1.69 1.55 1.97c-0.05,0.37 -0.21,0.78 -0.48,1.25 -0.28,0.47 -0.62,0.86 -1.03,1.18 -0.51,0.41 -1.05,0.65 -1.61,0.74 -0.55,0.08 -1.08,-0.01 -1.59,-0.26 -0.51,-0.25 -0.96,-0.62 -1.33,-1.09 -0.41,-0.52 -0.66,-1.06 -0.76,-1.63 -0.1,-0.57 -0.02,-1.13 0.22,-1.67 0.19,-0.41 0.52,-0.8 0.99,-1.17 0.62,-0.48 1.2,-0.73 1.75,-0.75 0.54,-0.01 1.04,0.17 1.5,0.55l-0.85 0.97c-0.26,-0.19 -0.54,-0.28 -0.84,-0.27 -0.3,0.01 -0.6,0.13 -0.89,0.35 -0.43,0.35 -0.67,0.76 -0.71,1.24 -0.04,0.47 0.16,0.99 0.59,1.53 0.46,0.59 0.93,0.93 1.43,1.02 0.49,0.08 0.94,-0.04 1.37,-0.37 0.2,-0.16 0.38,-0.37 0.53,-0.61 0.14,-0.25 0.24,-0.49 0.3,-0.73l-0.49 -0.63 -1.14 0.9zm3.12 -3.14c-0.26,-0.59 -0.39,-1.12 -0.4,-1.59 0,-0.35 0.06,-0.7 0.18,-1.03 0.12,-0.33 0.29,-0.62 0.51,-0.85 0.29,-0.31 0.66,-0.58 1.13,-0.79 0.84,-0.38 1.64,-0.42 2.38,-0.13 0.75,0.3 1.33,0.91 1.75,1.85 0.42,0.93 0.5,1.77 0.23,2.52 -0.26,0.75 -0.82,1.31 -1.66,1.69 -0.85,0.39 -1.65,0.44 -2.39,0.14 -0.73,-0.29 -1.31,-0.9 -1.73,-1.81zm1.18 -0.58c0.29,0.65 0.67,1.08 1.12,1.28 0.45,0.19 0.91,0.19 1.37,-0.02 0.46,-0.21 0.76,-0.54 0.91,-1.01 0.15,-0.47 0.07,-1.03 -0.23,-1.7 -0.3,-0.66 -0.66,-1.08 -1.1,-1.28 -0.43,-0.19 -0.89,-0.18 -1.37,0.04 -0.48,0.22 -0.79,0.55 -0.93,1.01 -0.14,0.46 -0.07,1.02 0.23,1.68zm6.68 0.72l-1.11 -6.19 2.01 -0.35c0.75,-0.14 1.26,-0.2 1.5,-0.18 0.37,0.03 0.7,0.18 1,0.45 0.29,0.27 0.48,0.65 0.57,1.14 0.07,0.38 0.06,0.71 -0.04,1 -0.09,0.28 -0.23,0.52 -0.41,0.7 -0.19,0.19 -0.39,0.32 -0.6,0.41 -0.28,0.11 -0.71,0.22 -1.27,0.32l-0.82 0.15 0.42 2.33 -1.25 0.22zm0.33 -5.36l0.32 1.76 0.68 -0.12c0.49,-0.09 0.81,-0.18 0.96,-0.28 0.16,-0.09 0.27,-0.22 0.34,-0.37 0.07,-0.16 0.09,-0.32 0.05,-0.51 -0.04,-0.23 -0.13,-0.4 -0.29,-0.52 -0.16,-0.13 -0.34,-0.19 -0.55,-0.19 -0.16,0 -0.46,0.04 -0.91,0.12l-0.6 0.11zm10.47 4.6l-1.37 -0.04 -0.5 -1.44 -2.53 -0.07 -0.55 1.42 -1.35 -0.03 2.6 -6.23 1.34 0.04 2.36 6.35zm-2.26 -2.56l-0.82 -2.34 -0.9 2.3 1.72 0.04zm2.97 2.73l1.41 -6.07 1.24 0.28 -1.17 5.04 3.08 0.71 -0.24 1.04 -4.32 -1zm10.34 3.65l-1.25 -0.56 0.09 -1.53 -2.3 -1.04 -1.06 1.09 -1.23 -0.55 4.81 -4.73 1.23 0.55 -0.29 6.77zm-1.1 -3.23l0.16 -2.48 -1.73 1.77 1.57 0.71zm1.63 3.71l3.88 -4.94 0.97 0.76 -0.57 4.91 2.61 -3.31 0.92 0.73 -3.88 4.94 -1 -0.79 0.55 -4.82 -2.56 3.25 -0.92 -0.73z"/>
  <path class="fil12" d="M99.32 79.76l-1.03 -0.92 0.55 -1.43 -1.89 -1.7 -1.35 0.71 -1.01 -0.91 6.03 -3.03 1.01 0.91 -2.31 6.37zm-0.08 -3.42l0.9 -2.32 -2.19 1.16 1.29 1.16zm1.32 4.18l3.04 -5.5 4.11 2.27 -0.51 0.93 -2.99 -1.65 -0.67 1.22 2.77 1.54 -0.51 0.93 -2.78 -1.54 -0.82 1.49 3.09 1.71 -0.51 0.93 -4.22 -2.33zm5.88 3.13l2.08 -5.93 2.55 0.89c0.64,0.23 1.08,0.44 1.34,0.65 0.25,0.21 0.42,0.48 0.49,0.82 0.08,0.33 0.06,0.67 -0.06,1.02 -0.16,0.45 -0.42,0.77 -0.78,0.97 -0.37,0.19 -0.83,0.24 -1.38,0.13 0.21,0.24 0.37,0.48 0.47,0.72 0.11,0.24 0.22,0.65 0.35,1.21l0.32 1.41 -1.44 -0.51 -0.42 -1.6c-0.14,-0.56 -0.26,-0.93 -0.33,-1.09 -0.07,-0.16 -0.16,-0.29 -0.28,-0.37 -0.11,-0.09 -0.31,-0.19 -0.59,-0.28l-0.24 -0.09 -0.87 2.48 -1.21 -0.43zm2.41 -3l0.9 0.32c0.58,0.2 0.95,0.3 1.11,0.31 0.16,0 0.3,-0.04 0.42,-0.14 0.13,-0.09 0.22,-0.22 0.28,-0.4 0.07,-0.2 0.08,-0.38 0.01,-0.54 -0.06,-0.16 -0.19,-0.29 -0.37,-0.39 -0.09,-0.05 -0.39,-0.16 -0.87,-0.33l-0.95 -0.33 -0.53 1.5zm4.67 2.1c0.11,-0.63 0.3,-1.14 0.57,-1.54 0.2,-0.29 0.44,-0.54 0.73,-0.74 0.29,-0.21 0.6,-0.35 0.91,-0.42 0.42,-0.09 0.88,-0.09 1.39,0 0.92,0.16 1.61,0.58 2.06,1.25 0.45,0.66 0.59,1.5 0.41,2.51 -0.18,1 -0.6,1.74 -1.25,2.2 -0.65,0.47 -1.43,0.62 -2.35,0.46 -0.93,-0.17 -1.62,-0.58 -2.07,-1.25 -0.45,-0.66 -0.58,-1.48 -0.4,-2.47zm1.3 0.19c-0.12,0.7 -0.05,1.27 0.21,1.69 0.26,0.42 0.64,0.67 1.15,0.76 0.5,0.09 0.95,-0.01 1.34,-0.31 0.38,-0.3 0.64,-0.81 0.77,-1.53 0.13,-0.71 0.07,-1.27 -0.19,-1.68 -0.25,-0.4 -0.63,-0.65 -1.16,-0.75 -0.52,-0.09 -0.97,0.01 -1.35,0.31 -0.38,0.3 -0.64,0.8 -0.77,1.51zm5.67 1.96l1.25 -0.1c0.07,0.41 0.21,0.72 0.43,0.92 0.23,0.2 0.54,0.3 0.93,0.31 0.41,0.01 0.72,-0.08 0.93,-0.24 0.21,-0.17 0.32,-0.37 0.33,-0.6 0,-0.15 -0.05,-0.28 -0.13,-0.39 -0.08,-0.1 -0.24,-0.2 -0.45,-0.28 -0.15,-0.05 -0.49,-0.15 -1.02,-0.29 -0.68,-0.18 -1.16,-0.4 -1.43,-0.65 -0.38,-0.36 -0.56,-0.79 -0.55,-1.28 0,-0.33 0.1,-0.62 0.29,-0.9 0.19,-0.28 0.45,-0.48 0.8,-0.62 0.35,-0.14 0.76,-0.21 1.25,-0.2 0.79,0.02 1.39,0.2 1.78,0.56 0.4,0.36 0.6,0.83 0.61,1.41l-1.29 0.02c-0.05,-0.32 -0.16,-0.56 -0.34,-0.71 -0.17,-0.14 -0.44,-0.22 -0.8,-0.23 -0.37,0 -0.66,0.07 -0.87,0.22 -0.13,0.09 -0.21,0.22 -0.21,0.38 0,0.15 0.06,0.28 0.18,0.39 0.16,0.14 0.55,0.29 1.17,0.45 0.62,0.15 1.08,0.31 1.37,0.48 0.29,0.16 0.52,0.37 0.69,0.65 0.16,0.27 0.24,0.61 0.23,1 -0.01,0.37 -0.11,0.7 -0.32,1.01 -0.21,0.31 -0.5,0.54 -0.87,0.69 -0.38,0.14 -0.84,0.21 -1.39,0.2 -0.8,-0.02 -1.41,-0.21 -1.84,-0.59 -0.42,-0.37 -0.66,-0.91 -0.73,-1.61zm6.95 2l-0.87 -6.23 2.04 -0.28c0.77,-0.11 1.28,-0.15 1.52,-0.12 0.37,0.04 0.7,0.2 0.99,0.48 0.28,0.28 0.46,0.67 0.53,1.17 0.05,0.38 0.03,0.71 -0.08,0.99 -0.1,0.28 -0.25,0.51 -0.44,0.69 -0.2,0.18 -0.4,0.31 -0.62,0.38 -0.29,0.11 -0.73,0.2 -1.3,0.28l-0.83 0.11 0.33 2.35 -1.27 0.18zm0.55 -5.36l0.25 1.78 0.69 -0.1c0.5,-0.07 0.83,-0.15 0.99,-0.23 0.16,-0.09 0.27,-0.21 0.35,-0.37 0.07,-0.15 0.1,-0.32 0.07,-0.5 -0.03,-0.23 -0.12,-0.41 -0.27,-0.54 -0.16,-0.13 -0.34,-0.2 -0.55,-0.2 -0.16,-0.01 -0.46,0.02 -0.92,0.08l-0.61 0.08zm10.9 2.98l-1.34 0.35 -0.9 -1.25 -2.46 0.65 -0.14 1.52 -1.32 0.34 0.78 -6.7 1.32 -0.35 4.06 5.44zm-2.91 -1.82l-1.44 -2.03 -0.24 2.47 1.68 -0.44zm6.82 -2.67l1.28 -0.22c0.14,0.71 0.08,1.31 -0.16,1.81 -0.25,0.5 -0.68,0.9 -1.28,1.2 -0.76,0.38 -1.51,0.43 -2.25,0.16 -0.74,-0.27 -1.33,-0.84 -1.77,-1.73 -0.47,-0.94 -0.59,-1.79 -0.36,-2.55 0.23,-0.76 0.74,-1.34 1.54,-1.74 0.69,-0.35 1.36,-0.42 2,-0.23 0.38,0.11 0.74,0.36 1.1,0.75l-1 0.83c-0.22,-0.26 -0.47,-0.42 -0.77,-0.48 -0.3,-0.06 -0.6,-0.02 -0.9,0.13 -0.42,0.22 -0.69,0.54 -0.8,0.97 -0.12,0.43 -0.01,0.98 0.33,1.65 0.35,0.71 0.73,1.15 1.14,1.32 0.41,0.17 0.82,0.16 1.24,-0.05 0.3,-0.15 0.52,-0.38 0.64,-0.68 0.12,-0.3 0.13,-0.68 0.02,-1.14zm3.71 0.53l-3.74 -5.05 3.77 -2.8 0.63 0.86 -2.74 2.03 0.83 1.12 2.55 -1.89 0.63 0.86 -2.54 1.89 1.01 1.37 2.84 -2.11 0.63 0.85 -3.87 2.87z"/>
 </g>
</svg>
