<?xml version="1.0" encoding="UTF-8"?>
<!DOCTYPE svg PUBLIC "-//W3C//DTD SVG 1.1//EN" "http://www.w3.org/Graphics/SVG/1.1/DTD/svg11.dtd">
<!-- Creator: CorelDRAW 2019 (64-Bit) -->
<svg xmlns="http://www.w3.org/2000/svg" xml:space="preserve" width="250px" height="100px" version="1.1" style="shape-rendering:geometricPrecision; text-rendering:geometricPrecision; image-rendering:optimizeQuality; fill-rule:evenodd; clip-rule:evenodd"
viewBox="0 0 250 100"
 xmlns:xlink="http://www.w3.org/1999/xlink"
 xmlns:xodm="http://www.corel.com/coreldraw/odm/2003">
 <defs>
  <style type="text/css">
   <![CDATA[
    .str0 {stroke:#373435;stroke-width:0.9;stroke-miterlimit:2.61313}
    .fil0 {fill:#FEFEFE}
    .fil17 {fill:#F58634}
    .fil6 {fill:#ED3237}
    .fil4 {fill:#F2A93A}
    .fil7 {fill:#E5E6E5}
    .fil13 {fill:#CE2E8D}
    .fil11 {fill:#99B648}
    .fil3 {fill:#2376AF}
    .fil5 {fill:#00A859}
    .fil8 {fill:#30355C}
    .fil2 {fill:#201E1E}
    .fil9 {fill:#FEFEFE;fill-rule:nonzero}
    .fil1 {fill:#373435;fill-rule:nonzero}
    .fil16 {fill:url(#id0)}
    .fil10 {fill:url(#id1)}
    .fil14 {fill:url(#id2)}
    .fil12 {fill:url(#id3)}
    .fil15 {fill:url(#id4)}
   ]]>
  </style>
  <linearGradient id="id0" gradientUnits="userSpaceOnUse" x1="11.77" y1="59.11" x2="39.12" y2="38.13">
   <stop offset="0" style="stop-opacity:1; stop-color:#ED3237"/>
   <stop offset="1" style="stop-opacity:1; stop-color:#F58634"/>
  </linearGradient>
  <linearGradient id="id1" gradientUnits="userSpaceOnUse" x1="22.2" y1="50.91" x2="22.8" y2="29.63">
   <stop offset="0" style="stop-opacity:1; stop-color:#BFD73E"/>
   <stop offset="0.380392" style="stop-opacity:1; stop-color:#A8CF45"/>
   <stop offset="1" style="stop-opacity:1; stop-color:#657D43"/>
  </linearGradient>
  <linearGradient id="id2" gradientUnits="userSpaceOnUse" x1="26.78" y1="30.73" x2="36.17" y2="64.54">
   <stop offset="0" style="stop-opacity:1; stop-color:#1081C4"/>
   <stop offset="1" style="stop-opacity:1; stop-color:#3C4393"/>
  </linearGradient>
  <linearGradient id="id3" gradientUnits="userSpaceOnUse" x1="15.65" y1="48.6" x2="52.12" y2="33.15">
   <stop offset="0" style="stop-opacity:1; stop-color:#EC268F"/>
   <stop offset="0.411765" style="stop-opacity:1; stop-color:#EC268F"/>
   <stop offset="1" style="stop-opacity:1; stop-color:#8F3A8D"/>
  </linearGradient>
  <linearGradient id="id4" gradientUnits="userSpaceOnUse" xlink:href="#id2" x1="30.99" y1="30.77" x2="34.04" y2="46.82">
  </linearGradient>
 </defs>
 <g id="Layer_x0020_1">
  <metadata id="CorelCorpID_0Corel-Layer"/>
  <rect class="fil0" x="0.49" y="1.19" width="250" height="100"/>
  <path class="fil1" d="M82.29 -40.46c-0.79,0.43 -1.67,0.76 -2.66,0.99 -0.98,0.23 -2,0.34 -3.07,0.34 -1.15,0 -2.2,-0.16 -3.16,-0.5 -0.95,-0.34 -1.76,-0.82 -2.44,-1.45 -0.68,-0.64 -1.21,-1.42 -1.58,-2.34 -0.38,-0.92 -0.57,-1.97 -0.57,-3.15 0,-1.17 0.19,-2.23 0.56,-3.16 0.37,-0.93 0.9,-1.72 1.58,-2.38 0.68,-0.66 1.5,-1.16 2.45,-1.5 0.96,-0.35 2.03,-0.52 3.21,-0.52 0.46,0 0.94,0.03 1.43,0.08 0.49,0.06 0.98,0.13 1.45,0.23 0.48,0.1 0.94,0.23 1.38,0.38 0.44,0.15 0.82,0.34 1.16,0.55l-1.15 3.05c-1.39,-0.8 -2.77,-1.19 -4.15,-1.19 -1.31,0 -2.35,0.39 -3.11,1.17 -0.76,0.79 -1.14,1.86 -1.14,3.2 0,1.44 0.36,2.55 1.06,3.35 0.7,0.81 1.74,1.21 3.12,1.21 0.42,0 0.83,-0.04 1.24,-0.13 0.4,-0.08 0.76,-0.19 1.06,-0.31l0 -2.1 -3.55 0 0 -2.91 6.88 0 0 7.09zm14 -4.53c0,0.89 -0.16,1.69 -0.47,2.42 -0.32,0.72 -0.75,1.34 -1.29,1.84 -0.55,0.51 -1.18,0.89 -1.91,1.17 -0.72,0.28 -1.5,0.41 -2.33,0.41 -0.83,0 -1.6,-0.12 -2.32,-0.36 -0.71,-0.25 -1.34,-0.61 -1.88,-1.09 -0.54,-0.48 -0.96,-1.08 -1.27,-1.8 -0.3,-0.72 -0.46,-1.56 -0.46,-2.52 0,-0.9 0.16,-1.71 0.48,-2.43 0.31,-0.72 0.74,-1.33 1.29,-1.83 0.54,-0.5 1.18,-0.89 1.9,-1.16 0.72,-0.26 1.49,-0.4 2.31,-0.4 0.83,0 1.61,0.12 2.33,0.36 0.72,0.23 1.35,0.59 1.89,1.07 0.54,0.49 0.96,1.08 1.27,1.8 0.31,0.72 0.46,1.56 0.46,2.52zm-3.48 0.07c0,-0.95 -0.21,-1.73 -0.63,-2.32 -0.41,-0.59 -1.04,-0.89 -1.89,-0.89 -0.83,0 -1.45,0.3 -1.85,0.88 -0.41,0.59 -0.62,1.34 -0.62,2.26 0,0.96 0.21,1.73 0.64,2.33 0.42,0.6 1.05,0.9 1.9,0.9 0.83,0 1.45,-0.3 1.85,-0.89 0.4,-0.59 0.6,-1.35 0.6,-2.27zm15.52 -1.63c0,1.38 -0.45,2.41 -1.36,3.1 -0.91,0.68 -2.16,1.03 -3.76,1.03l-1.13 0 0 2.95 -3.53 0 0 -10.97 4.85 0c1.6,0 2.82,0.35 3.66,1.04 0.85,0.7 1.27,1.65 1.27,2.85zm-3.37 0.1c0,-0.52 -0.17,-0.92 -0.51,-1.18 -0.35,-0.27 -0.85,-0.4 -1.49,-0.4l-1.02 0 0 3.32 0.93 -0.05c0.7,-0.03 1.23,-0.18 1.58,-0.43 0.34,-0.26 0.51,-0.68 0.51,-1.26zm16.04 6.98l-3.44 0 -0.71 -2.04 -3.79 0 -0.62 2.04 -3.51 0 3.79 -10.97 4.57 0 3.71 10.97zm-6.05 -8.63l-1.33 4.28 2.67 0 -1.34 -4.28zm7.87 8.63l0 -10.97 3.53 0 0 8.13 4.94 0 0 2.84 -8.47 0zm21.62 0l-3.44 0 -0.71 -2.04 -3.79 0 -0.62 2.04 -3.51 0 3.79 -10.97 4.57 0 3.71 10.97zm-6.05 -8.63l-1.33 4.28 2.67 0 -1.34 -4.28zm15.65 -2.34l3.2 0 0 11.09 -3.67 0 -4.1 -6.28 0 6.16 -3.21 0 0 -10.97 3.71 0 4.09 6.19 -0.02 -6.19zm20.85 0.44c-0.53,-0.32 -1.12,-0.58 -1.74,-0.76 -0.62,-0.18 -1.26,-0.27 -1.9,-0.27 -1.25,0 -2.24,0.38 -2.99,1.16 -0.74,0.78 -1.12,1.85 -1.12,3.21 0,1.37 0.36,2.46 1.09,3.25 0.72,0.8 1.73,1.19 3.04,1.19 0.71,0 1.39,-0.1 2.03,-0.32 0.65,-0.21 1.24,-0.49 1.78,-0.85l0.76 3.23c-0.57,0.31 -1.29,0.56 -2.16,0.75 -0.87,0.19 -1.72,0.28 -2.57,0.28 -1.15,0 -2.2,-0.16 -3.14,-0.49 -0.93,-0.33 -1.74,-0.8 -2.4,-1.43 -0.66,-0.63 -1.18,-1.4 -1.55,-2.32 -0.36,-0.93 -0.55,-1.99 -0.55,-3.2 0,-1.16 0.19,-2.2 0.54,-3.14 0.36,-0.93 0.88,-1.72 1.55,-2.38 0.67,-0.65 1.49,-1.16 2.45,-1.51 0.96,-0.35 2.03,-0.53 3.22,-0.53 0.87,0 1.72,0.1 2.54,0.3 0.83,0.2 1.57,0.46 2.23,0.78l-1.11 3.05zm14.68 5.01c0,0.89 -0.16,1.69 -0.47,2.42 -0.32,0.72 -0.75,1.34 -1.3,1.84 -0.54,0.51 -1.18,0.89 -1.9,1.17 -0.72,0.28 -1.5,0.41 -2.33,0.41 -0.83,0 -1.6,-0.12 -2.32,-0.36 -0.71,-0.25 -1.34,-0.61 -1.88,-1.09 -0.54,-0.48 -0.96,-1.08 -1.27,-1.8 -0.31,-0.72 -0.46,-1.56 -0.46,-2.52 0,-0.9 0.16,-1.71 0.47,-2.43 0.32,-0.72 0.75,-1.33 1.29,-1.83 0.55,-0.5 1.19,-0.89 1.91,-1.16 0.72,-0.26 1.49,-0.4 2.3,-0.4 0.84,0 1.61,0.12 2.34,0.36 0.72,0.23 1.35,0.59 1.89,1.07 0.54,0.49 0.96,1.08 1.27,1.8 0.3,0.72 0.46,1.56 0.46,2.52zm-3.49 0.07c0,-0.95 -0.2,-1.73 -0.62,-2.32 -0.41,-0.59 -1.05,-0.89 -1.89,-0.89 -0.83,0 -1.45,0.3 -1.86,0.88 -0.41,0.59 -0.61,1.34 -0.61,2.26 0,0.96 0.21,1.73 0.63,2.33 0.43,0.6 1.06,0.9 1.91,0.9 0.83,0 1.44,-0.3 1.84,-0.89 0.4,-0.59 0.6,-1.35 0.6,-2.27zm5.75 5.45l0 -10.97 3.53 0 0 8.13 4.94 0 0 2.84 -8.47 0zm10.43 0l0 -10.97 3.53 0 0 8.13 4.93 0 0 2.84 -8.46 0zm10.43 0l0 -10.97 8.62 0 0 2.57 -5.35 0 0 1.71 4.45 0 0 2.39 -4.45 0 0 1.74 5.35 0 0 2.56 -8.62 0zm13.84 -5.54c0,1.01 0.22,1.8 0.68,2.38 0.45,0.58 1.19,0.87 2.2,0.87 0.36,0 0.69,-0.03 0.99,-0.08 0.31,-0.05 0.56,-0.12 0.74,-0.19l0 -1.45 -2.56 0 0 -2.33 5.35 0 0 5.61c-0.58,0.29 -1.28,0.54 -2.1,0.74 -0.81,0.21 -1.66,0.31 -2.53,0.31 -0.93,0 -1.77,-0.12 -2.53,-0.36 -0.76,-0.25 -1.41,-0.61 -1.95,-1.1 -0.54,-0.49 -0.95,-1.09 -1.25,-1.81 -0.29,-0.72 -0.43,-1.55 -0.43,-2.5 0,-0.92 0.15,-1.73 0.45,-2.45 0.3,-0.72 0.72,-1.32 1.27,-1.82 0.54,-0.5 1.19,-0.88 1.96,-1.15 0.76,-0.26 1.59,-0.4 2.5,-0.4 0.81,0 1.63,0.09 2.46,0.27 0.82,0.17 1.48,0.4 1.97,0.67l-1.02 2.66c-1.15,-0.55 -2.21,-0.83 -3.18,-0.83 -0.92,0 -1.66,0.25 -2.2,0.75 -0.55,0.5 -0.82,1.23 -0.82,2.21zm9.83 5.54l0 -10.97 8.63 0 0 2.57 -5.36 0 0 1.71 4.46 0 0 2.39 -4.46 0 0 1.74 5.36 0 0 2.56 -8.63 0z"/>
  <path class="fil1" d="M75.06 -26.81c0,0.47 -0.08,0.9 -0.25,1.29 -0.16,0.39 -0.39,0.72 -0.68,0.98 -0.29,0.27 -0.63,0.48 -1.01,0.63 -0.38,0.14 -0.79,0.22 -1.23,0.22 -0.44,0 -0.85,-0.07 -1.23,-0.2 -0.38,-0.13 -0.71,-0.32 -0.99,-0.58 -0.29,-0.25 -0.51,-0.57 -0.68,-0.96 -0.16,-0.38 -0.24,-0.83 -0.24,-1.34 0,-0.48 0.08,-0.91 0.25,-1.3 0.17,-0.38 0.39,-0.7 0.68,-0.97 0.29,-0.27 0.63,-0.48 1.01,-0.62 0.38,-0.14 0.79,-0.21 1.22,-0.21 0.44,0 0.85,0.06 1.24,0.19 0.38,0.12 0.71,0.31 1,0.57 0.28,0.26 0.51,0.58 0.67,0.96 0.16,0.38 0.24,0.83 0.24,1.34zm-1.84 0.04c0,-0.51 -0.11,-0.92 -0.33,-1.24 -0.22,-0.31 -0.55,-0.47 -1,-0.47 -0.44,0 -0.77,0.16 -0.98,0.47 -0.22,0.31 -0.33,0.71 -0.33,1.2 0,0.51 0.11,0.92 0.34,1.24 0.22,0.33 0.56,0.49 1,0.49 0.45,0 0.77,-0.16 0.98,-0.48 0.21,-0.31 0.32,-0.72 0.32,-1.21zm3.04 -2.94l4.49 0 0 1.36 -2.74 0 0 1.03 2.25 0 0 1.29 -2.18 0 0 2.17 -1.82 0 0 -5.85zm7.83 5.85l0 -7.64 5.59 0 0 1.55 -3.68 0 0 1.48 2.95 0 0 1.55 -2.95 0 0 1.5 3.68 0 0 1.56 -5.59 0zm10.94 -5.85l1.69 0 0 5.91 -1.94 0 -2.17 -3.35 0 3.29 -1.7 0 0 -5.85 1.96 0 2.17 3.29 -0.01 -3.29zm4.67 2.89c0,0.54 0.12,0.96 0.36,1.27 0.25,0.31 0.63,0.47 1.17,0.47 0.19,0 0.36,-0.02 0.53,-0.05 0.16,-0.03 0.29,-0.06 0.39,-0.1l0 -0.77 -1.36 0 0 -1.25 2.84 0 0 3c-0.31,0.15 -0.68,0.28 -1.12,0.39 -0.43,0.11 -0.88,0.17 -1.34,0.17 -0.49,0 -0.93,-0.07 -1.34,-0.2 -0.4,-0.13 -0.74,-0.32 -1.03,-0.58 -0.29,-0.26 -0.5,-0.59 -0.66,-0.97 -0.15,-0.38 -0.23,-0.83 -0.23,-1.33 0,-0.49 0.08,-0.92 0.24,-1.31 0.16,-0.38 0.38,-0.7 0.67,-0.97 0.29,-0.26 0.63,-0.47 1.04,-0.61 0.4,-0.14 0.84,-0.21 1.32,-0.21 0.43,0 0.87,0.04 1.3,0.14 0.44,0.09 0.79,0.21 1.05,0.36l-0.54 1.41c-0.61,-0.29 -1.17,-0.43 -1.69,-0.43 -0.48,0 -0.87,0.13 -1.16,0.39 -0.29,0.27 -0.44,0.66 -0.44,1.18zm5.21 2.96l0 -5.85 1.87 0 0 5.85 -1.87 0zm7.4 -5.85l1.7 0 0 5.91 -1.95 0 -2.17 -3.35 0 3.29 -1.69 0 0 -5.85 1.96 0 2.16 3.29 -0.01 -3.29zm3.1 5.85l0 -5.85 4.57 0 0 1.36 -2.83 0 0 0.92 2.36 0 0 1.27 -2.36 0 0 0.93 2.83 0 0 1.37 -4.57 0zm5.84 0l0 -5.85 4.57 0 0 1.36 -2.83 0 0 0.92 2.36 0 0 1.27 -2.36 0 0 0.93 2.83 0 0 1.37 -4.57 0zm7.68 0l-1.84 0 0 -5.85 2.79 0c0.82,0 1.44,0.17 1.87,0.51 0.42,0.35 0.63,0.82 0.63,1.4 0,0.37 -0.09,0.7 -0.27,0.99 -0.19,0.3 -0.47,0.52 -0.85,0.67l1.35 2.28 -1.96 0 -1.03 -1.91 -0.69 0.04 0 1.87zm0.62 -3c0.31,0 0.55,-0.08 0.72,-0.22 0.17,-0.13 0.26,-0.34 0.26,-0.61 0,-0.24 -0.08,-0.43 -0.24,-0.56 -0.16,-0.14 -0.42,-0.21 -0.77,-0.21l-0.61 0 0 1.62 0.64 -0.02zm4.09 3l0 -5.85 1.87 0 0 5.85 -1.87 0zm7.4 -5.85l1.7 0 0 5.91 -1.95 0 -2.16 -3.35 0 3.29 -1.7 0 0 -5.85 1.96 0 2.17 3.29 -0.02 -3.29zm4.68 2.89c0,0.54 0.12,0.96 0.36,1.27 0.24,0.31 0.63,0.47 1.17,0.47 0.19,0 0.36,-0.02 0.53,-0.05 0.16,-0.03 0.29,-0.06 0.39,-0.1l0 -0.77 -1.36 0 0 -1.25 2.83 0 0 3c-0.31,0.15 -0.68,0.28 -1.11,0.39 -0.43,0.11 -0.88,0.17 -1.34,0.17 -0.49,0 -0.94,-0.07 -1.34,-0.2 -0.4,-0.13 -0.75,-0.32 -1.03,-0.58 -0.29,-0.26 -0.51,-0.59 -0.66,-0.97 -0.16,-0.38 -0.23,-0.83 -0.23,-1.33 0,-0.49 0.08,-0.92 0.24,-1.31 0.15,-0.38 0.38,-0.7 0.67,-0.97 0.29,-0.26 0.63,-0.47 1.04,-0.61 0.4,-0.14 0.84,-0.21 1.32,-0.21 0.43,0 0.87,0.04 1.3,0.14 0.44,0.09 0.79,0.21 1.05,0.36l-0.54 1.41c-0.61,-0.29 -1.17,-0.43 -1.69,-0.43 -0.48,0 -0.87,0.13 -1.16,0.39 -0.29,0.27 -0.44,0.66 -0.44,1.18zm13.26 2.96l-1.82 0 -0.38 -1.09 -2.01 0 -0.33 1.09 -1.85 0 2 -5.85 2.42 0 1.97 5.85zm-3.2 -4.61l-0.71 2.29 1.41 0 -0.7 -2.29zm8.28 -1.24l1.7 0 0 5.91 -1.95 0 -2.17 -3.35 0 3.29 -1.7 0 0 -5.85 1.96 0 2.17 3.29 -0.01 -3.29zm8.88 2.89c0,0.45 -0.07,0.86 -0.23,1.22 -0.15,0.37 -0.37,0.68 -0.65,0.94 -0.29,0.25 -0.65,0.45 -1.08,0.59 -0.43,0.14 -0.92,0.21 -1.47,0.21l-2.35 0 0 -5.85 2.47 0c0.54,0 1.01,0.06 1.42,0.2 0.41,0.14 0.76,0.34 1.04,0.59 0.28,0.25 0.49,0.56 0.64,0.91 0.14,0.35 0.21,0.75 0.21,1.19zm-1.88 0.05c0,-0.54 -0.15,-0.92 -0.43,-1.16 -0.29,-0.24 -0.65,-0.36 -1.06,-0.36l-0.54 0 0 3.01 0.55 0c0.42,0 0.78,-0.12 1.06,-0.37 0.28,-0.24 0.42,-0.62 0.42,-1.12zm12.39 -2.98l-1.68 5.77 -2.07 0 -1.68 -5.76 -0.05 5.88 -1.8 0 0.26 -7.64 2.75 0 1.59 5.73 1.59 -5.73 2.71 0 0.26 7.64 -1.85 0 -0.03 -5.89zm9.13 5.89l-1.82 0 -0.38 -1.09 -2 0 -0.33 1.09 -1.85 0 2 -5.85 2.42 0 1.96 5.85zm-3.2 -4.61l-0.71 2.29 1.42 0 -0.71 -2.29zm8.29 -1.24l1.69 0 0 5.91 -1.94 0 -2.17 -3.35 0 3.29 -1.7 0 0 -5.85 1.96 0 2.17 3.29 -0.01 -3.29zm9.02 5.85l-1.82 0 -0.37 -1.09 -2.01 0 -0.33 1.09 -1.86 0 2.01 -5.85 2.42 0 1.96 5.85zm-3.2 -4.61l-0.71 2.29 1.42 0 -0.71 -2.29zm5.61 1.65c0,0.54 0.12,0.96 0.36,1.27 0.24,0.31 0.63,0.47 1.17,0.47 0.18,0 0.36,-0.02 0.52,-0.05 0.17,-0.03 0.3,-0.06 0.39,-0.1l0 -0.77 -1.35 0 0 -1.25 2.83 0 0 3c-0.31,0.15 -0.68,0.28 -1.11,0.39 -0.43,0.11 -0.88,0.17 -1.34,0.17 -0.49,0 -0.94,-0.07 -1.34,-0.2 -0.4,-0.13 -0.75,-0.32 -1.03,-0.58 -0.29,-0.26 -0.51,-0.59 -0.66,-0.97 -0.16,-0.38 -0.24,-0.83 -0.24,-1.33 0,-0.49 0.08,-0.92 0.24,-1.31 0.16,-0.38 0.39,-0.7 0.67,-0.97 0.29,-0.26 0.64,-0.47 1.04,-0.61 0.41,-0.14 0.85,-0.21 1.33,-0.21 0.43,0 0.86,0.04 1.3,0.14 0.44,0.09 0.78,0.21 1.04,0.36l-0.53 1.41c-0.61,-0.29 -1.18,-0.43 -1.69,-0.43 -0.49,0 -0.88,0.13 -1.17,0.39 -0.29,0.27 -0.43,0.66 -0.43,1.18zm5.2 2.96l0 -5.85 4.57 0 0 1.36 -2.83 0 0 0.92 2.36 0 0 1.27 -2.36 0 0 0.93 2.83 0 0 1.37 -4.57 0zm11.67 0l-0.07 -4.01 -1.05 4.01 -2.01 0 -1.05 -4.08 -0.06 4.08 -1.72 0 0.18 -5.85 2.68 0 1.01 4.06 1 -4.06 2.64 0 0.2 5.85 -1.75 0zm3.02 0l0 -5.85 4.57 0 0 1.36 -2.84 0 0 0.92 2.36 0 0 1.27 -2.36 0 0 0.93 2.84 0 0 1.37 -4.57 0zm9.95 -5.85l1.7 0 0 5.91 -1.95 0 -2.16 -3.35 0 3.29 -1.7 0 0 -5.85 1.96 0 2.17 3.29 -0.02 -3.29zm6.42 1.51l0 4.34 -1.88 0 0 -4.34 -1.84 0 0 -1.51 5.57 0 0 1.51 -1.85 0z"/>
  <path class="fil2 str0" d="M7.63 -57.95l41.88 0c2.49,0 4.53,2.04 4.53,4.53l0 44.34c0,2.49 -2.04,4.53 -4.53,4.53l-41.88 0c-2.49,0 -4.53,-2.04 -4.53,-4.53l0 -44.34c0,-2.49 2.04,-4.53 4.53,-4.53z"/>
  <path class="fil3" d="M14.24 -57.05c2.76,2.28 6.46,3.37 8.81,7.84 1.29,2.8 0.68,3.74 5.59,8.62 -2.97,-2.52 -7.85,-2.09 -8.73,-7.28 -1.01,-4.3 -3.65,-6.54 -5.67,-9.18z"/>
  <path class="fil3" d="M43.04 -57.05c-2.77,2.28 -6.46,3.37 -8.81,7.84 -1.29,2.8 -0.68,3.74 -5.59,8.62 2.97,-2.52 7.85,-2.09 8.72,-7.28 1.01,-4.3 3.66,-6.54 5.68,-9.18z"/>
  <path class="fil3" d="M28.63 -49.85c1.21,0 2.19,0.97 2.19,2.17 0,1.2 -0.98,2.16 -2.19,2.16 -1.21,0 -2.19,-0.96 -2.19,-2.16 0,-1.2 0.98,-2.17 2.19,-2.17z"/>
  <path class="fil4" d="M14.24 -17.19c2.76,-2.28 6.46,-3.37 8.81,-7.85 1.29,-2.79 0.68,-3.73 5.59,-8.61 -2.97,2.51 -7.85,2.09 -8.73,7.28 -1.01,4.29 -3.65,6.53 -5.67,9.18z"/>
  <path class="fil4" d="M43.04 -17.19c-2.77,-2.28 -6.46,-3.37 -8.81,-7.85 -1.29,-2.79 -0.68,-3.73 -5.59,-8.61 2.97,2.51 7.85,2.09 8.72,7.28 1.01,4.29 3.66,6.53 5.68,9.18z"/>
  <path class="fil4" d="M28.63 -24.4c1.21,0 2.19,-0.97 2.19,-2.16 0,-1.2 -0.98,-2.17 -2.19,-2.17 -1.21,0 -2.19,0.97 -2.19,2.17 0,1.19 0.98,2.16 2.19,2.16z"/>
  <path class="fil5" d="M8.53 -22.86c2.29,-2.74 3.39,-6.39 7.91,-8.73 2.82,-1.27 3.77,-0.67 8.69,-5.53 -2.53,2.94 -2.1,7.78 -7.34,8.64 -4.34,1 -6.6,3.62 -9.26,5.62z"/>
  <path class="fil5" d="M8.53 -51.39c2.29,2.74 3.39,6.4 7.91,8.73 2.82,1.28 3.77,0.67 8.69,5.54 -2.53,-2.94 -2.1,-7.78 -7.34,-8.64 -4.34,-1 -6.6,-3.62 -9.26,-5.63z"/>
  <path class="fil5" d="M15.79 -37.11c0,-1.2 0.98,-2.17 2.19,-2.17 1.21,0 2.19,0.97 2.19,2.17 0,1.19 -0.98,2.16 -2.19,2.16 -1.21,0 -2.19,-0.97 -2.19,-2.16z"/>
  <path class="fil6" d="M48.75 -22.86c-2.29,-2.74 -3.39,-6.39 -7.91,-8.73 -2.82,-1.27 -3.77,-0.67 -8.7,-5.53 2.54,2.94 2.11,7.78 7.35,8.64 4.34,1 6.6,3.62 9.26,5.62z"/>
  <path class="fil6" d="M48.75 -51.39c-2.29,2.74 -3.39,6.4 -7.91,8.73 -2.82,1.28 -3.77,0.67 -8.7,5.54 2.54,-2.94 2.11,-7.78 7.35,-8.64 4.34,-1 6.6,-3.62 9.26,-5.63z"/>
  <path class="fil6" d="M41.49 -37.11c0,-1.2 -0.98,-2.17 -2.19,-2.17 -1.21,0 -2.19,0.97 -2.19,2.17 0,1.19 0.98,2.16 2.19,2.16 1.21,0 2.19,-0.97 2.19,-2.16z"/>
  <path class="fil0" d="M7.81 -6.78m9.08 -0.67c-0.53,0.3 -1.12,0.51 -1.79,0.67 -0.66,0.15 -1.35,0.23 -2.07,0.23 -0.77,0 -1.49,-0.11 -2.13,-0.34 -0.64,-0.23 -1.19,-0.56 -1.65,-0.99 -0.45,-0.41 -0.81,-0.94 -1.05,-1.57 -0.27,-0.62 -0.39,-1.33 -0.39,-2.11 0,-0.79 0.12,-1.5 0.37,-2.13 0.25,-0.63 0.61,-1.16 1.06,-1.6 0.45,-0.45 1.01,-0.79 1.65,-1.02 0.64,-0.23 1.37,-0.34 2.16,-0.34 0.31,0 0.64,0.02 0.97,0.05 0.32,0.04 0.65,0.09 0.98,0.15 0.32,0.08 0.63,0.16 0.93,0.26 0.29,0.11 0.54,0.23 0.78,0.37l-0.78 2.05c-0.93,-0.54 -1.87,-0.8 -2.8,-0.8 -0.89,0 -1.57,0.26 -2.09,0.79 -0.51,0.54 -0.78,1.25 -0.78,2.16 0,0.97 0.24,1.71 0.72,2.25 0.48,0.54 1.18,0.81 2.12,0.81 0.28,0 0.56,-0.03 0.84,-0.09 0.26,-0.05 0.51,-0.12 0.71,-0.2l0 -1.42 -2.39 0 0 -1.94 4.63 0 0 4.76zm1.39 0.67m7.71 -7.09c-0.35,-0.22 -0.74,-0.39 -1.16,-0.51 -0.42,-0.13 -0.86,-0.19 -1.29,-0.19 -0.84,0 -1.51,0.26 -2.01,0.79 -0.51,0.52 -0.76,1.25 -0.76,2.16 0,0.92 0.25,1.65 0.73,2.18 0.48,0.54 1.17,0.81 2.05,0.81 0.48,0 0.94,-0.08 1.37,-0.22 0.44,-0.14 0.84,-0.34 1.2,-0.57l0.51 2.17c-0.39,0.2 -0.87,0.37 -1.44,0.51 -0.6,0.12 -1.17,0.19 -1.75,0.19 -0.77,0 -1.47,-0.11 -2.11,-0.34 -0.64,-0.22 -1.17,-0.54 -1.62,-0.96 -0.45,-0.41 -0.81,-0.94 -1.06,-1.57 -0.25,-0.62 -0.37,-1.33 -0.37,-2.14 0,-0.79 0.12,-1.48 0.37,-2.11 0.23,-0.64 0.59,-1.16 1.04,-1.61 0.45,-0.44 1.01,-0.78 1.67,-1.01 0.64,-0.24 1.37,-0.36 2.16,-0.36 0.59,0 1.17,0.06 1.73,0.2 0.54,0.14 1.04,0.31 1.49,0.53l-0.75 2.05zm2.23 7.09m0 0l0 -9.64 7.09 0 0 1.98 -4.68 0 0 1.83 3.77 0 0 1.97 -3.77 0 0 1.88 4.68 0 0 1.98 -7.09 0zm8.56 0m9.27 -7.43l-2.13 7.27 -2.65 0 -2.13 -7.26 -0.06 7.42 -2.3 0 0.34 -9.64 3.5 0 2.02 7.23 2.02 -7.23 3.46 0 0.33 9.64 -2.35 0 -0.05 -7.43z"/>
  <path class="fil1" d="M72.48 -8.26l-1.89 0 -1.93 -7.19 1.96 0 0.97 5.09 1.29 -5.09 2.09 0 1.31 5.09 0.97 -5.09 1.87 0 -1.92 7.19 -1.91 0 -1.39 -5.12 -1.42 5.12zm11.02 0l0 -3.16c0,-0.32 -0.06,-0.55 -0.2,-0.67 -0.13,-0.12 -0.3,-0.18 -0.52,-0.18 -0.21,0 -0.39,0.04 -0.56,0.12 -0.17,0.08 -0.3,0.17 -0.42,0.28l0 3.61 -1.78 0 0 -7.6 1.78 -0.22 -0.01 3.21c0.24,-0.27 0.51,-0.49 0.81,-0.66 0.31,-0.17 0.63,-0.25 0.98,-0.25 0.54,0 0.95,0.16 1.26,0.49 0.3,0.32 0.45,0.77 0.45,1.35l0 3.68 -1.79 0zm4.95 -7.05c0,0.31 -0.09,0.54 -0.27,0.7 -0.19,0.16 -0.45,0.24 -0.78,0.24 -0.32,0 -0.57,-0.08 -0.76,-0.24 -0.19,-0.16 -0.28,-0.39 -0.28,-0.7 0,-0.31 0.09,-0.55 0.28,-0.71 0.19,-0.16 0.44,-0.25 0.76,-0.25 0.33,0 0.59,0.09 0.78,0.25 0.18,0.16 0.27,0.4 0.27,0.71zm-1.93 7.05l0 -5.26 1.78 -0.22 0 5.48 -1.78 0zm6.49 -0.02c-0.21,0.06 -0.41,0.11 -0.61,0.14 -0.19,0.04 -0.42,0.05 -0.69,0.05 -0.66,0 -1.16,-0.15 -1.5,-0.44 -0.35,-0.3 -0.5,-0.8 -0.47,-1.5l0.08 -2.04 -0.8 -0.13 0.03 -1.13 0.81 -0.27 0.02 -1.22 1.71 0 -0.01 1.28 1.34 0 -0.04 1.39 -1.43 0 -0.05 1.92c-0.02,0.25 0.04,0.43 0.17,0.54 0.13,0.11 0.31,0.17 0.53,0.17 0.11,0 0.22,-0.02 0.34,-0.04 0.12,-0.03 0.24,-0.06 0.36,-0.1l0.21 1.38zm2.27 -2.23c0.04,0.36 0.17,0.63 0.41,0.83 0.23,0.2 0.57,0.29 1.01,0.29 0.29,0 0.59,-0.04 0.89,-0.14 0.3,-0.1 0.59,-0.22 0.86,-0.37l0.17 1.37c-0.27,0.13 -0.58,0.24 -0.95,0.32 -0.36,0.07 -0.74,0.11 -1.13,0.11 -0.45,0 -0.86,-0.06 -1.23,-0.18 -0.37,-0.12 -0.68,-0.3 -0.95,-0.54 -0.26,-0.24 -0.46,-0.53 -0.6,-0.88 -0.14,-0.35 -0.21,-0.75 -0.21,-1.19 0,-0.44 0.07,-0.84 0.21,-1.19 0.14,-0.36 0.34,-0.66 0.6,-0.91 0.25,-0.25 0.56,-0.45 0.92,-0.58 0.36,-0.14 0.75,-0.21 1.17,-0.21 0.76,0 1.34,0.21 1.74,0.62 0.4,0.41 0.6,0.96 0.6,1.62 0,0.15 -0.01,0.31 -0.03,0.5 -0.01,0.18 -0.04,0.33 -0.08,0.45l-3.4 0.05 0 0.03zm1.87 -0.92l0 -0.11c0,-0.32 -0.07,-0.57 -0.2,-0.75 -0.14,-0.18 -0.34,-0.27 -0.62,-0.27 -0.3,0 -0.55,0.11 -0.72,0.34 -0.18,0.22 -0.28,0.49 -0.31,0.8l1.85 -0.01zm6.5 -4.57c0,0 -0.02,0.08 -0.05,0.23 -0.04,0.15 -0.08,0.32 -0.12,0.51 -0.04,0.18 -0.08,0.35 -0.11,0.5 -0.04,0.14 -0.06,0.22 -0.06,0.22 -0.13,-0.05 -0.27,-0.1 -0.42,-0.14 -0.14,-0.05 -0.3,-0.07 -0.47,-0.07 -0.23,0 -0.39,0.07 -0.49,0.2 -0.09,0.13 -0.13,0.32 -0.13,0.59l0 0.42 1.49 0 -0.03 1.39 -1.38 0 0 3.89 -1.79 0 0 -3.88 -0.92 -0.06 0.05 -1.13 0.86 -0.26 0.01 -0.46c0.03,-0.78 0.21,-1.34 0.57,-1.69 0.35,-0.35 0.86,-0.53 1.54,-0.53 0.33,0 0.62,0.03 0.86,0.09 0.25,0.06 0.44,0.12 0.59,0.18zm2.34 0.69c0,0.31 -0.09,0.54 -0.27,0.7 -0.19,0.16 -0.44,0.24 -0.77,0.24 -0.32,0 -0.58,-0.08 -0.77,-0.24 -0.18,-0.16 -0.28,-0.39 -0.28,-0.7 0,-0.31 0.1,-0.55 0.28,-0.71 0.19,-0.16 0.45,-0.25 0.77,-0.25 0.33,0 0.58,0.09 0.77,0.25 0.18,0.16 0.27,0.4 0.27,0.71zm-1.93 7.05l0 -5.26 1.78 -0.22 0 5.48 -1.78 0zm4.49 -2.25c0.03,0.36 0.16,0.63 0.4,0.83 0.24,0.2 0.58,0.29 1.01,0.29 0.3,0 0.59,-0.04 0.9,-0.14 0.3,-0.1 0.58,-0.22 0.85,-0.37l0.17 1.37c-0.26,0.13 -0.58,0.24 -0.94,0.32 -0.37,0.07 -0.75,0.11 -1.14,0.11 -0.45,0 -0.86,-0.06 -1.23,-0.18 -0.37,-0.12 -0.68,-0.3 -0.94,-0.54 -0.26,-0.24 -0.46,-0.53 -0.61,-0.88 -0.14,-0.35 -0.21,-0.75 -0.21,-1.19 0,-0.44 0.07,-0.84 0.21,-1.19 0.15,-0.36 0.34,-0.66 0.6,-0.91 0.26,-0.25 0.57,-0.45 0.92,-0.58 0.36,-0.14 0.75,-0.21 1.17,-0.21 0.76,0 1.34,0.21 1.74,0.62 0.41,0.41 0.61,0.96 0.61,1.62 0,0.15 -0.01,0.31 -0.03,0.5 -0.02,0.18 -0.05,0.33 -0.09,0.45l-3.39 0.05 0 0.03zm1.86 -0.92l0 -0.11c0,-0.32 -0.07,-0.57 -0.2,-0.75 -0.13,-0.18 -0.34,-0.27 -0.62,-0.27 -0.3,0 -0.54,0.11 -0.72,0.34 -0.18,0.22 -0.28,0.49 -0.31,0.8l1.85 -0.01zm2.65 3.17l0 -7.6 1.78 -0.22 0 7.82 -1.78 0zm6.53 -7.6l1.79 -0.22 0 7.82 -1.79 0 0.01 -0.55c-0.17,0.17 -0.37,0.34 -0.62,0.49 -0.24,0.15 -0.53,0.22 -0.87,0.22 -0.33,0 -0.64,-0.06 -0.92,-0.19 -0.28,-0.13 -0.52,-0.32 -0.72,-0.56 -0.2,-0.24 -0.36,-0.53 -0.48,-0.88 -0.11,-0.34 -0.17,-0.72 -0.17,-1.14 0,-0.44 0.07,-0.85 0.22,-1.2 0.14,-0.36 0.34,-0.66 0.58,-0.92 0.25,-0.25 0.53,-0.44 0.85,-0.58 0.32,-0.13 0.66,-0.2 1.02,-0.2 0.38,0 0.75,0.06 1.1,0.18l0 -2.27zm0 3.63c-0.1,-0.07 -0.21,-0.12 -0.35,-0.16 -0.14,-0.05 -0.29,-0.07 -0.45,-0.07 -0.38,0 -0.67,0.14 -0.88,0.42 -0.2,0.27 -0.31,0.63 -0.31,1.08 0,0.46 0.1,0.81 0.31,1.07 0.2,0.25 0.47,0.38 0.79,0.38 0.2,0 0.37,-0.04 0.51,-0.1 0.14,-0.07 0.27,-0.16 0.38,-0.27l0 -2.35zm2.71 3.06c0.03,-0.31 0.17,-0.56 0.39,-0.76 0.23,-0.19 0.51,-0.28 0.84,-0.28 0.2,0 0.38,0.04 0.55,0.12 0.17,0.08 0.31,0.18 0.44,0.32 0.12,0.13 0.21,0.29 0.28,0.46 0.07,0.18 0.11,0.37 0.11,0.57 0,0.26 -0.06,0.5 -0.16,0.73 -0.11,0.23 -0.26,0.44 -0.44,0.63 -0.18,0.2 -0.38,0.37 -0.62,0.54 -0.23,0.16 -0.47,0.31 -0.73,0.44l-0.78 -0.69c0.32,-0.22 0.59,-0.43 0.82,-0.63 0.22,-0.2 0.33,-0.39 0.33,-0.58 0,-0.16 -0.07,-0.3 -0.22,-0.43 -0.14,-0.13 -0.42,-0.28 -0.81,-0.44zm10.16 -2.85c0.47,0.08 0.84,0.27 1.13,0.56 0.28,0.3 0.43,0.66 0.43,1.11 0,0.28 -0.05,0.55 -0.13,0.81 -0.09,0.26 -0.25,0.48 -0.46,0.67 -0.22,0.18 -0.52,0.33 -0.9,0.44 -0.37,0.12 -0.85,0.17 -1.42,0.17l-3.14 0 0 -7.19 3.11 0c0.54,0 0.98,0.05 1.33,0.15 0.35,0.09 0.63,0.22 0.84,0.39 0.2,0.17 0.35,0.37 0.43,0.59 0.08,0.23 0.12,0.48 0.12,0.75 0,0.41 -0.12,0.74 -0.36,1 -0.23,0.25 -0.56,0.43 -0.98,0.55zm-0.49 -1.26c0,-0.54 -0.35,-0.81 -1.05,-0.81l-1.17 0 0 1.67 1.08 0c0.38,0 0.66,-0.08 0.86,-0.23 0.18,-0.15 0.28,-0.36 0.28,-0.63zm0.21 2.83c0,-0.31 -0.12,-0.53 -0.34,-0.65 -0.23,-0.12 -0.53,-0.18 -0.92,-0.18l-1.17 0 0 1.66 1.23 0c0.41,0 0.71,-0.06 0.91,-0.2 0.19,-0.13 0.29,-0.34 0.29,-0.63zm5.68 -0.19c-0.55,0.06 -0.94,0.15 -1.16,0.27 -0.22,0.12 -0.34,0.3 -0.34,0.53 0,0.18 0.07,0.32 0.19,0.43 0.12,0.1 0.28,0.15 0.48,0.15 0.18,0 0.34,-0.03 0.48,-0.1 0.14,-0.06 0.26,-0.15 0.35,-0.26l0 -1.02zm0.01 1.74c-0.19,0.22 -0.4,0.41 -0.64,0.57 -0.23,0.16 -0.53,0.24 -0.9,0.24 -0.23,0 -0.44,-0.03 -0.64,-0.11 -0.2,-0.08 -0.38,-0.18 -0.52,-0.32 -0.15,-0.13 -0.26,-0.29 -0.35,-0.47 -0.08,-0.18 -0.12,-0.37 -0.12,-0.58 0,-0.25 0.05,-0.49 0.15,-0.71 0.11,-0.23 0.28,-0.42 0.53,-0.59 0.24,-0.17 0.57,-0.31 0.97,-0.41 0.41,-0.11 0.91,-0.17 1.51,-0.19l0 -0.1c0,-0.29 -0.07,-0.49 -0.22,-0.62 -0.15,-0.13 -0.39,-0.2 -0.72,-0.2 -0.28,0 -0.57,0.05 -0.88,0.16 -0.31,0.1 -0.63,0.23 -0.94,0.38l-0.37 -1.3c0.28,-0.15 0.64,-0.29 1.07,-0.43 0.42,-0.13 0.89,-0.2 1.39,-0.2 0.46,0 0.85,0.05 1.16,0.15 0.32,0.11 0.57,0.26 0.76,0.46 0.2,0.2 0.33,0.44 0.41,0.73 0.08,0.29 0.12,0.62 0.11,1l-0.01 1.58c0,0.19 0.03,0.3 0.08,0.35 0.05,0.04 0.17,0.07 0.36,0.09l-0.18 1.26c-0.58,0.08 -1.02,0.05 -1.33,-0.09 -0.31,-0.15 -0.52,-0.36 -0.64,-0.65l-0.04 0zm6.48 0.64l0 -3.16c0,-0.32 -0.07,-0.55 -0.2,-0.67 -0.13,-0.12 -0.31,-0.18 -0.55,-0.18 -0.2,0 -0.38,0.04 -0.54,0.12 -0.16,0.08 -0.3,0.17 -0.41,0.28l0 3.61 -1.79 0 0 -5.26 1.79 -0.22 -0.02 0.88c0.24,-0.27 0.51,-0.49 0.82,-0.66 0.3,-0.17 0.62,-0.26 0.97,-0.26 0.54,0 0.96,0.16 1.26,0.49 0.3,0.32 0.45,0.77 0.45,1.35l0 3.68 -1.78 0zm4.42 -3.44c0,0.29 0.06,0.51 0.2,0.69 0.14,0.17 0.35,0.25 0.64,0.25 0.26,0 0.46,-0.08 0.59,-0.27 0.12,-0.18 0.19,-0.41 0.19,-0.71 0,-0.29 -0.07,-0.52 -0.2,-0.69 -0.14,-0.17 -0.34,-0.26 -0.62,-0.26 -0.25,0 -0.45,0.09 -0.59,0.27 -0.14,0.18 -0.21,0.42 -0.21,0.72zm-0.08 3.99c-0.13,0.06 -0.23,0.14 -0.31,0.24 -0.08,0.1 -0.12,0.21 -0.12,0.35 0,0.21 0.12,0.38 0.36,0.51 0.24,0.13 0.57,0.19 0.99,0.19 0.21,0 0.41,-0.01 0.59,-0.04 0.19,-0.03 0.35,-0.08 0.49,-0.15 0.13,-0.06 0.24,-0.14 0.32,-0.23 0.08,-0.09 0.11,-0.19 0.11,-0.3 0,-0.22 -0.11,-0.36 -0.34,-0.43 -0.22,-0.07 -0.57,-0.1 -1.04,-0.1 -0.16,0 -0.36,-0.01 -0.58,-0.01 -0.22,-0.01 -0.37,-0.02 -0.47,-0.03zm-0.71 -0.19c-0.23,-0.07 -0.45,-0.19 -0.64,-0.35 -0.19,-0.17 -0.29,-0.37 -0.29,-0.62 0,-0.25 0.11,-0.49 0.31,-0.71 0.21,-0.22 0.47,-0.38 0.8,-0.47 -0.33,-0.16 -0.59,-0.38 -0.79,-0.66 -0.2,-0.28 -0.3,-0.62 -0.3,-1 0,-0.29 0.06,-0.56 0.18,-0.82 0.11,-0.25 0.28,-0.47 0.5,-0.65 0.22,-0.19 0.48,-0.33 0.8,-0.44 0.31,-0.11 0.67,-0.16 1.07,-0.16 0.32,0 0.62,0.04 0.91,0.12 0.28,0.08 0.52,0.17 0.72,0.26l1.51 -0.13 0.08 1.44 -1.04 -0.16c0.05,0.05 0.09,0.14 0.11,0.26 0.03,0.13 0.04,0.23 0.04,0.33 0,0.26 -0.06,0.52 -0.17,0.75 -0.12,0.24 -0.28,0.45 -0.48,0.62 -0.21,0.17 -0.46,0.31 -0.75,0.41 -0.28,0.1 -0.6,0.15 -0.94,0.15 -0.13,0 -0.24,-0.01 -0.35,-0.02 -0.12,-0.02 -0.24,-0.04 -0.37,-0.06 -0.07,0.04 -0.15,0.09 -0.21,0.15 -0.07,0.07 -0.1,0.15 -0.1,0.24 0,0.12 0.08,0.21 0.23,0.26 0.15,0.05 0.4,0.07 0.75,0.07l0.63 0c0.37,0 0.71,0.03 1.01,0.08 0.3,0.05 0.56,0.13 0.78,0.25 0.22,0.12 0.39,0.27 0.51,0.47 0.12,0.19 0.18,0.43 0.18,0.71 0,0.34 -0.1,0.64 -0.28,0.91 -0.18,0.27 -0.43,0.5 -0.74,0.69 -0.31,0.19 -0.67,0.34 -1.07,0.44 -0.4,0.11 -0.83,0.16 -1.26,0.16 -0.36,0 -0.7,-0.03 -1.02,-0.09 -0.32,-0.06 -0.59,-0.14 -0.83,-0.26 -0.23,-0.11 -0.42,-0.26 -0.56,-0.43 -0.13,-0.17 -0.2,-0.38 -0.2,-0.61 0,-0.27 0.1,-0.52 0.31,-0.73 0.21,-0.21 0.53,-0.35 0.96,-0.4zm8.33 -2.74c-0.55,0.06 -0.94,0.15 -1.16,0.27 -0.22,0.12 -0.33,0.3 -0.33,0.53 0,0.18 0.06,0.32 0.18,0.43 0.12,0.1 0.28,0.15 0.48,0.15 0.18,0 0.34,-0.03 0.48,-0.1 0.14,-0.06 0.26,-0.15 0.35,-0.26l0 -1.02zm0.01 1.74c-0.19,0.22 -0.4,0.41 -0.63,0.57 -0.24,0.16 -0.54,0.24 -0.91,0.24 -0.23,0 -0.44,-0.03 -0.64,-0.11 -0.2,-0.08 -0.37,-0.18 -0.52,-0.32 -0.14,-0.13 -0.26,-0.29 -0.34,-0.47 -0.09,-0.18 -0.13,-0.37 -0.13,-0.58 0,-0.25 0.05,-0.49 0.15,-0.71 0.11,-0.23 0.28,-0.42 0.53,-0.59 0.24,-0.17 0.57,-0.31 0.98,-0.41 0.4,-0.11 0.9,-0.17 1.5,-0.19l0 -0.1c0,-0.29 -0.07,-0.49 -0.22,-0.62 -0.15,-0.13 -0.39,-0.2 -0.72,-0.2 -0.28,0 -0.57,0.05 -0.88,0.16 -0.31,0.1 -0.62,0.23 -0.94,0.38l-0.37 -1.3c0.29,-0.15 0.64,-0.29 1.07,-0.43 0.42,-0.13 0.89,-0.2 1.39,-0.2 0.47,0 0.85,0.05 1.17,0.15 0.31,0.11 0.56,0.26 0.76,0.46 0.19,0.2 0.32,0.44 0.41,0.73 0.08,0.29 0.11,0.62 0.1,1l-0.01 1.58c0,0.19 0.03,0.3 0.08,0.35 0.06,0.04 0.18,0.07 0.36,0.09l-0.17 1.26c-0.59,0.08 -1.03,0.05 -1.34,-0.09 -0.3,-0.15 -0.52,-0.36 -0.64,-0.65l-0.04 0zm2.99 0.64l0 -7.6 1.79 -0.22 0 7.82 -1.79 0zm8.49 -2.69c0,0.44 -0.07,0.84 -0.23,1.2 -0.15,0.36 -0.36,0.66 -0.62,0.9 -0.26,0.25 -0.56,0.44 -0.92,0.57 -0.35,0.13 -0.73,0.19 -1.12,0.19 -0.4,0 -0.78,-0.06 -1.13,-0.18 -0.34,-0.12 -0.65,-0.3 -0.9,-0.55 -0.25,-0.24 -0.45,-0.54 -0.6,-0.89 -0.14,-0.35 -0.22,-0.75 -0.22,-1.21 0,-0.45 0.08,-0.85 0.23,-1.21 0.15,-0.36 0.36,-0.66 0.62,-0.9 0.26,-0.25 0.57,-0.43 0.93,-0.56 0.35,-0.13 0.73,-0.19 1.13,-0.19 0.41,0 0.79,0.06 1.13,0.19 0.35,0.13 0.65,0.31 0.9,0.55 0.25,0.24 0.45,0.54 0.59,0.89 0.14,0.35 0.21,0.75 0.21,1.2zm-1.76 0.02c0,-0.45 -0.09,-0.81 -0.28,-1.09 -0.19,-0.27 -0.46,-0.4 -0.83,-0.4 -0.37,0 -0.65,0.13 -0.83,0.4 -0.18,0.28 -0.28,0.64 -0.28,1.1 0,0.46 0.1,0.82 0.29,1.08 0.18,0.26 0.46,0.4 0.83,0.4 0.37,0 0.64,-0.14 0.83,-0.4 0.18,-0.27 0.27,-0.64 0.27,-1.09zm4.53 2.67l-1.79 0 0 -5.26 1.79 -0.22 0 0.79c0.31,-0.55 0.74,-0.83 1.28,-0.83 0.31,0 0.61,0.07 0.89,0.22l-0.36 1.56c-0.21,-0.11 -0.43,-0.16 -0.66,-0.16 -0.23,0 -0.43,0.06 -0.62,0.18 -0.2,0.12 -0.37,0.32 -0.53,0.6l0 3.12zm4.16 -2.25c0.03,0.36 0.16,0.63 0.4,0.83 0.24,0.2 0.58,0.29 1.02,0.29 0.29,0 0.58,-0.04 0.89,-0.14 0.3,-0.1 0.59,-0.22 0.85,-0.37l0.18 1.37c-0.27,0.13 -0.59,0.24 -0.95,0.32 -0.37,0.07 -0.75,0.11 -1.14,0.11 -0.45,0 -0.86,-0.06 -1.23,-0.18 -0.37,-0.12 -0.68,-0.3 -0.94,-0.54 -0.26,-0.24 -0.46,-0.53 -0.6,-0.88 -0.15,-0.35 -0.22,-0.75 -0.22,-1.19 0,-0.44 0.07,-0.84 0.22,-1.19 0.14,-0.36 0.34,-0.66 0.59,-0.91 0.26,-0.25 0.57,-0.45 0.92,-0.58 0.36,-0.14 0.75,-0.21 1.17,-0.21 0.76,0 1.34,0.21 1.74,0.62 0.41,0.41 0.61,0.96 0.61,1.62 0,0.15 -0.01,0.31 -0.03,0.5 -0.02,0.18 -0.05,0.33 -0.09,0.45l-3.39 0.05 0 0.03zm1.86 -0.92l0 -0.11c0,-0.32 -0.06,-0.57 -0.2,-0.75 -0.13,-0.18 -0.34,-0.27 -0.61,-0.27 -0.31,0 -0.55,0.11 -0.73,0.34 -0.17,0.22 -0.28,0.49 -0.31,0.8l1.85 -0.01z"/>
  <polygon class="fil7" points="61.03,-57.71 62.09,-57.71 62.09,-4.75 61.03,-4.75 "/>
  <path class="fil8" d="M8.14 24.86l41.26 0c1.86,0 3.39,1.21 3.39,2.68l0 46c0,1.48 -1.53,2.69 -3.39,2.69l-41.26 0c-1.87,0 -3.39,-1.21 -3.39,-2.69l0 -46c0,-1.47 1.52,-2.68 3.39,-2.68z"/>
  <path class="fil9" d="M18.44 69.84l-2 -0.1 0.1 -0.77 3.77 0 0 3.83c-0.2,0.08 -0.46,0.17 -0.76,0.27 -0.3,0.09 -0.62,0.18 -0.97,0.25 -0.35,0.08 -0.71,0.14 -1.08,0.19 -0.37,0.05 -0.73,0.07 -1.08,0.07 -0.69,0 -1.29,-0.11 -1.78,-0.35 -0.49,-0.24 -0.89,-0.57 -1.19,-1 -0.31,-0.42 -0.53,-0.94 -0.67,-1.54 -0.14,-0.59 -0.21,-1.26 -0.21,-1.99 0,-0.74 0.12,-1.39 0.36,-1.98 0.24,-0.58 0.58,-1.07 1.02,-1.48 0.44,-0.4 0.96,-0.72 1.57,-0.93 0.61,-0.22 1.28,-0.33 2.01,-0.33 0.18,0 0.39,0.01 0.61,0.02 0.22,0.02 0.44,0.03 0.66,0.05 0.22,0.02 0.42,0.05 0.62,0.08 0.19,0.03 0.35,0.06 0.48,0.1l-0.31 1.37c-0.15,-0.05 -0.34,-0.1 -0.58,-0.15 -0.23,-0.05 -0.47,-0.1 -0.73,-0.14 -0.26,-0.04 -0.51,-0.07 -0.76,-0.1 -0.25,-0.03 -0.48,-0.04 -0.68,-0.04 -0.33,0 -0.63,0.02 -0.92,0.08 -0.29,0.05 -0.56,0.17 -0.8,0.36 -0.13,0.1 -0.24,0.26 -0.32,0.48 -0.09,0.22 -0.15,0.47 -0.2,0.76 -0.05,0.28 -0.08,0.59 -0.1,0.91 -0.02,0.32 -0.02,0.64 -0.02,0.95 0,1.26 0.15,2.21 0.46,2.88 0.32,0.66 0.81,0.99 1.48,0.99 0.17,0 0.35,0 0.53,-0.02 0.2,-0.01 0.38,-0.03 0.56,-0.05 0.19,-0.03 0.36,-0.05 0.52,-0.08 0.16,-0.03 0.3,-0.05 0.41,-0.08l0 -2.51zm9.21 0.87c0,0.34 -0.08,0.68 -0.25,1.02 -0.16,0.34 -0.4,0.65 -0.71,0.92 -0.3,0.28 -0.67,0.5 -1.11,0.67 -0.43,0.18 -0.92,0.26 -1.46,0.26 -0.28,0 -0.55,-0.01 -0.79,-0.05 -0.25,-0.03 -0.48,-0.08 -0.7,-0.13 -0.21,-0.06 -0.42,-0.13 -0.61,-0.22 -0.2,-0.08 -0.4,-0.18 -0.6,-0.28l0.45 -1.39c0.13,0.09 0.31,0.18 0.52,0.28 0.22,0.1 0.45,0.2 0.7,0.28 0.25,0.09 0.51,0.16 0.76,0.22 0.26,0.06 0.49,0.09 0.7,0.09 0.25,0 0.44,-0.02 0.6,-0.05 0.15,-0.03 0.29,-0.07 0.41,-0.13 0.13,-0.05 0.24,-0.19 0.33,-0.4 0.08,-0.22 0.12,-0.5 0.12,-0.84 0,-0.32 -0.11,-0.58 -0.32,-0.77 -0.21,-0.19 -0.47,-0.35 -0.79,-0.49 -0.32,-0.14 -0.66,-0.27 -1.03,-0.41 -0.37,-0.14 -0.71,-0.32 -1.03,-0.54 -0.32,-0.22 -0.58,-0.51 -0.79,-0.85 -0.22,-0.35 -0.32,-0.8 -0.32,-1.36 0,-0.27 0.07,-0.56 0.21,-0.86 0.15,-0.3 0.36,-0.58 0.63,-0.83 0.28,-0.25 0.62,-0.46 1.02,-0.62 0.41,-0.17 0.86,-0.25 1.37,-0.25 0.41,0 0.81,0.02 1.19,0.06 0.38,0.04 0.74,0.1 1.1,0.16l-0.29 1.4c-0.16,-0.07 -0.35,-0.12 -0.56,-0.18 -0.21,-0.05 -0.42,-0.1 -0.63,-0.14 -0.22,-0.04 -0.43,-0.07 -0.63,-0.1 -0.21,-0.02 -0.39,-0.03 -0.54,-0.03 -0.18,0 -0.35,0 -0.5,0.02 -0.15,0.02 -0.28,0.06 -0.41,0.14 -0.11,0.07 -0.2,0.18 -0.25,0.35 -0.05,0.17 -0.07,0.37 -0.07,0.6 0,0.23 0.06,0.43 0.18,0.59 0.12,0.15 0.28,0.29 0.48,0.41 0.21,0.12 0.43,0.22 0.69,0.32 0.25,0.1 0.52,0.21 0.79,0.32 0.27,0.11 0.53,0.24 0.78,0.38 0.26,0.15 0.49,0.33 0.69,0.54 0.2,0.22 0.36,0.48 0.48,0.78 0.12,0.3 0.19,0.68 0.19,1.11zm7.12 2.75l-1.06 -3.16 -3.38 0.05 -1.08 3.11 -1.16 0 3.55 -9.29 1.78 -0.31 3.31 9.6 -1.96 0zm-1.34 -4.04l-1.36 -4.05 -1.41 4.05 2.77 0zm6.5 -0.32l0.25 -0.05c0.24,-0.06 0.46,-0.13 0.67,-0.21 0.22,-0.09 0.4,-0.21 0.55,-0.38 0.16,-0.16 0.28,-0.38 0.37,-0.65 0.08,-0.27 0.13,-0.62 0.13,-1.04 0,-0.63 -0.14,-1.09 -0.43,-1.38 -0.29,-0.28 -0.66,-0.43 -1.13,-0.43 -0.12,0 -0.23,0 -0.35,0.01 -0.12,0.01 -0.25,0.02 -0.38,0.04l0 8.45 -1.82 0 0 -9.34c0.19,-0.01 0.4,-0.02 0.62,-0.03 0.23,-0.02 0.46,-0.03 0.71,-0.04 0.24,-0.01 0.48,-0.02 0.72,-0.02 0.25,-0.01 0.48,-0.01 0.71,-0.01 0.55,0 1.03,0.07 1.44,0.19 0.41,0.13 0.74,0.3 1.01,0.53 0.26,0.23 0.46,0.51 0.59,0.84 0.13,0.32 0.2,0.7 0.2,1.11 0,0.43 -0.07,0.84 -0.22,1.22 -0.14,0.38 -0.36,0.71 -0.66,1 -0.3,0.28 -0.68,0.5 -1.14,0.67 -0.46,0.16 -1.01,0.24 -1.64,0.24l-0.08 0 -0.12 -0.72z"/>
  <path class="fil10" d="M14.67 33.6c2.89,-4.36 7.82,-6.58 12.19,-7.03 -4.08,0.89 -9.68,3.91 -9.76,10.76 -0.11,8.79 8.14,13.6 16.04,10.5 -1.57,2.71 -3.69,4.87 -6.79,5.71 -4.59,1.26 -10.1,-0.29 -12.64,-4.44 -3.03,-4.92 -2.1,-10.85 0.96,-15.5z"/>
  <path class="fil11" d="M20.51 52.17c4.14,0.35 7.31,-1.03 9.08,-3.5 1.15,-0.04 2.32,-0.31 3.52,-0.86 -2.12,4.37 -6.32,6.54 -11.17,6.1 -5.25,-0.47 -9.1,-4.12 -9.95,-9.26 1.31,4.44 4.11,6.8 8.52,7.52z"/>
  <path class="fil12" d="M37.71 29.58c4.36,2.93 6.52,7.86 6.91,12.2 -0.84,-4.06 -3.8,-9.66 -10.69,-9.84 -8.85,-0.24 -13.82,7.88 -10.81,15.77 -2.71,-1.6 -4.85,-3.74 -5.66,-6.82 -1.19,-4.58 0.44,-10.02 4.66,-12.49 5,-2.93 10.96,-1.92 15.59,1.18z"/>
  <path class="fil13" d="M19.87 35.11c-0.42,4.1 0.93,7.27 3.39,9.07 0.02,1.14 0.27,2.3 0.81,3.5 -4.37,-2.17 -6.49,-6.36 -5.98,-11.17 0.55,-5.21 4.28,-8.98 9.46,-9.75 -4.48,1.24 -6.9,3.99 -7.68,8.35z"/>
  <path class="fil14" d="M41.43 52.51c-3,4.28 -8,6.36 -12.38,6.68 4.1,-0.77 9.79,-3.63 10.07,-10.47 0.36,-8.78 -7.75,-13.83 -15.74,-10.96 1.66,-2.66 3.84,-4.75 6.95,-5.51 4.63,-1.13 10.09,0.58 12.52,4.8 2.88,5 1.78,10.91 -1.42,15.46z"/>
  <path class="fil15" d="M36.13 33.79c-4.12,-0.47 -7.33,0.82 -9.17,3.24 -1.15,0 -2.33,0.24 -3.55,0.75 2.25,-4.31 6.51,-6.35 11.34,-5.78 5.24,0.62 8.99,4.38 9.69,9.54 -1.19,-4.47 -3.92,-6.91 -8.31,-7.75z"/>
  <path class="fil16" d="M18.28 55.87c-4.26,-3.04 -6.28,-8.03 -6.55,-12.38 0.72,4.08 3.52,9.76 10.41,10.14 8.84,0.48 14.03,-7.49 11.26,-15.46 2.66,1.68 4.74,3.87 5.45,6.98 1.07,4.61 -0.73,10 -5.01,12.35 -5.08,2.79 -11.02,1.61 -15.56,-1.63z"/>
  <path class="fil17" d="M37.22 50.88c0.53,-4.08 -0.73,-7.29 -3.13,-9.15 0.01,-1.14 -0.21,-2.32 -0.71,-3.53 4.31,2.29 6.3,6.55 5.66,11.34 -0.7,5.19 -4.54,8.85 -9.75,9.47 4.52,-1.11 7.02,-3.79 7.93,-8.13z"/>
  <path class="fil0" d="M28.18 35.99c3.83,0 6.94,3.08 6.94,6.89 0,3.81 -3.11,6.9 -6.94,6.9 -3.84,0 -6.95,-3.09 -6.95,-6.9 0,-3.81 3.11,-6.89 6.95,-6.89z"/>
  <path class="fil1" d="M82.55 40.95c-0.79,0.43 -1.68,0.77 -2.68,1 -0.99,0.23 -2.02,0.35 -3.08,0.35 -1.16,0 -2.23,-0.17 -3.19,-0.51 -0.96,-0.34 -1.78,-0.83 -2.46,-1.47 -0.68,-0.63 -1.21,-1.42 -1.59,-2.35 -0.38,-0.93 -0.57,-1.98 -0.57,-3.17 0,-1.18 0.19,-2.24 0.56,-3.18 0.37,-0.94 0.9,-1.74 1.59,-2.4 0.69,-0.66 1.51,-1.16 2.47,-1.51 0.96,-0.34 2.04,-0.52 3.23,-0.52 0.47,0 0.95,0.03 1.44,0.08 0.5,0.06 0.99,0.13 1.47,0.23 0.48,0.1 0.94,0.23 1.38,0.38 0.44,0.16 0.83,0.34 1.17,0.56l-1.16 3.06c-1.39,-0.79 -2.79,-1.19 -4.18,-1.19 -1.32,0 -2.36,0.39 -3.12,1.18 -0.77,0.8 -1.16,1.87 -1.16,3.22 0,1.44 0.36,2.57 1.07,3.38 0.71,0.81 1.76,1.21 3.15,1.21 0.41,0 0.83,-0.04 1.24,-0.13 0.41,-0.08 0.76,-0.19 1.07,-0.31l0 -2.12 -3.57 0 0 -2.93 6.92 0 0 7.14zm14.1 -4.56c0,0.9 -0.16,1.71 -0.48,2.44 -0.32,0.73 -0.75,1.35 -1.3,1.85 -0.55,0.51 -1.19,0.9 -1.92,1.18 -0.73,0.27 -1.51,0.41 -2.34,0.41 -0.84,0 -1.62,-0.12 -2.34,-0.37 -0.72,-0.24 -1.35,-0.61 -1.89,-1.09 -0.54,-0.49 -0.97,-1.09 -1.28,-1.81 -0.31,-0.72 -0.46,-1.57 -0.46,-2.54 0,-0.9 0.16,-1.72 0.47,-2.44 0.32,-0.72 0.75,-1.34 1.3,-1.85 0.55,-0.5 1.19,-0.89 1.92,-1.16 0.73,-0.27 1.5,-0.4 2.32,-0.4 0.84,0 1.62,0.12 2.35,0.35 0.73,0.24 1.36,0.6 1.9,1.09 0.55,0.48 0.97,1.08 1.28,1.81 0.31,0.72 0.47,1.56 0.47,2.53zm-3.51 0.07c0,-0.96 -0.21,-1.73 -0.63,-2.33 -0.42,-0.6 -1.05,-0.9 -1.9,-0.9 -0.84,0 -1.46,0.3 -1.87,0.89 -0.41,0.59 -0.62,1.34 -0.62,2.27 0,0.96 0.21,1.74 0.64,2.35 0.43,0.6 1.06,0.9 1.92,0.9 0.83,0 1.45,-0.29 1.85,-0.89 0.41,-0.6 0.61,-1.36 0.61,-2.29zm15.63 -1.64c0,1.39 -0.46,2.43 -1.37,3.12 -0.91,0.69 -2.18,1.04 -3.79,1.04l-1.13 0 0 2.97 -3.56 0 0 -11.05 4.88 0c1.61,0 2.84,0.36 3.69,1.05 0.85,0.7 1.28,1.66 1.28,2.87zm-3.39 0.1c0,-0.53 -0.18,-0.92 -0.52,-1.19 -0.35,-0.27 -0.85,-0.4 -1.5,-0.4l-1.02 0 0 3.34 0.93 -0.05c0.71,-0.03 1.24,-0.17 1.59,-0.43 0.34,-0.27 0.52,-0.69 0.52,-1.27zm16.14 7.03l-3.46 0 -0.72 -2.05 -3.81 0 -0.63 2.05 -3.53 0 3.81 -11.05 4.6 0 3.74 11.05zm-6.08 -8.69l-1.35 4.31 2.69 0 -1.34 -4.31zm7.92 8.69l0 -11.05 3.55 0 0 8.19 4.97 0 0 2.86 -8.52 0zm21.76 0l-3.46 0 -0.72 -2.05 -3.81 0 -0.63 2.05 -3.53 0 3.81 -11.05 4.6 0 3.74 11.05zm-6.08 -8.69l-1.35 4.31 2.69 0 -1.34 -4.31zm15.74 -2.36l3.23 0 0 11.17 -3.7 0 -4.13 -6.32 0 6.2 -3.22 0 0 -11.05 3.72 0 4.13 6.23 -0.03 -6.23zm14.92 8.38c0.65,0 1.18,-0.12 1.59,-0.35 0.41,-0.23 0.61,-0.57 0.61,-1.02 0,-0.24 -0.06,-0.45 -0.2,-0.62 -0.13,-0.17 -0.32,-0.32 -0.56,-0.45 -0.25,-0.13 -0.56,-0.25 -0.93,-0.37 -0.37,-0.11 -0.79,-0.24 -1.27,-0.38 -0.53,-0.13 -1.06,-0.31 -1.61,-0.53 -0.55,-0.21 -1.05,-0.48 -1.51,-0.82 -0.45,-0.33 -0.83,-0.74 -1.11,-1.24 -0.28,-0.5 -0.43,-1.11 -0.43,-1.83 0,-1.34 0.48,-2.42 1.44,-3.23 0.96,-0.82 2.34,-1.22 4.13,-1.22 1.15,0 2.17,0.11 3.06,0.34 0.88,0.23 1.68,0.54 2.37,0.92l-0.71 3.02c-0.73,-0.38 -1.51,-0.69 -2.35,-0.92 -0.83,-0.23 -1.62,-0.34 -2.34,-0.34 -1.27,0 -1.9,0.4 -1.9,1.22 0,0.23 0.07,0.43 0.23,0.61 0.15,0.18 0.37,0.33 0.65,0.46 0.28,0.13 0.6,0.26 0.97,0.37 0.38,0.12 0.78,0.23 1.21,0.36 0.56,0.15 1.11,0.34 1.65,0.55 0.54,0.22 1.03,0.49 1.46,0.82 0.44,0.33 0.79,0.74 1.05,1.22 0.26,0.49 0.4,1.07 0.4,1.77 0,0.69 -0.14,1.32 -0.4,1.89 -0.26,0.56 -0.65,1.06 -1.15,1.47 -0.5,0.42 -1.12,0.74 -1.86,0.97 -0.73,0.23 -1.58,0.35 -2.54,0.35 -1.09,0 -2.12,-0.13 -3.1,-0.37 -0.99,-0.25 -1.82,-0.56 -2.5,-0.95l0.7 -3.04c0.72,0.38 1.51,0.7 2.35,0.96 0.84,0.25 1.71,0.38 2.6,0.38zm16.6 -5.01c-0.35,-0.21 -0.78,-0.39 -1.26,-0.53 -0.49,-0.14 -0.96,-0.21 -1.41,-0.21 -0.83,0 -1.49,0.26 -1.95,0.78 -0.46,0.51 -0.7,1.21 -0.7,2.07 0,0.9 0.22,1.61 0.66,2.13 0.45,0.53 1.11,0.79 1.99,0.79 0.53,0 1.02,-0.07 1.48,-0.2 0.45,-0.13 0.91,-0.32 1.35,-0.59l0.77 3.02c-0.2,0.11 -0.45,0.21 -0.74,0.29 -0.3,0.09 -0.61,0.16 -0.95,0.23 -0.34,0.07 -0.69,0.13 -1.05,0.17 -0.36,0.03 -0.7,0.05 -1.02,0.05 -1.86,0 -3.33,-0.48 -4.43,-1.46 -1.09,-0.98 -1.63,-2.43 -1.63,-4.35 0,-0.89 0.14,-1.7 0.41,-2.42 0.28,-0.72 0.69,-1.34 1.21,-1.84 0.53,-0.51 1.18,-0.9 1.95,-1.18 0.78,-0.28 1.65,-0.41 2.63,-0.41 0.71,0 1.38,0.07 2.01,0.21 0.62,0.15 1.21,0.33 1.75,0.54l-1.07 2.91zm10.43 7.68l0 -4.27 -3.78 0 0 4.27 -3.56 0 0 -11.05 3.56 0 0 4.16 3.78 0 0 -4.16 3.55 0 0 11.05 -3.55 0zm17.84 -5.56c0,0.9 -0.16,1.71 -0.48,2.44 -0.31,0.73 -0.75,1.35 -1.3,1.85 -0.55,0.51 -1.19,0.9 -1.91,1.18 -0.73,0.27 -1.51,0.41 -2.35,0.41 -0.84,0 -1.61,-0.12 -2.33,-0.37 -0.72,-0.24 -1.35,-0.61 -1.9,-1.09 -0.54,-0.49 -0.96,-1.09 -1.27,-1.81 -0.31,-0.72 -0.47,-1.57 -0.47,-2.54 0,-0.9 0.16,-1.72 0.48,-2.44 0.31,-0.72 0.75,-1.34 1.3,-1.85 0.55,-0.5 1.19,-0.89 1.91,-1.16 0.73,-0.27 1.51,-0.4 2.33,-0.4 0.83,0 1.62,0.12 2.34,0.35 0.73,0.24 1.37,0.6 1.91,1.09 0.54,0.48 0.97,1.08 1.28,1.81 0.3,0.72 0.46,1.56 0.46,2.53zm-3.51 0.07c0,-0.96 -0.21,-1.73 -0.62,-2.33 -0.42,-0.6 -1.06,-0.9 -1.91,-0.9 -0.84,0 -1.46,0.3 -1.87,0.89 -0.41,0.59 -0.61,1.34 -0.61,2.27 0,0.96 0.21,1.74 0.63,2.35 0.43,0.6 1.07,0.9 1.92,0.9 0.84,0 1.46,-0.29 1.86,-0.89 0.4,-0.6 0.6,-1.36 0.6,-2.29zm17.38 -0.07c0,0.9 -0.16,1.71 -0.48,2.44 -0.32,0.73 -0.75,1.35 -1.3,1.85 -0.55,0.51 -1.19,0.9 -1.92,1.18 -0.72,0.27 -1.51,0.41 -2.34,0.41 -0.84,0 -1.62,-0.12 -2.34,-0.37 -0.72,-0.24 -1.35,-0.61 -1.89,-1.09 -0.54,-0.49 -0.97,-1.09 -1.28,-1.81 -0.31,-0.72 -0.46,-1.57 -0.46,-2.54 0,-0.9 0.16,-1.72 0.47,-2.44 0.32,-0.72 0.76,-1.34 1.3,-1.85 0.56,-0.5 1.19,-0.89 1.92,-1.16 0.73,-0.27 1.5,-0.4 2.32,-0.4 0.84,0 1.62,0.12 2.35,0.35 0.73,0.24 1.36,0.6 1.9,1.09 0.55,0.48 0.97,1.08 1.28,1.81 0.31,0.72 0.47,1.56 0.47,2.53zm-3.51 0.07c0,-0.96 -0.21,-1.73 -0.63,-2.33 -0.42,-0.6 -1.05,-0.9 -1.9,-0.9 -0.84,0 -1.46,0.3 -1.87,0.89 -0.41,0.59 -0.62,1.34 -0.62,2.27 0,0.96 0.22,1.74 0.64,2.35 0.43,0.6 1.07,0.9 1.92,0.9 0.83,0 1.45,-0.29 1.86,-0.89 0.4,-0.6 0.6,-1.36 0.6,-2.29zm5.78 5.49l0 -11.05 3.56 0 0 8.19 4.97 0 0 2.86 -8.53 0z"/>
  <path class="fil1" d="M75.98 54.93c0,0.54 -0.09,1.03 -0.28,1.47 -0.19,0.44 -0.45,0.82 -0.78,1.13 -0.34,0.3 -0.72,0.54 -1.16,0.71 -0.43,0.16 -0.9,0.25 -1.4,0.25 -0.51,0 -0.97,-0.08 -1.41,-0.22 -0.43,-0.15 -0.81,-0.37 -1.13,-0.67 -0.33,-0.29 -0.58,-0.66 -0.77,-1.09 -0.19,-0.44 -0.28,-0.95 -0.28,-1.54 0,-0.55 0.1,-1.04 0.29,-1.48 0.19,-0.43 0.45,-0.8 0.78,-1.11 0.33,-0.31 0.71,-0.54 1.15,-0.71 0.44,-0.16 0.9,-0.24 1.39,-0.24 0.51,0 0.97,0.07 1.41,0.22 0.44,0.14 0.82,0.36 1.15,0.65 0.32,0.29 0.58,0.66 0.76,1.1 0.19,0.43 0.28,0.95 0.28,1.53zm-2.1 0.04c0,-0.58 -0.13,-1.05 -0.38,-1.41 -0.25,-0.36 -0.63,-0.54 -1.14,-0.54 -0.51,0 -0.88,0.18 -1.13,0.53 -0.24,0.36 -0.37,0.82 -0.37,1.38 0,0.58 0.13,1.05 0.39,1.42 0.25,0.36 0.64,0.55 1.15,0.55 0.5,0 0.87,-0.18 1.11,-0.54 0.25,-0.36 0.37,-0.82 0.37,-1.39zm3.47 -3.36l5.12 0 0 1.56 -3.13 0 0 1.18 2.57 0 0 1.47 -2.48 0 0 2.47 -2.08 0 0 -6.68zm16.97 6.68l-2.2 0 -0.64 -1.85 -3.24 0 -0.62 1.85 -2.21 0 3.1 -8.72 2.77 0 3.04 8.72zm-4.44 -7l-1.16 3.42 2.27 0 -1.11 -3.42zm7.37 7l-2.09 0 0 -6.68 3.18 0c0.94,0 1.65,0.2 2.14,0.59 0.48,0.4 0.72,0.93 0.72,1.6 0,0.42 -0.1,0.8 -0.31,1.13 -0.21,0.34 -0.53,0.59 -0.97,0.77l1.55 2.59 -2.25 0 -1.17 -2.17 -0.8 0.04 0 2.13zm0.72 -3.41c0.35,-0.01 0.62,-0.1 0.82,-0.26 0.19,-0.15 0.29,-0.39 0.29,-0.69 0,-0.28 -0.09,-0.5 -0.27,-0.65 -0.18,-0.16 -0.47,-0.23 -0.87,-0.23l-0.7 0 0 1.84 0.73 -0.01zm9.66 -1.23c-0.21,-0.13 -0.47,-0.24 -0.76,-0.32 -0.29,-0.09 -0.57,-0.13 -0.84,-0.13 -0.5,0 -0.9,0.16 -1.17,0.47 -0.28,0.31 -0.42,0.73 -0.42,1.25 0,0.55 0.13,0.98 0.39,1.29 0.27,0.32 0.67,0.48 1.2,0.48 0.31,0 0.61,-0.04 0.88,-0.12 0.28,-0.08 0.55,-0.2 0.82,-0.36l0.46 1.83c-0.12,0.07 -0.27,0.12 -0.45,0.18 -0.17,0.05 -0.36,0.09 -0.57,0.14 -0.2,0.04 -0.41,0.07 -0.63,0.09 -0.21,0.03 -0.42,0.04 -0.61,0.04 -1.12,0 -2,-0.3 -2.66,-0.89 -0.65,-0.59 -0.98,-1.46 -0.98,-2.63 0,-0.54 0.08,-1.02 0.25,-1.46 0.17,-0.44 0.41,-0.81 0.73,-1.12 0.31,-0.3 0.7,-0.54 1.17,-0.71 0.46,-0.17 0.99,-0.25 1.57,-0.25 0.43,0 0.83,0.04 1.21,0.13 0.38,0.09 0.73,0.2 1.05,0.33l-0.64 1.76zm6.26 4.64l0 -2.58 -2.27 0 0 2.58 -2.13 0 0 -6.68 2.13 0 0 2.51 2.27 0 0 -2.51 2.14 0 0 6.68 -2.14 0zm3.76 0l0 -6.68 2.13 0 0 6.68 -2.13 0zm7.53 -4.95l0 4.95 -2.15 0 0 -4.95 -2.09 0 0 -1.73 6.36 0 0 1.73 -2.12 0zm3.26 4.95l0 -6.68 5.22 0 0 1.56 -3.24 0 0 1.05 2.7 0 0 1.45 -2.7 0 0 1.06 3.24 0 0 1.56 -5.22 0zm11.66 -4.64c-0.21,-0.13 -0.46,-0.24 -0.76,-0.32 -0.29,-0.09 -0.57,-0.13 -0.84,-0.13 -0.5,0 -0.89,0.16 -1.17,0.47 -0.28,0.31 -0.42,0.73 -0.42,1.25 0,0.55 0.13,0.98 0.4,1.29 0.26,0.32 0.66,0.48 1.19,0.48 0.32,0 0.61,-0.04 0.89,-0.12 0.27,-0.08 0.54,-0.2 0.81,-0.36l0.46 1.83c-0.12,0.07 -0.27,0.12 -0.44,0.18 -0.18,0.05 -0.37,0.09 -0.58,0.14 -0.2,0.04 -0.41,0.07 -0.62,0.09 -0.22,0.03 -0.42,0.04 -0.62,0.04 -1.11,0 -2,-0.3 -2.65,-0.89 -0.66,-0.59 -0.99,-1.46 -0.99,-2.63 0,-0.54 0.09,-1.02 0.25,-1.46 0.17,-0.44 0.41,-0.81 0.73,-1.12 0.31,-0.3 0.7,-0.54 1.17,-0.71 0.46,-0.17 0.99,-0.25 1.58,-0.25 0.42,0 0.83,0.04 1.2,0.13 0.38,0.09 0.73,0.2 1.06,0.33l-0.65 1.76zm5.54 -0.31l0 4.95 -2.15 0 0 -4.95 -2.09 0 0 -1.73 6.36 0 0 1.73 -2.12 0zm9.47 2.15c0,0.52 -0.08,0.97 -0.23,1.34 -0.16,0.38 -0.38,0.69 -0.67,0.94 -0.28,0.25 -0.62,0.43 -1,0.54 -0.39,0.12 -0.81,0.18 -1.26,0.18 -0.45,0 -0.86,-0.05 -1.24,-0.16 -0.39,-0.1 -0.72,-0.26 -1.01,-0.49 -0.29,-0.23 -0.51,-0.52 -0.68,-0.88 -0.16,-0.36 -0.24,-0.79 -0.24,-1.3l0 -4.05 2.13 0 0 3.81c0,0.86 0.36,1.3 1.06,1.3 0.35,0 0.6,-0.1 0.77,-0.28 0.17,-0.19 0.25,-0.51 0.25,-0.98l0 -3.85 2.12 0 0 3.88zm3.59 2.8l-2.09 0 0 -6.68 3.18 0c0.93,0 1.65,0.2 2.13,0.59 0.48,0.4 0.73,0.93 0.73,1.6 0,0.42 -0.11,0.8 -0.32,1.13 -0.21,0.34 -0.53,0.59 -0.97,0.77l1.55 2.59 -2.25 0 -1.17 -2.17 -0.79 0.04 0 2.13zm0.71 -3.41c0.35,-0.01 0.63,-0.1 0.82,-0.26 0.2,-0.15 0.3,-0.39 0.3,-0.69 0,-0.28 -0.1,-0.5 -0.28,-0.65 -0.18,-0.16 -0.47,-0.23 -0.87,-0.23l-0.7 0 0 1.84 0.73 -0.01zm4.67 3.41l0 -6.68 5.22 0 0 1.56 -3.24 0 0 1.05 2.69 0 0 1.45 -2.69 0 0 1.06 3.24 0 0 1.56 -5.22 0zm12.25 -5.35c0.22,-0.15 0.41,-0.32 0.56,-0.5 0.16,-0.18 0.23,-0.41 0.23,-0.69 0,-0.3 -0.09,-0.53 -0.28,-0.7 -0.18,-0.16 -0.42,-0.25 -0.71,-0.25 -0.28,0 -0.5,0.09 -0.67,0.27 -0.18,0.19 -0.26,0.4 -0.26,0.64 0,0.3 0.1,0.54 0.31,0.72 0.21,0.19 0.48,0.36 0.82,0.51zm1.23 2.88c-0.33,-0.35 -0.66,-0.65 -1,-0.9 -0.34,-0.25 -0.66,-0.44 -0.97,-0.56 -0.29,0.17 -0.52,0.36 -0.7,0.59 -0.17,0.23 -0.26,0.48 -0.26,0.75 0,0.36 0.12,0.65 0.36,0.86 0.24,0.21 0.54,0.31 0.89,0.31 0.34,0 0.64,-0.09 0.92,-0.28 0.27,-0.19 0.52,-0.44 0.76,-0.77zm0.83 1.08c-0.43,0.54 -0.91,0.94 -1.41,1.2 -0.51,0.27 -1.02,0.4 -1.53,0.4 -0.41,0 -0.79,-0.06 -1.13,-0.17 -0.34,-0.12 -0.64,-0.28 -0.89,-0.49 -0.24,-0.21 -0.43,-0.46 -0.58,-0.75 -0.13,-0.3 -0.2,-0.62 -0.2,-0.97 0,-0.31 0.05,-0.59 0.16,-0.85 0.11,-0.25 0.26,-0.48 0.44,-0.67 0.18,-0.2 0.4,-0.36 0.64,-0.5 0.24,-0.13 0.49,-0.23 0.74,-0.3 -0.38,-0.2 -0.68,-0.48 -0.93,-0.81 -0.25,-0.34 -0.37,-0.74 -0.37,-1.18 0,-0.3 0.06,-0.59 0.19,-0.88 0.12,-0.29 0.31,-0.55 0.55,-0.78 0.24,-0.24 0.54,-0.42 0.89,-0.56 0.36,-0.14 0.76,-0.21 1.23,-0.21 0.41,0 0.78,0.05 1.12,0.15 0.34,0.1 0.63,0.25 0.87,0.44 0.25,0.18 0.44,0.4 0.58,0.67 0.14,0.26 0.2,0.54 0.2,0.86 0,0.24 -0.04,0.47 -0.13,0.68 -0.1,0.21 -0.22,0.39 -0.37,0.55 -0.16,0.17 -0.34,0.31 -0.54,0.42 -0.21,0.12 -0.42,0.21 -0.63,0.27 0.16,0.08 0.35,0.2 0.57,0.38 0.23,0.18 0.44,0.36 0.63,0.55l0.81 -1.5 2.27 0 -1.99 2.61 2.09 2.61 -2.19 0.39 -1.09 -1.56zm13.44 -4.3c0,1.02 -0.34,1.81 -1,2.35 -0.67,0.53 -1.63,0.8 -2.88,0.8l-0.85 0.02 0 2.52 -2.22 0 0 -8.72 3.22 0c0.61,0 1.15,0.08 1.61,0.23 0.46,0.15 0.85,0.35 1.17,0.62 0.31,0.26 0.55,0.58 0.71,0.95 0.16,0.38 0.24,0.79 0.24,1.23zm-2.22 0.06c0,-0.87 -0.56,-1.31 -1.68,-1.31l-0.89 0 0 2.7 0.89 -0.01c0.57,-0.01 1,-0.13 1.27,-0.36 0.27,-0.23 0.41,-0.57 0.41,-1.02zm3.46 5.63l0 -6.68 2.13 0 0 4.95 2.99 0 0 1.73 -5.12 0zm13.07 0l-2.08 0 -0.43 -1.24 -2.29 0 -0.38 1.24 -2.12 0 2.29 -6.68 2.76 0 2.25 6.68zm-3.66 -5.26l-0.81 2.61 1.62 0 -0.81 -2.61zm9.46 -1.42l1.94 0 0 6.75 -2.23 0 -2.47 -3.82 0 3.75 -1.94 0 0 -6.68 2.24 0 2.47 3.77 -0.01 -3.77zm8.24 0l1.94 0 0 6.75 -2.22 0 -2.48 -3.82 0 3.75 -1.94 0 0 -6.68 2.24 0 2.48 3.77 -0.02 -3.77zm3.55 6.68l0 -6.68 2.13 0 0 6.68 -2.13 0zm8.45 -6.68l1.94 0 0 6.75 -2.23 0 -2.47 -3.82 0 3.75 -1.94 0 0 -6.68 2.24 0 2.47 3.77 -0.01 -3.77zm5.34 3.31c0,0.61 0.14,1.09 0.41,1.45 0.28,0.35 0.72,0.53 1.33,0.53 0.22,0 0.42,-0.02 0.6,-0.05 0.19,-0.03 0.34,-0.07 0.45,-0.12l0 -0.88 -1.55 0 0 -1.42 3.24 0 0 3.42c-0.36,0.17 -0.78,0.32 -1.27,0.45 -0.49,0.13 -1,0.19 -1.53,0.19 -0.56,0 -1.07,-0.08 -1.53,-0.22 -0.46,-0.15 -0.86,-0.38 -1.18,-0.67 -0.33,-0.3 -0.58,-0.67 -0.75,-1.11 -0.18,-0.43 -0.27,-0.94 -0.27,-1.52 0,-0.56 0.09,-1.05 0.27,-1.49 0.18,-0.44 0.44,-0.81 0.77,-1.11 0.33,-0.3 0.73,-0.53 1.19,-0.7 0.46,-0.16 0.96,-0.24 1.51,-0.24 0.49,0 0.99,0.05 1.48,0.16 0.5,0.11 0.9,0.24 1.2,0.41l-0.62 1.62c-0.69,-0.33 -1.34,-0.5 -1.92,-0.5 -0.56,0 -1,0.15 -1.33,0.45 -0.33,0.3 -0.5,0.75 -0.5,1.35z"/>
  <path class="fil1" d="M72.64 72.29l-1.83 0 -1.86 -6.94 1.89 0 0.93 4.91 1.25 -4.91 2.02 0 1.26 4.91 0.93 -4.91 1.81 0 -1.85 6.94 -1.84 0 -1.35 -4.94 -1.36 4.94zm10.63 0l0 -3.05c0,-0.31 -0.06,-0.53 -0.19,-0.64 -0.13,-0.12 -0.3,-0.18 -0.51,-0.18 -0.2,0 -0.38,0.04 -0.54,0.11 -0.16,0.08 -0.29,0.17 -0.4,0.28l0 3.48 -1.72 0 0 -7.34 1.72 -0.21 -0.01 3.1c0.22,-0.26 0.49,-0.47 0.78,-0.63 0.29,-0.16 0.61,-0.25 0.95,-0.25 0.51,0 0.91,0.16 1.21,0.48 0.28,0.31 0.43,0.75 0.43,1.3l0 3.55 -1.72 0zm4.77 -6.8c0,0.29 -0.09,0.52 -0.26,0.67 -0.18,0.16 -0.43,0.24 -0.75,0.24 -0.31,0 -0.55,-0.08 -0.73,-0.24 -0.19,-0.15 -0.28,-0.38 -0.28,-0.67 0,-0.31 0.09,-0.54 0.28,-0.69 0.18,-0.16 0.42,-0.23 0.73,-0.23 0.32,0 0.57,0.07 0.75,0.23 0.17,0.15 0.26,0.38 0.26,0.69zm-1.86 6.8l0 -5.07 1.72 -0.21 0 5.28 -1.72 0zm6.26 -0.02c-0.2,0.06 -0.4,0.1 -0.58,0.14 -0.19,0.03 -0.42,0.05 -0.68,0.05 -0.63,0 -1.11,-0.15 -1.44,-0.43 -0.33,-0.29 -0.48,-0.78 -0.45,-1.45l0.07 -1.96 -0.77 -0.14 0.03 -1.08 0.78 -0.26 0.02 -1.18 1.65 0 -0.01 1.24 1.29 0 -0.03 1.34 -1.38 0 -0.06 1.85c-0.01,0.24 0.05,0.41 0.17,0.52 0.13,0.11 0.3,0.16 0.51,0.16 0.11,0 0.21,-0.01 0.33,-0.04 0.11,-0.02 0.23,-0.06 0.35,-0.09l0.2 1.33zm2.2 -2.15c0.03,0.34 0.16,0.61 0.38,0.8 0.23,0.19 0.56,0.28 0.98,0.28 0.28,0 0.57,-0.04 0.86,-0.14 0.29,-0.09 0.57,-0.21 0.83,-0.36l0.16 1.33c-0.25,0.13 -0.56,0.23 -0.91,0.31 -0.35,0.07 -0.72,0.11 -1.09,0.11 -0.44,0 -0.84,-0.06 -1.19,-0.18 -0.36,-0.12 -0.66,-0.29 -0.91,-0.52 -0.25,-0.23 -0.45,-0.52 -0.58,-0.85 -0.14,-0.34 -0.21,-0.72 -0.21,-1.15 0,-0.42 0.07,-0.81 0.21,-1.15 0.13,-0.34 0.33,-0.64 0.57,-0.88 0.25,-0.24 0.55,-0.42 0.89,-0.56 0.34,-0.13 0.72,-0.2 1.13,-0.2 0.73,0 1.29,0.2 1.68,0.6 0.39,0.4 0.58,0.92 0.58,1.57 0,0.14 -0.01,0.3 -0.03,0.47 -0.01,0.18 -0.04,0.33 -0.08,0.44l-3.27 0.05 0 0.03zm1.79 -0.89l0 -0.1c0,-0.31 -0.06,-0.55 -0.19,-0.73 -0.13,-0.17 -0.33,-0.26 -0.59,-0.26 -0.3,0 -0.53,0.11 -0.7,0.33 -0.17,0.22 -0.27,0.47 -0.3,0.77l1.78 -0.01zm6.27 -4.41c0,0 -0.01,0.08 -0.05,0.22 -0.03,0.15 -0.07,0.31 -0.11,0.49 -0.04,0.18 -0.07,0.34 -0.11,0.48 -0.03,0.15 -0.05,0.22 -0.05,0.22 -0.13,-0.05 -0.27,-0.1 -0.4,-0.14 -0.14,-0.04 -0.29,-0.06 -0.46,-0.06 -0.22,0 -0.38,0.06 -0.47,0.19 -0.09,0.13 -0.13,0.32 -0.13,0.57l0 0.41 1.44 0 -0.03 1.34 -1.33 0 0 3.75 -1.72 0 0 -3.74 -0.89 -0.07 0.04 -1.08 0.83 -0.25 0.02 -0.44c0.02,-0.76 0.2,-1.3 0.54,-1.64 0.34,-0.33 0.83,-0.5 1.49,-0.5 0.31,0 0.59,0.02 0.83,0.08 0.24,0.06 0.42,0.11 0.56,0.17zm2.27 0.67c0,0.29 -0.09,0.52 -0.27,0.67 -0.18,0.16 -0.42,0.24 -0.74,0.24 -0.31,0 -0.56,-0.08 -0.74,-0.24 -0.18,-0.15 -0.27,-0.38 -0.27,-0.67 0,-0.31 0.09,-0.54 0.27,-0.69 0.18,-0.16 0.43,-0.23 0.74,-0.23 0.32,0 0.56,0.07 0.74,0.23 0.18,0.15 0.27,0.38 0.27,0.69zm-1.87 6.8l0 -5.07 1.72 -0.21 0 5.28 -1.72 0zm4.33 -2.17c0.03,0.34 0.16,0.61 0.39,0.8 0.23,0.19 0.56,0.28 0.98,0.28 0.28,0 0.57,-0.04 0.86,-0.14 0.29,-0.09 0.57,-0.21 0.83,-0.36l0.16 1.33c-0.26,0.13 -0.56,0.23 -0.91,0.31 -0.36,0.07 -0.72,0.11 -1.1,0.11 -0.43,0 -0.83,-0.06 -1.19,-0.18 -0.35,-0.12 -0.65,-0.29 -0.9,-0.52 -0.26,-0.23 -0.45,-0.52 -0.59,-0.85 -0.14,-0.34 -0.2,-0.72 -0.2,-1.15 0,-0.42 0.06,-0.81 0.2,-1.15 0.14,-0.34 0.33,-0.64 0.58,-0.88 0.25,-0.24 0.54,-0.42 0.89,-0.56 0.34,-0.13 0.72,-0.2 1.12,-0.2 0.74,0 1.3,0.2 1.68,0.6 0.39,0.4 0.59,0.92 0.59,1.57 0,0.14 -0.01,0.3 -0.03,0.47 -0.02,0.18 -0.05,0.33 -0.08,0.44l-3.28 0.05 0 0.03zm1.8 -0.89l0 -0.1c0,-0.31 -0.06,-0.55 -0.19,-0.73 -0.13,-0.17 -0.33,-0.26 -0.6,-0.26 -0.29,0 -0.53,0.11 -0.7,0.33 -0.17,0.22 -0.27,0.47 -0.3,0.77l1.79 -0.01zm2.55 3.06l0 -7.34 1.72 -0.21 0 7.55 -1.72 0zm6.31 -7.34l1.72 -0.21 0 7.55 -1.72 0 0.01 -0.53c-0.16,0.17 -0.36,0.33 -0.6,0.47 -0.24,0.14 -0.52,0.22 -0.84,0.22 -0.32,0 -0.62,-0.07 -0.89,-0.19 -0.27,-0.13 -0.5,-0.31 -0.7,-0.54 -0.19,-0.23 -0.35,-0.51 -0.46,-0.84 -0.11,-0.33 -0.16,-0.7 -0.16,-1.11 0,-0.43 0.07,-0.81 0.21,-1.16 0.14,-0.34 0.33,-0.64 0.56,-0.88 0.24,-0.24 0.51,-0.43 0.82,-0.56 0.31,-0.13 0.64,-0.2 0.99,-0.2 0.36,0 0.72,0.06 1.06,0.18l0 -2.2zm0 3.51c-0.1,-0.06 -0.21,-0.12 -0.34,-0.16 -0.13,-0.04 -0.28,-0.06 -0.44,-0.06 -0.36,0 -0.64,0.13 -0.84,0.4 -0.2,0.27 -0.3,0.61 -0.3,1.04 0,0.45 0.1,0.79 0.29,1.04 0.2,0.24 0.46,0.36 0.77,0.36 0.19,0 0.35,-0.03 0.49,-0.09 0.13,-0.07 0.26,-0.15 0.37,-0.26l0 -2.27zm2.61 2.95c0.03,-0.3 0.16,-0.54 0.38,-0.73 0.22,-0.18 0.49,-0.28 0.8,-0.28 0.2,0 0.37,0.04 0.54,0.12 0.16,0.08 0.3,0.18 0.42,0.31 0.12,0.13 0.21,0.28 0.27,0.45 0.07,0.17 0.11,0.35 0.11,0.55 0,0.25 -0.06,0.48 -0.16,0.7 -0.1,0.22 -0.24,0.42 -0.42,0.61 -0.17,0.19 -0.37,0.36 -0.6,0.52 -0.22,0.15 -0.46,0.3 -0.7,0.43l-0.75 -0.67c0.31,-0.21 0.57,-0.41 0.78,-0.61 0.22,-0.19 0.32,-0.38 0.32,-0.56 0,-0.15 -0.07,-0.29 -0.21,-0.41 -0.14,-0.13 -0.4,-0.27 -0.78,-0.43zm9.81 -2.75c0.44,0.08 0.8,0.26 1.08,0.55 0.28,0.28 0.42,0.63 0.42,1.06 0,0.28 -0.05,0.54 -0.13,0.78 -0.09,0.25 -0.24,0.47 -0.45,0.65 -0.21,0.18 -0.49,0.32 -0.86,0.43 -0.36,0.11 -0.82,0.16 -1.37,0.16l-3.03 0 0 -6.94 3.01 0c0.51,0 0.94,0.05 1.28,0.14 0.33,0.1 0.6,0.22 0.8,0.39 0.2,0.16 0.34,0.35 0.42,0.57 0.07,0.22 0.11,0.45 0.11,0.71 0,0.4 -0.11,0.73 -0.34,0.97 -0.23,0.24 -0.54,0.42 -0.94,0.53zm-0.48 -1.21c0,-0.52 -0.34,-0.79 -1.02,-0.79l-1.12 0 0 1.61 1.03 0c0.37,0 0.65,-0.07 0.83,-0.21 0.19,-0.15 0.28,-0.35 0.28,-0.61zm0.2 2.73c0,-0.3 -0.11,-0.51 -0.33,-0.63 -0.21,-0.12 -0.51,-0.18 -0.89,-0.18l-1.12 0 0 1.61 1.18 0c0.4,0 0.69,-0.06 0.88,-0.19 0.19,-0.13 0.28,-0.34 0.28,-0.61zm5.48 -0.19c-0.53,0.06 -0.9,0.15 -1.12,0.26 -0.21,0.12 -0.32,0.29 -0.32,0.52 0,0.17 0.06,0.31 0.18,0.41 0.11,0.1 0.27,0.15 0.46,0.15 0.17,0 0.33,-0.04 0.46,-0.1 0.14,-0.06 0.25,-0.15 0.34,-0.25l0 -0.99zm0.01 1.68c-0.18,0.21 -0.39,0.4 -0.61,0.55 -0.23,0.16 -0.52,0.24 -0.87,0.24 -0.23,0 -0.43,-0.04 -0.63,-0.11 -0.19,-0.08 -0.35,-0.18 -0.5,-0.31 -0.14,-0.13 -0.25,-0.28 -0.33,-0.45 -0.08,-0.18 -0.12,-0.36 -0.12,-0.56 0,-0.25 0.05,-0.48 0.15,-0.69 0.1,-0.22 0.27,-0.41 0.5,-0.57 0.24,-0.16 0.56,-0.29 0.95,-0.4 0.39,-0.1 0.88,-0.16 1.45,-0.17l0 -0.11c0,-0.27 -0.07,-0.47 -0.21,-0.59 -0.15,-0.13 -0.38,-0.19 -0.7,-0.19 -0.26,0 -0.55,0.05 -0.85,0.15 -0.3,0.1 -0.6,0.22 -0.9,0.37l-0.36 -1.26c0.28,-0.14 0.62,-0.28 1.03,-0.41 0.41,-0.13 0.86,-0.2 1.35,-0.2 0.44,0 0.82,0.05 1.12,0.15 0.3,0.1 0.55,0.25 0.73,0.44 0.19,0.19 0.32,0.43 0.4,0.71 0.07,0.27 0.11,0.59 0.1,0.96l-0.01 1.53c0,0.18 0.03,0.29 0.08,0.33 0.05,0.05 0.16,0.08 0.34,0.09l-0.16 1.22c-0.57,0.08 -1,0.04 -1.29,-0.09 -0.3,-0.14 -0.51,-0.35 -0.62,-0.63l-0.04 0zm6.25 0.62l0 -3.05c0,-0.31 -0.06,-0.53 -0.19,-0.64 -0.13,-0.12 -0.3,-0.18 -0.53,-0.18 -0.19,0 -0.36,0.04 -0.52,0.11 -0.16,0.08 -0.29,0.17 -0.4,0.28l0 3.48 -1.72 0 0 -5.07 1.72 -0.21 -0.01 0.84c0.23,-0.26 0.49,-0.47 0.78,-0.64 0.29,-0.16 0.61,-0.25 0.94,-0.25 0.52,0 0.92,0.16 1.22,0.48 0.29,0.31 0.43,0.75 0.43,1.3l0 3.55 -1.72 0zm4.26 -3.32c0,0.28 0.07,0.5 0.2,0.66 0.14,0.17 0.34,0.25 0.61,0.25 0.26,0 0.45,-0.08 0.57,-0.26 0.13,-0.17 0.19,-0.4 0.19,-0.69 0,-0.28 -0.07,-0.5 -0.2,-0.66 -0.13,-0.17 -0.32,-0.25 -0.59,-0.25 -0.24,0 -0.43,0.08 -0.57,0.26 -0.14,0.17 -0.21,0.4 -0.21,0.69zm-0.07 3.85c-0.12,0.06 -0.22,0.14 -0.3,0.23 -0.08,0.09 -0.12,0.21 -0.12,0.34 0,0.2 0.12,0.36 0.35,0.49 0.24,0.12 0.55,0.19 0.95,0.19 0.21,0 0.4,-0.02 0.58,-0.05 0.18,-0.03 0.33,-0.07 0.47,-0.14 0.13,-0.06 0.23,-0.13 0.31,-0.22 0.07,-0.08 0.11,-0.18 0.11,-0.29 0,-0.21 -0.11,-0.35 -0.33,-0.41 -0.22,-0.07 -0.55,-0.1 -1,-0.1 -0.17,0 -0.35,-0.01 -0.56,-0.01 -0.21,-0.01 -0.37,-0.02 -0.46,-0.03zm-0.68 -0.18c-0.23,-0.07 -0.44,-0.18 -0.62,-0.34 -0.19,-0.16 -0.28,-0.36 -0.28,-0.6 0,-0.24 0.1,-0.47 0.3,-0.68 0.2,-0.22 0.45,-0.37 0.77,-0.46 -0.32,-0.15 -0.57,-0.36 -0.76,-0.63 -0.19,-0.28 -0.29,-0.6 -0.29,-0.97 0,-0.28 0.06,-0.54 0.17,-0.79 0.11,-0.24 0.27,-0.45 0.48,-0.63 0.21,-0.18 0.47,-0.32 0.77,-0.42 0.31,-0.1 0.65,-0.16 1.03,-0.16 0.32,0 0.61,0.04 0.88,0.12 0.28,0.08 0.51,0.16 0.7,0.25l1.45 -0.12 0.08 1.39 -1 -0.16c0.05,0.05 0.08,0.14 0.11,0.26 0.02,0.11 0.04,0.22 0.04,0.31 0,0.25 -0.06,0.5 -0.17,0.73 -0.11,0.23 -0.27,0.43 -0.46,0.59 -0.2,0.17 -0.44,0.3 -0.72,0.4 -0.28,0.09 -0.58,0.14 -0.92,0.14 -0.12,0 -0.23,-0.01 -0.33,-0.02 -0.11,-0.02 -0.23,-0.03 -0.35,-0.06 -0.08,0.04 -0.15,0.09 -0.21,0.15 -0.06,0.07 -0.09,0.14 -0.09,0.23 0,0.12 0.07,0.2 0.21,0.25 0.15,0.05 0.39,0.07 0.73,0.07l0.61 0c0.35,0 0.68,0.03 0.97,0.07 0.29,0.05 0.54,0.13 0.76,0.25 0.21,0.11 0.37,0.26 0.48,0.45 0.12,0.18 0.18,0.41 0.18,0.69 0,0.32 -0.09,0.61 -0.27,0.87 -0.18,0.26 -0.42,0.48 -0.72,0.67 -0.3,0.18 -0.64,0.33 -1.03,0.43 -0.39,0.1 -0.79,0.15 -1.21,0.15 -0.35,0 -0.68,-0.03 -0.99,-0.09 -0.3,-0.05 -0.57,-0.14 -0.8,-0.25 -0.22,-0.11 -0.4,-0.25 -0.53,-0.41 -0.14,-0.17 -0.2,-0.37 -0.2,-0.6 0,-0.26 0.1,-0.49 0.3,-0.7 0.21,-0.2 0.51,-0.33 0.93,-0.38zm8.03 -2.65c-0.53,0.06 -0.9,0.15 -1.12,0.26 -0.21,0.12 -0.32,0.29 -0.32,0.52 0,0.17 0.06,0.31 0.18,0.41 0.12,0.1 0.27,0.15 0.46,0.15 0.17,0 0.33,-0.04 0.47,-0.1 0.13,-0.06 0.25,-0.15 0.33,-0.25l0 -0.99zm0.01 1.68c-0.18,0.21 -0.38,0.4 -0.61,0.55 -0.23,0.16 -0.52,0.24 -0.87,0.24 -0.22,0 -0.43,-0.04 -0.62,-0.11 -0.2,-0.08 -0.36,-0.18 -0.5,-0.31 -0.14,-0.13 -0.25,-0.28 -0.34,-0.45 -0.08,-0.18 -0.12,-0.36 -0.12,-0.56 0,-0.25 0.05,-0.48 0.15,-0.69 0.1,-0.22 0.27,-0.41 0.51,-0.57 0.23,-0.16 0.55,-0.29 0.94,-0.4 0.39,-0.1 0.88,-0.16 1.45,-0.17l0 -0.11c0,-0.27 -0.07,-0.47 -0.21,-0.59 -0.15,-0.13 -0.38,-0.19 -0.7,-0.19 -0.26,0 -0.55,0.05 -0.85,0.15 -0.29,0.1 -0.6,0.22 -0.9,0.37l-0.35 -1.26c0.27,-0.14 0.61,-0.28 1.02,-0.41 0.41,-0.13 0.86,-0.2 1.35,-0.2 0.44,0 0.82,0.05 1.12,0.15 0.3,0.1 0.55,0.25 0.73,0.44 0.19,0.19 0.32,0.43 0.4,0.71 0.07,0.27 0.11,0.59 0.1,0.96l-0.01 1.53c0,0.18 0.03,0.29 0.08,0.33 0.05,0.05 0.17,0.08 0.34,0.09l-0.16 1.22c-0.56,0.08 -0.99,0.04 -1.29,-0.09 -0.3,-0.14 -0.5,-0.35 -0.62,-0.63l-0.04 0zm2.89 0.62l0 -7.34 1.72 -0.21 0 7.55 -1.72 0zm8.19 -2.6c0,0.43 -0.07,0.82 -0.22,1.16 -0.15,0.35 -0.35,0.64 -0.6,0.88 -0.25,0.23 -0.55,0.41 -0.89,0.54 -0.34,0.12 -0.7,0.19 -1.09,0.19 -0.38,0 -0.74,-0.06 -1.08,-0.18 -0.33,-0.12 -0.62,-0.29 -0.87,-0.53 -0.24,-0.23 -0.43,-0.52 -0.58,-0.86 -0.14,-0.34 -0.21,-0.73 -0.21,-1.16 0,-0.44 0.08,-0.83 0.22,-1.17 0.14,-0.35 0.34,-0.64 0.6,-0.87 0.25,-0.24 0.55,-0.42 0.89,-0.54 0.34,-0.12 0.71,-0.19 1.1,-0.19 0.39,0 0.76,0.07 1.09,0.19 0.33,0.12 0.62,0.3 0.86,0.53 0.25,0.23 0.44,0.52 0.58,0.85 0.13,0.34 0.2,0.73 0.2,1.16zm-1.7 0.02c0,-0.43 -0.09,-0.78 -0.27,-1.04 -0.18,-0.27 -0.45,-0.4 -0.8,-0.4 -0.36,0 -0.62,0.13 -0.8,0.4 -0.18,0.26 -0.27,0.61 -0.27,1.05 0,0.44 0.09,0.79 0.27,1.05 0.19,0.25 0.45,0.38 0.81,0.38 0.35,0 0.62,-0.13 0.8,-0.39 0.17,-0.26 0.26,-0.61 0.26,-1.05zm4.36 2.58l-1.71 0 0 -5.07 1.71 -0.21 0 0.75c0.31,-0.53 0.72,-0.8 1.25,-0.8 0.29,0 0.58,0.07 0.85,0.21l-0.34 1.51c-0.21,-0.1 -0.42,-0.15 -0.65,-0.15 -0.21,0 -0.41,0.06 -0.59,0.17 -0.19,0.12 -0.36,0.31 -0.52,0.58l0 3.01zm4.02 -2.17c0.03,0.34 0.16,0.61 0.39,0.8 0.23,0.19 0.56,0.28 0.98,0.28 0.28,0 0.57,-0.04 0.86,-0.14 0.29,-0.09 0.57,-0.21 0.82,-0.36l0.17 1.33c-0.26,0.13 -0.56,0.23 -0.91,0.31 -0.36,0.07 -0.72,0.11 -1.1,0.11 -0.43,0 -0.83,-0.06 -1.18,-0.18 -0.36,-0.12 -0.66,-0.29 -0.92,-0.52 -0.25,-0.23 -0.44,-0.52 -0.58,-0.85 -0.13,-0.34 -0.2,-0.72 -0.2,-1.15 0,-0.42 0.07,-0.81 0.2,-1.15 0.14,-0.34 0.33,-0.64 0.58,-0.88 0.25,-0.24 0.54,-0.42 0.89,-0.56 0.34,-0.13 0.72,-0.2 1.12,-0.2 0.74,0 1.3,0.2 1.69,0.6 0.38,0.4 0.58,0.92 0.58,1.57 0,0.14 -0.01,0.3 -0.03,0.47 -0.02,0.18 -0.05,0.33 -0.08,0.44l-3.28 0.05 0 0.03zm1.8 -0.89l0 -0.1c0,-0.31 -0.06,-0.55 -0.19,-0.73 -0.13,-0.17 -0.33,-0.26 -0.6,-0.26 -0.29,0 -0.53,0.11 -0.7,0.33 -0.17,0.22 -0.27,0.47 -0.3,0.77l1.79 -0.01z"/>
  <polygon class="fil7" points="60.24,25.71 61.25,25.71 61.25,77.23 60.24,77.23 "/>
 </g>
</svg>
