<?xml version="1.0" encoding="UTF-8"?>
<!DOCTYPE svg PUBLIC "-//W3C//DTD SVG 1.1//EN" "http://www.w3.org/Graphics/SVG/1.1/DTD/svg11.dtd">
<!-- Creator: CorelDRAW 2019 (64-Bit) -->
<svg xmlns="http://www.w3.org/2000/svg" xml:space="preserve" width="250px" height="100px" version="1.1" style="shape-rendering:geometricPrecision; text-rendering:geometricPrecision; image-rendering:optimizeQuality; fill-rule:evenodd; clip-rule:evenodd"
viewBox="0 0 250 100"
 xmlns:xlink="http://www.w3.org/1999/xlink"
 xmlns:xodm="http://www.corel.com/coreldraw/odm/2003">
 <defs>
  <style type="text/css">
   <![CDATA[
    .str0 {stroke:#373435;stroke-width:0.9;stroke-miterlimit:2.61313}
    .fil0 {fill:#FEFEFE}
    .fil17 {fill:#F58634}
    .fil6 {fill:#ED3237}
    .fil4 {fill:#F2A93A}
    .fil7 {fill:#E5E6E5}
    .fil13 {fill:#CE2E8D}
    .fil11 {fill:#99B648}
    .fil3 {fill:#2376AF}
    .fil5 {fill:#00A859}
    .fil8 {fill:#30355C}
    .fil2 {fill:#201E1E}
    .fil9 {fill:#FEFEFE;fill-rule:nonzero}
    .fil1 {fill:#373435;fill-rule:nonzero}
    .fil16 {fill:url(#id0)}
    .fil10 {fill:url(#id1)}
    .fil14 {fill:url(#id2)}
    .fil12 {fill:url(#id3)}
    .fil15 {fill:url(#id4)}
   ]]>
  </style>
  <linearGradient id="id0" gradientUnits="userSpaceOnUse" x1="11.77" y1="141.54" x2="39.12" y2="120.56">
   <stop offset="0" style="stop-opacity:1; stop-color:#ED3237"/>
   <stop offset="1" style="stop-opacity:1; stop-color:#F58634"/>
  </linearGradient>
  <linearGradient id="id1" gradientUnits="userSpaceOnUse" x1="22.2" y1="133.34" x2="22.8" y2="112.07">
   <stop offset="0" style="stop-opacity:1; stop-color:#BFD73E"/>
   <stop offset="0.380392" style="stop-opacity:1; stop-color:#A8CF45"/>
   <stop offset="1" style="stop-opacity:1; stop-color:#657D43"/>
  </linearGradient>
  <linearGradient id="id2" gradientUnits="userSpaceOnUse" x1="26.78" y1="113.17" x2="36.17" y2="146.97">
   <stop offset="0" style="stop-opacity:1; stop-color:#1081C4"/>
   <stop offset="1" style="stop-opacity:1; stop-color:#3C4393"/>
  </linearGradient>
  <linearGradient id="id3" gradientUnits="userSpaceOnUse" x1="15.65" y1="131.03" x2="52.12" y2="115.58">
   <stop offset="0" style="stop-opacity:1; stop-color:#EC268F"/>
   <stop offset="0.411765" style="stop-opacity:1; stop-color:#EC268F"/>
   <stop offset="1" style="stop-opacity:1; stop-color:#8F3A8D"/>
  </linearGradient>
  <linearGradient id="id4" gradientUnits="userSpaceOnUse" xlink:href="#id2" x1="30.99" y1="113.2" x2="34.04" y2="129.26">
  </linearGradient>
 </defs>
 <g id="Layer_x0020_1">
  <metadata id="CorelCorpID_0Corel-Layer"/>
  <rect class="fil0" x="0.49" y="1.19" width="250" height="100"/>
  <path class="fil1" d="M81.38 41.98c-0.77,0.43 -1.65,0.76 -2.62,0.99 -0.97,0.23 -1.98,0.34 -3.03,0.34 -1.14,0 -2.19,-0.17 -3.13,-0.5 -0.94,-0.34 -1.75,-0.82 -2.42,-1.46 -0.66,-0.63 -1.19,-1.41 -1.56,-2.33 -0.37,-0.93 -0.56,-1.98 -0.56,-3.15 0,-1.18 0.19,-2.23 0.55,-3.16 0.37,-0.93 0.89,-1.73 1.56,-2.39 0.68,-0.65 1.49,-1.15 2.43,-1.5 0.94,-0.34 2,-0.51 3.17,-0.51 0.46,0 0.93,0.03 1.42,0.08 0.48,0.05 0.96,0.13 1.43,0.23 0.47,0.1 0.93,0.22 1.36,0.38 0.43,0.15 0.82,0.33 1.15,0.55l-1.14 3.04c-1.37,-0.79 -2.74,-1.19 -4.1,-1.19 -1.3,0 -2.32,0.39 -3.07,1.18 -0.75,0.79 -1.13,1.85 -1.13,3.2 0,1.43 0.35,2.55 1.04,3.35 0.7,0.8 1.73,1.2 3.09,1.2 0.42,0 0.82,-0.04 1.22,-0.12 0.4,-0.09 0.75,-0.19 1.06,-0.31l0 -2.11 -3.51 0 0 -2.91 6.79 0 0 7.1zm13.85 -4.53c0,0.88 -0.16,1.69 -0.47,2.41 -0.31,0.73 -0.74,1.34 -1.28,1.85 -0.54,0.5 -1.16,0.89 -1.88,1.17 -0.71,0.27 -1.48,0.41 -2.3,0.41 -0.82,0 -1.59,-0.13 -2.3,-0.37 -0.7,-0.24 -1.32,-0.61 -1.85,-1.09 -0.54,-0.48 -0.95,-1.08 -1.26,-1.8 -0.3,-0.71 -0.45,-1.55 -0.45,-2.51 0,-0.9 0.15,-1.71 0.46,-2.43 0.31,-0.72 0.74,-1.33 1.28,-1.83 0.54,-0.51 1.17,-0.89 1.88,-1.16 0.72,-0.27 1.48,-0.4 2.28,-0.4 0.82,0 1.59,0.12 2.31,0.35 0.71,0.24 1.33,0.6 1.87,1.08 0.53,0.48 0.95,1.08 1.25,1.8 0.3,0.72 0.46,1.56 0.46,2.52zm-3.45 0.07c0,-0.96 -0.2,-1.73 -0.61,-2.32 -0.41,-0.59 -1.04,-0.89 -1.87,-0.89 -0.82,0 -1.44,0.29 -1.84,0.88 -0.4,0.58 -0.6,1.33 -0.6,2.26 0,0.95 0.21,1.73 0.62,2.33 0.42,0.59 1.05,0.9 1.88,0.9 0.83,0 1.43,-0.3 1.83,-0.89 0.4,-0.59 0.59,-1.35 0.59,-2.27zm15.35 -1.63c0,1.37 -0.45,2.41 -1.34,3.09 -0.9,0.69 -2.14,1.03 -3.72,1.03l-1.12 0 0 2.96 -3.49 0 0 -10.97 4.79 0c1.58,0 2.79,0.34 3.63,1.04 0.83,0.69 1.25,1.64 1.25,2.85zm-3.33 0.09c0,-0.52 -0.17,-0.91 -0.51,-1.18 -0.34,-0.27 -0.83,-0.4 -1.47,-0.4l-1.01 0 0 3.32 0.92 -0.04c0.7,-0.03 1.22,-0.18 1.56,-0.44 0.34,-0.26 0.51,-0.68 0.51,-1.26zm15.85 6.99l-3.39 0 -0.71 -2.04 -3.74 0 -0.62 2.04 -3.46 0 3.74 -10.97 4.51 0 3.67 10.97zm-5.97 -8.64l-1.32 4.29 2.64 0 -1.32 -4.29zm7.78 8.64l0 -10.97 3.49 0 0 8.13 4.88 0 0 2.84 -8.37 0zm21.37 0l-3.4 0 -0.71 -2.04 -3.74 0 -0.62 2.04 -3.46 0 3.74 -10.97 4.51 0 3.68 10.97zm-5.98 -8.64l-1.32 4.29 2.64 0 -1.32 -4.29zm15.47 -2.33l3.17 0 0 11.08 -3.64 0 -4.05 -6.27 0 6.16 -3.17 0 0 -10.97 3.66 0 4.05 6.18 -0.02 -6.18zm20.61 0.43c-0.53,-0.32 -1.1,-0.57 -1.72,-0.76 -0.61,-0.18 -1.24,-0.27 -1.88,-0.27 -1.23,0 -2.22,0.39 -2.95,1.17 -0.74,0.78 -1.11,1.85 -1.11,3.21 0,1.37 0.36,2.45 1.07,3.25 0.72,0.79 1.72,1.19 3.01,1.19 0.7,0 1.37,-0.11 2.01,-0.32 0.64,-0.22 1.22,-0.5 1.76,-0.85l0.75 3.23c-0.56,0.3 -1.27,0.55 -2.13,0.74 -0.86,0.19 -1.71,0.29 -2.55,0.29 -1.14,0 -2.17,-0.16 -3.1,-0.49 -0.92,-0.33 -1.72,-0.81 -2.37,-1.43 -0.66,-0.63 -1.17,-1.4 -1.53,-2.33 -0.36,-0.92 -0.55,-1.99 -0.55,-3.19 0,-1.16 0.18,-2.21 0.54,-3.14 0.35,-0.93 0.86,-1.73 1.53,-2.38 0.66,-0.66 1.47,-1.16 2.41,-1.51 0.96,-0.36 2.02,-0.53 3.19,-0.53 0.86,0 1.7,0.1 2.52,0.3 0.81,0.19 1.54,0.45 2.2,0.77l-1.1 3.05zm14.51 5.02c0,0.88 -0.16,1.69 -0.47,2.41 -0.31,0.73 -0.74,1.34 -1.28,1.85 -0.54,0.5 -1.16,0.89 -1.88,1.17 -0.71,0.27 -1.48,0.41 -2.3,0.41 -0.82,0 -1.59,-0.13 -2.29,-0.37 -0.71,-0.24 -1.33,-0.61 -1.86,-1.09 -0.53,-0.48 -0.95,-1.08 -1.26,-1.8 -0.3,-0.71 -0.45,-1.55 -0.45,-2.51 0,-0.9 0.15,-1.71 0.46,-2.43 0.32,-0.72 0.74,-1.33 1.28,-1.83 0.54,-0.51 1.17,-0.89 1.88,-1.16 0.72,-0.27 1.48,-0.4 2.28,-0.4 0.83,0 1.59,0.12 2.31,0.35 0.71,0.24 1.34,0.6 1.87,1.08 0.53,0.48 0.95,1.08 1.25,1.8 0.31,0.72 0.46,1.56 0.46,2.52zm-3.44 0.07c0,-0.96 -0.21,-1.73 -0.62,-2.32 -0.41,-0.59 -1.03,-0.89 -1.87,-0.89 -0.82,0 -1.43,0.29 -1.84,0.88 -0.4,0.58 -0.6,1.33 -0.6,2.26 0,0.95 0.21,1.73 0.63,2.33 0.41,0.59 1.04,0.9 1.88,0.9 0.82,0 1.43,-0.3 1.82,-0.89 0.4,-0.59 0.6,-1.35 0.6,-2.27zm5.67 5.45l0 -10.97 3.49 0 0 8.13 4.89 0 0 2.84 -8.38 0zm10.31 0l0 -10.97 3.49 0 0 8.13 4.88 0 0 2.84 -8.37 0zm10.31 0l0 -10.97 8.53 0 0 2.56 -5.29 0 0 1.72 4.4 0 0 2.38 -4.4 0 0 1.74 5.29 0 0 2.57 -8.53 0zm13.69 -5.55c0,1.01 0.22,1.81 0.67,2.39 0.45,0.58 1.18,0.87 2.18,0.87 0.35,0 0.67,-0.03 0.98,-0.08 0.3,-0.06 0.55,-0.12 0.73,-0.2l0 -1.44 -2.53 0 0 -2.34 5.29 0 0 5.61c-0.58,0.29 -1.27,0.54 -2.08,0.75 -0.8,0.2 -1.64,0.31 -2.51,0.31 -0.91,0 -1.74,-0.13 -2.49,-0.37 -0.76,-0.24 -1.4,-0.61 -1.93,-1.1 -0.53,-0.49 -0.94,-1.09 -1.23,-1.81 -0.29,-0.72 -0.44,-1.55 -0.44,-2.49 0,-0.92 0.15,-1.74 0.45,-2.46 0.3,-0.71 0.71,-1.32 1.25,-1.82 0.54,-0.49 1.19,-0.87 1.94,-1.14 0.75,-0.27 1.58,-0.4 2.48,-0.4 0.8,0 1.61,0.09 2.43,0.26 0.81,0.18 1.46,0.4 1.95,0.68l-1.01 2.65c-1.14,-0.55 -2.19,-0.82 -3.15,-0.82 -0.91,0 -1.63,0.25 -2.17,0.74 -0.54,0.5 -0.81,1.24 -0.81,2.21zm9.71 5.55l0 -10.97 8.53 0 0 2.56 -5.29 0 0 1.72 4.4 0 0 2.38 -4.4 0 0 1.74 5.29 0 0 2.57 -8.53 0z"/>
  <path class="fil1" d="M74.24 55.63c0,0.47 -0.08,0.9 -0.24,1.29 -0.17,0.38 -0.39,0.71 -0.68,0.98 -0.29,0.27 -0.62,0.48 -1,0.62 -0.38,0.15 -0.78,0.22 -1.22,0.22 -0.43,0 -0.84,-0.06 -1.21,-0.19 -0.37,-0.13 -0.7,-0.33 -0.98,-0.58 -0.29,-0.26 -0.51,-0.58 -0.67,-0.96 -0.16,-0.38 -0.24,-0.83 -0.24,-1.35 0,-0.48 0.08,-0.91 0.25,-1.29 0.16,-0.38 0.39,-0.71 0.67,-0.98 0.29,-0.27 0.62,-0.47 1,-0.61 0.38,-0.15 0.78,-0.22 1.21,-0.22 0.43,0 0.84,0.07 1.22,0.19 0.38,0.13 0.71,0.32 0.99,0.58 0.28,0.25 0.5,0.57 0.66,0.95 0.16,0.39 0.24,0.84 0.24,1.35zm-1.82 0.03c0,-0.5 -0.11,-0.92 -0.33,-1.23 -0.21,-0.32 -0.54,-0.48 -0.99,-0.48 -0.43,0 -0.76,0.16 -0.97,0.47 -0.21,0.31 -0.32,0.72 -0.32,1.21 0,0.51 0.11,0.92 0.33,1.24 0.22,0.32 0.56,0.48 1,0.48 0.43,0 0.76,-0.16 0.97,-0.47 0.2,-0.32 0.31,-0.72 0.31,-1.22zm3.01 -2.94l4.43 0 0 1.37 -2.71 0 0 1.03 2.23 0 0 1.29 -2.15 0 0 2.16 -1.8 0 0 -5.85zm7.74 5.85l0 -7.63 5.52 0 0 1.55 -3.64 0 0 1.48 2.92 0 0 1.55 -2.92 0 0 1.5 3.64 0 0 1.55 -5.52 0zm10.81 -5.85l1.68 0 0 5.91 -1.93 0 -2.14 -3.34 0 3.28 -1.68 0 0 -5.85 1.94 0 2.14 3.3 -0.01 -3.3zm4.62 2.9c0,0.53 0.12,0.96 0.36,1.27 0.24,0.31 0.62,0.46 1.15,0.46 0.19,0 0.36,-0.01 0.52,-0.04 0.16,-0.03 0.29,-0.07 0.39,-0.11l0 -0.77 -1.34 0 0 -1.24 2.8 0 0 2.99c-0.31,0.16 -0.67,0.29 -1.1,0.4 -0.43,0.11 -0.87,0.16 -1.33,0.16 -0.48,0 -0.92,-0.06 -1.32,-0.19 -0.4,-0.13 -0.74,-0.33 -1.02,-0.59 -0.28,-0.26 -0.5,-0.58 -0.65,-0.96 -0.16,-0.39 -0.23,-0.83 -0.23,-1.34 0,-0.48 0.08,-0.92 0.23,-1.3 0.16,-0.38 0.38,-0.71 0.67,-0.97 0.28,-0.27 0.62,-0.47 1.02,-0.61 0.4,-0.15 0.84,-0.22 1.31,-0.22 0.43,0 0.86,0.05 1.29,0.14 0.43,0.1 0.77,0.22 1.03,0.36l-0.53 1.42c-0.6,-0.29 -1.16,-0.44 -1.67,-0.44 -0.48,0 -0.86,0.13 -1.15,0.4 -0.28,0.26 -0.43,0.66 -0.43,1.18zm5.15 2.95l0 -5.85 1.84 0 0 5.85 -1.84 0zm7.32 -5.85l1.67 0 0 5.91 -1.92 0 -2.15 -3.34 0 3.28 -1.67 0 0 -5.85 1.93 0 2.15 3.3 -0.01 -3.3zm3.06 5.85l0 -5.85 4.52 0 0 1.37 -2.8 0 0 0.92 2.33 0 0 1.27 -2.33 0 0 0.92 2.8 0 0 1.37 -4.52 0zm5.77 0l0 -5.85 4.52 0 0 1.37 -2.8 0 0 0.92 2.33 0 0 1.27 -2.33 0 0 0.92 2.8 0 0 1.37 -4.52 0zm7.59 0l-1.81 0 0 -5.85 2.75 0c0.81,0 1.43,0.17 1.85,0.52 0.42,0.35 0.63,0.81 0.63,1.4 0,0.37 -0.09,0.69 -0.27,0.99 -0.19,0.29 -0.47,0.52 -0.84,0.67l1.34 2.27 -1.95 0 -1.01 -1.9 -0.69 0.03 0 1.87zm0.62 -2.99c0.3,-0.01 0.54,-0.08 0.71,-0.22 0.17,-0.14 0.25,-0.34 0.25,-0.61 0,-0.25 -0.08,-0.44 -0.23,-0.57 -0.16,-0.13 -0.41,-0.2 -0.76,-0.2l-0.6 0 0 1.61 0.63 -0.01zm4.04 2.99l0 -5.85 1.85 0 0 5.85 -1.85 0zm7.32 -5.85l1.68 0 0 5.91 -1.93 0 -2.14 -3.34 0 3.28 -1.68 0 0 -5.85 1.94 0 2.14 3.3 -0.01 -3.3zm4.62 2.9c0,0.53 0.12,0.96 0.36,1.27 0.24,0.31 0.62,0.46 1.15,0.46 0.19,0 0.36,-0.01 0.52,-0.04 0.16,-0.03 0.29,-0.07 0.39,-0.11l0 -0.77 -1.34 0 0 -1.24 2.8 0 0 2.99c-0.3,0.16 -0.67,0.29 -1.1,0.4 -0.42,0.11 -0.87,0.16 -1.33,0.16 -0.48,0 -0.92,-0.06 -1.32,-0.19 -0.4,-0.13 -0.74,-0.33 -1.02,-0.59 -0.28,-0.26 -0.5,-0.58 -0.65,-0.96 -0.15,-0.39 -0.23,-0.83 -0.23,-1.34 0,-0.48 0.08,-0.92 0.23,-1.3 0.16,-0.38 0.38,-0.71 0.67,-0.97 0.29,-0.27 0.63,-0.47 1.03,-0.61 0.39,-0.15 0.83,-0.22 1.31,-0.22 0.42,0 0.85,0.05 1.28,0.14 0.43,0.1 0.78,0.22 1.03,0.36l-0.53 1.42c-0.6,-0.29 -1.16,-0.44 -1.66,-0.44 -0.49,0 -0.87,0.13 -1.16,0.4 -0.28,0.26 -0.43,0.66 -0.43,1.18zm13.11 2.95l-1.8 0 -0.38 -1.08 -1.98 0 -0.32 1.08 -1.84 0 1.98 -5.85 2.39 0 1.95 5.85zm-3.17 -4.6l-0.7 2.28 1.4 0 -0.7 -2.28zm8.19 -1.25l1.68 0 0 5.91 -1.93 0 -2.14 -3.34 0 3.28 -1.68 0 0 -5.85 1.94 0 2.14 3.3 -0.01 -3.3zm8.78 2.9c0,0.44 -0.07,0.85 -0.22,1.22 -0.15,0.36 -0.37,0.68 -0.65,0.93 -0.29,0.26 -0.64,0.46 -1.07,0.59 -0.42,0.14 -0.9,0.21 -1.45,0.21l-2.32 0 0 -5.85 2.44 0c0.53,0 1,0.07 1.41,0.21 0.4,0.14 0.74,0.33 1.02,0.58 0.28,0.26 0.49,0.56 0.63,0.92 0.14,0.35 0.21,0.75 0.21,1.19zm-1.86 0.04c0,-0.53 -0.14,-0.92 -0.43,-1.16 -0.28,-0.23 -0.63,-0.35 -1.04,-0.35l-0.53 0 0 3 0.54 0c0.42,0 0.77,-0.12 1.05,-0.36 0.27,-0.25 0.41,-0.62 0.41,-1.13zm12.25 -2.98l-1.66 5.77 -2.05 0 -1.65 -5.75 -0.05 5.87 -1.79 0 0.27 -7.63 2.71 0 1.57 5.73 1.57 -5.73 2.68 0 0.26 7.63 -1.83 0 -0.03 -5.89zm9.03 5.89l-1.8 0 -0.37 -1.08 -1.98 0 -0.33 1.08 -1.84 0 1.99 -5.85 2.39 0 1.94 5.85zm-3.16 -4.6l-0.7 2.28 1.4 0 -0.7 -2.28zm8.18 -1.25l1.68 0 0 5.91 -1.92 0 -2.15 -3.34 0 3.28 -1.67 0 0 -5.85 1.93 0 2.15 3.3 -0.02 -3.3zm8.93 5.85l-1.8 0 -0.37 -1.08 -1.98 0 -0.33 1.08 -1.84 0 1.98 -5.85 2.4 0 1.94 5.85zm-3.16 -4.6l-0.7 2.28 1.4 0 -0.7 -2.28zm5.54 1.65c0,0.53 0.12,0.96 0.36,1.27 0.23,0.31 0.62,0.46 1.15,0.46 0.18,0 0.36,-0.01 0.52,-0.04 0.16,-0.03 0.29,-0.07 0.38,-0.11l0 -0.77 -1.34 0 0 -1.24 2.81 0 0 2.99c-0.31,0.16 -0.68,0.29 -1.1,0.4 -0.43,0.11 -0.87,0.16 -1.33,0.16 -0.48,0 -0.93,-0.06 -1.32,-0.19 -0.4,-0.13 -0.74,-0.33 -1.03,-0.59 -0.28,-0.26 -0.49,-0.58 -0.65,-0.96 -0.15,-0.39 -0.23,-0.83 -0.23,-1.34 0,-0.48 0.08,-0.92 0.24,-1.3 0.16,-0.38 0.38,-0.71 0.66,-0.97 0.29,-0.27 0.63,-0.47 1.03,-0.61 0.4,-0.15 0.84,-0.22 1.31,-0.22 0.43,0 0.86,0.05 1.29,0.14 0.43,0.1 0.77,0.22 1.03,0.36l-0.53 1.42c-0.61,-0.29 -1.16,-0.44 -1.67,-0.44 -0.48,0 -0.87,0.13 -1.15,0.4 -0.29,0.26 -0.43,0.66 -0.43,1.18zm5.14 2.95l0 -5.85 4.52 0 0 1.37 -2.8 0 0 0.92 2.33 0 0 1.27 -2.33 0 0 0.92 2.8 0 0 1.37 -4.52 0zm11.54 0l-0.08 -4 -1.03 4 -1.98 0 -1.04 -4.08 -0.06 4.08 -1.71 0 0.18 -5.85 2.65 0 1 4.07 0.99 -4.07 2.61 0 0.19 5.85 -1.72 0zm2.98 0l0 -5.85 4.52 0 0 1.37 -2.81 0 0 0.92 2.34 0 0 1.27 -2.34 0 0 0.92 2.81 0 0 1.37 -4.52 0zm9.84 -5.85l1.68 0 0 5.91 -1.92 0 -2.15 -3.34 0 3.28 -1.68 0 0 -5.85 1.94 0 2.14 3.3 -0.01 -3.3zm6.34 1.52l0 4.33 -1.86 0 0 -4.33 -1.81 0 0 -1.52 5.51 0 0 1.52 -1.84 0z"/>
  <path class="fil2 str0" d="M7.58 24.48l41.4 0c2.46,0 4.48,2.04 4.48,4.54l0 44.33c0,2.5 -2.02,4.54 -4.48,4.54l-41.4 0c-2.46,0 -4.48,-2.04 -4.48,-4.54l0 -44.33c0,-2.5 2.02,-4.54 4.48,-4.54z"/>
  <path class="fil3" d="M14.11 25.39c2.74,2.27 6.39,3.36 8.71,7.84 1.28,2.8 0.67,3.73 5.53,8.61 -2.93,-2.51 -7.76,-2.08 -8.63,-7.28 -0.99,-4.29 -3.61,-6.53 -5.61,-9.17z"/>
  <path class="fil3" d="M42.58 25.39c-2.73,2.27 -6.38,3.36 -8.71,7.84 -1.27,2.8 -0.67,3.73 -5.52,8.61 2.93,-2.51 7.76,-2.08 8.62,-7.28 1,-4.29 3.61,-6.53 5.61,-9.17z"/>
  <path class="fil3" d="M28.34 32.59c1.19,0 2.16,0.97 2.16,2.16 0,1.2 -0.97,2.17 -2.16,2.17 -1.19,0 -2.16,-0.97 -2.16,-2.17 0,-1.19 0.97,-2.16 2.16,-2.16z"/>
  <path class="fil4" d="M14.11 65.24c2.74,-2.27 6.39,-3.36 8.71,-7.84 1.28,-2.8 0.67,-3.73 5.53,-8.61 -2.93,2.51 -7.76,2.08 -8.63,7.28 -0.99,4.29 -3.61,6.53 -5.61,9.17z"/>
  <path class="fil4" d="M42.58 65.24c-2.73,-2.27 -6.38,-3.36 -8.71,-7.84 -1.27,-2.8 -0.67,-3.73 -5.52,-8.61 2.93,2.51 7.76,2.08 8.62,7.28 1,4.29 3.61,6.53 5.61,9.17z"/>
  <path class="fil4" d="M28.34 58.04c1.19,0 2.16,-0.97 2.16,-2.17 0,-1.19 -0.97,-2.16 -2.16,-2.16 -1.19,0 -2.16,0.97 -2.16,2.16 0,1.2 0.97,2.17 2.16,2.17z"/>
  <path class="fil5" d="M8.46 59.58c2.27,-2.74 3.36,-6.4 7.83,-8.73 2.79,-1.28 3.72,-0.67 8.59,-5.54 -2.5,2.94 -2.08,7.78 -7.26,8.65 -4.29,1 -6.52,3.62 -9.16,5.62z"/>
  <path class="fil5" d="M8.46 31.05c2.27,2.74 3.36,6.4 7.83,8.73 2.79,1.27 3.72,0.67 8.59,5.53 -2.5,-2.94 -2.08,-7.77 -7.26,-8.64 -4.29,-1 -6.52,-3.62 -9.16,-5.62z"/>
  <path class="fil5" d="M15.65 45.32c0,-1.19 0.97,-2.16 2.16,-2.16 1.19,0 2.16,0.97 2.16,2.16 0,1.2 -0.97,2.17 -2.16,2.17 -1.19,0 -2.16,-0.97 -2.16,-2.17z"/>
  <path class="fil6" d="M48.23 59.58c-2.27,-2.74 -3.36,-6.4 -7.82,-8.73 -2.79,-1.28 -3.73,-0.67 -8.6,-5.54 2.51,2.94 2.08,7.78 7.27,8.65 4.28,1 6.52,3.62 9.15,5.62z"/>
  <path class="fil6" d="M48.23 31.05c-2.27,2.74 -3.36,6.4 -7.82,8.73 -2.79,1.27 -3.73,0.67 -8.6,5.53 2.51,-2.94 2.08,-7.77 7.27,-8.64 4.28,-1 6.52,-3.62 9.15,-5.62z"/>
  <path class="fil6" d="M41.05 45.32c0,-1.19 -0.97,-2.16 -2.16,-2.16 -1.2,0 -2.17,0.97 -2.17,2.16 0,1.2 0.97,2.17 2.17,2.17 1.19,0 2.16,-0.97 2.16,-2.17z"/>
  <path class="fil0" d="M7.75 75.65m8.99 -0.66c-0.53,0.29 -1.11,0.51 -1.77,0.66 -0.66,0.15 -1.34,0.23 -2.05,0.23 -0.77,0 -1.48,-0.11 -2.11,-0.34 -0.63,-0.23 -1.18,-0.55 -1.63,-0.98 -0.44,-0.42 -0.8,-0.94 -1.04,-1.58 -0.26,-0.61 -0.39,-1.32 -0.39,-2.11 0,-0.78 0.13,-1.49 0.37,-2.12 0.25,-0.64 0.6,-1.16 1.05,-1.61 0.44,-0.44 1,-0.78 1.63,-1.01 0.63,-0.24 1.35,-0.34 2.14,-0.34 0.3,0 0.63,0.01 0.95,0.04 0.32,0.05 0.65,0.09 0.97,0.16 0.32,0.07 0.63,0.15 0.92,0.26 0.29,0.11 0.54,0.23 0.77,0.37l-0.77 2.05c-0.92,-0.54 -1.84,-0.8 -2.77,-0.8 -0.87,0 -1.55,0.26 -2.06,0.78 -0.5,0.54 -0.77,1.25 -0.77,2.16 0,0.97 0.23,1.71 0.71,2.25 0.48,0.54 1.17,0.82 2.09,0.82 0.28,0 0.56,-0.03 0.83,-0.09 0.27,-0.05 0.51,-0.13 0.71,-0.2l0 -1.42 -2.37 0 0 -1.94 4.59 0 0 4.76zm1.36 0.66m7.63 -7.09c-0.35,-0.22 -0.74,-0.38 -1.15,-0.51 -0.42,-0.12 -0.85,-0.18 -1.28,-0.18 -0.83,0 -1.49,0.26 -1.98,0.78 -0.51,0.53 -0.75,1.25 -0.75,2.16 0,0.93 0.24,1.65 0.72,2.19 0.48,0.54 1.15,0.8 2.03,0.8 0.48,0 0.92,-0.08 1.35,-0.21 0.43,-0.14 0.83,-0.34 1.19,-0.58l0.5 2.18c-0.38,0.2 -0.86,0.37 -1.43,0.51 -0.58,0.12 -1.15,0.18 -1.72,0.18 -0.77,0 -1.46,-0.11 -2.09,-0.34 -0.63,-0.21 -1.15,-0.54 -1.6,-0.95 -0.45,-0.42 -0.8,-0.94 -1.05,-1.58 -0.24,-0.61 -0.37,-1.32 -0.37,-2.14 0,-0.78 0.13,-1.48 0.37,-2.11 0.23,-0.63 0.59,-1.15 1.03,-1.6 0.45,-0.45 1,-0.79 1.65,-1.02 0.63,-0.23 1.35,-0.35 2.14,-0.35 0.58,0 1.15,0.06 1.7,0.2 0.54,0.14 1.04,0.31 1.48,0.52l-0.74 2.05zm2.2 7.09m0 0l0 -9.63 7.02 0 0 1.97 -4.63 0 0 1.83 3.72 0 0 1.98 -3.72 0 0 1.88 4.63 0 0 1.97 -7.02 0zm8.46 0m9.17 -7.43l-2.11 7.28 -2.61 0 -2.11 -7.26 -0.06 7.41 -2.28 0 0.34 -9.63 3.46 0 2 7.23 2 -7.23 3.41 0 0.33 9.63 -2.33 0 -0.04 -7.43z"/>
  <path class="fil1" d="M71.69 74.18l-1.87 0 -1.9 -7.19 1.93 0 0.95 5.08 1.28 -5.08 2.07 0 1.29 5.08 0.96 -5.08 1.85 0 -1.9 7.19 -1.88 0 -1.38 -5.12 -1.4 5.12zm10.9 0l0 -3.17c0,-0.32 -0.07,-0.54 -0.2,-0.66 -0.13,-0.13 -0.3,-0.19 -0.52,-0.19 -0.2,0 -0.39,0.04 -0.55,0.12 -0.17,0.08 -0.3,0.18 -0.42,0.28l0 3.62 -1.76 0 0 -7.61 1.76 -0.22 -0.01 3.21c0.24,-0.26 0.5,-0.48 0.8,-0.65 0.31,-0.17 0.63,-0.26 0.98,-0.26 0.52,0 0.93,0.17 1.23,0.49 0.3,0.33 0.45,0.78 0.45,1.36l0 3.68 -1.76 0zm4.89 -7.06c0,0.31 -0.09,0.55 -0.28,0.71 -0.18,0.16 -0.43,0.24 -0.76,0.24 -0.32,0 -0.57,-0.08 -0.75,-0.24 -0.19,-0.16 -0.28,-0.4 -0.28,-0.71 0,-0.31 0.09,-0.55 0.28,-0.71 0.18,-0.16 0.43,-0.24 0.75,-0.24 0.33,0 0.58,0.08 0.76,0.24 0.19,0.16 0.28,0.4 0.28,0.71zm-1.91 7.06l0 -5.26 1.76 -0.22 0 5.48 -1.76 0zm6.41 -0.03c-0.2,0.06 -0.4,0.11 -0.6,0.15 -0.19,0.03 -0.42,0.05 -0.68,0.05 -0.66,0 -1.15,-0.15 -1.49,-0.45 -0.34,-0.3 -0.49,-0.8 -0.46,-1.49l0.08 -2.04 -0.8 -0.14 0.04 -1.13 0.79 -0.26 0.03 -1.22 1.69 0 -0.01 1.28 1.32 0 -0.03 1.39 -1.41 0 -0.06 1.92c-0.02,0.24 0.04,0.42 0.17,0.53 0.13,0.12 0.3,0.17 0.52,0.17 0.11,0 0.22,-0.01 0.34,-0.04 0.11,-0.03 0.24,-0.06 0.36,-0.1l0.2 1.38zm2.25 -2.23c0.03,0.36 0.17,0.64 0.4,0.84 0.24,0.19 0.57,0.29 1,0.29 0.29,0 0.58,-0.05 0.88,-0.15 0.3,-0.09 0.58,-0.21 0.85,-0.37l0.17 1.37c-0.26,0.14 -0.58,0.25 -0.94,0.32 -0.36,0.08 -0.73,0.12 -1.12,0.12 -0.45,0 -0.85,-0.06 -1.22,-0.19 -0.36,-0.12 -0.67,-0.3 -0.93,-0.54 -0.25,-0.23 -0.45,-0.53 -0.59,-0.88 -0.14,-0.35 -0.22,-0.74 -0.22,-1.19 0,-0.44 0.08,-0.83 0.22,-1.19 0.14,-0.36 0.33,-0.66 0.59,-0.91 0.25,-0.25 0.55,-0.44 0.91,-0.58 0.35,-0.14 0.73,-0.21 1.15,-0.21 0.75,0 1.33,0.21 1.72,0.63 0.4,0.41 0.6,0.95 0.6,1.62 0,0.14 -0.01,0.31 -0.03,0.49 -0.02,0.19 -0.04,0.34 -0.08,0.45l-3.36 0.06 0 0.02zm1.84 -0.92l0 -0.1c0,-0.32 -0.06,-0.58 -0.19,-0.76 -0.14,-0.18 -0.34,-0.27 -0.61,-0.27 -0.31,0 -0.55,0.12 -0.72,0.34 -0.17,0.23 -0.28,0.5 -0.31,0.8l1.83 -0.01zm6.43 -4.57c0,0 -0.02,0.08 -0.05,0.23 -0.04,0.16 -0.07,0.33 -0.11,0.51 -0.05,0.18 -0.08,0.35 -0.12,0.5 -0.03,0.15 -0.05,0.23 -0.05,0.23 -0.14,-0.06 -0.27,-0.11 -0.42,-0.15 -0.13,-0.04 -0.29,-0.06 -0.47,-0.06 -0.22,0 -0.38,0.06 -0.47,0.19 -0.09,0.13 -0.14,0.33 -0.14,0.59l0 0.43 1.48 0 -0.04 1.39 -1.36 0 0 3.89 -1.76 0 0 -3.88 -0.91 -0.07 0.04 -1.13 0.85 -0.25 0.02 -0.46c0.02,-0.78 0.2,-1.35 0.55,-1.7 0.35,-0.35 0.86,-0.52 1.53,-0.52 0.32,0 0.61,0.03 0.85,0.09 0.24,0.05 0.44,0.11 0.58,0.17zm2.32 0.69c0,0.31 -0.09,0.55 -0.27,0.71 -0.19,0.16 -0.44,0.24 -0.77,0.24 -0.31,0 -0.57,-0.08 -0.75,-0.24 -0.19,-0.16 -0.28,-0.4 -0.28,-0.71 0,-0.31 0.09,-0.55 0.28,-0.71 0.18,-0.16 0.44,-0.24 0.75,-0.24 0.33,0 0.58,0.08 0.77,0.24 0.18,0.16 0.27,0.4 0.27,0.71zm-1.91 7.06l0 -5.26 1.76 -0.22 0 5.48 -1.76 0zm4.43 -2.26c0.04,0.36 0.17,0.64 0.4,0.84 0.24,0.19 0.57,0.29 1,0.29 0.29,0 0.59,-0.05 0.89,-0.15 0.29,-0.09 0.58,-0.21 0.84,-0.37l0.17 1.37c-0.26,0.14 -0.58,0.25 -0.94,0.32 -0.36,0.08 -0.73,0.12 -1.12,0.12 -0.44,0 -0.85,-0.06 -1.21,-0.19 -0.37,-0.12 -0.68,-0.3 -0.93,-0.54 -0.26,-0.23 -0.46,-0.53 -0.6,-0.88 -0.14,-0.35 -0.21,-0.74 -0.21,-1.19 0,-0.44 0.07,-0.83 0.21,-1.19 0.14,-0.36 0.34,-0.66 0.59,-0.91 0.25,-0.25 0.56,-0.44 0.91,-0.58 0.35,-0.14 0.74,-0.21 1.15,-0.21 0.75,0 1.33,0.21 1.73,0.63 0.39,0.41 0.59,0.95 0.59,1.62 0,0.14 -0.01,0.31 -0.02,0.49 -0.02,0.19 -0.05,0.34 -0.09,0.45l-3.36 0.06 0 0.02zm1.85 -0.92l0 -0.1c0,-0.32 -0.07,-0.58 -0.2,-0.76 -0.13,-0.18 -0.34,-0.27 -0.61,-0.27 -0.3,0 -0.54,0.12 -0.72,0.34 -0.17,0.23 -0.27,0.5 -0.3,0.8l1.83 -0.01zm2.61 3.18l0 -7.61 1.77 -0.22 0 7.83 -1.77 0zm6.46 -7.61l1.77 -0.22 0 7.83 -1.77 0 0.01 -0.56c-0.16,0.18 -0.37,0.34 -0.61,0.49 -0.24,0.15 -0.53,0.23 -0.86,0.23 -0.33,0 -0.63,-0.07 -0.91,-0.2 -0.28,-0.13 -0.51,-0.31 -0.72,-0.56 -0.2,-0.24 -0.35,-0.53 -0.47,-0.87 -0.11,-0.34 -0.17,-0.72 -0.17,-1.14 0,-0.45 0.07,-0.85 0.22,-1.21 0.14,-0.35 0.33,-0.66 0.58,-0.91 0.24,-0.25 0.52,-0.45 0.83,-0.58 0.32,-0.14 0.66,-0.2 1.02,-0.2 0.37,0 0.74,0.06 1.08,0.18l0 -2.28zm0 3.64c-0.09,-0.07 -0.21,-0.13 -0.35,-0.17 -0.13,-0.04 -0.28,-0.06 -0.45,-0.06 -0.36,0 -0.65,0.14 -0.86,0.41 -0.2,0.28 -0.3,0.64 -0.3,1.08 0,0.46 0.1,0.82 0.3,1.07 0.2,0.26 0.46,0.38 0.79,0.38 0.19,0 0.36,-0.03 0.5,-0.1 0.13,-0.06 0.26,-0.15 0.37,-0.27l0 -2.34zm2.67 3.06c0.04,-0.32 0.17,-0.57 0.4,-0.76 0.22,-0.19 0.5,-0.29 0.82,-0.29 0.2,0 0.38,0.04 0.55,0.12 0.16,0.08 0.31,0.19 0.43,0.32 0.12,0.14 0.22,0.29 0.28,0.47 0.07,0.18 0.11,0.36 0.11,0.56 0,0.26 -0.06,0.51 -0.16,0.73 -0.11,0.23 -0.25,0.44 -0.43,0.64 -0.18,0.19 -0.38,0.37 -0.61,0.53 -0.23,0.16 -0.47,0.31 -0.73,0.45l-0.77 -0.69c0.32,-0.22 0.59,-0.43 0.81,-0.63 0.22,-0.2 0.33,-0.4 0.33,-0.59 0,-0.15 -0.07,-0.29 -0.22,-0.43 -0.14,-0.13 -0.41,-0.27 -0.81,-0.43zm10.06 -2.85c0.45,0.08 0.82,0.27 1.11,0.56 0.28,0.29 0.42,0.66 0.42,1.1 0,0.29 -0.04,0.56 -0.13,0.81 -0.08,0.26 -0.24,0.48 -0.45,0.67 -0.22,0.19 -0.51,0.34 -0.88,0.45 -0.38,0.11 -0.85,0.17 -1.41,0.17l-3.11 0 0 -7.19 3.08 0c0.53,0 0.97,0.04 1.32,0.14 0.34,0.1 0.62,0.23 0.82,0.4 0.21,0.17 0.35,0.36 0.43,0.59 0.08,0.23 0.12,0.47 0.12,0.74 0,0.42 -0.12,0.75 -0.35,1 -0.24,0.26 -0.56,0.44 -0.97,0.56zm-0.49 -1.27c0,-0.54 -0.35,-0.81 -1.04,-0.81l-1.16 0 0 1.67 1.07 0c0.37,0 0.66,-0.07 0.85,-0.22 0.18,-0.15 0.28,-0.36 0.28,-0.64zm0.2 2.83c0,-0.3 -0.11,-0.52 -0.33,-0.64 -0.22,-0.13 -0.53,-0.19 -0.91,-0.19l-1.16 0 0 1.67 1.22 0c0.4,0 0.7,-0.07 0.9,-0.2 0.19,-0.14 0.28,-0.35 0.28,-0.64zm5.62 -0.19c-0.54,0.07 -0.93,0.16 -1.15,0.28 -0.22,0.11 -0.33,0.29 -0.33,0.53 0,0.18 0.06,0.32 0.19,0.42 0.12,0.1 0.28,0.16 0.47,0.16 0.18,0 0.34,-0.04 0.47,-0.1 0.15,-0.07 0.26,-0.15 0.35,-0.26l0 -1.03zm0.01 1.74c-0.19,0.22 -0.4,0.42 -0.63,0.58 -0.23,0.16 -0.53,0.24 -0.89,0.24 -0.23,0 -0.44,-0.04 -0.64,-0.12 -0.19,-0.07 -0.36,-0.18 -0.51,-0.31 -0.14,-0.14 -0.26,-0.29 -0.34,-0.47 -0.08,-0.18 -0.13,-0.38 -0.13,-0.59 0,-0.25 0.06,-0.49 0.16,-0.71 0.1,-0.22 0.27,-0.42 0.52,-0.58 0.24,-0.17 0.56,-0.31 0.96,-0.42 0.4,-0.11 0.9,-0.17 1.49,-0.18l0 -0.11c0,-0.28 -0.07,-0.49 -0.22,-0.62 -0.15,-0.13 -0.39,-0.19 -0.71,-0.19 -0.27,0 -0.56,0.05 -0.87,0.15 -0.31,0.11 -0.62,0.23 -0.93,0.39l-0.36 -1.3c0.28,-0.16 0.63,-0.3 1.05,-0.43 0.42,-0.14 0.88,-0.21 1.38,-0.21 0.46,0 0.84,0.06 1.15,0.16 0.31,0.1 0.56,0.26 0.75,0.45 0.19,0.2 0.33,0.45 0.41,0.73 0.08,0.29 0.11,0.62 0.1,1l-0.01 1.59c0,0.18 0.03,0.3 0.08,0.34 0.06,0.05 0.17,0.08 0.35,0.09l-0.17 1.27c-0.57,0.08 -1.01,0.04 -1.32,-0.1 -0.3,-0.14 -0.51,-0.36 -0.63,-0.65l-0.04 0zm6.41 0.65l0 -3.17c0,-0.32 -0.07,-0.54 -0.2,-0.66 -0.13,-0.13 -0.31,-0.19 -0.55,-0.19 -0.19,0 -0.37,0.04 -0.53,0.12 -0.16,0.08 -0.3,0.18 -0.41,0.28l0 3.62 -1.76 0 0 -5.26 1.76 -0.22 -0.01 0.88c0.23,-0.27 0.5,-0.49 0.8,-0.67 0.3,-0.17 0.63,-0.26 0.96,-0.26 0.54,0 0.95,0.17 1.25,0.49 0.3,0.33 0.45,0.78 0.45,1.36l0 3.68 -1.76 0zm4.36 -3.44c0,0.28 0.07,0.51 0.21,0.68 0.13,0.17 0.34,0.26 0.62,0.26 0.27,0 0.46,-0.09 0.59,-0.27 0.12,-0.18 0.19,-0.42 0.19,-0.72 0,-0.28 -0.07,-0.51 -0.2,-0.68 -0.13,-0.18 -0.34,-0.26 -0.61,-0.26 -0.25,0 -0.45,0.09 -0.59,0.27 -0.14,0.18 -0.21,0.42 -0.21,0.72zm-0.08 3.99c-0.12,0.06 -0.22,0.14 -0.3,0.23 -0.08,0.1 -0.12,0.22 -0.12,0.36 0,0.2 0.12,0.37 0.36,0.5 0.24,0.13 0.56,0.2 0.97,0.2 0.22,0 0.41,-0.02 0.6,-0.05 0.18,-0.03 0.34,-0.08 0.47,-0.14 0.14,-0.07 0.24,-0.14 0.32,-0.23 0.08,-0.09 0.11,-0.19 0.11,-0.31 0,-0.21 -0.11,-0.35 -0.33,-0.42 -0.23,-0.07 -0.57,-0.11 -1.03,-0.11 -0.17,0 -0.36,0 -0.57,-0.01 -0.22,-0.01 -0.38,-0.01 -0.48,-0.02zm-0.69 -0.2c-0.24,-0.07 -0.45,-0.18 -0.64,-0.35 -0.19,-0.16 -0.28,-0.37 -0.28,-0.61 0,-0.26 0.1,-0.49 0.31,-0.72 0.2,-0.22 0.46,-0.38 0.78,-0.47 -0.32,-0.15 -0.58,-0.37 -0.77,-0.65 -0.2,-0.29 -0.3,-0.62 -0.3,-1 0,-0.3 0.06,-0.57 0.17,-0.82 0.12,-0.25 0.28,-0.47 0.5,-0.66 0.21,-0.18 0.48,-0.33 0.79,-0.43 0.31,-0.11 0.66,-0.17 1.06,-0.17 0.31,0 0.61,0.05 0.89,0.13 0.28,0.08 0.52,0.16 0.72,0.25l1.49 -0.12 0.08 1.44 -1.02 -0.17c0.04,0.06 0.08,0.15 0.1,0.27 0.03,0.12 0.04,0.23 0.04,0.32 0,0.27 -0.05,0.52 -0.17,0.76 -0.11,0.24 -0.27,0.44 -0.48,0.62 -0.2,0.17 -0.44,0.3 -0.73,0.4 -0.28,0.1 -0.6,0.15 -0.94,0.15 -0.12,0 -0.23,0 -0.34,-0.02 -0.11,-0.01 -0.23,-0.03 -0.36,-0.06 -0.08,0.04 -0.15,0.09 -0.21,0.16 -0.07,0.06 -0.1,0.14 -0.1,0.23 0,0.13 0.08,0.21 0.22,0.26 0.15,0.05 0.4,0.08 0.75,0.08l0.62 0c0.37,0 0.7,0.02 1,0.07 0.3,0.05 0.56,0.14 0.77,0.26 0.22,0.12 0.38,0.27 0.5,0.46 0.12,0.19 0.18,0.43 0.18,0.71 0,0.34 -0.09,0.65 -0.27,0.91 -0.19,0.27 -0.43,0.5 -0.74,0.69 -0.31,0.2 -0.66,0.34 -1.06,0.45 -0.39,0.1 -0.81,0.15 -1.24,0.15 -0.36,0 -0.69,-0.03 -1.01,-0.08 -0.31,-0.06 -0.58,-0.15 -0.82,-0.26 -0.23,-0.12 -0.41,-0.26 -0.55,-0.43 -0.13,-0.18 -0.2,-0.38 -0.2,-0.62 0,-0.27 0.1,-0.51 0.31,-0.72 0.21,-0.22 0.53,-0.35 0.95,-0.41zm8.23 -2.74c-0.54,0.07 -0.93,0.16 -1.14,0.28 -0.22,0.11 -0.33,0.29 -0.33,0.53 0,0.18 0.06,0.32 0.18,0.42 0.12,0.1 0.28,0.16 0.47,0.16 0.18,0 0.34,-0.04 0.48,-0.1 0.14,-0.07 0.25,-0.15 0.34,-0.26l0 -1.03zm0.01 1.74c-0.18,0.22 -0.39,0.42 -0.63,0.58 -0.23,0.16 -0.52,0.24 -0.89,0.24 -0.23,0 -0.44,-0.04 -0.64,-0.12 -0.19,-0.07 -0.36,-0.18 -0.51,-0.31 -0.14,-0.14 -0.26,-0.29 -0.34,-0.47 -0.08,-0.18 -0.12,-0.38 -0.12,-0.59 0,-0.25 0.05,-0.49 0.15,-0.71 0.1,-0.22 0.27,-0.42 0.52,-0.58 0.24,-0.17 0.56,-0.31 0.96,-0.42 0.41,-0.11 0.9,-0.17 1.49,-0.18l0 -0.11c0,-0.28 -0.07,-0.49 -0.22,-0.62 -0.15,-0.13 -0.38,-0.19 -0.71,-0.19 -0.27,0 -0.56,0.05 -0.87,0.15 -0.31,0.11 -0.61,0.23 -0.93,0.39l-0.36 -1.3c0.28,-0.16 0.63,-0.3 1.05,-0.43 0.42,-0.14 0.88,-0.21 1.38,-0.21 0.46,0 0.84,0.06 1.15,0.16 0.31,0.1 0.56,0.26 0.75,0.45 0.19,0.2 0.33,0.45 0.41,0.73 0.08,0.29 0.11,0.62 0.1,1l-0.01 1.59c0,0.18 0.03,0.3 0.08,0.34 0.06,0.05 0.17,0.08 0.36,0.09l-0.17 1.27c-0.58,0.08 -1.02,0.04 -1.32,-0.1 -0.31,-0.14 -0.52,-0.36 -0.64,-0.65l-0.04 0zm2.96 0.65l0 -7.61 1.76 -0.22 0 7.83 -1.76 0zm8.4 -2.7c0,0.45 -0.08,0.85 -0.23,1.21 -0.15,0.35 -0.36,0.65 -0.62,0.9 -0.25,0.25 -0.56,0.43 -0.91,0.56 -0.35,0.13 -0.72,0.2 -1.11,0.2 -0.4,0 -0.77,-0.06 -1.11,-0.18 -0.35,-0.13 -0.64,-0.31 -0.89,-0.55 -0.25,-0.24 -0.45,-0.54 -0.59,-0.89 -0.15,-0.36 -0.22,-0.76 -0.22,-1.21 0,-0.45 0.07,-0.86 0.22,-1.21 0.15,-0.36 0.35,-0.66 0.62,-0.91 0.26,-0.24 0.56,-0.43 0.91,-0.56 0.35,-0.12 0.73,-0.19 1.13,-0.19 0.4,0 0.77,0.07 1.11,0.19 0.34,0.13 0.64,0.31 0.89,0.56 0.25,0.24 0.44,0.53 0.59,0.88 0.13,0.35 0.21,0.75 0.21,1.2zm-1.75 0.02c0,-0.45 -0.09,-0.81 -0.27,-1.08 -0.19,-0.27 -0.46,-0.41 -0.83,-0.41 -0.36,0 -0.64,0.14 -0.82,0.41 -0.18,0.27 -0.27,0.64 -0.27,1.09 0,0.46 0.09,0.82 0.28,1.09 0.18,0.26 0.46,0.39 0.82,0.39 0.37,0 0.64,-0.13 0.82,-0.4 0.18,-0.27 0.27,-0.63 0.27,-1.09zm4.47 2.68l-1.76 0 0 -5.26 1.76 -0.22 0 0.78c0.32,-0.55 0.74,-0.83 1.28,-0.83 0.3,0 0.59,0.08 0.87,0.22l-0.35 1.57c-0.21,-0.11 -0.43,-0.16 -0.66,-0.16 -0.22,0 -0.42,0.06 -0.61,0.18 -0.19,0.11 -0.37,0.32 -0.53,0.6l0 3.12zm4.12 -2.26c0.03,0.36 0.16,0.64 0.4,0.84 0.23,0.19 0.57,0.29 1,0.29 0.29,0 0.58,-0.05 0.88,-0.15 0.3,-0.09 0.58,-0.21 0.85,-0.37l0.17 1.37c-0.27,0.14 -0.58,0.25 -0.94,0.32 -0.36,0.08 -0.73,0.12 -1.12,0.12 -0.45,0 -0.85,-0.06 -1.22,-0.19 -0.36,-0.12 -0.67,-0.3 -0.93,-0.54 -0.26,-0.23 -0.46,-0.53 -0.6,-0.88 -0.14,-0.35 -0.21,-0.74 -0.21,-1.19 0,-0.44 0.07,-0.83 0.21,-1.19 0.14,-0.36 0.34,-0.66 0.6,-0.91 0.25,-0.25 0.55,-0.44 0.91,-0.58 0.35,-0.14 0.73,-0.21 1.15,-0.21 0.75,0 1.32,0.21 1.72,0.63 0.4,0.41 0.6,0.95 0.6,1.62 0,0.14 -0.01,0.31 -0.03,0.49 -0.02,0.19 -0.05,0.34 -0.08,0.45l-3.36 0.06 0 0.02zm1.84 -0.92l0 -0.1c0,-0.32 -0.06,-0.58 -0.2,-0.76 -0.13,-0.18 -0.33,-0.27 -0.6,-0.27 -0.31,0 -0.55,0.12 -0.72,0.34 -0.17,0.23 -0.28,0.5 -0.31,0.8l1.83 -0.01z"/>
  <polygon class="fil7" points="60.37,24.72 61.42,24.72 61.42,77.68 60.37,77.68 "/>
  <path class="fil8" d="M8.14 107.3l41.26 0c1.86,0 3.39,1.2 3.39,2.68l0 46c0,1.47 -1.53,2.68 -3.39,2.68l-41.26 0c-1.87,0 -3.39,-1.21 -3.39,-2.68l0 -46c0,-1.48 1.52,-2.68 3.39,-2.68z"/>
  <path class="fil9" d="M18.44 152.27l-2 -0.1 0.1 -0.76 3.77 0 0 3.82c-0.2,0.09 -0.46,0.18 -0.76,0.28 -0.3,0.09 -0.62,0.17 -0.97,0.25 -0.35,0.07 -0.71,0.13 -1.08,0.18 -0.37,0.05 -0.73,0.08 -1.08,0.08 -0.69,0 -1.29,-0.12 -1.78,-0.35 -0.49,-0.24 -0.89,-0.57 -1.19,-1 -0.31,-0.43 -0.53,-0.94 -0.67,-1.54 -0.14,-0.6 -0.21,-1.27 -0.21,-2 0,-0.73 0.12,-1.39 0.36,-1.97 0.24,-0.58 0.58,-1.08 1.02,-1.48 0.44,-0.41 0.96,-0.72 1.57,-0.94 0.61,-0.22 1.28,-0.32 2.01,-0.32 0.18,0 0.39,0 0.61,0.02 0.22,0.01 0.44,0.03 0.66,0.05 0.22,0.02 0.42,0.05 0.62,0.08 0.19,0.03 0.35,0.06 0.48,0.09l-0.31 1.37c-0.15,-0.05 -0.34,-0.1 -0.58,-0.14 -0.23,-0.06 -0.47,-0.1 -0.73,-0.14 -0.26,-0.05 -0.51,-0.08 -0.76,-0.1 -0.25,-0.03 -0.48,-0.05 -0.68,-0.05 -0.33,0 -0.63,0.03 -0.92,0.08 -0.29,0.05 -0.56,0.17 -0.8,0.36 -0.13,0.1 -0.24,0.26 -0.32,0.48 -0.09,0.22 -0.15,0.48 -0.2,0.76 -0.05,0.29 -0.08,0.59 -0.1,0.91 -0.02,0.33 -0.02,0.65 -0.02,0.96 0,1.25 0.15,2.21 0.46,2.87 0.32,0.67 0.81,1 1.48,1 0.17,0 0.35,-0.01 0.53,-0.02 0.2,-0.02 0.38,-0.03 0.56,-0.06 0.19,-0.02 0.36,-0.05 0.52,-0.07 0.16,-0.03 0.3,-0.06 0.41,-0.08l0 -2.52zm9.21 0.87c0,0.34 -0.08,0.68 -0.25,1.03 -0.16,0.34 -0.4,0.64 -0.71,0.92 -0.3,0.27 -0.67,0.5 -1.11,0.67 -0.43,0.17 -0.92,0.26 -1.46,0.26 -0.28,0 -0.55,-0.02 -0.79,-0.05 -0.25,-0.03 -0.48,-0.08 -0.7,-0.14 -0.21,-0.06 -0.42,-0.13 -0.61,-0.21 -0.2,-0.09 -0.4,-0.18 -0.6,-0.28l0.45 -1.39c0.13,0.08 0.31,0.18 0.52,0.28 0.22,0.1 0.45,0.19 0.7,0.28 0.25,0.09 0.51,0.16 0.76,0.21 0.26,0.06 0.49,0.09 0.7,0.09 0.25,0 0.44,-0.01 0.6,-0.04 0.15,-0.04 0.29,-0.08 0.41,-0.13 0.13,-0.05 0.24,-0.19 0.33,-0.41 0.08,-0.21 0.12,-0.49 0.12,-0.84 0,-0.32 -0.11,-0.57 -0.32,-0.76 -0.21,-0.19 -0.47,-0.36 -0.79,-0.49 -0.32,-0.14 -0.66,-0.28 -1.03,-0.42 -0.37,-0.14 -0.71,-0.32 -1.03,-0.54 -0.32,-0.22 -0.58,-0.5 -0.79,-0.84 -0.22,-0.35 -0.32,-0.8 -0.32,-1.36 0,-0.28 0.07,-0.56 0.21,-0.86 0.15,-0.3 0.36,-0.58 0.63,-0.83 0.28,-0.26 0.62,-0.47 1.02,-0.63 0.41,-0.16 0.86,-0.24 1.37,-0.24 0.41,0 0.81,0.02 1.19,0.06 0.38,0.04 0.74,0.09 1.1,0.16l-0.29 1.39c-0.16,-0.06 -0.35,-0.12 -0.56,-0.17 -0.21,-0.06 -0.42,-0.1 -0.63,-0.14 -0.22,-0.05 -0.43,-0.08 -0.63,-0.1 -0.21,-0.03 -0.39,-0.04 -0.54,-0.04 -0.18,0 -0.35,0.01 -0.5,0.03 -0.15,0.02 -0.28,0.06 -0.41,0.14 -0.11,0.06 -0.2,0.18 -0.25,0.35 -0.05,0.16 -0.07,0.36 -0.07,0.59 0,0.24 0.06,0.43 0.18,0.59 0.12,0.16 0.28,0.29 0.48,0.41 0.21,0.12 0.43,0.23 0.69,0.33 0.25,0.09 0.52,0.2 0.79,0.31 0.27,0.11 0.53,0.24 0.78,0.39 0.26,0.14 0.49,0.32 0.69,0.54 0.2,0.21 0.36,0.47 0.48,0.77 0.12,0.31 0.19,0.68 0.19,1.11zm7.12 2.75l-1.06 -3.15 -3.38 0.05 -1.08 3.1 -1.16 0 3.55 -9.28 1.78 -0.32 3.31 9.6 -1.96 0zm-1.34 -4.04l-1.36 -4.05 -1.41 4.05 2.77 0zm6.5 -0.32l0.25 -0.04c0.24,-0.06 0.46,-0.13 0.67,-0.21 0.22,-0.09 0.4,-0.22 0.55,-0.38 0.16,-0.17 0.28,-0.39 0.37,-0.66 0.08,-0.27 0.13,-0.61 0.13,-1.03 0,-0.63 -0.14,-1.09 -0.43,-1.38 -0.29,-0.29 -0.66,-0.43 -1.13,-0.43 -0.12,0 -0.23,0 -0.35,0.01 -0.12,0 -0.25,0.02 -0.38,0.04l0 8.44 -1.82 0 0 -9.33c0.19,-0.01 0.4,-0.03 0.62,-0.04 0.23,-0.01 0.46,-0.03 0.71,-0.04 0.24,-0.01 0.48,-0.01 0.72,-0.02 0.25,0 0.48,0 0.71,0 0.55,0 1.03,0.06 1.44,0.19 0.41,0.12 0.74,0.29 1.01,0.52 0.26,0.23 0.46,0.51 0.59,0.84 0.13,0.33 0.2,0.7 0.2,1.11 0,0.44 -0.07,0.85 -0.22,1.23 -0.14,0.37 -0.36,0.71 -0.66,0.99 -0.3,0.29 -0.68,0.51 -1.14,0.67 -0.46,0.17 -1.01,0.25 -1.64,0.25l-0.08 0 -0.12 -0.73z"/>
  <path class="fil10" d="M14.67 116.04c2.89,-4.37 7.82,-6.58 12.19,-7.03 -4.08,0.89 -9.68,3.91 -9.76,10.75 -0.11,8.79 8.14,13.6 16.04,10.51 -1.57,2.7 -3.69,4.86 -6.79,5.71 -4.59,1.25 -10.1,-0.3 -12.64,-4.44 -3.03,-4.92 -2.1,-10.86 0.96,-15.5z"/>
  <path class="fil11" d="M20.51 134.6c4.14,0.35 7.31,-1.03 9.08,-3.49 1.15,-0.04 2.32,-0.31 3.52,-0.86 -2.12,4.37 -6.32,6.53 -11.17,6.1 -5.25,-0.47 -9.1,-4.12 -9.95,-9.26 1.31,4.43 4.11,6.8 8.52,7.51z"/>
  <path class="fil12" d="M37.71 112.02c4.36,2.92 6.52,7.85 6.91,12.19 -0.84,-4.06 -3.8,-9.66 -10.69,-9.84 -8.85,-0.23 -13.82,7.89 -10.81,15.78 -2.71,-1.61 -4.85,-3.74 -5.66,-6.82 -1.19,-4.58 0.44,-10.02 4.66,-12.5 5,-2.93 10.96,-1.92 15.59,1.19z"/>
  <path class="fil13" d="M19.87 117.55c-0.42,4.1 0.93,7.27 3.39,9.06 0.02,1.14 0.27,2.31 0.81,3.51 -4.37,-2.17 -6.49,-6.37 -5.98,-11.18 0.55,-5.21 4.28,-8.98 9.46,-9.75 -4.48,1.24 -6.9,3.99 -7.68,8.36z"/>
  <path class="fil14" d="M41.43 134.95c-3,4.28 -8,6.35 -12.38,6.68 4.1,-0.77 9.79,-3.63 10.07,-10.47 0.36,-8.79 -7.75,-13.83 -15.74,-10.96 1.66,-2.66 3.84,-4.76 6.95,-5.52 4.63,-1.12 10.09,0.58 12.52,4.8 2.88,5.01 1.78,10.91 -1.42,15.47z"/>
  <path class="fil15" d="M36.13 116.23c-4.12,-0.47 -7.33,0.82 -9.17,3.23 -1.15,0.01 -2.33,0.25 -3.55,0.76 2.25,-4.31 6.51,-6.35 11.34,-5.78 5.24,0.62 8.99,4.38 9.69,9.54 -1.19,-4.47 -3.92,-6.91 -8.31,-7.75z"/>
  <path class="fil16" d="M18.28 138.31c-4.26,-3.05 -6.28,-8.03 -6.55,-12.39 0.72,4.09 3.52,9.77 10.41,10.15 8.84,0.48 14.03,-7.49 11.26,-15.47 2.66,1.68 4.74,3.88 5.45,6.98 1.07,4.61 -0.73,10.01 -5.01,12.36 -5.08,2.78 -11.02,1.61 -15.56,-1.63z"/>
  <path class="fil17" d="M37.22 133.32c0.53,-4.09 -0.73,-7.3 -3.13,-9.16 0.01,-1.14 -0.21,-2.31 -0.71,-3.53 4.31,2.3 6.3,6.55 5.66,11.34 -0.7,5.2 -4.54,8.86 -9.75,9.48 4.52,-1.11 7.02,-3.79 7.93,-8.13z"/>
  <path class="fil0" d="M28.18 118.42c3.83,0 6.94,3.09 6.94,6.9 0,3.81 -3.11,6.89 -6.94,6.89 -3.84,0 -6.95,-3.08 -6.95,-6.89 0,-3.81 3.11,-6.9 6.95,-6.9z"/>
  <path class="fil1" d="M82.55 123.39c-0.79,0.43 -1.68,0.77 -2.68,1 -0.99,0.23 -2.02,0.34 -3.08,0.34 -1.16,0 -2.23,-0.17 -3.19,-0.51 -0.96,-0.33 -1.78,-0.82 -2.46,-1.46 -0.68,-0.64 -1.21,-1.42 -1.59,-2.35 -0.38,-0.93 -0.57,-1.99 -0.57,-3.17 0,-1.19 0.19,-2.25 0.56,-3.18 0.37,-0.94 0.9,-1.74 1.59,-2.4 0.69,-0.66 1.51,-1.17 2.47,-1.51 0.96,-0.35 2.04,-0.52 3.23,-0.52 0.47,0 0.95,0.03 1.44,0.08 0.5,0.05 0.99,0.13 1.47,0.23 0.48,0.1 0.94,0.23 1.38,0.38 0.44,0.15 0.83,0.34 1.17,0.55l-1.16 3.07c-1.39,-0.8 -2.79,-1.2 -4.18,-1.2 -1.32,0 -2.36,0.4 -3.12,1.19 -0.77,0.79 -1.16,1.86 -1.16,3.22 0,1.44 0.36,2.57 1.07,3.37 0.71,0.81 1.76,1.21 3.15,1.21 0.41,0 0.83,-0.04 1.24,-0.12 0.41,-0.09 0.76,-0.19 1.07,-0.31l0 -2.13 -3.57 0 0 -2.92 6.92 0 0 7.14zm14.1 -4.56c0,0.89 -0.16,1.7 -0.48,2.43 -0.32,0.73 -0.75,1.35 -1.3,1.86 -0.55,0.5 -1.19,0.9 -1.92,1.17 -0.73,0.28 -1.51,0.42 -2.34,0.42 -0.84,0 -1.62,-0.12 -2.34,-0.37 -0.72,-0.25 -1.35,-0.61 -1.89,-1.1 -0.54,-0.48 -0.97,-1.08 -1.28,-1.81 -0.31,-0.72 -0.46,-1.56 -0.46,-2.53 0,-0.91 0.16,-1.72 0.47,-2.45 0.32,-0.72 0.75,-1.33 1.3,-1.84 0.55,-0.51 1.19,-0.9 1.92,-1.17 0.73,-0.26 1.5,-0.4 2.32,-0.4 0.84,0 1.62,0.12 2.35,0.36 0.73,0.24 1.36,0.6 1.9,1.08 0.55,0.49 0.97,1.09 1.28,1.81 0.31,0.72 0.47,1.57 0.47,2.54zm-3.51 0.07c0,-0.96 -0.21,-1.74 -0.63,-2.34 -0.42,-0.59 -1.05,-0.89 -1.9,-0.89 -0.84,0 -1.46,0.3 -1.87,0.88 -0.41,0.59 -0.62,1.35 -0.62,2.28 0,0.96 0.21,1.74 0.64,2.34 0.43,0.61 1.06,0.91 1.92,0.91 0.83,0 1.45,-0.3 1.85,-0.9 0.41,-0.59 0.61,-1.35 0.61,-2.28zm15.63 -1.64c0,1.38 -0.46,2.42 -1.37,3.11 -0.91,0.69 -2.18,1.04 -3.79,1.04l-1.13 0 0 2.98 -3.56 0 0 -11.05 4.88 0c1.61,0 2.84,0.35 3.69,1.05 0.85,0.7 1.28,1.66 1.28,2.87zm-3.39 0.09c0,-0.52 -0.18,-0.92 -0.52,-1.18 -0.35,-0.27 -0.85,-0.41 -1.5,-0.41l-1.02 0 0 3.35 0.93 -0.05c0.71,-0.03 1.24,-0.18 1.59,-0.44 0.34,-0.26 0.52,-0.68 0.52,-1.27zm16.14 7.04l-3.46 0 -0.72 -2.06 -3.81 0 -0.63 2.06 -3.53 0 3.81 -11.05 4.6 0 3.74 11.05zm-6.08 -8.7l-1.35 4.32 2.69 0 -1.34 -4.32zm7.92 8.7l0 -11.05 3.55 0 0 8.19 4.97 0 0 2.86 -8.52 0zm21.76 0l-3.46 0 -0.72 -2.06 -3.81 0 -0.63 2.06 -3.53 0 3.81 -11.05 4.6 0 3.74 11.05zm-6.08 -8.7l-1.35 4.32 2.69 0 -1.34 -4.32zm15.74 -2.35l3.23 0 0 11.16 -3.7 0 -4.13 -6.32 0 6.21 -3.22 0 0 -11.05 3.72 0 4.13 6.23 -0.03 -6.23zm14.92 8.37c0.65,0 1.18,-0.11 1.59,-0.35 0.41,-0.23 0.61,-0.56 0.61,-1.01 0,-0.25 -0.06,-0.45 -0.2,-0.62 -0.13,-0.17 -0.32,-0.32 -0.56,-0.45 -0.25,-0.13 -0.56,-0.26 -0.93,-0.37 -0.37,-0.12 -0.79,-0.24 -1.27,-0.38 -0.53,-0.14 -1.06,-0.32 -1.61,-0.53 -0.55,-0.22 -1.05,-0.49 -1.51,-0.82 -0.45,-0.33 -0.83,-0.75 -1.11,-1.24 -0.28,-0.5 -0.43,-1.12 -0.43,-1.84 0,-1.34 0.48,-2.41 1.44,-3.23 0.96,-0.81 2.34,-1.22 4.13,-1.22 1.15,0 2.17,0.12 3.06,0.35 0.88,0.23 1.68,0.53 2.37,0.92l-0.71 3.02c-0.73,-0.38 -1.51,-0.69 -2.35,-0.92 -0.83,-0.23 -1.62,-0.35 -2.34,-0.35 -1.27,0 -1.9,0.41 -1.9,1.22 0,0.23 0.07,0.44 0.23,0.61 0.15,0.18 0.37,0.34 0.65,0.47 0.28,0.13 0.6,0.25 0.97,0.37 0.38,0.11 0.78,0.23 1.21,0.35 0.56,0.16 1.11,0.34 1.65,0.56 0.54,0.21 1.03,0.48 1.46,0.81 0.44,0.33 0.79,0.74 1.05,1.23 0.26,0.48 0.4,1.07 0.4,1.76 0,0.69 -0.14,1.32 -0.4,1.89 -0.26,0.57 -0.65,1.06 -1.15,1.48 -0.5,0.41 -1.12,0.74 -1.86,0.97 -0.73,0.23 -1.58,0.34 -2.54,0.34 -1.09,0 -2.12,-0.12 -3.1,-0.37 -0.99,-0.24 -1.82,-0.56 -2.5,-0.94l0.7 -3.05c0.72,0.39 1.51,0.71 2.35,0.96 0.84,0.25 1.71,0.38 2.6,0.38zm16.6 -5c-0.35,-0.22 -0.78,-0.39 -1.26,-0.53 -0.49,-0.14 -0.96,-0.21 -1.41,-0.21 -0.83,0 -1.49,0.26 -1.95,0.78 -0.46,0.51 -0.7,1.2 -0.7,2.07 0,0.89 0.22,1.6 0.66,2.13 0.45,0.52 1.11,0.78 1.99,0.78 0.53,0 1.02,-0.06 1.48,-0.19 0.45,-0.13 0.91,-0.33 1.35,-0.59l0.77 3.02c-0.2,0.11 -0.45,0.2 -0.74,0.29 -0.3,0.08 -0.61,0.16 -0.95,0.23 -0.34,0.07 -0.69,0.12 -1.05,0.16 -0.36,0.04 -0.7,0.06 -1.02,0.06 -1.86,0 -3.33,-0.49 -4.43,-1.47 -1.09,-0.97 -1.63,-2.42 -1.63,-4.34 0,-0.89 0.14,-1.7 0.41,-2.42 0.28,-0.73 0.69,-1.34 1.21,-1.85 0.53,-0.51 1.18,-0.9 1.95,-1.17 0.78,-0.28 1.65,-0.42 2.63,-0.42 0.71,0 1.38,0.07 2.01,0.22 0.62,0.14 1.21,0.32 1.75,0.53l-1.07 2.92zm10.43 7.68l0 -4.27 -3.78 0 0 4.27 -3.56 0 0 -11.05 3.56 0 0 4.15 3.78 0 0 -4.15 3.55 0 0 11.05 -3.55 0zm17.84 -5.56c0,0.89 -0.16,1.7 -0.48,2.43 -0.31,0.73 -0.75,1.35 -1.3,1.86 -0.55,0.5 -1.19,0.9 -1.91,1.17 -0.73,0.28 -1.51,0.42 -2.35,0.42 -0.84,0 -1.61,-0.12 -2.33,-0.37 -0.72,-0.25 -1.35,-0.61 -1.9,-1.1 -0.54,-0.48 -0.96,-1.08 -1.27,-1.81 -0.31,-0.72 -0.47,-1.56 -0.47,-2.53 0,-0.91 0.16,-1.72 0.48,-2.45 0.31,-0.72 0.75,-1.33 1.3,-1.84 0.55,-0.51 1.19,-0.9 1.91,-1.17 0.73,-0.26 1.51,-0.4 2.33,-0.4 0.83,0 1.62,0.12 2.34,0.36 0.73,0.24 1.37,0.6 1.91,1.08 0.54,0.49 0.97,1.09 1.28,1.81 0.3,0.72 0.46,1.57 0.46,2.54zm-3.51 0.07c0,-0.96 -0.21,-1.74 -0.62,-2.34 -0.42,-0.59 -1.06,-0.89 -1.91,-0.89 -0.84,0 -1.46,0.3 -1.87,0.88 -0.41,0.59 -0.61,1.35 -0.61,2.28 0,0.96 0.21,1.74 0.63,2.34 0.43,0.61 1.07,0.91 1.92,0.91 0.84,0 1.46,-0.3 1.86,-0.9 0.4,-0.59 0.6,-1.35 0.6,-2.28zm17.38 -0.07c0,0.89 -0.16,1.7 -0.48,2.43 -0.32,0.73 -0.75,1.35 -1.3,1.86 -0.55,0.5 -1.19,0.9 -1.92,1.17 -0.72,0.28 -1.51,0.42 -2.34,0.42 -0.84,0 -1.62,-0.12 -2.34,-0.37 -0.72,-0.25 -1.35,-0.61 -1.89,-1.1 -0.54,-0.48 -0.97,-1.08 -1.28,-1.81 -0.31,-0.72 -0.46,-1.56 -0.46,-2.53 0,-0.91 0.16,-1.72 0.47,-2.45 0.32,-0.72 0.76,-1.33 1.3,-1.84 0.56,-0.51 1.19,-0.9 1.92,-1.17 0.73,-0.26 1.5,-0.4 2.32,-0.4 0.84,0 1.62,0.12 2.35,0.36 0.73,0.24 1.36,0.6 1.9,1.08 0.55,0.49 0.97,1.09 1.28,1.81 0.31,0.72 0.47,1.57 0.47,2.54zm-3.51 0.07c0,-0.96 -0.21,-1.74 -0.63,-2.34 -0.42,-0.59 -1.05,-0.89 -1.9,-0.89 -0.84,0 -1.46,0.3 -1.87,0.88 -0.41,0.59 -0.62,1.35 -0.62,2.28 0,0.96 0.22,1.74 0.64,2.34 0.43,0.61 1.07,0.91 1.92,0.91 0.83,0 1.45,-0.3 1.86,-0.9 0.4,-0.59 0.6,-1.35 0.6,-2.28zm5.78 5.49l0 -11.05 3.56 0 0 8.19 4.97 0 0 2.86 -8.53 0z"/>
  <path class="fil1" d="M75.98 137.37c0,0.54 -0.09,1.03 -0.28,1.47 -0.19,0.44 -0.45,0.81 -0.78,1.12 -0.34,0.31 -0.72,0.54 -1.16,0.71 -0.43,0.17 -0.9,0.25 -1.4,0.25 -0.51,0 -0.97,-0.07 -1.41,-0.22 -0.43,-0.15 -0.81,-0.37 -1.13,-0.66 -0.33,-0.3 -0.58,-0.66 -0.77,-1.1 -0.19,-0.43 -0.28,-0.95 -0.28,-1.53 0,-0.55 0.1,-1.04 0.29,-1.48 0.19,-0.44 0.45,-0.81 0.78,-1.12 0.33,-0.3 0.71,-0.54 1.15,-0.7 0.44,-0.16 0.9,-0.24 1.39,-0.24 0.51,0 0.97,0.07 1.41,0.21 0.44,0.15 0.82,0.36 1.15,0.66 0.32,0.29 0.58,0.65 0.76,1.09 0.19,0.44 0.28,0.95 0.28,1.54zm-2.1 0.04c0,-0.58 -0.13,-1.05 -0.38,-1.41 -0.25,-0.36 -0.63,-0.54 -1.14,-0.54 -0.51,0 -0.88,0.17 -1.13,0.53 -0.24,0.36 -0.37,0.81 -0.37,1.38 0,0.58 0.13,1.05 0.39,1.41 0.25,0.37 0.64,0.55 1.15,0.55 0.5,0 0.87,-0.18 1.11,-0.54 0.25,-0.36 0.37,-0.82 0.37,-1.38zm3.47 -3.36l5.12 0 0 1.56 -3.13 0 0 1.17 2.57 0 0 1.48 -2.48 0 0 2.47 -2.08 0 0 -6.68zm16.97 6.68l-2.2 0 -0.64 -1.86 -3.24 0 -0.62 1.86 -2.21 0 3.1 -8.72 2.77 0 3.04 8.72zm-4.44 -7l-1.16 3.41 2.27 0 -1.11 -3.41zm7.37 7l-2.09 0 0 -6.68 3.18 0c0.94,0 1.65,0.19 2.14,0.59 0.48,0.39 0.72,0.93 0.72,1.6 0,0.42 -0.1,0.79 -0.31,1.13 -0.21,0.33 -0.53,0.59 -0.97,0.76l1.55 2.6 -2.25 0 -1.17 -2.18 -0.8 0.04 0 2.14zm0.72 -3.42c0.35,-0.01 0.62,-0.09 0.82,-0.25 0.19,-0.16 0.29,-0.39 0.29,-0.7 0,-0.28 -0.09,-0.49 -0.27,-0.65 -0.18,-0.15 -0.47,-0.23 -0.87,-0.23l-0.7 0 0 1.84 0.73 -0.01zm9.66 -1.23c-0.21,-0.13 -0.47,-0.23 -0.76,-0.32 -0.29,-0.08 -0.57,-0.12 -0.84,-0.12 -0.5,0 -0.9,0.15 -1.17,0.47 -0.28,0.31 -0.42,0.73 -0.42,1.25 0,0.54 0.13,0.97 0.39,1.29 0.27,0.32 0.67,0.47 1.2,0.47 0.31,0 0.61,-0.04 0.88,-0.11 0.28,-0.08 0.55,-0.2 0.82,-0.36l0.46 1.83c-0.12,0.06 -0.27,0.12 -0.45,0.17 -0.17,0.05 -0.36,0.1 -0.57,0.14 -0.2,0.04 -0.41,0.08 -0.63,0.1 -0.21,0.02 -0.42,0.03 -0.61,0.03 -1.12,0 -2,-0.29 -2.66,-0.88 -0.65,-0.59 -0.98,-1.47 -0.98,-2.63 0,-0.54 0.08,-1.03 0.25,-1.47 0.17,-0.43 0.41,-0.8 0.73,-1.11 0.31,-0.31 0.7,-0.55 1.17,-0.71 0.46,-0.17 0.99,-0.25 1.57,-0.25 0.43,0 0.83,0.04 1.21,0.13 0.38,0.08 0.73,0.19 1.05,0.32l-0.64 1.76zm6.26 4.65l0 -2.58 -2.27 0 0 2.58 -2.13 0 0 -6.68 2.13 0 0 2.51 2.27 0 0 -2.51 2.14 0 0 6.68 -2.14 0zm3.76 0l0 -6.68 2.13 0 0 6.68 -2.13 0zm7.53 -4.95l0 4.95 -2.15 0 0 -4.95 -2.09 0 0 -1.73 6.36 0 0 1.73 -2.12 0zm3.26 4.95l0 -6.68 5.22 0 0 1.56 -3.24 0 0 1.05 2.7 0 0 1.45 -2.7 0 0 1.06 3.24 0 0 1.56 -5.22 0zm11.66 -4.65c-0.21,-0.13 -0.46,-0.23 -0.76,-0.32 -0.29,-0.08 -0.57,-0.12 -0.84,-0.12 -0.5,0 -0.89,0.15 -1.17,0.47 -0.28,0.31 -0.42,0.73 -0.42,1.25 0,0.54 0.13,0.97 0.4,1.29 0.26,0.32 0.66,0.47 1.19,0.47 0.32,0 0.61,-0.04 0.89,-0.11 0.27,-0.08 0.54,-0.2 0.81,-0.36l0.46 1.83c-0.12,0.06 -0.27,0.12 -0.44,0.17 -0.18,0.05 -0.37,0.1 -0.58,0.14 -0.2,0.04 -0.41,0.08 -0.62,0.1 -0.22,0.02 -0.42,0.03 -0.62,0.03 -1.11,0 -2,-0.29 -2.65,-0.88 -0.66,-0.59 -0.99,-1.47 -0.99,-2.63 0,-0.54 0.09,-1.03 0.25,-1.47 0.17,-0.43 0.41,-0.8 0.73,-1.11 0.31,-0.31 0.7,-0.55 1.17,-0.71 0.46,-0.17 0.99,-0.25 1.58,-0.25 0.42,0 0.83,0.04 1.2,0.13 0.38,0.08 0.73,0.19 1.06,0.32l-0.65 1.76zm5.54 -0.3l0 4.95 -2.15 0 0 -4.95 -2.09 0 0 -1.73 6.36 0 0 1.73 -2.12 0zm9.47 2.14c0,0.53 -0.08,0.97 -0.23,1.35 -0.16,0.38 -0.38,0.69 -0.67,0.94 -0.28,0.24 -0.62,0.42 -1,0.54 -0.39,0.12 -0.81,0.17 -1.26,0.17 -0.45,0 -0.86,-0.05 -1.24,-0.15 -0.39,-0.1 -0.72,-0.27 -1.01,-0.49 -0.29,-0.23 -0.51,-0.53 -0.68,-0.88 -0.16,-0.36 -0.24,-0.8 -0.24,-1.31l0 -4.04 2.13 0 0 3.81c0,0.86 0.36,1.29 1.06,1.29 0.35,0 0.6,-0.09 0.77,-0.28 0.17,-0.18 0.25,-0.51 0.25,-0.97l0 -3.85 2.12 0 0 3.87zm3.59 2.81l-2.09 0 0 -6.68 3.18 0c0.93,0 1.65,0.19 2.13,0.59 0.48,0.39 0.73,0.93 0.73,1.6 0,0.42 -0.11,0.79 -0.32,1.13 -0.21,0.33 -0.53,0.59 -0.97,0.76l1.55 2.6 -2.25 0 -1.17 -2.18 -0.79 0.04 0 2.14zm0.71 -3.42c0.35,-0.01 0.63,-0.09 0.82,-0.25 0.2,-0.16 0.3,-0.39 0.3,-0.7 0,-0.28 -0.1,-0.49 -0.28,-0.65 -0.18,-0.15 -0.47,-0.23 -0.87,-0.23l-0.7 0 0 1.84 0.73 -0.01zm4.67 3.42l0 -6.68 5.22 0 0 1.56 -3.24 0 0 1.05 2.69 0 0 1.45 -2.69 0 0 1.06 3.24 0 0 1.56 -5.22 0zm12.25 -5.36c0.22,-0.15 0.41,-0.31 0.56,-0.49 0.16,-0.18 0.23,-0.41 0.23,-0.69 0,-0.3 -0.09,-0.53 -0.28,-0.7 -0.18,-0.17 -0.42,-0.25 -0.71,-0.25 -0.28,0 -0.5,0.09 -0.67,0.27 -0.18,0.18 -0.26,0.39 -0.26,0.63 0,0.3 0.1,0.54 0.31,0.73 0.21,0.19 0.48,0.35 0.82,0.5zm1.23 2.89c-0.33,-0.35 -0.66,-0.66 -1,-0.91 -0.34,-0.25 -0.66,-0.44 -0.97,-0.56 -0.29,0.17 -0.52,0.37 -0.7,0.6 -0.17,0.23 -0.26,0.47 -0.26,0.74 0,0.37 0.12,0.65 0.36,0.86 0.24,0.21 0.54,0.32 0.89,0.32 0.34,0 0.64,-0.1 0.92,-0.28 0.27,-0.19 0.52,-0.44 0.76,-0.77zm0.83 1.07c-0.43,0.54 -0.91,0.95 -1.41,1.21 -0.51,0.26 -1.02,0.4 -1.53,0.4 -0.41,0 -0.79,-0.06 -1.13,-0.18 -0.34,-0.11 -0.64,-0.28 -0.89,-0.48 -0.24,-0.21 -0.43,-0.47 -0.58,-0.76 -0.13,-0.29 -0.2,-0.61 -0.2,-0.97 0,-0.31 0.05,-0.59 0.16,-0.84 0.11,-0.26 0.26,-0.48 0.44,-0.68 0.18,-0.19 0.4,-0.36 0.64,-0.49 0.24,-0.14 0.49,-0.24 0.74,-0.3 -0.38,-0.21 -0.68,-0.48 -0.93,-0.82 -0.25,-0.34 -0.37,-0.73 -0.37,-1.18 0,-0.3 0.06,-0.59 0.19,-0.88 0.12,-0.28 0.31,-0.55 0.55,-0.78 0.24,-0.23 0.54,-0.42 0.89,-0.56 0.36,-0.14 0.76,-0.21 1.23,-0.21 0.41,0 0.78,0.06 1.12,0.16 0.34,0.1 0.63,0.24 0.87,0.43 0.25,0.19 0.44,0.41 0.58,0.67 0.14,0.26 0.2,0.55 0.2,0.87 0,0.24 -0.04,0.46 -0.13,0.67 -0.1,0.21 -0.22,0.4 -0.37,0.56 -0.16,0.16 -0.34,0.3 -0.54,0.42 -0.21,0.11 -0.42,0.21 -0.63,0.27 0.16,0.07 0.35,0.2 0.57,0.38 0.23,0.17 0.44,0.35 0.63,0.54l0.81 -1.49 2.27 0 -1.99 2.61 2.09 2.6 -2.19 0.4 -1.09 -1.57zm13.44 -4.29c0,1.02 -0.34,1.8 -1,2.34 -0.67,0.54 -1.63,0.81 -2.88,0.81l-0.85 0.01 0 2.53 -2.22 0 0 -8.72 3.22 0c0.61,0 1.15,0.07 1.61,0.22 0.46,0.15 0.85,0.36 1.17,0.62 0.31,0.27 0.55,0.59 0.71,0.96 0.16,0.37 0.24,0.78 0.24,1.23zm-2.22 0.06c0,-0.88 -0.56,-1.32 -1.68,-1.32l-0.89 0 0 2.71 0.89 -0.02c0.57,-0.01 1,-0.13 1.27,-0.36 0.27,-0.23 0.41,-0.57 0.41,-1.01zm3.46 5.63l0 -6.68 2.13 0 0 4.95 2.99 0 0 1.73 -5.12 0zm13.07 0l-2.08 0 -0.43 -1.24 -2.29 0 -0.38 1.24 -2.12 0 2.29 -6.68 2.76 0 2.25 6.68zm-3.66 -5.26l-0.81 2.61 1.62 0 -0.81 -2.61zm9.46 -1.42l1.94 0 0 6.75 -2.23 0 -2.47 -3.82 0 3.75 -1.94 0 0 -6.68 2.24 0 2.47 3.76 -0.01 -3.76zm8.24 0l1.94 0 0 6.75 -2.22 0 -2.48 -3.82 0 3.75 -1.94 0 0 -6.68 2.24 0 2.48 3.76 -0.02 -3.76zm3.55 6.68l0 -6.68 2.13 0 0 6.68 -2.13 0zm8.45 -6.68l1.94 0 0 6.75 -2.23 0 -2.47 -3.82 0 3.75 -1.94 0 0 -6.68 2.24 0 2.47 3.76 -0.01 -3.76zm5.34 3.3c0,0.62 0.14,1.1 0.41,1.45 0.28,0.36 0.72,0.53 1.33,0.53 0.22,0 0.42,-0.01 0.6,-0.05 0.19,-0.03 0.34,-0.07 0.45,-0.11l0 -0.88 -1.55 0 0 -1.43 3.24 0 0 3.42c-0.36,0.18 -0.78,0.33 -1.27,0.45 -0.49,0.13 -1,0.19 -1.53,0.19 -0.56,0 -1.07,-0.07 -1.53,-0.22 -0.46,-0.15 -0.86,-0.37 -1.18,-0.67 -0.33,-0.3 -0.58,-0.66 -0.75,-1.1 -0.18,-0.44 -0.27,-0.94 -0.27,-1.52 0,-0.56 0.09,-1.06 0.27,-1.49 0.18,-0.44 0.44,-0.81 0.77,-1.11 0.33,-0.31 0.73,-0.54 1.19,-0.7 0.46,-0.16 0.96,-0.24 1.51,-0.24 0.49,0 0.99,0.05 1.48,0.16 0.5,0.1 0.9,0.24 1.2,0.41l-0.62 1.62c-0.69,-0.34 -1.34,-0.51 -1.92,-0.51 -0.56,0 -1,0.15 -1.33,0.46 -0.33,0.3 -0.5,0.75 -0.5,1.34z"/>
  <path class="fil1" d="M72.64 154.73l-1.83 0 -1.86 -6.94 1.89 0 0.93 4.91 1.25 -4.91 2.02 0 1.26 4.91 0.93 -4.91 1.81 0 -1.85 6.94 -1.84 0 -1.35 -4.94 -1.36 4.94zm10.63 0l0 -3.06c0,-0.31 -0.06,-0.52 -0.19,-0.64 -0.13,-0.12 -0.3,-0.18 -0.51,-0.18 -0.2,0 -0.38,0.04 -0.54,0.12 -0.16,0.08 -0.29,0.17 -0.4,0.27l0 3.49 -1.72 0 0 -7.34 1.72 -0.21 -0.01 3.1c0.22,-0.26 0.49,-0.47 0.78,-0.64 0.29,-0.16 0.61,-0.24 0.95,-0.24 0.51,0 0.91,0.16 1.21,0.47 0.28,0.32 0.43,0.75 0.43,1.3l0 3.56 -1.72 0zm4.77 -6.81c0,0.3 -0.09,0.52 -0.26,0.68 -0.18,0.16 -0.43,0.23 -0.75,0.23 -0.31,0 -0.55,-0.07 -0.73,-0.23 -0.19,-0.16 -0.28,-0.38 -0.28,-0.68 0,-0.3 0.09,-0.53 0.28,-0.68 0.18,-0.16 0.42,-0.24 0.73,-0.24 0.32,0 0.57,0.08 0.75,0.24 0.17,0.15 0.26,0.38 0.26,0.68zm-1.86 6.81l0 -5.08 1.72 -0.21 0 5.29 -1.72 0zm6.26 -0.03c-0.2,0.06 -0.4,0.11 -0.58,0.14 -0.19,0.04 -0.42,0.05 -0.68,0.05 -0.63,0 -1.11,-0.14 -1.44,-0.43 -0.33,-0.29 -0.48,-0.77 -0.45,-1.44l0.07 -1.97 -0.77 -0.13 0.03 -1.09 0.78 -0.25 0.02 -1.18 1.65 0 -0.01 1.23 1.29 0 -0.03 1.34 -1.38 0 -0.06 1.86c-0.01,0.24 0.05,0.41 0.17,0.52 0.13,0.1 0.3,0.16 0.51,0.16 0.11,0 0.21,-0.02 0.33,-0.04 0.11,-0.03 0.23,-0.06 0.35,-0.1l0.2 1.33zm2.2 -2.15c0.03,0.35 0.16,0.62 0.38,0.81 0.23,0.18 0.56,0.28 0.98,0.28 0.28,0 0.57,-0.05 0.86,-0.14 0.29,-0.09 0.57,-0.21 0.83,-0.36l0.16 1.32c-0.25,0.13 -0.56,0.24 -0.91,0.31 -0.35,0.08 -0.72,0.11 -1.09,0.11 -0.44,0 -0.84,-0.06 -1.19,-0.18 -0.36,-0.11 -0.66,-0.29 -0.91,-0.52 -0.25,-0.23 -0.45,-0.51 -0.58,-0.85 -0.14,-0.33 -0.21,-0.72 -0.21,-1.14 0,-0.43 0.07,-0.81 0.21,-1.15 0.13,-0.35 0.33,-0.64 0.57,-0.88 0.25,-0.24 0.55,-0.43 0.89,-0.56 0.34,-0.13 0.72,-0.2 1.13,-0.2 0.73,0 1.29,0.2 1.68,0.6 0.39,0.4 0.58,0.92 0.58,1.56 0,0.14 -0.01,0.3 -0.03,0.48 -0.01,0.18 -0.04,0.32 -0.08,0.43l-3.27 0.06 0 0.02zm1.79 -0.89l0 -0.1c0,-0.31 -0.06,-0.55 -0.19,-0.72 -0.13,-0.18 -0.33,-0.26 -0.59,-0.26 -0.3,0 -0.53,0.1 -0.7,0.32 -0.17,0.22 -0.27,0.48 -0.3,0.77l1.78 -0.01zm6.27 -4.4c0,0 -0.01,0.07 -0.05,0.22 -0.03,0.15 -0.07,0.31 -0.11,0.49 -0.04,0.17 -0.07,0.34 -0.11,0.48 -0.03,0.14 -0.05,0.22 -0.05,0.22 -0.13,-0.05 -0.27,-0.1 -0.4,-0.14 -0.14,-0.04 -0.29,-0.06 -0.46,-0.06 -0.22,0 -0.38,0.06 -0.47,0.19 -0.09,0.12 -0.13,0.31 -0.13,0.56l0 0.41 1.44 0 -0.03 1.34 -1.33 0 0 3.76 -1.72 0 0 -3.74 -0.89 -0.07 0.04 -1.09 0.83 -0.24 0.02 -0.45c0.02,-0.75 0.2,-1.3 0.54,-1.63 0.34,-0.34 0.83,-0.51 1.49,-0.51 0.31,0 0.59,0.03 0.83,0.09 0.24,0.05 0.42,0.11 0.56,0.17zm2.27 0.66c0,0.3 -0.09,0.52 -0.27,0.68 -0.18,0.16 -0.42,0.23 -0.74,0.23 -0.31,0 -0.56,-0.07 -0.74,-0.23 -0.18,-0.16 -0.27,-0.38 -0.27,-0.68 0,-0.3 0.09,-0.53 0.27,-0.68 0.18,-0.16 0.43,-0.24 0.74,-0.24 0.32,0 0.56,0.08 0.74,0.24 0.18,0.15 0.27,0.38 0.27,0.68zm-1.87 6.81l0 -5.08 1.72 -0.21 0 5.29 -1.72 0zm4.33 -2.18c0.03,0.35 0.16,0.62 0.39,0.81 0.23,0.18 0.56,0.28 0.98,0.28 0.28,0 0.57,-0.05 0.86,-0.14 0.29,-0.09 0.57,-0.21 0.83,-0.36l0.16 1.32c-0.26,0.13 -0.56,0.24 -0.91,0.31 -0.36,0.08 -0.72,0.11 -1.1,0.11 -0.43,0 -0.83,-0.06 -1.19,-0.18 -0.35,-0.11 -0.65,-0.29 -0.9,-0.52 -0.26,-0.23 -0.45,-0.51 -0.59,-0.85 -0.14,-0.33 -0.2,-0.72 -0.2,-1.14 0,-0.43 0.06,-0.81 0.2,-1.15 0.14,-0.35 0.33,-0.64 0.58,-0.88 0.25,-0.24 0.54,-0.43 0.89,-0.56 0.34,-0.13 0.72,-0.2 1.12,-0.2 0.74,0 1.3,0.2 1.68,0.6 0.39,0.4 0.59,0.92 0.59,1.56 0,0.14 -0.01,0.3 -0.03,0.48 -0.02,0.18 -0.05,0.32 -0.08,0.43l-3.28 0.06 0 0.02zm1.8 -0.89l0 -0.1c0,-0.31 -0.06,-0.55 -0.19,-0.72 -0.13,-0.18 -0.33,-0.26 -0.6,-0.26 -0.29,0 -0.53,0.1 -0.7,0.32 -0.17,0.22 -0.27,0.48 -0.3,0.77l1.79 -0.01zm2.55 3.07l0 -7.34 1.72 -0.21 0 7.55 -1.72 0zm6.31 -7.34l1.72 -0.21 0 7.55 -1.72 0 0.01 -0.54c-0.16,0.17 -0.36,0.33 -0.6,0.48 -0.24,0.14 -0.52,0.21 -0.84,0.21 -0.32,0 -0.62,-0.06 -0.89,-0.19 -0.27,-0.12 -0.5,-0.3 -0.7,-0.54 -0.19,-0.23 -0.35,-0.51 -0.46,-0.84 -0.11,-0.33 -0.16,-0.7 -0.16,-1.1 0,-0.43 0.07,-0.82 0.21,-1.16 0.14,-0.35 0.33,-0.64 0.56,-0.89 0.24,-0.24 0.51,-0.43 0.82,-0.56 0.31,-0.13 0.64,-0.19 0.99,-0.19 0.36,0 0.72,0.06 1.06,0.18l0 -2.2zm0 3.51c-0.1,-0.07 -0.21,-0.12 -0.34,-0.16 -0.13,-0.04 -0.28,-0.06 -0.44,-0.06 -0.36,0 -0.64,0.13 -0.84,0.4 -0.2,0.26 -0.3,0.61 -0.3,1.04 0,0.44 0.1,0.79 0.29,1.03 0.2,0.24 0.46,0.37 0.77,0.37 0.19,0 0.35,-0.03 0.49,-0.1 0.13,-0.06 0.26,-0.15 0.37,-0.26l0 -2.26zm2.61 2.95c0.03,-0.3 0.16,-0.55 0.38,-0.73 0.22,-0.19 0.49,-0.28 0.8,-0.28 0.2,0 0.37,0.04 0.54,0.12 0.16,0.07 0.3,0.18 0.42,0.31 0.12,0.13 0.21,0.28 0.27,0.45 0.07,0.17 0.11,0.35 0.11,0.54 0,0.25 -0.06,0.49 -0.16,0.7 -0.1,0.22 -0.24,0.43 -0.42,0.62 -0.17,0.18 -0.37,0.36 -0.6,0.51 -0.22,0.16 -0.46,0.3 -0.7,0.43l-0.75 -0.66c0.31,-0.22 0.57,-0.42 0.78,-0.61 0.22,-0.19 0.32,-0.38 0.32,-0.57 0,-0.15 -0.07,-0.28 -0.21,-0.41 -0.14,-0.12 -0.4,-0.26 -0.78,-0.42zm9.81 -2.75c0.44,0.08 0.8,0.26 1.08,0.54 0.28,0.28 0.42,0.64 0.42,1.07 0,0.27 -0.05,0.53 -0.13,0.78 -0.09,0.25 -0.24,0.46 -0.45,0.64 -0.21,0.18 -0.49,0.33 -0.86,0.44 -0.36,0.1 -0.82,0.16 -1.37,0.16l-3.03 0 0 -6.94 3.01 0c0.51,0 0.94,0.05 1.28,0.14 0.33,0.09 0.6,0.22 0.8,0.38 0.2,0.16 0.34,0.35 0.42,0.57 0.07,0.22 0.11,0.46 0.11,0.72 0,0.4 -0.11,0.72 -0.34,0.97 -0.23,0.24 -0.54,0.42 -0.94,0.53zm-0.48 -1.22c0,-0.52 -0.34,-0.78 -1.02,-0.78l-1.12 0 0 1.61 1.03 0c0.37,0 0.65,-0.07 0.83,-0.22 0.19,-0.14 0.28,-0.35 0.28,-0.61zm0.2 2.73c0,-0.3 -0.11,-0.5 -0.33,-0.62 -0.21,-0.12 -0.51,-0.18 -0.89,-0.18l-1.12 0 0 1.61 1.18 0c0.4,0 0.69,-0.07 0.88,-0.2 0.19,-0.13 0.28,-0.33 0.28,-0.61zm5.48 -0.18c-0.53,0.06 -0.9,0.15 -1.12,0.26 -0.21,0.11 -0.32,0.29 -0.32,0.52 0,0.17 0.06,0.3 0.18,0.4 0.11,0.1 0.27,0.15 0.46,0.15 0.17,0 0.33,-0.03 0.46,-0.09 0.14,-0.07 0.25,-0.15 0.34,-0.25l0 -0.99zm0.01 1.67c-0.18,0.22 -0.39,0.4 -0.61,0.56 -0.23,0.16 -0.52,0.23 -0.87,0.23 -0.23,0 -0.43,-0.03 -0.63,-0.11 -0.19,-0.07 -0.35,-0.17 -0.5,-0.3 -0.14,-0.13 -0.25,-0.28 -0.33,-0.46 -0.08,-0.17 -0.12,-0.36 -0.12,-0.56 0,-0.24 0.05,-0.47 0.15,-0.69 0.1,-0.21 0.27,-0.4 0.5,-0.56 0.24,-0.17 0.56,-0.3 0.95,-0.4 0.39,-0.11 0.88,-0.17 1.45,-0.18l0 -0.1c0,-0.27 -0.07,-0.47 -0.21,-0.6 -0.15,-0.13 -0.38,-0.19 -0.7,-0.19 -0.26,0 -0.55,0.05 -0.85,0.15 -0.3,0.1 -0.6,0.23 -0.9,0.37l-0.36 -1.25c0.28,-0.15 0.62,-0.29 1.03,-0.42 0.41,-0.13 0.86,-0.19 1.35,-0.19 0.44,0 0.82,0.05 1.12,0.15 0.3,0.1 0.55,0.24 0.73,0.44 0.19,0.19 0.32,0.43 0.4,0.7 0.07,0.28 0.11,0.6 0.1,0.96l-0.01 1.53c0,0.18 0.03,0.29 0.08,0.34 0.05,0.04 0.16,0.07 0.34,0.09l-0.16 1.22c-0.57,0.07 -1,0.04 -1.29,-0.1 -0.3,-0.14 -0.51,-0.34 -0.62,-0.63l-0.04 0zm6.25 0.63l0 -3.06c0,-0.31 -0.06,-0.52 -0.19,-0.64 -0.13,-0.12 -0.3,-0.18 -0.53,-0.18 -0.19,0 -0.36,0.04 -0.52,0.12 -0.16,0.08 -0.29,0.17 -0.4,0.27l0 3.49 -1.72 0 0 -5.08 1.72 -0.21 -0.01 0.85c0.23,-0.26 0.49,-0.47 0.78,-0.64 0.29,-0.17 0.61,-0.25 0.94,-0.25 0.52,0 0.92,0.16 1.22,0.47 0.29,0.32 0.43,0.75 0.43,1.3l0 3.56 -1.72 0zm4.26 -3.32c0,0.27 0.07,0.49 0.2,0.66 0.14,0.17 0.34,0.25 0.61,0.25 0.26,0 0.45,-0.09 0.57,-0.26 0.13,-0.18 0.19,-0.41 0.19,-0.7 0,-0.27 -0.07,-0.49 -0.2,-0.66 -0.13,-0.16 -0.32,-0.25 -0.59,-0.25 -0.24,0 -0.43,0.09 -0.57,0.26 -0.14,0.18 -0.21,0.41 -0.21,0.7zm-0.07 3.85c-0.12,0.06 -0.22,0.13 -0.3,0.23 -0.08,0.09 -0.12,0.2 -0.12,0.34 0,0.2 0.12,0.36 0.35,0.48 0.24,0.13 0.55,0.19 0.95,0.19 0.21,0 0.4,-0.01 0.58,-0.04 0.18,-0.03 0.33,-0.08 0.47,-0.14 0.13,-0.06 0.23,-0.14 0.31,-0.22 0.07,-0.09 0.11,-0.19 0.11,-0.3 0,-0.2 -0.11,-0.34 -0.33,-0.41 -0.22,-0.06 -0.55,-0.1 -1,-0.1 -0.17,0 -0.35,0 -0.56,-0.01 -0.21,-0.01 -0.37,-0.01 -0.46,-0.02zm-0.68 -0.19c-0.23,-0.07 -0.44,-0.18 -0.62,-0.34 -0.19,-0.16 -0.28,-0.35 -0.28,-0.59 0,-0.25 0.1,-0.48 0.3,-0.69 0.2,-0.21 0.45,-0.37 0.77,-0.46 -0.32,-0.14 -0.57,-0.35 -0.76,-0.63 -0.19,-0.27 -0.29,-0.59 -0.29,-0.96 0,-0.28 0.06,-0.55 0.17,-0.79 0.11,-0.25 0.27,-0.46 0.48,-0.63 0.21,-0.18 0.47,-0.32 0.77,-0.43 0.31,-0.1 0.65,-0.15 1.03,-0.15 0.32,0 0.61,0.04 0.88,0.12 0.28,0.07 0.51,0.16 0.7,0.25l1.45 -0.13 0.08 1.39 -1 -0.15c0.05,0.05 0.08,0.13 0.11,0.25 0.02,0.12 0.04,0.22 0.04,0.31 0,0.26 -0.06,0.5 -0.17,0.73 -0.11,0.23 -0.27,0.43 -0.46,0.6 -0.2,0.16 -0.44,0.3 -0.72,0.39 -0.28,0.1 -0.58,0.15 -0.92,0.15 -0.12,0 -0.23,-0.01 -0.33,-0.03 -0.11,-0.01 -0.23,-0.03 -0.35,-0.05 -0.08,0.04 -0.15,0.08 -0.21,0.15 -0.06,0.06 -0.09,0.14 -0.09,0.23 0,0.11 0.07,0.2 0.21,0.25 0.15,0.04 0.39,0.07 0.73,0.07l0.61 0c0.35,0 0.68,0.02 0.97,0.07 0.29,0.05 0.54,0.13 0.76,0.24 0.21,0.12 0.37,0.27 0.48,0.45 0.12,0.19 0.18,0.42 0.18,0.69 0,0.33 -0.09,0.62 -0.27,0.88 -0.18,0.26 -0.42,0.48 -0.72,0.66 -0.3,0.19 -0.64,0.33 -1.03,0.43 -0.39,0.1 -0.79,0.15 -1.21,0.15 -0.35,0 -0.68,-0.03 -0.99,-0.08 -0.3,-0.06 -0.57,-0.14 -0.8,-0.25 -0.22,-0.11 -0.4,-0.25 -0.53,-0.42 -0.14,-0.16 -0.2,-0.36 -0.2,-0.59 0,-0.26 0.1,-0.49 0.3,-0.7 0.21,-0.21 0.51,-0.34 0.93,-0.39zm8.03 -2.64c-0.53,0.06 -0.9,0.15 -1.12,0.26 -0.21,0.11 -0.32,0.29 -0.32,0.52 0,0.17 0.06,0.3 0.18,0.4 0.12,0.1 0.27,0.15 0.46,0.15 0.17,0 0.33,-0.03 0.47,-0.09 0.13,-0.07 0.25,-0.15 0.33,-0.25l0 -0.99zm0.01 1.67c-0.18,0.22 -0.38,0.4 -0.61,0.56 -0.23,0.16 -0.52,0.23 -0.87,0.23 -0.22,0 -0.43,-0.03 -0.62,-0.11 -0.2,-0.07 -0.36,-0.17 -0.5,-0.3 -0.14,-0.13 -0.25,-0.28 -0.34,-0.46 -0.08,-0.17 -0.12,-0.36 -0.12,-0.56 0,-0.24 0.05,-0.47 0.15,-0.69 0.1,-0.21 0.27,-0.4 0.51,-0.56 0.23,-0.17 0.55,-0.3 0.94,-0.4 0.39,-0.11 0.88,-0.17 1.45,-0.18l0 -0.1c0,-0.27 -0.07,-0.47 -0.21,-0.6 -0.15,-0.13 -0.38,-0.19 -0.7,-0.19 -0.26,0 -0.55,0.05 -0.85,0.15 -0.29,0.1 -0.6,0.23 -0.9,0.37l-0.35 -1.25c0.27,-0.15 0.61,-0.29 1.02,-0.42 0.41,-0.13 0.86,-0.19 1.35,-0.19 0.44,0 0.82,0.05 1.12,0.15 0.3,0.1 0.55,0.24 0.73,0.44 0.19,0.19 0.32,0.43 0.4,0.7 0.07,0.28 0.11,0.6 0.1,0.96l-0.01 1.53c0,0.18 0.03,0.29 0.08,0.34 0.05,0.04 0.17,0.07 0.34,0.09l-0.16 1.22c-0.56,0.07 -0.99,0.04 -1.29,-0.1 -0.3,-0.14 -0.5,-0.34 -0.62,-0.63l-0.04 0zm2.89 0.63l0 -7.34 1.72 -0.21 0 7.55 -1.72 0zm8.19 -2.6c0,0.43 -0.07,0.81 -0.22,1.16 -0.15,0.34 -0.35,0.63 -0.6,0.87 -0.25,0.24 -0.55,0.42 -0.89,0.54 -0.34,0.13 -0.7,0.19 -1.09,0.19 -0.38,0 -0.74,-0.06 -1.08,-0.17 -0.33,-0.12 -0.62,-0.3 -0.87,-0.53 -0.24,-0.24 -0.43,-0.52 -0.58,-0.86 -0.14,-0.34 -0.21,-0.73 -0.21,-1.17 0,-0.43 0.08,-0.82 0.22,-1.17 0.14,-0.34 0.34,-0.63 0.6,-0.87 0.25,-0.24 0.55,-0.42 0.89,-0.54 0.34,-0.12 0.71,-0.18 1.1,-0.18 0.39,0 0.76,0.06 1.09,0.18 0.33,0.12 0.62,0.3 0.86,0.54 0.25,0.23 0.44,0.51 0.58,0.85 0.13,0.34 0.2,0.72 0.2,1.16zm-1.7 0.02c0,-0.44 -0.09,-0.79 -0.27,-1.05 -0.18,-0.26 -0.45,-0.39 -0.8,-0.39 -0.36,0 -0.62,0.13 -0.8,0.39 -0.18,0.26 -0.27,0.62 -0.27,1.06 0,0.44 0.09,0.79 0.27,1.04 0.19,0.26 0.45,0.38 0.81,0.38 0.35,0 0.62,-0.13 0.8,-0.38 0.17,-0.26 0.26,-0.61 0.26,-1.05zm4.36 2.58l-1.71 0 0 -5.08 1.71 -0.21 0 0.76c0.31,-0.53 0.72,-0.8 1.25,-0.8 0.29,0 0.58,0.07 0.85,0.21l-0.34 1.51c-0.21,-0.1 -0.42,-0.16 -0.65,-0.16 -0.21,0 -0.41,0.06 -0.59,0.18 -0.19,0.11 -0.36,0.3 -0.52,0.58l0 3.01zm4.02 -2.18c0.03,0.35 0.16,0.62 0.39,0.81 0.23,0.18 0.56,0.28 0.98,0.28 0.28,0 0.57,-0.05 0.86,-0.14 0.29,-0.09 0.57,-0.21 0.82,-0.36l0.17 1.32c-0.26,0.13 -0.56,0.24 -0.91,0.31 -0.36,0.08 -0.72,0.11 -1.1,0.11 -0.43,0 -0.83,-0.06 -1.18,-0.18 -0.36,-0.11 -0.66,-0.29 -0.92,-0.52 -0.25,-0.23 -0.44,-0.51 -0.58,-0.85 -0.13,-0.33 -0.2,-0.72 -0.2,-1.14 0,-0.43 0.07,-0.81 0.2,-1.15 0.14,-0.35 0.33,-0.64 0.58,-0.88 0.25,-0.24 0.54,-0.43 0.89,-0.56 0.34,-0.13 0.72,-0.2 1.12,-0.2 0.74,0 1.3,0.2 1.69,0.6 0.38,0.4 0.58,0.92 0.58,1.56 0,0.14 -0.01,0.3 -0.03,0.48 -0.02,0.18 -0.05,0.32 -0.08,0.43l-3.28 0.06 0 0.02zm1.8 -0.89l0 -0.1c0,-0.31 -0.06,-0.55 -0.19,-0.72 -0.13,-0.18 -0.33,-0.26 -0.6,-0.26 -0.29,0 -0.53,0.1 -0.7,0.32 -0.17,0.22 -0.27,0.48 -0.3,0.77l1.79 -0.01z"/>
  <polygon class="fil7" points="60.24,108.15 61.25,108.15 61.25,159.67 60.24,159.67 "/>
 </g>
</svg>
