<?xml version="1.0" encoding="UTF-8"?>
<!DOCTYPE svg PUBLIC "-//W3C//DTD SVG 1.1//EN" "http://www.w3.org/Graphics/SVG/1.1/DTD/svg11.dtd">
<!-- Creator: CorelDRAW 2019 (64-Bit) -->
<svg xmlns="http://www.w3.org/2000/svg" xml:space="preserve" width="250px" height="100px" version="1.1" style="shape-rendering:geometricPrecision; text-rendering:geometricPrecision; image-rendering:optimizeQuality; fill-rule:evenodd; clip-rule:evenodd"
viewBox="0 0 250 100"
 xmlns:xlink="http://www.w3.org/1999/xlink"
 xmlns:xodm="http://www.corel.com/coreldraw/odm/2003">
 <defs>
  <style type="text/css">
   <![CDATA[
    .fil0 {fill:#FEFEFE}
    .fil6 {fill:#373435}
    .fil2 {fill:#EA353B}
    .fil1 {fill:#F4A734}
    .fil4 {fill:#A87B42}
    .fil5 {fill:#7F9956}
    .fil3 {fill:#3E4290}
   ]]>
  </style>
 </defs>
 <g id="Layer_x0020_1">
  <metadata id="CorelCorpID_0Corel-Layer"/>
  <rect class="fil0" x="-0.06" y="-0.48" width="250" height="100"/>
  <path class="fil1" d="M34.75 52.62c-0.41,-3.16 2.23,-5.66 5.3,-5.96 3.47,-0.34 6.3,2.01 6.6,4.74 0.35,3.2 -2.19,5.65 -5.26,5.97 -3.51,0.36 -6.29,-1.97 -6.64,-4.75zm23.23 -3.05l0.39 0c-0.08,0.26 -0.24,0.49 -0.3,0.7 -0.12,0.44 0.26,0.37 0.12,0.71 -0.05,0.13 -0.3,0.49 -0.39,0.65 -0.14,0.24 -0.27,0.44 -0.4,0.66 -0.81,1.42 -1.58,2.32 -2.68,3.55 -0.16,0.18 -0.32,0.36 -0.48,0.54 -0.18,0.2 -0.36,0.36 -0.53,0.56l-1.03 1.09c-0.33,0.32 -0.67,0.75 -1.01,1.11 -0.41,0.43 -3.21,3.5 -3.58,3.76 -0.24,0.15 -0.45,0.23 -0.7,0.4 -0.68,0.46 -0.35,0.13 -0.73,0.32 -0.13,0.06 -0.18,0.12 -0.32,0.19l-1.14 0.47c-0.35,0.15 -1.5,1.27 -2.29,0.52 -0.36,-0.34 -0.58,-0.99 -0.3,-1.54 0.5,-0.96 1.1,-1.79 1.81,-2.35 0.12,-0.1 0.13,-0.12 0.26,-0.24l0.9 -0.69 1.58 -1.58c0.75,-0.68 2.53,-2.68 3.15,-3.16l1.61 -1.55c0.8,-0.78 0.6,-0.49 1.15,-0.98l1 -1.12c0.66,-0.76 1.29,-1.61 1.9,-2.27 0.65,-0.7 1.34,-1.34 2.06,-2.17 0.17,-0.19 0.86,-0.95 1.09,-1.04 0.28,0.26 0.26,0.54 0.13,0.91 -0.11,0.35 -0.37,0.76 -0.42,0.9 -0.19,0.55 0.32,0.2 -0.34,0.85 -0.2,0.19 -0.13,0.08 -0.3,0.34 -0.18,0.27 -0.25,0.1 -0.21,0.46zm0.75 -16.07c-0.32,-3.13 2.34,-5.62 5.44,-5.85 3.5,-0.26 6.26,2.12 6.5,4.91 0.26,3.12 -2.32,5.61 -5.48,5.83 -3.47,0.24 -6.17,-2.1 -6.46,-4.89zm-12.98 -6.68c0.26,-0.11 0.34,-0.06 0.72,0.3 0.18,0.18 0.34,0.4 0.56,0.61l2.33 2.31c0.51,0.39 0.82,0.43 1.32,1.01 0.22,0.25 0.4,0.27 0.64,0.51l1.51 1.41c0.15,0.18 0.12,0.16 0.29,0.29 0.42,0.34 0.6,0.89 1.1,1.22 0.39,0.26 0.96,1.09 1.41,1.49 0.14,0.12 0.23,0.14 0.36,0.25l1.4 1.5c0.54,0.55 0.88,0.81 1.46,1.45 0.22,0.23 0.33,0.33 0.57,0.62 0.16,0.2 0.37,0.32 0.6,0.58 0.49,0.54 0.72,0.68 1.16,1.16 0.7,0.76 0.45,0.46 1.19,1.13 0.75,0.68 2.04,1.56 0.7,2.78 -0.96,0.88 -2.53,-0.26 -3.4,-0.78l-1.47 -0.87c-0.86,-0.54 -1.04,-2.16 -2.49,-3.24 -0.54,-0.4 -0.76,-0.88 -1.29,-1.33 -0.09,-0.07 -0.07,-0.06 -0.15,-0.14 -0.14,-0.14 -0.21,-0.14 -0.33,-0.27l-1.14 -1.23c-0.2,-0.19 -0.41,-0.33 -0.6,-0.54 -0.18,-0.2 -0.35,-0.44 -0.56,-0.61 -0.36,-0.3 -0.84,-0.82 -1.11,-1.21 -0.08,-0.11 -0.13,-0.24 -0.2,-0.33l-0.83 -0.95c-0.21,-0.19 -0.42,-0.35 -0.62,-0.56 -0.11,-0.11 -0.19,-0.16 -0.32,-0.27l-1.93 -2.11c-0.05,-0.15 -0.08,-0.65 -0.39,-1.29 -0.09,-0.19 -0.07,-0.26 -0.14,-0.44 -0.15,-0.4 -0.31,-0.37 0,-0.83 0.18,-0.25 0.19,-0.61 -0.01,-0.84 -0.16,-0.17 -0.18,-0.02 -0.27,-0.32 -0.04,-0.12 -0.11,-0.33 -0.07,-0.46zm-19.09 22.99c0.18,0.23 0.47,0.3 0.81,0.72 0.11,0.14 0.2,0.25 0.34,0.4 0.18,0.18 0.26,0.2 0.44,0.35 0.17,0.14 0.19,0.23 0.37,0.38 0.41,0.34 0.8,0.74 1.12,1.19 0.2,0.28 0.52,0.47 0.81,0.73l1.51 1.54c0.48,0.55 1.11,1.16 1.47,1.59l0.75 0.77c0.19,0.15 0.26,0.16 0.42,0.33 0.17,0.18 0.19,0.21 0.34,0.44 0.14,0.2 1.43,1.23 1.59,1.47 0.48,0.72 1,1.03 1.49,1.57 0.35,0.39 1.38,1.23 1.51,1.55 0.17,0.39 0.08,0.83 -0.11,1.16 -0.21,0.36 -0.44,0.47 -0.91,0.63 -0.48,0.16 -0.89,-0.01 -1.28,-0.14 -0.33,-0.12 -0.8,-0.35 -1.05,-0.52 -0.92,-0.6 -2.08,-1.09 -2.7,-1.92 -0.19,-0.25 -0.12,-0.37 -0.48,-1.03 -0.18,-0.33 -0.49,-0.53 -0.73,-0.79l-1.04 -1.22c-0.15,-0.14 -0.28,-0.23 -0.42,-0.37l-1.12 -1.15c-0.15,-0.14 -0.27,-0.23 -0.42,-0.37 -0.28,-0.27 -1.35,-1.44 -1.51,-1.54 0,0.18 0.04,0.21 0.05,0.37 0.01,0.12 0.01,0.28 0,0.42 0,0.92 0.21,0.94 0.21,1.54l0 1.74c-0.01,0.27 -0.1,0.49 -0.1,0.79 -0.02,1.67 -0.02,1.77 0.23,3.31 0.2,1.23 -0.29,1.91 -0.28,3.21 0,1.14 -0.23,1.21 -0.26,1.54 0.36,0 0.39,-0.03 0.69,-0.07 0.24,-0.04 0.51,-0.02 0.77,-0.02 1.4,0 3.24,-0.11 4.56,0.16 1.48,0.3 2.11,0.09 2.92,0.23 0.17,0.02 0.36,0.13 0.59,0.17 0.75,0.1 2.17,0.17 2.8,-0.15 0.16,-0.08 0.34,-0.19 0.51,-0.24 0.69,-0.21 2.12,-0.18 2.76,0.04 0.61,0.2 2.26,0.24 2.94,0.11 0.58,-0.11 0.65,-0.18 1.4,-0.18 2.34,0.01 1.44,0.21 2.47,0.64 0.49,0.21 0.72,0.15 1.39,0.16 0.61,0 0.87,-0.11 1.18,-0.39 0.33,-0.3 0.44,-0.51 0.8,-0.69 0.62,-0.32 1.83,-0.22 2.63,0.11 1,0.41 1.7,0.08 2.78,0.36 0.06,0.02 0.2,0.05 0.28,0.08 0.79,0.27 1.63,0.34 2.47,0.19 1.27,-0.23 0.54,-0.68 2.41,-0.69l1.48 -0.13c0.52,-0.08 0.42,-0.16 1.33,-0.2 1.63,-0.08 1.76,0.46 2.26,0.83 0.52,0.39 2,0.39 2.57,0.04 0.72,-0.45 0.4,-0.87 2.21,-0.87 1.26,-0.01 1.32,0.78 2.29,0.8 0.99,0.01 2.44,0.27 2.66,-0.37 0.08,-0.23 0.04,-1.07 0.04,-1.42 0,-1.64 -0.47,-1.04 -0.47,-2.43 0.01,-1.19 -0.11,-1.51 -0.25,-2.63 -0.05,-0.45 -0.01,-0.9 -0.07,-1.34 -0.03,-0.25 -0.05,-0.34 -0.17,-0.56 -0.09,-0.16 -0.19,-0.37 -0.23,-0.54 -0.1,-0.37 -0.14,-1.42 0.1,-1.92 0.31,-0.62 1.19,-0.67 0.83,-2.76 -0.06,-0.36 -0.31,-0.63 -0.43,-1.01 -0.19,-0.56 -0.2,-1.3 -0.01,-1.92 0.09,-0.28 0.1,-0.28 0.23,-0.49 0.36,-0.58 0.24,-0.43 0.35,-1.15 0.1,-0.64 -0.04,-1.29 -0.27,-1.82 -0.27,-0.6 -0.23,-1.31 -0.23,-1.95 0,-0.53 -0.05,-0.9 -0.05,-1.41 0,-0.49 -0.1,-0.87 -0.02,-1.33 0.07,-0.46 -0.03,-0.96 0.03,-1.43 0.05,-0.4 0.03,-1.62 -0.07,-1.96 -0.18,-0.57 -0.52,-0.69 -0.52,-1.7 0.01,-0.47 -0.01,-0.99 0.16,-1.31 -0.13,0.03 -0.08,-0.01 -0.21,0.14 -0.62,0.73 -0.33,0.37 -0.86,0.91 -0.13,0.14 -0.22,0.27 -0.34,0.4 -0.24,0.27 -0.48,0.45 -0.72,0.71 -0.46,0.51 -0.87,1.06 -1.41,1.49 -0.4,0.32 -0.93,1.12 -1.38,1.53 -0.14,0.13 -0.28,0.19 -0.41,0.34 -0.15,0.17 -0.23,0.23 -0.37,0.36 -0.68,0.62 -1.82,1.37 -2.74,1.62 -0.87,0.24 -1.39,0.9 -1.98,0.98 -1.14,0.16 -1.44,-0.91 -1.34,-1.53 0.06,-0.37 0.4,-0.78 0.51,-0.96 0.23,-0.41 0.21,-0.56 0.55,-0.86l1.07 -1.05c0.32,-0.26 1.1,-0.69 1.29,-0.95 0.37,-0.55 0.84,-1.06 1.42,-1.49 0.31,-0.22 1.35,-1.39 1.44,-1.46 0.24,-0.17 0.57,-0.66 1.03,-1.09 0.17,-0.15 0.21,-0.22 0.36,-0.38 0.25,-0.29 0.85,-0.67 0.96,-0.82 0.09,-0.13 0.02,-0.13 0.14,-0.25 0.09,-0.09 0.28,-0.19 0.42,-0.33 0.11,-0.12 0.22,-0.25 0.33,-0.35l1.2 -1.03c0.23,-0.21 1.25,-1.31 1.34,-1.55l-0.04 -1.17c0,-1.26 -0.15,-1.24 0.35,-2.22 0.12,-0.23 0.23,-0.74 0.23,-1.06 0,-1.88 -0.36,-1.4 -0.52,-2.68 -0.02,-0.18 -0.01,-0.47 -0.01,-0.65 0.01,-0.41 0.16,-0.7 0.16,-1.13 -0.49,0 -2,0.21 -2.67,-0.03 -1.18,-0.44 -0.56,-0.48 -2.44,-0.48 -0.93,-0.01 -1.17,0.28 -2.6,0.28 -0.52,0 -0.91,-0.01 -1.33,-0.11 -0.42,-0.1 -0.61,-0.31 -1.12,-0.35 -0.31,-0.03 -1.14,-0.03 -1.45,-0.01 -0.57,0.04 -0.89,0.46 -1.29,0.81 -0.39,0.34 -1.28,0.36 -1.89,0.31 -0.62,-0.04 -0.88,-0.33 -1.24,-0.52 -0.68,-0.34 -1.36,-0.23 -2.31,-0.23 -0.52,0 -0.84,0.15 -1.35,0.15 -1.14,0 -1.69,0.04 -2.79,-0.11 -0.97,-0.13 -1.86,0.12 -2.7,-0.24 -0.38,-0.17 -0.55,-0.34 -1.07,-0.36 -1.5,-0.06 -1.5,-0.07 -2.5,0.38 -0.16,0.07 -0.33,0.16 -0.53,0.18 -0.68,0.07 -1.73,0.04 -2.12,0.11 -1.63,0.25 -5.48,-0.13 -6.38,0.12 -0.2,0.05 -0.33,0.14 -0.54,0.21 -0.07,0.03 -0.21,0.07 -0.27,0.08 -0.35,0.11 -0.56,0.01 -1.02,0.08l-6.43 0.16c-0.34,0 -0.42,-0.05 -0.68,-0.1 -1.06,-0.17 -0.93,-0.87 -1.76,-1.04 -0.53,-0.1 -0.94,-0.04 -1.31,-0.03 -0.95,0 -1.38,0.01 -1.13,1.52 0.06,0.31 -0.02,1.34 0.2,1.79 0.2,0.43 0.31,0.41 0.36,0.99 0.25,2.92 -1.1,1.18 -1.1,3.61 0,0.45 0.02,0.85 0.18,1.2 0.37,0.8 0.34,1.39 0.29,2.37 -0.02,0.42 -0.45,1.14 -0.27,2.35 0.08,0.59 -0.03,0.61 0.31,1.03 1.12,1.34 0.27,2.58 0.27,4.49 0,0.98 -0.1,1.59 -0.1,2.53 0,1.68 -0.22,1.18 -0.71,2.03 -0.33,0.55 -0.13,3.11 -0.13,3.83z"/>
  <path class="fil0" d="M34.75 52.62c0.35,2.78 3.13,5.11 6.64,4.75 3.07,-0.32 5.61,-2.77 5.26,-5.97 -0.3,-2.73 -3.13,-5.08 -6.6,-4.74 -3.07,0.3 -5.71,2.8 -5.3,5.96z"/>
  <path class="fil0" d="M58.73 33.5c0.29,2.79 2.99,5.13 6.46,4.89 3.16,-0.22 5.74,-2.71 5.48,-5.83 -0.24,-2.79 -3,-5.17 -6.5,-4.91 -3.1,0.23 -5.76,2.72 -5.44,5.85z"/>
  <path class="fil2" d="M78.11 31.72c-0.09,0.24 -1.11,1.34 -1.34,1.55l-1.2 1.03c-0.11,0.1 -0.22,0.23 -0.33,0.35 -0.14,0.14 -0.33,0.24 -0.42,0.33 -0.12,0.12 -0.05,0.12 -0.14,0.25 -0.11,0.15 -0.71,0.53 -0.96,0.82 -0.15,0.16 -0.19,0.23 -0.36,0.38 -0.46,0.43 -0.79,0.92 -1.03,1.09 -0.09,0.07 -1.13,1.24 -1.44,1.46 -0.58,0.43 -1.05,0.94 -1.42,1.49 -0.19,0.26 -0.97,0.69 -1.29,0.95l-1.07 1.05c-0.34,0.3 -0.31,0.45 -0.55,0.86 -0.11,0.18 -0.45,0.59 -0.51,0.96 -0.1,0.62 0.2,1.69 1.34,1.53 0.58,-0.08 1.11,-0.74 1.98,-0.98 0.92,-0.25 2.06,-1 2.74,-1.62 0.14,-0.13 0.22,-0.19 0.37,-0.36 0.13,-0.15 0.27,-0.21 0.41,-0.34 0.45,-0.41 0.98,-1.21 1.38,-1.53 0.54,-0.43 0.95,-0.98 1.41,-1.49 0.24,-0.26 0.48,-0.44 0.72,-0.71 0.12,-0.13 0.21,-0.26 0.34,-0.4 0.53,-0.54 0.24,-0.18 0.86,-0.91 0.13,-0.15 0.08,-0.11 0.21,-0.14 0.04,-0.17 0.64,-0.88 0.83,-1.08l0.05 -0.05c0.47,-0.45 0.24,-0.29 0.64,-0.74 0.22,-0.26 0.17,-0.11 0.33,-0.35 0.12,-0.17 0.2,-0.23 0.32,-0.38l0.6 -0.72c0.2,-0.24 0.45,-0.98 0.72,-1.32 0.52,-0.66 0.2,-0.31 0.55,-0.82 0.22,-0.33 0.36,-0.63 -0.03,-0.87 0.19,-0.25 0.21,-0.27 0.34,-0.63 0.19,-0.5 0.15,-0.38 -0.29,-0.35 -0.01,-0.14 0,-0.09 -0.05,-0.19 0.13,-0.16 0.13,-0.04 0.3,-0.33 0.21,-0.35 0.54,-0.43 0.58,-0.7 0.11,-0.72 -0.15,0.02 0.3,-1 0.16,-0.37 0.55,-0.99 -0.03,-1.34 -0.13,0.08 -0.18,0.19 -0.28,0.31 -0.14,0.16 -0.19,0.12 -0.27,0.18 -0.14,0.12 0,0.1 -0.21,0.28 -0.12,0.1 -0.7,0.76 -1.11,1.11 -0.33,0.3 -0.82,0.94 -1.22,1.29l-0.9 1.02c-0.33,0.43 0.03,0.2 -0.69,0.88l-0.15 0.15c-0.01,0.01 -0.02,0.02 -0.03,0.03z"/>
  <path class="fil3" d="M57.98 49.57c-0.04,-0.36 0.03,-0.19 0.21,-0.46 0.17,-0.26 0.1,-0.15 0.3,-0.34 0.66,-0.65 0.15,-0.3 0.34,-0.85 0.05,-0.14 0.31,-0.55 0.42,-0.9 0.13,-0.37 0.15,-0.65 -0.13,-0.91 -0.23,0.09 -0.92,0.85 -1.09,1.04 -0.72,0.83 -1.41,1.47 -2.06,2.17 -0.61,0.66 -1.24,1.51 -1.9,2.27l-1 1.12c-0.55,0.49 -0.35,0.2 -1.15,0.98l-1.61 1.55c-0.62,0.48 -2.4,2.48 -3.15,3.16l-1.58 1.58 -0.9 0.69c-0.13,0.12 -0.14,0.14 -0.26,0.24 -0.71,0.56 -1.31,1.39 -1.81,2.35 -0.28,0.55 -0.06,1.2 0.3,1.54 0.79,0.75 1.94,-0.37 2.29,-0.52l1.14 -0.47c0.14,-0.07 0.19,-0.13 0.32,-0.19 0.38,-0.19 0.05,0.14 0.73,-0.32 0.25,-0.17 0.46,-0.25 0.7,-0.4 0.37,-0.26 3.17,-3.33 3.58,-3.76 0.34,-0.36 0.68,-0.79 1.01,-1.11l1.03 -1.09c0.17,-0.2 0.35,-0.36 0.53,-0.56 0.16,-0.18 0.32,-0.36 0.48,-0.54 1.1,-1.23 1.87,-2.13 2.68,-3.55 0.13,-0.22 0.26,-0.42 0.4,-0.66 0.09,-0.16 0.34,-0.52 0.39,-0.65 0.14,-0.34 -0.24,-0.27 -0.12,-0.71 0.06,-0.21 0.22,-0.44 0.3,-0.7l-0.39 0z"/>
  <path class="fil4" d="M27.86 55.59c0.16,0.09 1.23,1.26 1.51,1.53 0.15,0.14 0.27,0.23 0.42,0.37l1.12 1.15c0.14,0.14 0.27,0.23 0.42,0.37l1.04 1.22c0.24,0.26 0.55,0.46 0.73,0.79 0.36,0.66 0.29,0.78 0.48,1.03 0.62,0.83 1.78,1.32 2.7,1.92 0.25,0.17 0.72,0.4 1.05,0.52 0.39,0.13 0.8,0.3 1.28,0.14 0.47,-0.16 0.7,-0.27 0.91,-0.63 0.19,-0.33 0.28,-0.77 0.11,-1.16 -0.13,-0.32 -1.16,-1.16 -1.51,-1.55 -0.49,-0.54 -1.01,-0.85 -1.49,-1.57 -0.16,-0.24 -1.45,-1.27 -1.59,-1.47 -0.15,-0.23 -0.17,-0.26 -0.34,-0.44 -0.16,-0.17 -0.23,-0.18 -0.42,-0.33l-0.75 -0.77c-0.36,-0.43 -0.99,-1.04 -1.47,-1.59l-1.51 -1.54c-0.29,-0.26 -0.61,-0.45 -0.81,-0.73 -0.32,-0.45 -0.71,-0.85 -1.12,-1.19 -0.18,-0.15 -0.2,-0.24 -0.37,-0.38 -0.18,-0.15 -0.26,-0.17 -0.44,-0.35 -0.14,-0.15 -0.23,-0.26 -0.34,-0.4 -0.34,-0.42 -0.63,-0.49 -0.81,-0.72l-0.34 -0.26c-0.01,0 -0.02,-0.01 -0.03,-0.02 -0.57,-0.47 -0.41,0.01 -1.42,-1.21 -0.24,-0.29 -0.5,-0.38 -0.63,-0.5 -0.39,-0.37 -0.69,-0.79 -1.03,-1.18 -0.09,-0.11 -1.01,-0.95 -1.23,-1 -0.13,0.07 -0.06,0.05 -0.21,0.09 0.02,0.73 0.32,0.67 0.43,0.88 0.28,0.58 -0.17,0.81 -0.17,0.99 0.06,0.23 -0.03,-0.05 0.08,0.12l0.05 0.11c0.11,0.43 -0.07,0.64 0.29,0.85 -0.06,0.1 -0.08,0.11 -0.11,0.24 0.55,0.33 0.05,0.44 0.46,0.95 0.17,0.21 0.06,0.25 0.26,0.46 0.24,0.26 0.13,0.26 0.31,0.47 0.13,0.14 0.23,0.22 0.37,0.37 0.07,0.08 0.12,0.11 0.2,0.19 0.21,0.2 0.25,0.35 0.62,0.57 0.23,0.14 1.02,0.93 1.2,1.12 0.22,0.23 0.86,0.99 1,1.26 0.2,0.4 0.12,0.18 0.35,0.44 0.25,0.3 0.44,0.58 0.75,0.84z"/>
  <path class="fil5" d="M47.03 27.73c-0.22,-0.21 -0.38,-0.43 -0.56,-0.61 -0.38,-0.36 -0.46,-0.41 -0.72,-0.3 -0.04,0.13 0.03,0.34 0.07,0.46 0.09,0.3 0.11,0.15 0.27,0.32 0.2,0.23 0.19,0.59 0.01,0.84 -0.31,0.46 -0.15,0.43 0,0.83 0.07,0.18 0.05,0.25 0.14,0.44 0.31,0.64 0.34,1.14 0.39,1.29l1.93 2.11c0.13,0.11 0.21,0.16 0.32,0.27 0.2,0.21 0.41,0.37 0.62,0.56l0.83 0.95c0.07,0.09 0.12,0.22 0.2,0.33 0.27,0.39 0.75,0.91 1.11,1.21 0.21,0.17 0.38,0.41 0.56,0.61 0.19,0.21 0.4,0.35 0.6,0.54l1.14 1.23c0.12,0.13 0.19,0.13 0.33,0.27 0.08,0.08 0.06,0.07 0.15,0.14 0.53,0.45 0.75,0.93 1.29,1.33 1.45,1.08 1.63,2.7 2.49,3.24l1.47 0.87c0.87,0.52 2.44,1.66 3.4,0.78 1.34,-1.22 0.05,-2.1 -0.7,-2.78 -0.74,-0.67 -0.49,-0.37 -1.19,-1.13 -0.44,-0.48 -0.67,-0.62 -1.16,-1.16 -0.23,-0.26 -0.44,-0.38 -0.6,-0.58 -0.24,-0.29 -0.35,-0.39 -0.57,-0.62 -0.58,-0.64 -0.92,-0.9 -1.46,-1.45l-1.4 -1.5c-0.13,-0.11 -0.22,-0.13 -0.36,-0.25 -0.45,-0.4 -1.02,-1.23 -1.41,-1.49 -0.5,-0.33 -0.68,-0.88 -1.1,-1.22 -0.17,-0.13 -0.14,-0.11 -0.29,-0.29l-1.51 -1.41c-0.24,-0.24 -0.42,-0.26 -0.64,-0.51 -0.5,-0.58 -0.81,-0.62 -1.32,-1.01l-2.33 -2.31z"/>
  <path class="fil6" d="M63.23 77.99l0.62 0 0 -2.81 1.87 2.54c0.28,0.38 0.11,0.31 0.89,0.31l0 -3.7 -0.62 0 0 2.81 -0.5 -0.67c-0.16,-0.22 -1.48,-1.98 -1.53,-2.14l-0.73 0 0 3.66z"/>
  <path class="fil6" d="M69.11 77.99l0.63 0 0 -2.81 1.06 1.43c0.1,0.14 0.94,1.42 1.13,1.42l0.57 0 0 -3.7 -0.63 0 0 2.81 -0.5 -0.67c-0.16,-0.22 -1.48,-1.98 -1.53,-2.14l-0.73 0 0 3.66z"/>
  <path class="fil6" d="M31.98 76.16c0,-0.79 0.51,-1.41 1.25,-1.41 0.52,0 0.8,-0.02 1.21,0.36 0.74,0.69 0.55,2.46 -1.06,2.46 -0.87,0 -1.4,-0.6 -1.4,-1.41zm-0.63 -0.14c0,0.82 0.28,1.57 1.18,1.9 0.52,0.19 0.81,0.18 1.32,0.11 1.7,-0.23 2.35,-2.69 0.58,-3.6 -0.36,-0.19 -0.78,-0.19 -1.2,-0.19 -1.04,0 -1.88,0.91 -1.88,1.78z"/>
  <path class="fil6" d="M41.04 76.21c0,-0.57 0.19,-1.1 0.71,-1.33 0.87,-0.39 2.15,0.05 2.15,1.14 0,0.44 -0.04,0.85 -0.4,1.18 -0.71,0.66 -2.46,0.47 -2.46,-0.99zm-0.62 -0.19c0,0.88 0.29,1.57 1.17,1.9 2.33,0.84 3.78,-1.67 2.44,-3.09 -0.49,-0.52 -1.02,-0.59 -1.74,-0.59 -1.02,0 -1.87,0.88 -1.87,1.78z"/>
  <path class="fil6" d="M73.23 76.02c0,0.6 0.08,1.13 0.56,1.56 0.65,0.58 1.76,0.6 2.59,0.29 0.16,-0.05 0.17,-0.08 0.34,-0.12l0 -1.64 -1.72 0c0,0.65 -0.19,0.52 1.14,0.52 0,0.65 0.17,0.94 -0.83,0.94 -0.85,0 -1.46,-0.56 -1.46,-1.18 0,-0.46 -0.02,-0.91 0.35,-1.28 0.78,-0.76 2.04,-0.12 2.26,-0.08 0.06,-0.12 0.15,-0.33 0.15,-0.51 -0.22,-0.05 -0.29,-0.13 -0.52,-0.19 -1.43,-0.36 -2.86,0.29 -2.86,1.69z"/>
  <path class="fil6" d="M60.62 76.11l-0.31 0 0 -1.31c0.87,0 1.51,-0.05 1.51,0.7 0,0.53 -0.73,0.61 -1.2,0.61zm-0.93 1.88l0.62 0 0 -1.41 0.68 0c0.04,0.16 0.34,0.56 0.46,0.71 0.17,0.24 0.31,0.47 0.48,0.7l0.67 0c-0.09,-0.36 -0.96,-1.21 -0.99,-1.55 0.75,-0.16 1.08,-1.03 0.64,-1.65 -0.05,-0.08 -0.02,-0.04 -0.06,-0.09 -0.48,-0.53 -1.49,-0.37 -2.5,-0.37l0 3.66z"/>
  <path class="fil6" d="M57.45 74.99c0.12,0.48 0.54,1.31 0.57,1.59l-1.25 0c0.02,-0.26 0.35,-0.92 0.46,-1.22 0.07,-0.19 0.06,-0.27 0.22,-0.37zm-1.88 3l0.63 0c0,-0.05 0.24,-0.94 0.46,-0.94 2.28,0 1.34,-0.15 1.98,0.94l0.58 0c-0.03,-0.26 -0.57,-1.49 -0.71,-1.85 -0.08,-0.2 -0.12,-0.23 -0.19,-0.44l-0.56 -1.37 -0.73 0 -1.11 2.71c-0.1,0.22 -0.33,0.72 -0.35,0.95z"/>
  <path class="fil6" d="M52.65 77.99l2.61 0 0 -0.47 -1.98 0 0 -1.13 1.51 0c0.24,0 0.24,-0.51 0,-0.51l-1.51 0 0 -1.08 1.98 0 0 -0.47 -2.61 0 0 3.66z"/>
  <path class="fil6" d="M45.81 77.99l-0.02 -1.18c0,-0.04 0,-0.14 0,-0.18 0.01,-0.07 0,-0.02 0.01,-0.09 0.07,-0.27 1.13,-0.14 1.65,-0.12l0 -0.45 -1.57 0 0 -1.17 1.93 0 0 -0.47 -2.55 0 0 3.66 0.55 0z"/>
  <path class="fil6" d="M37.08 76.58l0 1.41 0.63 0 0 -1.41c0,-0.18 0.22,-0.4 0.31,-0.56l1.04 -1.69 -0.68 0c-0.07,0.27 -0.86,1.32 -0.93,1.6l-0.11 0c-0.04,-0.16 -0.36,-0.63 -0.47,-0.8 -0.16,-0.25 -0.34,-0.56 -0.52,-0.8l-0.67 0c0.22,0.38 0.45,0.72 0.69,1.11 0.1,0.16 0.71,1.06 0.71,1.14z"/>
  <polygon class="fil6" points="49.43,77.99 51.98,77.99 51.98,77.52 50.05,77.52 50.05,74.33 49.43,74.33 "/>
  <path class="fil6" d="M30 76.91c0,0.58 -0.52,0.77 -1.07,0.59 -0.2,-0.06 -0.22,-0.13 -0.39,-0.17 -0.06,0.11 -0.1,0.35 -0.1,0.52 1.24,0.59 2.13,-0.09 2.13,-0.66l0 -2.86 -0.57 0 0 2.58z"/>
  <polygon class="fil6" points="67.55,77.99 68.18,77.99 68.18,74.33 67.55,74.33 "/>
  <path class="fil6" d="M45.81 77.99c0.16,-0.09 0.07,-0.56 0.07,-0.71l0 -0.79 1.57 -0.07c-0.52,-0.02 -1.58,-0.15 -1.65,0.12 -0.01,0.07 0,0.02 -0.01,0.09 0,0.04 0,0.14 0,0.18l0.02 1.18z"/>
  <path class="fil6" d="M209.38 53.65c-0.52,-0.04 0.07,-0.12 -0.94,0.01 0.5,-0.9 2.85,-6.12 3.05,-6.87l0.87 0c0.03,0.3 0.53,1.37 0.68,1.74 0.54,1.38 1.3,2.87 1.9,4.23 0.13,0.3 0.32,0.6 0.39,0.89l-1.16 -0.07c-0.36,0 -0.32,0.06 -0.65,0.07 -0.12,-0.22 -0.7,-1.79 -0.73,-2.03l-2.61 0 -0.8 2.03zm-53.06 0c-0.52,-0.04 0.07,-0.12 -0.95,0.01l2.67 -5.97c0.13,-0.32 0.22,-0.63 0.38,-0.9l0.8 0c0.12,0.45 1.98,4.6 2.24,5.17l0.81 1.69 -1.09 -0.07c-0.4,0 -0.43,0.07 -0.8,0.07 -0.02,-0.28 -0.26,-0.8 -0.35,-1.06 -0.47,-1.25 0.13,-0.97 -2.77,-0.97 -0.29,0 -0.44,0.71 -0.54,0.96 -0.14,0.39 -0.3,0.69 -0.4,1.07zm31.65 0.13c-2.71,0 -4.14,-1.19 -4.14,-3.53 0,-2.29 1.78,-3.46 4.35,-3.46 2.49,0 3.92,1.28 3.92,3.53 0,2.15 -1.74,3.46 -4.13,3.46zm-9.44 -5.62l0 4.38c0,0.47 0.07,0.65 0.07,1.11l-1.16 -0.07c-0.36,0 -0.32,0.06 -0.65,0.07 0,-0.8 0.07,-1.35 0.07,-2.16l0 -2.54c0,-0.77 -0.07,-1.28 -0.07,-2.03l1.01 0.07c0.41,0 0.43,-0.07 0.8,-0.07 0,0.5 -0.07,0.73 -0.07,1.24zm-82.54 0l0 4.12c0,0.55 0.08,0.83 0.08,1.37l-1.17 -0.07c-0.36,0 -0.32,0.06 -0.65,0.07 0,-0.76 0.07,-1.27 0.07,-2.03l0 -2.67c0,-0.77 -0.07,-1.28 -0.07,-2.03l1.02 0.07c0.4,0 0.43,-0.07 0.8,-0.07 0,0.5 -0.08,0.73 -0.08,1.24zm37.6 -1.24l2.84 0c2.85,0 2.58,2.21 1.79,2.86 -0.39,0.31 -0.76,0.34 -1.21,0.54 0.06,0.22 0.43,0.64 0.58,0.85 0.2,0.27 0.39,0.52 0.61,0.82l1.2 1.66 -1.09 -0.07c-0.4,0 -0.43,0.07 -0.79,0.07 -0.63,-1.06 -1.09,-1.59 -1.65,-2.44 -0.14,-0.21 -0.43,-0.65 -0.61,-0.76 0,0.54 0.01,1.09 0,1.63 0,0.6 0.08,0.95 0.08,1.57l-1.09 -0.07c-0.37,0 -0.33,0.06 -0.66,0.07 0,-0.38 0.06,-0.48 0.08,-0.78 0.01,-0.28 -0.02,-0.58 0,-0.86 0.08,-1.3 0.13,-1.92 0,-3.33 -0.03,-0.29 0.01,-0.62 0,-0.91 -0.01,-0.34 -0.08,-0.45 -0.08,-0.85zm17.06 0.85l0 5.29c0,0.33 0.07,0.29 0.08,0.59 -0.46,-0.1 -0.49,-0.1 -0.95,0 -0.24,-0.33 -2.03,-2.02 -2.35,-2.39 -0.2,-0.23 -0.38,-0.36 -0.61,-0.57l-1.16 -1.17c-0.19,-0.2 -0.43,-0.43 -0.67,-0.57l0 4.7c-0.45,-0.1 -0.42,-0.1 -0.87,0 0,-0.71 0.07,-1.18 0.07,-1.9l0 -2.67c0,-0.81 -0.07,-1.36 -0.07,-2.16 1.14,0 1.09,-0.13 1.65,0.48l2.29 2.31c0.2,0.21 0.42,0.35 0.61,0.56l1.19 1.16 0 -4.51 0.87 0c0,0.37 -0.08,0.45 -0.08,0.85zm46.54 -0.85c1.74,0 0.86,-0.19 2.52,1.32l1.92 1.93c0.42,0.39 1.02,1.05 1.36,1.26l0 -2.29c0,-0.83 -0.07,-1.43 -0.07,-2.22l0.87 0 -0.07 5.03c0,0.65 0.07,1.05 0.07,1.7 -0.36,-0.16 -0.6,-0.03 -0.94,0 -0.21,-0.35 -0.3,-0.33 -0.56,-0.61 -0.12,-0.13 -0.12,-0.16 -0.26,-0.29l-3.61 -3.55c-0.14,-0.16 -0.11,-0.19 -0.36,-0.25l0 3.52c-0.01,0.5 0.07,0.71 0.07,1.18 -0.44,-0.09 -0.5,-0.09 -0.94,0l0 -6.73zm-25.48 0.85c-0.33,-0.14 -1.61,-0.13 -2.11,-0.13l0 4.37c0,0.64 0.07,1.01 0.07,1.64l-1.16 -0.07c-0.36,0 -0.32,0.06 -0.65,0.07 0.2,-0.38 0.14,-5.33 0.14,-6.01 -0.49,0 -1.78,-0.01 -2.1,0.13l0 -0.85 3.41 0.07c0.89,0 1.51,-0.07 2.4,-0.07 -0.01,0.23 -0.03,0.21 -0.02,0.36 0,0.17 0.02,0.32 0.02,0.49zm50.01 1.63l0 2.22c0,0.56 0.07,0.83 0.07,1.38l1.24 -0.07c0.47,0 0.7,-0.07 1.23,-0.07 0,0.27 -0.03,0.54 0.07,0.79 -0.5,0 -0.7,-0.07 -1.23,-0.07l-1.96 0c-0.48,0 -0.63,0.07 -1.09,0.07l0.15 -4.12c0,-0.39 -0.07,-0.47 -0.08,-0.84 0,-0.31 0.02,-0.62 0.01,-0.92 -0.01,-0.33 -0.08,-0.45 -0.08,-0.85 0.37,0 0.39,0.07 0.87,0.07 0.45,0 0.53,-0.07 0.95,-0.07 -0.08,0.81 -0.15,1.58 -0.15,2.48zm-97.63 -2.48l4.21 0c-0.07,0.27 -0.15,0.51 0,0.78l-2.47 -0.06 0 2.15c0.46,0 0.6,-0.06 1.09,-0.06l1.3 0 0 0.78 -2.39 -0.13 0 2.55c1.1,0 1.48,-0.06 2.47,-0.13 -0.15,0.56 -0.05,0.34 0,0.85l-3.13 -0.07c-0.48,0 -0.62,0.07 -1.08,0.07 0.18,-2.01 0.14,-2.8 0.14,-4.83 0,-0.37 -0.05,-1.71 -0.14,-1.9zm-10.2 0.78c-0.22,0.12 -0.42,0.06 -0.71,0.09l0.01 -0.94 1.07 0.07c1.32,0.23 3.41,0 4.82,0 -0.13,0.51 -0.01,0.41 0,0.85 -0.32,-0.14 -1.57,-0.13 -2.11,-0.13l0 4.51c0,0.59 0.07,0.93 0.07,1.5 -0.31,-0.01 -0.45,-0.07 -0.87,-0.07 -0.42,0 -0.62,0.06 -0.94,0.07 0.21,-2.32 0.11,-3.25 0.15,-5.49 0.01,-0.47 0.09,-0.52 -0.43,-0.53 -0.37,0 -0.8,-0.01 -1.06,0.07zm-12.31 -0.78c1.9,0 1.01,-0.01 2.53,1.32l3.28 3.19 0 -4.51 0.87 0c-0.15,0.59 -0.18,6.39 0,6.73 -0.45,-0.1 -0.49,-0.1 -0.94,0 -0.17,-0.23 -0.4,-0.36 -0.6,-0.58 -0.21,-0.24 -0.38,-0.37 -0.58,-0.59 -0.73,-0.82 -2.2,-2.17 -3.02,-2.96 -0.22,-0.22 -0.32,-0.49 -0.67,-0.57l0 2.35c0,0.87 0.08,1.5 0.08,2.35 -0.3,-0.06 -0.57,-0.13 -0.88,0 0,-0.89 0.21,-6.17 -0.07,-6.73zm-10.76 -1.63l0 10.25 136.49 0 0 -10.25 -136.49 0z"/>
  <path class="fil6" d="M137.01 67.43c0,1.47 -0.08,2.75 -0.08,4.18 0,0.76 -0.07,1.33 -0.07,2.09l-0.14 2.02c0.97,0 1.16,-0.23 2.77,-0.07 0.31,0.03 0.67,0.07 0.93,0.07 0,-0.32 -0.05,-0.33 -0.07,-0.59l-0.08 -7.51c0.79,0 1.31,-0.06 2.11,-0.06l2.25 0c0.8,0 1.31,0.06 2.1,0.06l0 4.51c0,1.28 -0.14,2.36 -0.14,3.59 0.25,0 0.54,-0.04 0.86,-0.07 1.94,-0.13 1.41,0.05 2.77,0.07 0,-1.09 -0.15,-2.07 -0.15,-3.13 0.01,-1.09 -0.07,-2.06 -0.07,-3.2l0 -3.86c0,-1.16 0.07,-2.15 0.07,-3.26 0,-1.11 0.15,-2.13 0.15,-3.27 -0.97,0 -1.13,0.23 -2.7,0.08 -0.31,-0.03 -0.67,-0.08 -0.93,-0.08 0,1.31 0.14,2.49 0.14,3.86l0 2.94 -4.06 0.06c-0.89,0 -1.51,-0.06 -2.4,-0.06 0,-1.5 -0.06,-3.88 0.07,-5.3 0.03,-0.25 -0.01,-0.52 0.01,-0.78 0.02,-0.26 0.07,-0.36 0.07,-0.72 -0.63,0 -1.18,0.13 -1.89,0.13 -0.71,0 -1.19,-0.13 -1.81,-0.13l0.14 2.03c0,0.79 0.08,1.33 0.07,2.09 0,1.48 0.08,2.79 0.08,4.31z"/>
  <path class="fil6" d="M117.19 33.53c0,-1.8 0.32,-3.52 0.94,-4.77 0.56,-1.11 1.72,-2.48 3.49,-2.48 1.08,0 1.82,0.06 2.7,0.77 0.55,0.44 0.88,0.91 1.22,1.52 1.69,3.03 1.9,12.21 -3.7,12.21 -3.81,0 -4.65,-4.48 -4.65,-7.25zm4.5 8.69c2.75,0 4.9,-0.87 6.21,-2.38 1.93,-2.22 2.21,-3.93 2.21,-6.83 0,-3.17 -1.41,-6.29 -4.31,-7.49 -2.17,-0.91 -5.22,-0.89 -7.38,-0.02 -3.04,1.23 -4.37,4.05 -4.7,6.87 -0.04,0.33 0.02,0.69 -0.03,1.02 -0.13,1.05 0.12,2.63 0.38,3.54 0.87,3.16 3.48,5.29 7.62,5.29z"/>
  <path class="fil6" d="M193.7 67.43c0,-2.27 0.54,-6.08 3.17,-7.08 2.12,-0.8 4.1,0.11 5.08,1.88 1.07,1.91 1.12,3.43 1.12,5.72 0,1.62 -0.45,3.38 -1.07,4.47 -1.32,2.34 -4.15,2.82 -5.96,1.46 -1.81,-1.38 -2.34,-4.12 -2.34,-6.45zm4.65 8.62c5.28,0 8.27,-3.88 8.27,-8.1 0,-1.86 -0.03,-3.39 -0.81,-5.08 -1.12,-2.47 -3.36,-4.19 -6.81,-4.19 -1.75,0 -2.84,0.1 -4.4,0.8 -2.58,1.16 -3.89,3.57 -4.28,6.08l-0.18 1.87c-0.02,0.42 0.07,0.56 0.08,0.91 0.06,2.01 0.57,3.75 1.88,5.29 0.61,0.72 1.52,1.34 2.5,1.75 0.93,0.39 2.41,0.67 3.75,0.67z"/>
  <path class="fil6" d="M165.9 67.36c0,-2 0.35,-3.93 1.45,-5.61 0.55,-0.83 1.57,-1.51 2.83,-1.64 3.78,-0.38 5.08,3.69 5.08,6.41 0,2.34 0.06,3.87 -1.11,5.98 -1.88,3.4 -8.25,3.45 -8.25,-5.14zm-3.49 -0.52c0,2.37 0.01,3.85 1.29,5.97 0.7,1.16 1.93,2.14 3.31,2.63 0.5,0.19 1.02,0.35 1.62,0.44 2.94,0.47 6.2,-0.14 8.01,-2.25 0.34,-0.39 0.6,-0.67 0.9,-1.15 1.05,-1.71 1.16,-2.93 1.28,-4.79 0.06,-0.85 0.01,-1.82 -0.16,-2.67 -0.41,-2.22 -1.54,-4.48 -3.81,-5.52 -3.31,-1.5 -7.95,-1 -10.27,1.58 -1.35,1.51 -2.17,3.66 -2.17,5.76z"/>
  <path class="fil6" d="M213.08 32.09l0 3.34c0,1.16 -0.07,2.16 -0.07,3.26 0,1.1 -0.14,2.13 -0.14,3.2 0.26,-0.02 0.69,-0.12 0.94,-0.12 0.25,0 0.68,0.1 0.94,0.12 0,-1.97 -0.07,-3.75 -0.07,-5.75l0 -5.87c0.28,0.17 4.45,5.36 4.78,5.75l4.66 5.87c0.29,0 0.7,-0.11 0.95,-0.12 0.27,0 0.7,0.12 1.01,0.12 -0.29,-3.07 -0.23,-7.29 -0.22,-10.45 0,-0.44 0.07,-0.73 0.07,-1.24 0,-0.85 0,-1.7 0,-2.55l0.07 -1.89c0.01,-0.32 0.07,-0.3 0.08,-0.59l-1.09 0.07c-0.41,0 -0.43,-0.07 -0.8,-0.07 0,1.91 0.07,3.59 0.07,5.49l0 5.62 -7.31 -8.97c-0.21,-0.25 -0.37,-0.46 -0.57,-0.73 -0.38,-0.5 -0.75,-0.92 -1.12,-1.41l-1.45 0.07c-0.44,0 -0.53,-0.07 -0.94,-0.07 0,1.17 0.14,2.26 0.14,3.4 0,1.2 0.07,2.27 0.07,3.52z"/>
  <path class="fil6" d="M103.83 28.44c0.21,0.16 0.34,0.53 0.49,0.77l0.14 -0.4c0.04,-0.24 -0.04,-0.18 0.1,-0.36l0.27 -1.07c0.1,-0.38 0.22,-0.67 0.31,-1.03 -1.81,-1.09 -2.67,-1.22 -4.68,-1.48 -1.82,-0.23 -4.28,0.35 -5.31,0.92 -3.07,1.67 -4.17,4.54 -4.17,7.68 0.01,3.74 1.35,6.45 3.97,7.86 2.51,1.34 6.35,0.92 9.2,0.06 0.41,-0.12 0.81,-0.26 1.21,-0.35l-0.02 -3.35c0.07,-0.44 0.02,-1.19 0.02,-1.68l0.07 -1.69c-0.4,0 -0.43,0.05 -0.8,0.06 -0.28,0.01 -0.59,0 -0.87,0 -0.29,0 -0.59,0.01 -0.87,0 -0.37,0 -0.51,-0.06 -0.87,-0.06l0.09 1.35c0.09,0.61 0.05,3.7 0.05,4.46 -1.33,0.8 -3.67,0.9 -5.26,-0.17 -1.33,-0.9 -1.99,-2.61 -2.21,-4.08 -0.36,-2.31 -0.26,-4.97 0.8,-7.12 0.23,-0.47 0.55,-0.81 0.9,-1.21 1.38,-1.6 4.82,-1.63 6.41,-0.21 0.18,0.16 0.39,0.33 0.54,0.5 0.17,0.2 0.28,0.46 0.49,0.6z"/>
  <path class="fil6" d="M142.96 33.27l-0.51 0 0 -5.03c0,-0.63 0.07,-1.01 0.07,-1.63 0.3,-0.02 0.18,-0.07 0.66,-0.07 3.29,0 2.6,4.52 1.91,5.64 -0.35,0.57 -1.18,1.09 -2.13,1.09zm-3.7 -1.24l0 3.33c0,1.17 -0.08,2.16 -0.07,3.27 0,1.1 -0.15,2.13 -0.15,3.26l1.81 -0.13c0.36,0 0.45,0.06 0.88,0.07 0.41,0 0.5,0.06 0.94,0.06 0,-0.33 -0.07,-0.45 -0.07,-0.85 0,-0.51 -0.15,-1.81 -0.15,-2.68l0 -3.72c0.29,0.02 0.18,0.07 0.36,0.07 4.16,0 6.32,-1.49 6.32,-5.23 0,-1.3 -0.37,-2.64 -1.43,-3.42 -1.17,-0.86 -2.56,-0.89 -4.23,-0.89 -0.67,0 -1.05,0.07 -1.67,0.07l-1.96 0c-0.4,0 -0.43,-0.07 -0.8,-0.07 0,1.19 0.15,2.24 0.15,3.4 -0.01,1.17 0.07,2.23 0.07,3.46z"/>
  <path class="fil6" d="M160.89 29.87c0.2,0.14 0.45,0.98 0.55,1.27l1.15 3.48c0.08,0.27 0.18,0.47 0.19,0.74l-3.78 0c0.04,-0.38 0.76,-2.37 0.89,-2.79 0.24,-0.8 0.86,-2.16 1,-2.7zm-6.03 12.02l1.31 -0.06c0.37,0 0.33,0.06 0.65,0.06 0.14,-0.24 0.29,-0.88 0.4,-1.21l0.77 -2.45c0.09,-0.32 0.33,-0.94 0.36,-1.24 0.6,0 0.91,-0.06 1.52,-0.06l2.18 0c0.57,0 0.83,0.06 1.38,0.06 0.16,0.61 1.37,4.45 1.38,4.9 0.51,0 0.71,-0.06 1.23,-0.06l1.53 0c0.48,0 0.63,0.06 1.09,0.06 -0.16,-0.29 -0.25,-0.67 -0.4,-1.02 -0.47,-1.1 -1.12,-2.98 -1.57,-4.2 -0.13,-0.35 -0.26,-0.69 -0.4,-1.07 -0.27,-0.73 -0.5,-1.41 -0.76,-2.13l-1.85 -5.32c-0.23,-0.61 -0.92,-2.93 -1.12,-3.31 -0.5,0.04 -0.23,0.07 -1.02,0.07 -0.36,0 -0.32,-0.06 -0.65,-0.07l-0.68 2.2c-0.25,0.76 -0.48,1.41 -0.71,2.17l-3.85 10.58c-0.12,0.34 -0.24,0.67 -0.39,1.02l-0.4 1.08z"/>
  <path class="fil6" d="M197.48 29.87c0.18,0.13 0.21,0.35 0.3,0.58 0.08,0.22 0.16,0.44 0.25,0.69 0.19,0.51 1.32,3.76 1.33,4.22l-3.77 0c0.06,-0.67 1.88,-5.37 1.89,-5.49zm-6.03 12.02l1.31 -0.06c0.36,0 0.32,0.06 0.65,0.06l0.4 -1.2c0.14,-0.44 0.27,-0.83 0.38,-1.23l0.75 -2.47c0.6,0 0.91,-0.06 1.52,-0.06l2.18 0c0.57,0 0.82,0.06 1.38,0.06l1.45 4.9c0.46,0 0.6,-0.06 1.09,-0.06l1.45 0c0.53,0 0.73,0.06 1.23,0.06l-1.58 -4.19c-0.98,-2.64 -2.14,-5.8 -3.04,-8.5 -0.24,-0.74 -0.46,-1.43 -0.72,-2.16 -0.19,-0.51 -0.57,-1.85 -0.75,-2.2 -0.5,0.04 -0.23,0.07 -1.02,0.07 -0.37,0 -0.33,-0.06 -0.65,-0.07l-0.68 2.2c-0.14,0.37 -0.22,0.7 -0.35,1.06l-4.19 11.71c-0.14,0.34 -0.25,0.66 -0.4,1.01 -0.16,0.36 -0.31,0.69 -0.41,1.07z"/>
  <path class="fil6" d="M91.13 63.12c0,0.87 -0.05,1.61 0.28,2.42 1.07,2.65 4.83,3.67 5.82,5.09 0.98,1.41 0.28,3.85 -2.04,3.85 -0.88,0 -1.73,-0.48 -2.15,-0.93 -0.4,-0.42 -0.9,-1.38 -0.97,-2.07l-0.36 0c0,1.01 -0.65,2.8 -0.65,3.46 0.36,0.09 1.13,1.11 3.77,1.11 5.69,0 6.53,-5.75 4.8,-8.36 -1.45,-2.18 -5.89,-2.81 -5.89,-5.16 0,-0.93 0.2,-1.75 1.16,-2.16 1.46,-0.61 2.97,0.35 3.51,1.36 0.08,0.14 0.15,0.32 0.2,0.47 0.11,0.3 0.01,0.32 0.43,0.33 0,-0.65 0.64,-2.19 0.65,-2.74 -1.32,-0.8 -1.77,-1.11 -3.62,-1.11 -1.99,0 -3.75,1.07 -4.48,2.64 -0.2,0.43 -0.46,1.23 -0.46,1.8z"/>
  <path class="fil6" d="M111.75 67.04c0,2.01 0.22,3.69 1.18,5.4 2.17,3.87 7.69,4.48 11.19,2.6 0.37,-0.2 0.31,-0.21 0.4,-0.63 0.09,-0.45 0.35,-1.18 0.36,-1.63 -0.63,0 -0.68,0.51 -1.93,1.14 -0.89,0.44 -1.6,0.63 -2.71,0.63 -3.68,0 -5.01,-3.54 -5.01,-6.92l0 -0.79c0,-3.2 1.34,-6.66 4.79,-6.66 0.77,0 1.1,0.02 1.83,0.25 0.69,0.23 1.43,0.81 1.8,1.38 0.23,0.36 0.31,0.75 0.51,1.11 0.13,-0.06 0.09,-0.05 0.29,-0.06 0.09,-1.04 0.34,-2.09 0.58,-3.01 -0.25,-0.05 -0.28,-0.11 -0.48,-0.21 -0.2,-0.1 -0.31,-0.12 -0.51,-0.2 -3.15,-1.32 -7,-1.03 -9.59,1.14 -0.45,0.38 -1.31,1.46 -1.62,2.01 -0.7,1.23 -1.08,3.05 -1.08,4.45z"/>
  <path class="fil6" d="M176.71 32.03l0 3.26c0,1.19 -0.07,2.21 -0.07,3.34 0,1.12 -0.14,2.12 -0.14,3.26 0.98,0 1.84,-0.13 2.9,-0.13l2.32 0c1.18,0 2.17,0.13 3.27,0.13 0,-0.45 -0.07,-0.69 -0.08,-1.04 0,-0.36 0.08,-0.6 0.08,-1.05 -0.76,0 -1.59,0.19 -2.4,0.2l-2.54 0.13c0,-0.42 -0.07,-0.55 -0.07,-0.98l-0.07 -7.45c0,-1.16 0.07,-2.15 0.07,-3.26 0,-1.11 0.15,-2.14 0.15,-3.27 -0.54,0.01 -1.06,0.13 -2.11,0.13 -0.62,0 -1.02,-0.12 -1.52,-0.13 0,1.19 0.14,2.21 0.14,3.4 0,1.16 0.07,2.23 0.07,3.46z"/>
  <path class="fil6" d="M219.04 64.62l0 5.62c0,0.99 -0.08,1.81 -0.08,2.74 0.01,0.93 -0.14,1.79 -0.14,2.74 0.63,0 1.37,-0.13 2.03,-0.13l2.18 -0.06c0.36,0.02 0.55,0.07 1.01,0.06 0.39,0 0.78,0 1.17,0 0.64,0.01 1.45,0.13 2.1,0.13l0 -2.09c-0.77,0 -2.6,0.27 -3.63,0.27 -0.55,-0.01 -0.82,0.06 -1.3,0.06 0,-0.51 -0.08,-0.8 -0.08,-1.24 0,-0.43 0.01,-0.87 0.01,-1.31 -0.01,-0.41 -0.08,-0.73 -0.08,-1.24 0.01,-3.73 -0.05,-7.51 0.29,-11.17 -0.63,0 -1.17,0.13 -1.89,0.13 -0.7,0 -1.19,-0.13 -1.81,-0.13 0,0.93 0.15,1.83 0.14,2.75 0,0.98 0.08,1.83 0.08,2.87z"/>
  <path class="fil6" d="M185.57 49.99c0,0.86 0.02,1.75 0.61,2.46 1.2,1.43 4.18,1.15 4.18,-2.2 0,-1.34 -0.68,-2.94 -2.18,-2.94 -0.9,0 -1.44,0.12 -2.03,0.85 -0.32,0.4 -0.58,1.13 -0.58,1.83z"/>
  <path class="fil6" d="M90.82 45.29l136.49 0 0 10.25 -136.49 0 0 -10.25zm0 0c-0.16,0.32 -0.05,9.13 -0.05,10.32l136.61 0 0 -10.39 -135.53 0c-0.17,0 -0.34,0 -0.51,0 -0.06,0 -0.22,0 -0.28,0.01 -0.24,0.03 -0.06,-0.03 -0.24,0.06z"/>
  <path class="fil6" d="M135.26 50.12c1.07,0 1.82,-0.21 1.82,-1.44 0,-1.21 -0.9,-1.24 -1.82,-1.24l0 2.68z"/>
  <path class="fil6" d="M157.4 51.04l1.97 0c-0.07,-0.27 -0.76,-2.12 -1.02,-2.29l-0.5 1.12c-0.12,0.27 -0.42,0.88 -0.45,1.17z"/>
  <path class="fil6" d="M210.47 51.04l1.96 0c-0.01,-0.34 -0.26,-0.84 -0.39,-1.15 -0.16,-0.38 -0.38,-0.76 -0.48,-1.14 -0.23,0.15 -0.49,0.82 -0.6,1.09 -0.17,0.38 -0.32,0.87 -0.49,1.2z"/>
  <path class="fil6" d="M104.56 28.45c-0.14,0.18 -0.06,0.12 -0.1,0.36l-0.14 0.4c-0.15,-0.24 -0.28,-0.61 -0.49,-0.77 0.06,0.21 0.14,0.3 0.24,0.5 0.15,0.27 0.07,0.32 0.42,0.35 0,-0.38 0.07,-0.45 0.07,-0.84z"/>
  <path class="fil6" d="M113.89 47.7l-0.62 0 0 -0.78 0.99 0 -1.07 -0.07 -0.01 0.94c0.29,-0.03 0.49,0.03 0.71,-0.09z"/>
  <polygon class="fil1" points="240.82,15.57 245.01,15.57 245.01,81.75 240.82,81.75 "/>
  <polygon class="fil1" points="4.92,15.57 9.11,15.57 9.11,81.75 4.92,81.75 "/>
 </g>
</svg>
