<?xml version="1.0" encoding="UTF-8"?>
<!DOCTYPE svg PUBLIC "-//W3C//DTD SVG 1.1//EN" "http://www.w3.org/Graphics/SVG/1.1/DTD/svg11.dtd">
<!-- Creator: CorelDRAW 2019 (64-Bit) -->
<svg xmlns="http://www.w3.org/2000/svg" xml:space="preserve" width="250px" height="100px" version="1.1" style="shape-rendering:geometricPrecision; text-rendering:geometricPrecision; image-rendering:optimizeQuality; fill-rule:evenodd; clip-rule:evenodd"
viewBox="0 0 250 100"
 xmlns:xlink="http://www.w3.org/1999/xlink"
 xmlns:xodm="http://www.corel.com/coreldraw/odm/2003">
 <defs>
  <style type="text/css">
   <![CDATA[
    .str0 {stroke:#383336;stroke-width:0.9;stroke-miterlimit:2.61313}
    .fil0 {fill:#FEFEFE}
    .fil3 {fill:#F2A838}
    .fil2 {fill:#BDD63F}
    .fil1 {fill:#14A958}
    .fil4 {fill:#FEFEFE;fill-rule:nonzero}
    .fil5 {fill:#BDD63F;fill-rule:nonzero}
   ]]>
  </style>
 </defs>
 <g id="Layer_x0020_1">
  <metadata id="CorelCorpID_0Corel-Layer"/>
  <rect class="fil0" x="0.44" y="0.37" width="250" height="100"/>
  <g id="_1896969383184">
   <path class="fil1" d="M123.29 6.79c23.79,0 43.08,19.29 43.08,43.09 0,23.79 -19.29,43.08 -43.08,43.08 -23.8,0 -43.09,-19.29 -43.09,-43.08 0,-23.8 19.29,-43.09 43.09,-43.09z"/>
   <path class="fil2" d="M123.29 6.07c24.19,0 43.81,19.62 43.81,43.81 0,24.19 -19.62,43.81 -43.81,43.81 -24.19,0 -43.81,-19.62 -43.81,-43.81 0,-24.19 19.62,-43.81 43.81,-43.81zm0 1.35c23.44,0 42.45,19.01 42.45,42.46 0,23.44 -19.01,42.45 -42.45,42.45 -23.45,0 -42.46,-19.01 -42.46,-42.45 0,-23.45 19.01,-42.46 42.46,-42.46z"/>
   <path class="fil0 str0" d="M123.29 23.82c14.39,0 26.06,11.66 26.06,26.06 0,14.39 -11.67,26.06 -26.06,26.06 -14.4,0 -26.06,-11.67 -26.06,-26.06 0,-14.4 11.66,-26.06 26.06,-26.06z"/>
   <path class="fil2" d="M123.29 23.17c14.74,0 26.7,11.96 26.7,26.71 0,14.74 -11.96,26.7 -26.7,26.7 -14.75,0 -26.71,-11.96 -26.71,-26.7 0,-14.75 11.96,-26.71 26.71,-26.71zm0 1.37c13.99,0 25.33,11.35 25.33,25.34 0,13.99 -11.34,25.33 -25.33,25.33 -13.99,0 -25.34,-11.34 -25.34,-25.33 0,-13.99 11.35,-25.34 25.34,-25.34z"/>
   <path class="fil3" d="M127.37 34.26c-2.66,-0.34 -4.88,-0.15 -6.75,0.48 -0.33,0.11 -0.56,0.4 -0.87,0.54 -0.48,0.21 -0.96,0.34 -1.38,0.59 -1.05,0.62 -1.99,1.42 -2.85,2.36 -0.09,0.09 -0.15,0.41 -0.24,0.51 -0.26,0.3 -0.61,0.49 -0.86,0.79 -0.56,0.66 -0.97,1.49 -1.46,2.33 -1.93,3.99 -3.75,12.27 -2.02,19.08 0.09,0.32 0.5,0.64 0.67,0.56 -0.51,-3.86 -0.75,-8.36 0.22,-12.55 0.33,-1.39 0.87,-2.44 1.48,-3.84 0.5,-1.16 0.96,-2.4 1.7,-3.53 2.44,-4.16 6.04,-6.98 14.12,-5.35 -0.04,-0.29 -0.01,-0.57 -0.1,-0.87 -0.03,-0.1 -0.2,-0.19 -0.26,-0.27 -0.32,-0.41 -0.89,-0.77 -1.4,-0.83zm-12.81 -1.73c-0.03,0.31 0.85,0.24 1.13,0.24 0.5,0 1.36,0.04 1.85,0.16 0.31,0.07 0.68,-0.18 1.01,-0.18 0.15,0 0.68,-0.03 0.68,-0.16 0,-0.04 -0.35,-0.03 -0.39,-0.03 -0.85,0 -2.17,0.14 -2.96,-0.05 -0.21,-0.04 -0.56,-0.03 -0.78,-0.03 -0.08,0 -0.2,0.01 -0.29,0.01 -0.02,0 -0.23,0.06 -0.25,0.04zm-6.24 5.59c0,0.67 0.82,0.03 1.09,-0.1 0.28,-0.12 0.8,-0.27 1.08,-0.4 0.27,-0.12 0.58,-0.37 0.97,-0.37 0.12,0 0.52,-0.39 0.65,-0.45 0.18,-0.09 0.52,-0.25 0.7,-0.25 0.31,0 -0.27,-0.15 -0.4,-0.03 -0.21,0.21 -0.83,0.12 -1.07,0.37 -0.3,0.31 -1.16,0.31 -1.46,0.61 -0.19,0.19 -1.56,0.43 -1.56,0.62zm-4.16 8.51c0.27,0 1.98,-1.23 2.2,-1.44 0.49,-0.49 1.44,-0.7 1.9,-1.17 0.86,-0.85 2.5,-1.04 3.42,-1.95 0.95,-0.95 -1.01,-0.07 -1.5,0.18 -1.01,0.49 -2.66,0.82 -3.51,1.68 -0.4,0.4 -1.01,0.77 -1.32,1.38 -0.12,0.28 -0.49,0.4 -0.7,0.61 0,0 -0.67,0.8 -0.49,0.71zm4.25 3.3c-0.28,0.34 -0.34,0.71 -0.58,0.95 -0.09,0.1 -0.61,0.65 -0.68,0.68 -0.06,0.02 -0.48,0.61 -0.52,0.67 -0.06,0.16 -0.21,0.37 -0.21,0.64l0 0.31c0,0.28 0.18,-0.31 0.18,-0.31 0,-0.58 0.98,-1.04 1.23,-1.52 0.06,-0.13 0.52,-0.59 0.52,-0.71 0,-0.06 0.12,-0.43 0.12,-0.43 0.15,-0.06 0.09,-0.28 -0.06,-0.28zm6.51 1.44c-0.31,0.46 0.15,0.65 0.15,1.02 0,0.33 0.03,0.67 0.18,0.82 0,0 -0.12,1.53 -0.12,1.78 0,1.92 0.65,-0.83 0.31,-1.17 -0.15,-0.15 0,-1.04 -0.22,-1.25 -0.09,-0.09 -0.02,-0.43 -0.09,-0.58 -0.06,-0.16 -0.27,-0.41 -0.21,-0.62zm4.77 -10.07c0.58,0.28 1.13,3.24 1.13,4.1 0,0.74 0.09,2.39 -0.18,2.97 -0.18,0.37 -0.13,0.67 0.21,0.34 0.1,-0.09 0.4,-1.8 0.49,-2.08 0.43,-1.32 -0.83,-5.33 -1.65,-5.33zm5.6 -3.87c-0.18,1.19 0.74,2.47 0.74,3.61 0,0.83 0.6,1.95 0.6,2.65 0,1.47 0.27,0.17 0.27,-0.5 0,-0.25 0.24,-1.72 0.09,-1.89 -0.43,-0.42 -0.24,-1.69 -0.61,-2.05 -0.13,-0.14 -1.09,-1.62 -1.09,-1.82zm4.42 -2.84c-5.98,-6.26 -16.16,-4.85 -18.93,-2.69 0.16,0.71 1.46,1.15 2.27,1.8 0.23,0.16 0.19,0.55 -0.11,0.55 -4.16,-0.19 -9.5,3.27 -9.8,6.69 1.12,0.49 1.88,0.34 2.68,1.07 -0.05,0.26 -0.17,0.36 -0.33,0.41 -2.31,0.61 -4.99,5.26 -4.9,8.64 0.94,-0.05 2.65,-0.61 3.15,-0.47 -1.59,3.02 -0.98,6.78 0.09,9.87 0.85,-0.9 1.73,-1.33 2.68,-0.74 2.79,2.25 3.8,6.9 7.2,8.73 -0.06,-0.86 -0.16,-1.79 0.42,-1.47 1.8,1 3.01,2.18 8.61,2.02 -5.36,-2.69 -7,-7.11 -6.96,-11.72 0.24,-0.46 1.27,-0.18 2.26,0.06 -1.05,-2.12 -0.56,-7.25 1.71,-8.23 0.91,-0.14 1.46,1.56 2.01,3.35 2.19,-1.85 3.59,-6.45 4.42,-7 0.61,0.03 0.68,2.8 1.85,3.69 1.84,-1.94 2.86,-5.84 1.54,-8.83 0.64,0.12 1.09,0.26 1.73,0.6 0.5,-4.25 -1.05,-5.65 -1.59,-6.33z"/>
   <path class="fil1" d="M131.45 47.5c0.31,-0.46 -0.15,-0.65 -0.15,-1.01 0,-0.34 -0.03,-0.67 -0.19,-0.83 0,0 0.13,-1.53 0.13,-1.77 0,-1.93 -0.64,0.82 -0.31,1.16 0.16,0.15 0,1.04 0.22,1.26 0.09,0.08 0.03,0.42 0.09,0.57 0.06,0.16 0.28,0.4 0.21,0.62zm-4.77 10.45c-0.57,-0.27 -1.13,-3.24 -1.13,-4.1 0,-0.74 -0.09,-2.39 0.19,-2.97 0.18,-0.37 0.12,-0.68 -0.22,-0.34 -0.09,0.09 -0.4,1.81 -0.49,2.08 -0.43,1.32 0.83,5.33 1.65,5.33zm-5.6 3.76c0.18,-1.19 -0.73,-2.46 -0.73,-3.61 0,-0.83 -0.61,-1.94 -0.61,-2.64 0,-1.48 -0.27,-0.18 -0.27,0.49 0,0.25 -0.24,1.73 -0.08,1.89 0.42,0.42 0.24,1.69 0.6,2.05 0.13,0.14 1.09,1.61 1.09,1.82zm10.94 4.62c0.04,-0.29 -0.84,-0.22 -1.12,-0.22 -0.5,0 -1.37,-0.05 -1.85,-0.17 -0.31,-0.07 -0.67,0.18 -1.01,0.18 -0.16,0 -0.67,0.03 -0.67,0.16 0,0.04 0.34,0.03 0.38,0.03 0.85,0 2.17,-0.13 2.97,0.06 0.19,0.03 0.55,0.02 0.77,0.02 0.08,0 0.21,-0.01 0.29,-0.01 0.03,0 0.23,-0.06 0.24,-0.05zm6.2 -5.68c0,-0.67 -0.82,-0.03 -1.1,0.09 -0.27,0.12 -0.79,0.28 -1.07,0.4 -0.28,0.12 -0.58,0.36 -0.98,0.36 -0.12,0 -0.52,0.4 -0.64,0.46 -0.18,0.1 -0.52,0.25 -0.7,0.25 -0.31,0 0.27,0.15 0.4,0.03 0.21,-0.21 0.82,-0.12 1.06,-0.37 0.31,-0.3 1.16,-0.3 1.47,-0.61 0.19,-0.18 1.56,-0.43 1.56,-0.61zm3.99 -8.46c-0.27,0 -1.98,1.22 -2.19,1.44 -0.49,0.48 -1.44,0.7 -1.9,1.16 -0.86,0.86 -2.51,1.04 -3.42,1.96 -0.96,0.95 1,0.07 1.49,-0.18 1.01,-0.49 2.66,-0.83 3.52,-1.69 0.4,-0.39 1.01,-0.77 1.32,-1.37 0.12,-0.28 0.48,-0.4 0.69,-0.62 0,0 0.68,-0.79 0.49,-0.7zm-4.35 -3.15c0.27,-0.33 0.33,-0.7 0.58,-0.94 0.09,-0.1 0.61,-0.65 0.67,-0.68 0.06,-0.03 0.49,-0.61 0.52,-0.68 0.06,-0.14 0.21,-0.36 0.21,-0.64l0 -0.3c0,-0.27 -0.18,0.3 -0.18,0.3 0,0.59 -0.98,1.05 -1.22,1.54 -0.06,0.12 -0.52,0.58 -0.52,0.7 0,0.06 -0.13,0.43 -0.13,0.43 -0.15,0.06 -0.08,0.27 0.07,0.27zm-20.63 14.86c0.9,1.53 3.87,4.53 5.85,5.02 5.09,1.28 12.23,0.98 13.15,-1.17 -0.16,-0.71 -1.26,-1.09 -2.06,-1.74 -0.23,-0.17 -0.16,-0.37 0.13,-0.35 4.17,0.17 9,-3.36 9.29,-6.78 -1.1,-0.49 -1.81,-0.18 -2.6,-0.9 0.04,-0.27 0.17,-0.37 0.33,-0.41 2.31,-0.61 4.75,-5.43 4.67,-8.8 -0.94,0.04 -2.59,0.81 -3.09,0.67 1.59,-3.03 0.8,-6.86 0.03,-9.92 -0.85,0.89 -1.73,1.32 -2.69,0.73 -2.79,-2.25 -3.24,-6.76 -6.64,-8.59 0.06,0.86 0.16,1.8 -0.42,1.46 -1.8,-0.99 -2.18,-1.94 -7.78,-1.78 5.11,3.06 6,4.92 5.99,9.4 0,0.06 0,0.12 -0.01,0.18 -0.37,-0.16 -0.86,-0.42 -1.86,-0.65 1.26,3.05 0.18,7.56 -1.45,8.81 -0.62,-0.12 -0.96,-2.14 -1.76,-3.79 -1.79,1.73 -2.4,5.26 -4.48,7.05 -0.1,-0.42 -0.69,-3.04 -2.04,-3.41 -2.14,1.13 -3.11,5.41 -1.79,8.4 -0.85,-0.51 -1.78,-0.33 -2.24,-0.24 -0.24,2.98 0.72,5.59 1.29,6.52 -0.05,-0.25 -0.04,-0.5 -0.08,-0.75 8.08,1.63 11.69,-1.19 14.12,-5.35 0.75,-1.13 1.21,-2.38 1.71,-3.54 0.6,-1.39 1.15,-2.44 1.47,-3.83 0.98,-4.19 0.73,-8.7 0.22,-12.55 0.17,-0.08 0.59,0.24 0.67,0.56 1.73,6.82 -0.08,15.09 -2.01,19.08 -0.49,0.83 -0.91,1.67 -1.47,2.33 -0.25,0.29 -0.59,0.49 -0.86,0.79 -0.08,0.1 -0.15,0.42 -0.24,0.51 -0.86,0.94 -1.8,1.73 -2.85,2.36 -0.41,0.25 -0.91,0.38 -1.38,0.59 -0.31,0.13 -0.54,0.43 -0.87,0.53 -1.87,0.64 -4.08,0.83 -6.75,0.49 -0.51,-0.07 -1.08,-0.42 -1.39,-0.83 -0.03,-0.04 -0.07,-0.07 -0.11,-0.1z"/>
   <path class="fil4" d="M132.14 16.47c-0.07,0.6 -0.24,1.15 -0.51,1.62 -0.27,0.48 -0.6,0.86 -1,1.17 -0.42,0.32 -0.88,0.54 -1.39,0.67 -0.52,0.13 -1.06,0.17 -1.63,0.1 -0.57,-0.07 -1.09,-0.22 -1.56,-0.47 -0.47,-0.23 -0.85,-0.54 -1.17,-0.91 -0.31,-0.38 -0.54,-0.83 -0.69,-1.36 -0.15,-0.53 -0.17,-1.11 -0.09,-1.75 0.07,-0.61 0.24,-1.15 0.51,-1.62 0.27,-0.48 0.6,-0.86 1,-1.18 0.4,-0.31 0.86,-0.53 1.38,-0.66 0.51,-0.13 1.05,-0.16 1.63,-0.09 0.57,0.07 1.09,0.22 1.56,0.46 0.46,0.23 0.86,0.54 1.17,0.91 0.31,0.39 0.55,0.84 0.69,1.36 0.15,0.53 0.18,1.1 0.1,1.75zm-1.96 -0.19c0.05,-0.37 0.04,-0.72 -0.01,-1.02 -0.06,-0.32 -0.16,-0.61 -0.32,-0.84 -0.14,-0.24 -0.34,-0.44 -0.59,-0.59 -0.24,-0.14 -0.53,-0.24 -0.86,-0.28 -0.66,-0.08 -1.19,0.08 -1.6,0.49 -0.4,0.39 -0.66,0.96 -0.75,1.69 -0.04,0.36 -0.04,0.71 0.03,1.02 0.04,0.32 0.15,0.6 0.3,0.85 0.15,0.24 0.35,0.44 0.59,0.58 0.24,0.15 0.53,0.25 0.86,0.29 0.32,0.04 0.62,0.02 0.9,-0.07 0.26,-0.08 0.5,-0.23 0.7,-0.42 0.21,-0.19 0.37,-0.44 0.5,-0.72 0.12,-0.3 0.21,-0.62 0.25,-0.98z"/>
   <path class="fil4" d="M134.74 21.78l-1.79 -0.8 3.14 -7.06 2.84 1.26c0.93,0.42 1.55,0.94 1.86,1.55 0.31,0.62 0.3,1.27 0,1.96 -0.21,0.48 -0.52,0.83 -0.91,1.07 -0.41,0.24 -0.89,0.35 -1.44,0.32l0.56 3.6 -2.02 -0.9 -0.36 -3.01 -0.85 -0.29 -1.03 2.3zm2.5 -3.26c0.4,0.14 0.73,0.18 1.01,0.1 0.28,-0.08 0.49,-0.29 0.64,-0.62 0.28,-0.63 -0.03,-1.13 -0.92,-1.52l-0.76 -0.34 -0.89 2 0.92 0.38z"/>
   <polygon class="fil4" points="114.24,12.83 116.02,12.36 118.04,19.89 116.02,20.43 111.56,16.37 112.86,21.2 111.08,21.68 109.08,14.22 111.13,13.67 115.54,17.68 "/>
   <path class="fil4" d="M145.49 27.94c-0.47,-0.08 -0.96,-0.22 -1.45,-0.45 -0.5,-0.23 -0.96,-0.52 -1.41,-0.87 -0.49,-0.38 -0.88,-0.8 -1.17,-1.26 -0.29,-0.45 -0.48,-0.93 -0.55,-1.43 -0.07,-0.48 -0.04,-0.99 0.12,-1.51 0.14,-0.52 0.41,-1.03 0.8,-1.52 0.39,-0.5 0.81,-0.89 1.28,-1.16 0.47,-0.28 0.95,-0.44 1.47,-0.49 0.5,-0.07 1.02,-0.01 1.53,0.16 0.51,0.17 1.03,0.46 1.52,0.84 0.2,0.16 0.4,0.33 0.58,0.51 0.19,0.19 0.37,0.37 0.54,0.57 0.17,0.21 0.33,0.41 0.46,0.63 0.13,0.21 0.22,0.41 0.3,0.61l-1.5 0.92c-0.32,-0.8 -0.77,-1.42 -1.36,-1.88 -0.55,-0.44 -1.11,-0.61 -1.69,-0.52 -0.59,0.08 -1.1,0.4 -1.55,0.98 -0.48,0.61 -0.7,1.19 -0.67,1.77 0.03,0.57 0.34,1.1 0.92,1.55 0.17,0.13 0.36,0.25 0.57,0.35 0.19,0.1 0.38,0.17 0.55,0.22l0.7 -0.89 -1.51 -1.18 0.97 -1.23 2.9 2.26 -2.35 3.02z"/>
   <path class="fil4" d="M110.31 22.14l-1.66 1.04 -1.35 -1.1 -2.44 1.52 0.4 1.69 -1.65 1.04 -1.77 -8.01 2.09 -1.3 6.38 5.12zm-6.64 -3.17l0.74 3.11 1.71 -1.07 -2.45 -2.04z"/>
   <path class="fil4" d="M150.34 35.35l-1.15 -1.58 0.99 -1.43 -1.68 -2.32 -1.66 0.52 -1.15 -1.58 7.87 -2.32 1.44 1.99 -4.66 6.72zm2.7 -6.84l-3.05 0.95 1.18 1.63 1.87 -2.58z"/>
   <polygon class="fil4" points="99.69,30.46 94.13,25.09 95.5,23.68 99.88,27.9 102.13,25.57 103.31,26.72 "/>
   <polygon class="fil4" points="159.88,38.3 160.57,40 153.34,42.93 152.56,40.99 156.05,36.07 151.41,37.95 150.72,36.24 157.88,33.34 158.68,35.31 155.23,40.18 "/>
   <path class="fil4" d="M98.98 30.98l-0.98 1.69 -1.71 -0.33 -1.43 2.48 1.15 1.31 -0.98 1.69 -5.32 -6.24 1.23 -2.13 8.04 1.53zm-7.35 0.31l2.11 2.4 1.01 -1.74 -3.12 -0.66z"/>
   <polygon class="fil4" points="153.38,44.58 161.04,43.51 161.31,45.46 153.66,46.53 "/>
   <path class="fil4" d="M90.22 36.31c0.87,0.25 1.45,0.73 1.75,1.42 0.3,0.7 0.29,1.59 -0.01,2.66l-0.2 0.73 2.15 0.61 -0.54 1.89 -7.43 -2.13 0.79 -2.74c0.15,-0.53 0.34,-0.97 0.58,-1.33 0.25,-0.35 0.51,-0.63 0.81,-0.84 0.3,-0.2 0.64,-0.33 0.99,-0.37 0.36,-0.03 0.73,-0.01 1.11,0.1zm-0.5 1.91c-0.75,-0.22 -1.25,0.15 -1.52,1.1l-0.22 0.76 2.3 0.66 0.21 -0.76c0.13,-0.49 0.14,-0.87 0,-1.17 -0.14,-0.28 -0.39,-0.49 -0.77,-0.59z"/>
   <path class="fil4" d="M159.49 53.94c0.17,-0.28 0.31,-0.59 0.42,-0.92 0.11,-0.33 0.16,-0.68 0.17,-1.02 0.01,-0.67 -0.19,-1.21 -0.61,-1.61 -0.41,-0.41 -0.99,-0.62 -1.72,-0.63 -0.74,-0.02 -1.32,0.17 -1.76,0.55 -0.44,0.37 -0.66,0.91 -0.67,1.62 -0.01,0.38 0.05,0.74 0.15,1.09 0.11,0.34 0.26,0.67 0.44,0.96l-1.75 0.37c-0.15,-0.31 -0.28,-0.69 -0.39,-1.15 -0.09,-0.47 -0.13,-0.93 -0.12,-1.39 0.01,-0.62 0.11,-1.17 0.3,-1.68 0.18,-0.49 0.45,-0.92 0.79,-1.27 0.34,-0.35 0.76,-0.62 1.27,-0.8 0.5,-0.19 1.07,-0.28 1.73,-0.27 0.63,0.01 1.18,0.12 1.69,0.31 0.5,0.21 0.92,0.49 1.27,0.87 0.35,0.36 0.61,0.8 0.79,1.32 0.18,0.51 0.27,1.09 0.26,1.72 -0.01,0.47 -0.07,0.93 -0.19,1.37 -0.12,0.43 -0.26,0.83 -0.44,1.18l-1.63 -0.62z"/>
   <path class="fil4" d="M88.9 44.71c0.61,0.02 1.16,0.14 1.66,0.37 0.5,0.22 0.91,0.52 1.25,0.89 0.35,0.39 0.62,0.83 0.79,1.33 0.18,0.5 0.26,1.04 0.24,1.62 -0.02,0.57 -0.13,1.1 -0.33,1.58 -0.19,0.49 -0.47,0.9 -0.81,1.25 -0.35,0.35 -0.78,0.61 -1.29,0.81 -0.52,0.19 -1.09,0.27 -1.74,0.25 -0.61,-0.03 -1.16,-0.14 -1.66,-0.37 -0.5,-0.23 -0.91,-0.53 -1.26,-0.9 -0.34,-0.37 -0.6,-0.81 -0.78,-1.31 -0.17,-0.5 -0.25,-1.04 -0.23,-1.62 0.02,-0.58 0.13,-1.11 0.32,-1.6 0.19,-0.47 0.46,-0.9 0.81,-1.24 0.36,-0.35 0.79,-0.62 1.29,-0.81 0.51,-0.19 1.09,-0.27 1.74,-0.25zm-0.02 1.97c-0.37,-0.02 -0.72,0.02 -1.02,0.1 -0.31,0.09 -0.59,0.21 -0.8,0.39 -0.23,0.17 -0.41,0.38 -0.55,0.64 -0.12,0.25 -0.19,0.55 -0.2,0.88 -0.02,0.67 0.18,1.18 0.63,1.56 0.43,0.36 1.02,0.56 1.75,0.59 0.37,0.01 0.71,-0.03 1.01,-0.11 0.32,-0.08 0.59,-0.21 0.82,-0.38 0.23,-0.17 0.41,-0.38 0.53,-0.64 0.13,-0.26 0.21,-0.55 0.22,-0.88 0.01,-0.33 -0.04,-0.62 -0.16,-0.89 -0.1,-0.25 -0.27,-0.48 -0.47,-0.66 -0.21,-0.19 -0.47,-0.34 -0.76,-0.43 -0.31,-0.1 -0.64,-0.16 -1,-0.17z"/>
   <path class="fil4" d="M154.28 58.4c-0.09,0.34 -0.1,0.63 -0.04,0.87 0.06,0.24 0.21,0.39 0.44,0.46 0.13,0.03 0.25,0.02 0.35,-0.01 0.1,-0.05 0.21,-0.13 0.32,-0.24 0.09,-0.1 0.21,-0.25 0.32,-0.42 0.11,-0.18 0.23,-0.38 0.36,-0.61 0.15,-0.24 0.32,-0.49 0.5,-0.75 0.18,-0.25 0.4,-0.47 0.64,-0.66 0.23,-0.18 0.49,-0.32 0.79,-0.39 0.3,-0.09 0.64,-0.07 1.01,0.03 0.69,0.18 1.18,0.58 1.47,1.18 0.29,0.61 0.31,1.38 0.07,2.3 -0.16,0.59 -0.36,1.09 -0.6,1.52 -0.25,0.43 -0.51,0.79 -0.81,1.1l-1.47 -0.79c0.31,-0.32 0.57,-0.68 0.8,-1.08 0.24,-0.4 0.41,-0.79 0.51,-1.16 0.17,-0.65 0.05,-1.03 -0.37,-1.15 -0.12,-0.03 -0.24,-0.02 -0.35,0.04 -0.11,0.06 -0.23,0.14 -0.33,0.27 -0.1,0.12 -0.21,0.28 -0.32,0.45 -0.11,0.17 -0.24,0.36 -0.36,0.57 -0.16,0.26 -0.33,0.52 -0.51,0.77 -0.18,0.25 -0.39,0.46 -0.62,0.64 -0.24,0.18 -0.49,0.31 -0.78,0.37 -0.28,0.06 -0.61,0.05 -0.97,-0.04 -0.36,-0.1 -0.66,-0.26 -0.93,-0.47 -0.26,-0.21 -0.46,-0.48 -0.61,-0.79 -0.14,-0.32 -0.22,-0.69 -0.24,-1.09 -0.02,-0.41 0.04,-0.87 0.17,-1.36 0.15,-0.56 0.35,-1.07 0.62,-1.54 0.27,-0.48 0.54,-0.87 0.83,-1.16l1.49 0.78c-0.31,0.32 -0.57,0.68 -0.82,1.08 -0.25,0.39 -0.44,0.83 -0.56,1.28z"/>
   <path class="fil4" d="M92.31 54.2c0.31,0.36 0.59,0.77 0.83,1.26 0.25,0.49 0.43,1.01 0.56,1.56 0.14,0.61 0.18,1.18 0.11,1.72 -0.06,0.53 -0.22,1.02 -0.47,1.45 -0.25,0.43 -0.59,0.8 -1.04,1.1 -0.44,0.32 -0.97,0.54 -1.59,0.69 -0.61,0.14 -1.19,0.17 -1.73,0.09 -0.53,-0.08 -1.01,-0.26 -1.44,-0.54 -0.43,-0.27 -0.79,-0.64 -1.09,-1.1 -0.3,-0.45 -0.51,-0.99 -0.65,-1.61 -0.06,-0.24 -0.1,-0.5 -0.14,-0.75 -0.02,-0.27 -0.04,-0.53 -0.05,-0.79 0,-0.27 0,-0.52 0.03,-0.77 0.04,-0.25 0.09,-0.46 0.15,-0.67l1.75 0.23c-0.26,0.82 -0.3,1.59 -0.13,2.32 0.16,0.68 0.49,1.16 0.99,1.47 0.51,0.3 1.11,0.38 1.82,0.21 0.76,-0.17 1.3,-0.49 1.63,-0.96 0.34,-0.46 0.43,-1.06 0.27,-1.77 -0.05,-0.22 -0.13,-0.43 -0.22,-0.64 -0.09,-0.19 -0.19,-0.37 -0.29,-0.51l-1.11 0.25 0.43 1.86 -1.53 0.35 -0.83 -3.59 3.74 -0.86z"/>
   <polygon class="fil4" points="94.69,67.51 96.8,70.53 95.91,71.14 94.54,69.19 93.67,69.8 94.76,71.36 93.89,71.97 92.8,70.41 91.21,71.52 90.47,70.46 "/>
   <path class="fil4" d="M94.31 75.49l-0.9 -0.96 3.77 -3.51 1.41 1.51c0.46,0.5 0.71,0.98 0.74,1.44 0.03,0.46 -0.15,0.86 -0.51,1.2 -0.26,0.24 -0.53,0.37 -0.84,0.42 -0.31,0.04 -0.63,-0.02 -0.97,-0.18l-0.59 2.35 -1 -1.08 0.56 -1.93 -0.44 -0.41 -1.23 1.15zm2.38 -1.35c0.2,0.19 0.4,0.3 0.59,0.32 0.19,0.03 0.37,-0.04 0.55,-0.21 0.34,-0.31 0.28,-0.7 -0.16,-1.17l-0.38 -0.41 -1.07 1 0.47 0.47z"/>
   <polygon class="fil4" points="153.65,70.43 155.25,71.55 154.51,72.6 152.91,71.48 149.27,71.12 150.07,69.98 152.34,70.28 151.27,68.27 152.06,67.13 "/>
   <polygon class="fil4" points="97.39,78.6 100.63,74.6 103.55,76.96 102.9,77.78 100.97,76.22 100.34,76.99 101.89,78.25 101.23,79.06 99.68,77.8 99.05,78.59 100.97,80.15 100.31,80.96 "/>
   <polygon class="fil4" points="151.83,75.89 150.34,74.5 148.93,76.01 150.42,77.4 149.53,78.36 145.77,74.85 146.66,73.89 148.12,75.26 149.53,73.75 148.07,72.38 148.96,71.42 152.73,74.93 "/>
   <path class="fil4" d="M103.45 81.97c0.19,0.13 0.37,0.2 0.54,0.21 0.16,0 0.29,-0.06 0.38,-0.19 0.05,-0.08 0.07,-0.15 0.06,-0.22 -0.01,-0.08 -0.03,-0.16 -0.08,-0.25 -0.05,-0.08 -0.12,-0.19 -0.2,-0.29 -0.09,-0.11 -0.19,-0.22 -0.31,-0.36 -0.13,-0.14 -0.25,-0.3 -0.38,-0.47 -0.11,-0.16 -0.21,-0.34 -0.28,-0.54 -0.07,-0.18 -0.1,-0.38 -0.09,-0.58 0.01,-0.2 0.09,-0.42 0.23,-0.63 0.26,-0.4 0.61,-0.63 1.05,-0.69 0.44,-0.06 0.94,0.09 1.47,0.43 0.34,0.22 0.62,0.45 0.84,0.69 0.22,0.25 0.4,0.49 0.53,0.74l-0.8 0.77c-0.14,-0.26 -0.32,-0.5 -0.52,-0.73 -0.2,-0.23 -0.42,-0.42 -0.63,-0.56 -0.38,-0.25 -0.65,-0.24 -0.8,0 -0.05,0.07 -0.07,0.14 -0.05,0.22 0.01,0.09 0.04,0.18 0.1,0.27 0.06,0.09 0.13,0.19 0.22,0.3 0.09,0.1 0.18,0.22 0.29,0.34 0.13,0.16 0.26,0.32 0.38,0.48 0.12,0.17 0.21,0.35 0.28,0.53 0.06,0.19 0.09,0.37 0.07,0.57 -0.02,0.19 -0.09,0.4 -0.23,0.6 -0.13,0.21 -0.29,0.37 -0.48,0.49 -0.19,0.13 -0.4,0.2 -0.63,0.23 -0.23,0.02 -0.48,0 -0.74,-0.07 -0.26,-0.08 -0.54,-0.21 -0.83,-0.39 -0.32,-0.21 -0.6,-0.45 -0.84,-0.71 -0.25,-0.27 -0.44,-0.52 -0.56,-0.77l0.8 -0.77c0.13,0.25 0.31,0.49 0.51,0.73 0.2,0.24 0.43,0.45 0.7,0.62z"/>
   <polygon class="fil4" points="144.67,77.09 147.22,80.24 146.2,81.07 143.65,77.92 142.38,78.95 141.69,78.1 145.25,75.21 145.94,76.06 "/>
   <polygon class="fil4" points="109.07,85.92 109.93,84.07 108.06,83.2 107.2,85.05 106.01,84.5 108.18,79.83 109.37,80.39 108.53,82.2 110.4,83.07 111.24,81.26 112.43,81.81 110.26,86.48 "/>
   <polygon class="fil4" points="141.79,83.84 139.21,79.38 140.35,78.73 142.37,82.24 144.24,81.16 144.79,82.1 "/>
   <path class="fil4" d="M140.73 84.35l-1.18 0.55 -0.8 -0.84 -1.73 0.81 0.12 1.15 -1.18 0.55 -0.51 -5.44 1.48 -0.69 3.8 3.91zm-4.12 -2.64l0.23 2.12 1.21 -0.57 -1.44 -1.55z"/>
   <path class="fil4" d="M117.68 84.92c0.14,-0.07 0.27,-0.15 0.37,-0.24 0.11,-0.1 0.17,-0.22 0.19,-0.38 0.02,-0.18 -0.01,-0.32 -0.11,-0.43 -0.09,-0.12 -0.22,-0.19 -0.39,-0.21 -0.16,-0.02 -0.3,0.01 -0.41,0.1 -0.13,0.09 -0.19,0.21 -0.21,0.35 -0.03,0.17 0.02,0.33 0.13,0.45 0.1,0.13 0.25,0.25 0.43,0.36zm0.48 1.79c-0.16,-0.23 -0.33,-0.43 -0.51,-0.61 -0.18,-0.17 -0.35,-0.31 -0.52,-0.4 -0.19,0.07 -0.33,0.16 -0.46,0.28 -0.12,0.12 -0.19,0.26 -0.21,0.42 -0.03,0.21 0.02,0.38 0.14,0.53 0.12,0.14 0.29,0.23 0.49,0.26 0.2,0.02 0.39,-0.01 0.56,-0.09 0.17,-0.08 0.34,-0.22 0.51,-0.39zm0.4 0.7c-0.3,0.28 -0.61,0.47 -0.92,0.59 -0.33,0.12 -0.63,0.15 -0.93,0.11 -0.24,-0.04 -0.45,-0.1 -0.65,-0.2 -0.19,-0.1 -0.35,-0.22 -0.47,-0.36 -0.13,-0.14 -0.23,-0.31 -0.28,-0.49 -0.06,-0.18 -0.08,-0.38 -0.05,-0.58 0.03,-0.18 0.08,-0.34 0.17,-0.48 0.09,-0.14 0.2,-0.26 0.32,-0.36 0.12,-0.1 0.26,-0.18 0.41,-0.24 0.14,-0.05 0.3,-0.09 0.45,-0.11 -0.2,-0.15 -0.36,-0.33 -0.47,-0.56 -0.12,-0.21 -0.16,-0.45 -0.12,-0.71 0.02,-0.17 0.09,-0.34 0.18,-0.5 0.1,-0.16 0.23,-0.29 0.39,-0.41 0.15,-0.12 0.35,-0.2 0.56,-0.26 0.22,-0.05 0.47,-0.05 0.74,-0.02 0.23,0.04 0.45,0.1 0.65,0.19 0.18,0.08 0.34,0.19 0.47,0.32 0.12,0.13 0.22,0.27 0.28,0.44 0.06,0.16 0.07,0.33 0.05,0.52 -0.02,0.14 -0.06,0.27 -0.14,0.38 -0.07,0.12 -0.16,0.22 -0.26,0.3 -0.1,0.08 -0.22,0.15 -0.35,0.2 -0.13,0.05 -0.26,0.09 -0.39,0.11 0.08,0.05 0.19,0.14 0.3,0.27 0.12,0.12 0.23,0.24 0.33,0.37l0.59 -0.81 1.33 0.19 -1.38 1.36 1.01 1.69 -1.31 0.05 -0.51 -1z"/>
   <polygon class="fil4" points="131.4,87.75 129.98,82.8 133.6,81.76 133.89,82.77 131.51,83.45 131.78,84.41 133.7,83.86 133.99,84.86 132.07,85.41 132.35,86.39 134.73,85.7 135.02,86.71 "/>
   <polygon class="fil4" points="128.51,88.17 128.23,86.15 126.18,86.44 126.47,88.46 125.17,88.64 124.45,83.55 125.75,83.36 126.03,85.35 128.08,85.06 127.8,83.08 129.09,82.89 129.81,87.99 "/>
   <path class="fil5" d="M89.36 64.97l0.29 -0.9c0.67,0.24 1.16,0.44 1.47,0.61 -0.08,-0.76 -0.13,-1.29 -0.13,-1.58l0.92 0c-0.02,0.42 -0.06,0.95 -0.15,1.58 0.44,-0.22 0.94,-0.43 1.5,-0.61l0.29 0.9c-0.54,0.18 -1.06,0.29 -1.58,0.35 0.26,0.23 0.62,0.63 1.09,1.2l-0.76 0.54c-0.24,-0.33 -0.53,-0.79 -0.87,-1.36 -0.31,0.59 -0.59,1.05 -0.82,1.36l-0.75 -0.54c0.49,-0.6 0.84,-1 1.05,-1.2 -0.54,-0.1 -1.06,-0.22 -1.55,-0.35z"/>
   <path class="fil5" d="M152.85 64.97l0.29 -0.9c0.67,0.24 1.16,0.44 1.47,0.61 -0.08,-0.76 -0.13,-1.29 -0.13,-1.58l0.92 0c-0.01,0.42 -0.06,0.95 -0.15,1.58 0.44,-0.22 0.94,-0.43 1.5,-0.61l0.29 0.9c-0.54,0.18 -1.06,0.29 -1.58,0.35 0.26,0.23 0.62,0.63 1.09,1.2l-0.76 0.54c-0.24,-0.33 -0.53,-0.79 -0.87,-1.36 -0.31,0.59 -0.58,1.05 -0.82,1.36l-0.75 -0.54c0.49,-0.6 0.84,-1 1.05,-1.2 -0.54,-0.1 -1.06,-0.22 -1.55,-0.35z"/>
  </g>
 </g>
</svg>
